<?xml version="1.0" encoding="UTF-8"?>
<svg width="199px" height="232px" viewBox="0 0 199 232" version="1.1" xmlns="http://www.w3.org/2000/svg" xmlns:xlink="http://www.w3.org/1999/xlink">
    <!-- Generator: Sketch 52.6 (67491) - http://www.bohemiancoding.com/sketch -->
    <title>shape4</title>
    <desc>Created with Sketch.</desc>
    <g id="Page-1" stroke="none" stroke-width="1" fill="none" fill-rule="evenodd" fill-opacity="0.315840127">
        <path d="M174,1.44716336e-13 L151.109036,2.77224195e-13 C137.296952,9.27069721 123.106897,14.0984265 108.53887,14.4831879 C92.6500574,14.902833 69.1119815,-6.73960178 37.8836596,14.4831879 C6.65533763,35.7059775 -5.57069879,91.9955408 2.3389415,129.053307 C10.2485818,166.111072 52.8207456,164.931239 68.6986898,180.194859 C84.5766339,195.45848 76.2815236,215.5735 108.53887,227.644381 C130.043768,235.691634 150.736854,232.58807 170.618129,218.333688 C177.465914,209.81759 182.969222,201.332094 187.128053,192.8772 C191.286884,184.422306 195.2442,173.891473 199,161.284701 L199,25 C199,11.1928813 187.807119,-3.51960015e-14 174,-8.17124146e-14 Z" id="shape4" fill="#BFDDE8"></path>
    </g>
</svg>