<?xml version="1.0" encoding="UTF-8"?>
<svg width="44px" height="45px" viewBox="0 0 44 45" version="1.1" xmlns="http://www.w3.org/2000/svg" xmlns:xlink="http://www.w3.org/1999/xlink">
    <!-- Generator: Sketch 52.6 (67491) - http://www.bohemiancoding.com/sketch -->
    <title>bakery copy</title>
    <desc>Created with Sketch.</desc>
    <g id="Page-1" stroke="none" stroke-width="1" fill="none" fill-rule="evenodd" opacity="0.334263393">
        <g id="bakery-copy" transform="translate(0.000000, 0.800000)" fill="#BE8400" fill-rule="nonzero">
            <g id="Group" transform="translate(22.000000, 22.000000) scale(-1, 1) rotate(-180.000000) translate(-22.000000, -22.000000) ">
                <path d="M31.7695212,43.9398438 C29.2255116,43.5015625 27.0836479,41.9203125 25.9908603,39.6601563 C25.632426,38.9125 25.3351878,37.915625 23.7615736,32.140625 C22.7736936,28.4796875 21.943175,25.4632813 21.9256904,25.4460938 C21.9082058,25.4289063 21.6896483,25.5921875 21.4361216,25.8070313 C20.8416451,26.296875 19.8712498,26.915625 19.2592887,27.1820313 C17.7206438,27.8523438 16.6890523,28.015625 14.0488774,28.015625 L12.003179,28.015625 L11.7933638,27.8007813 C11.5310948,27.5515625 11.5136102,27.1648438 11.74091,26.8898438 C11.9070137,26.6835938 11.9244983,26.6835938 14.2586926,26.6320313 C16.2606795,26.5890625 16.6977946,26.5546875 17.2747864,26.4 C18.5511623,26.05625 19.7838267,25.3945313 20.7279952,24.5523438 C23.2457779,22.2835938 23.9888734,18.3476563 22.4502285,15.3570313 C21.9868865,14.4632813 21.8207828,14.2914063 21.1301411,13.9734375 C20.7717067,13.8015625 20.3608186,13.5867188 20.2209418,13.4835938 L19.9674151,13.3117188 L19.9674151,13.5351563 C19.9674151,13.6898438 20.1072919,13.9132813 20.3695609,14.2054688 C21.1738526,15.0820313 21.7595867,16.3195313 21.9868865,17.5914063 C22.1355057,18.4078125 22.0393404,19.9203125 21.8032982,20.6679688 C21.4448639,21.7765625 20.9640374,22.5757813 20.1422611,23.375 C19.0669581,24.4320313 18.0441089,24.9734375 16.6453408,25.23125 C16.0770912,25.334375 15.2203457,25.3515625 11.9507252,25.334375 C8.03417445,25.3085938 7.92926684,25.3 7.33479038,25.1023438 C5.45519571,24.4921875 4.07391218,23.30625 3.2608782,21.6132813 C2.82376316,20.6851563 2.66640175,20.0664063 2.59646334,18.9921875 C2.49155573,17.1703125 3.05980529,15.5460938 4.2487582,14.23125 L4.65964633,13.7671875 L4.68587324,8.79140625 L4.71210014,3.80703125 L4.97436916,3.39453125 C5.16669978,3.08515625 5.3677727,2.9046875 5.70872243,2.7328125 L6.17206438,2.4921875 L8.04291675,2.4921875 C9.07450825,2.4921875 9.91376912,2.4578125 9.91376912,2.41484375 C9.91376912,2.371875 10.0886151,2.10546875 10.3071727,1.81328125 L10.7093185,1.28046875 L7.28233658,1.30625 L3.86409696,1.33203125 L3.69799324,1.53828125 C3.54063183,1.72734375 3.53188953,1.959375 3.53188953,7.5796875 L3.53188953,13.4234375 L3.00735148,14.1109375 C2.36916352,14.9445313 1.86211007,15.9585938 1.59109875,16.9296875 C1.32008742,17.94375 1.32008742,19.7398438 1.59984105,20.7539063 C2.49155573,24.0195313 5.4114842,26.3914063 8.82098152,26.6148438 C9.47665408,26.6578125 9.6340155,26.7007813 9.80011921,26.8640625 C10.0711305,27.1304688 10.0623882,27.534375 9.78263461,27.8007813 C9.6077886,27.98125 9.48539638,28.015625 9.05702364,28.015625 C8.00794755,28.015625 6.51301411,27.671875 5.3677727,27.1734375 C4.06516988,26.60625 2.42161733,25.2484375 1.61732565,24.0710938 C0.900456984,23.03125 0.384661236,21.8453125 0.10490761,20.5820313 C0.0349692033,20.2726563 0,19.5421875 0,18.734375 C0.00874230081,17.5828125 0.0437115041,17.2820313 0.244784423,16.5429688 C0.507053447,15.5460938 1.15398371,14.196875 1.73097556,13.4320313 L2.1243791,12.8992188 L2.150606,7.115625 L2.1768329,1.33203125 L2.39539042,0.9453125 C2.51778263,0.7390625 2.78879396,0.446875 2.98986688,0.30078125 L3.37452811,0.04296875 L13.5855355,0.0171875 L23.7965428,0 L23.9801311,0.2234375 C24.2161733,0.515625 24.2161733,0.7734375 23.9801311,1.065625 L23.8052851,1.2890625 L20.8766143,1.2890625 L17.9479436,1.2890625 L17.9741705,4.49453125 C18.0091397,7.9234375 18.0266243,8.009375 18.5161931,9.2125 C18.8484006,10.0117188 19.268031,10.6390625 19.9237036,11.3265625 C21.1738526,12.6414063 22.5289092,13.2515625 24.207431,13.26875 C24.9155573,13.2773438 25.0554341,13.2515625 25.5624876,13.0109375 C26.1657063,12.7273438 26.8738327,12.1 27.0486787,11.6875 C27.144844,11.4554688 27.1273594,11.4039063 26.8301212,11.06875 C26.4104908,10.5875 25.9471488,9.625 25.8334989,8.9890625 C25.7723028,8.67109375 25.7373336,6.94375 25.7373336,4.42578125 L25.7373336,0.36953125 L25.9384065,0.1890625 L26.1394794,0 L33.8327042,0 C38.7895887,0 41.6308365,0.034375 41.8406517,0.0859375 C42.0154977,0.1375 42.3477051,0.30078125 42.575005,0.45546875 C44.7081264,1.85625 44.3846612,5.73203125 41.9805285,7.63984375 C40.9401947,8.4734375 39.8561494,8.8515625 38.4573813,8.87734375 C37.6793165,8.89453125 37.635605,8.903125 37.5044705,9.11796875 C36.9537055,10.0289063 35.6073912,11.1976563 34.3922114,11.8078125 C32.4951321,12.7703125 30.2658454,13.028125 28.8146235,12.4695313 L28.3775084,12.2976563 L27.9753626,12.8304688 C27.0923902,14.0078125 25.5100338,14.7640625 24.1112656,14.678125 L23.656666,14.6523438 L23.8577389,15.0390625 C23.9626465,15.2539063 24.1287502,15.6578125 24.2161733,15.9414063 C24.3035963,16.225 24.3997616,16.4914063 24.4259885,16.5257813 C24.4609577,16.5601563 24.994238,16.4570313 25.6236837,16.2851563 C26.9350288,15.9414063 27.4595669,15.915625 28.1239817,16.15625 C29.758792,16.7578125 30.3532684,18.7601563 29.29545,20.1265625 C28.7883966,20.7796875 28.4649315,20.9257813 26.2269024,21.51875 C25.0904033,21.8195313 24.1462348,22.0773438 24.1287502,22.0945313 C24.1200079,22.1117188 23.8752235,22.5757813 23.5867276,23.1171875 C23.1146434,24.0195313 22.9747665,24.4921875 23.2020664,24.4921875 C23.2370356,24.4921875 24.4697,24.1742188 25.9296642,23.7875 C29.0768925,22.9539063 29.4003576,22.9195313 30.3182992,23.3664063 C31.9443672,24.1484375 32.2503477,26.2539063 30.921518,27.5171875 C30.4494337,27.9726563 30.108484,28.0929688 27.2672362,28.8320313 C25.8772104,29.1929688 24.6882575,29.5195313 24.6358037,29.5539063 C24.5658653,29.5882813 24.6183191,29.90625 24.8106497,30.6023438 L25.081661,31.6078125 L27.7917743,30.8859375 C30.7204451,30.1125 31.2100139,30.04375 31.996821,30.3101563 C32.6350089,30.525 33.3431353,31.2554688 33.5529505,31.9171875 C33.9463541,33.1375 33.3868468,34.4867188 32.2678323,35.0109375 C32.0143056,35.13125 30.6067952,35.54375 29.1380886,35.9304688 L26.4629446,36.6351563 L26.5853368,37.1164063 C27.0486787,38.9210938 27.4508246,39.6773438 28.5348699,40.7429688 C29.2517385,41.4476563 29.4790383,41.6195313 30.195907,41.9546875 C31.2624677,42.4703125 31.9443672,42.625 33.0808663,42.625 C34.2086231,42.625 34.8905226,42.4703125 35.9570833,41.9632813 C36.647725,41.6367188 36.9012517,41.45625 37.5394397,40.8375 C38.3961852,39.9953125 38.8944963,39.2390625 39.261673,38.1992188 C39.4802305,37.571875 39.5064574,37.4 39.5064574,36.265625 L39.5064574,35.0195313 L36.6914365,24.7242188 C35.135307,19.0609375 33.8676734,14.3429688 33.8676734,14.2570313 C33.8676734,14.1625 33.9638387,13.990625 34.0862309,13.8789063 C34.4708921,13.4921875 35.0741109,13.6554688 35.2576992,14.2054688 C35.4150606,14.678125 40.7478641,34.30625 40.8527717,34.7875 C40.9926485,35.4320313 40.9751639,37.090625 40.8178025,37.8125 C40.4855951,39.359375 39.786211,40.6140625 38.5972581,41.765625 C36.9624478,43.346875 35.3014107,44.0171875 33.0196702,43.9914063 C32.4514206,43.9828125 31.8919134,43.9570313 31.7695212,43.9398438 Z M31.7432943,33.721875 C32.2328631,33.4125 32.4077091,32.7335938 32.1454401,32.2265625 C31.9443672,31.8398438 31.4810252,31.5390625 31.0876217,31.5390625 C30.8253527,31.5390625 25.5799722,32.8710938 25.4925492,32.9570313 C25.4663223,32.9828125 25.8597258,34.5382812 26.0520564,35.1570312 C26.0870256,35.26875 26.4979138,35.1828125 28.8233658,34.5726562 C30.3182992,34.1773438 31.6383866,33.790625 31.7432943,33.721875 Z M26.9000596,27.4914063 C28.3512815,27.1046875 29.6451421,26.74375 29.7762766,26.675 C30.2308762,26.4429688 30.4494337,25.6523438 30.1871647,25.1625 C30.0123187,24.81875 29.6538844,24.5007813 29.382873,24.440625 C29.1992847,24.40625 28.3512815,24.5867188 26.4017485,25.1023438 C24.906815,25.4890625 23.6479237,25.8414063 23.6129545,25.8757813 C23.569243,25.9015625 23.6654083,26.3914063 23.8140274,26.95 C24.1374925,28.1703125 24.1462348,28.1875 24.2161733,28.1875 C24.2424002,28.1875 25.4488377,27.878125 26.9000596,27.4914063 Z M17.030002,23.7359375 C18.0266243,23.3664062 18.8396583,22.790625 19.4166501,22.0429687 C20.5881184,20.5390625 20.9465528,18.5625 20.3695609,16.9125 C20.0898073,16.121875 19.8100536,15.675 19.1368965,14.9617187 L18.5686469,14.3515625 L18.5686469,13.1914062 L18.5686469,12.0226562 L18.2276972,11.5757812 C18.0441089,11.3265625 17.7381284,10.8625 17.5632823,10.5273437 L17.2485595,9.934375 L16.1382873,9.659375 C13.8215776,9.10078125 12.2217365,8.3703125 11.2950527,7.459375 C10.490761,6.66875 9.82634612,5.23359375 9.82634612,4.28828125 L9.82634612,3.8671875 L8.12159746,3.8671875 C6.53049871,3.8671875 6.4081065,3.87578125 6.24200278,4.0390625 C6.06715677,4.2109375 6.06715677,4.32265625 6.06715677,9.28125 L6.06715677,14.3515625 L5.46393801,14.9960937 C3.59308563,17.015625 3.49692033,19.7914062 5.21915359,22.0429687 C5.87482615,22.9023437 6.82773694,23.5210937 7.92926684,23.8046875 C8.51500099,23.959375 8.86469303,23.9679687 12.5364594,23.9507812 C16.4092986,23.925 16.5316908,23.925 17.030002,23.7359375 Z M26.0957679,20.1179688 C27.7480628,19.6796875 27.870455,19.6367188 28.1414663,19.31875 C28.5523545,18.8375 28.3687661,17.8835938 27.7917743,17.53125 C27.4245977,17.3078125 27.1710709,17.3164063 26.2181601,17.565625 C25.7897874,17.6859375 25.2739917,17.8148438 25.0729187,17.8664063 L24.7144844,17.9609375 L24.6620306,19.0953125 C24.6358037,19.7226563 24.5833499,20.315625 24.5483807,20.4015625 C24.4959269,20.5304688 24.5134115,20.55625 24.6183191,20.521875 C24.6882575,20.4875 25.3526724,20.3070313 26.0957679,20.1179688 Z M32.2066362,11.1632813 C33.0983509,10.9398438 34.1736539,10.4070313 34.9429764,9.80546875 C35.5374528,9.3328125 36.1406716,8.68828125 36.1406716,8.53359375 C36.1406716,8.490625 36.0007948,8.3875 35.8259487,8.29296875 C35.1265647,7.9234375 34.3484999,6.83203125 34.1386847,5.92109375 C34.0862309,5.71484375 34.0425194,4.5890625 34.0425194,3.4203125 L34.0425194,1.2890625 L30.5893106,1.2890625 L27.1361017,1.2890625 L27.1361017,4.88125 C27.1361017,8.834375 27.1535863,9.00625 27.6781244,9.8140625 C28.5873237,11.2320313 30.0997417,11.6789063 32.2066362,11.1632813 Z M16.6453408,7.81171875 C16.6016292,7.5109375 16.5579177,5.9125 16.5579177,4.2625 L16.5579177,1.271875 L14.879396,1.30625 C13.0085436,1.34921875 12.7200477,1.41796875 12.0731174,1.9765625 C10.8491953,3.025 10.9103914,4.915625 12.2129942,6.325 C12.7375323,6.90078125 13.253328,7.21015625 14.328631,7.63984375 C15.1591496,7.96640625 16.6628254,8.43046875 16.7152792,8.37890625 C16.7327638,8.3703125 16.6977946,8.1125 16.6453408,7.81171875 Z M39.1829923,7.43359375 C41.2199483,6.9609375 42.6187165,5.259375 42.6099742,3.265625 C42.6012319,2.26875 42.0854361,1.5640625 41.211206,1.38359375 C40.9401947,1.3234375 39.7075303,1.2890625 38.1076893,1.2890625 L35.4412875,1.2890625 L35.4412875,3.334375 C35.4412875,4.4515625 35.484999,5.5171875 35.5287105,5.6890625 C35.5811643,5.8609375 35.747268,6.1875 35.9046294,6.4109375 C36.5690443,7.390625 37.7579972,7.76015625 39.1829923,7.43359375 Z" id="Shape"></path>
            </g>
        </g>
    </g>
</svg>