<?xml version="1.0" encoding="UTF-8"?>
<svg width="46px" height="52px" viewBox="0 0 46 52" version="1.1" xmlns="http://www.w3.org/2000/svg" xmlns:xlink="http://www.w3.org/1999/xlink">
    <!-- Generator: Sketch 52.6 (67491) - http://www.bohemiancoding.com/sketch -->
    <title>cocktail</title>
    <desc>Created with Sketch.</desc>
    <g id="Page-1" stroke="none" stroke-width="1" fill="none" fill-rule="evenodd" opacity="0.32921782">
        <g id="cocktail" transform="translate(0.000000, 0.800000)" fill="#BE8400">
            <g id="Group" transform="translate(22.800000, 25.600000) scale(-1, 1) rotate(-180.000000) translate(-22.800000, -25.600000) ">
                <path d="M37.0674236,50.9205458 C35.4843668,50.3716179 34.2995633,49.1140741 33.8913537,47.557115 C33.6125764,46.4792203 33.7320524,45.7406628 34.2099563,45.5210916 C34.5783406,45.351423 34.8969432,45.391345 35.1956332,45.6408577 C35.4047162,45.8304873 35.4843668,46.0001559 35.5540611,46.5191423 C35.7133624,47.7567251 36.3107424,48.5751267 37.4059389,49.0841326 C37.8738865,49.2937232 38.0531004,49.3236647 38.7102183,49.2837427 C39.8850655,49.2138791 40.6616594,48.7148538 41.2092576,47.6868616 C41.4979913,47.1479142 41.5477729,46.9582846 41.5577293,46.3594542 C41.5577293,45.1518129 40.9304803,44.1338012 39.8153712,43.5649123 C39.3175546,43.3054191 38.2820961,43.2555166 37.6050655,43.4551267 C37.2964192,43.5449513 36.9579039,43.6148148 36.8483843,43.6148148 C36.4401747,43.6148148 36.1315284,43.165692 35.3947598,41.5189084 L34.6579913,39.8721248 L28.0868122,39.8421832 L21.5156332,39.8222222 L21.4558952,40.0916959 C21.4359825,40.251384 21.3762445,40.6007018 21.3463755,40.8701754 C21.1870742,42.0478752 20.430393,43.894269 19.5841048,45.1418324 C17.4634061,48.2757115 13.5206987,50.0921637 9.69746725,49.702924 C7.12873362,49.4434308 4.92838428,48.3954776 3.11633188,46.5690448 C1.07528384,44.5030799 0.119475983,42.2774269 0.0199126638,39.3231969 C-0.0398253275,37.6664327 0.15930131,36.4088889 0.696943231,35.0315789 C1.35406114,33.3249123 2.75790393,31.468538 4.27126638,30.3207797 C5.06777293,29.7019883 6.869869,28.8137232 7.83563319,28.55423 C8.74165939,28.3047173 10.4342358,28.1051072 10.8922271,28.1849513 C11.489607,28.3047173 11.7882969,28.9035478 11.5294323,29.4724366 C11.370131,29.8217544 11.131179,29.9015984 9.94637555,30.0213645 C7.65641921,30.2608967 5.80454148,31.1691228 4.21152838,32.865809 C2.51895197,34.6423392 1.69257642,36.8779727 1.8120524,39.3730994 C1.90165939,41.2095127 2.35965066,42.5768421 3.38515284,44.0639376 C4.88855895,46.2496686 7.17851528,47.6070175 9.91650655,47.9164133 C11.3601747,48.0761014 13.3215721,47.7168031 14.6756332,47.0381287 C15.96,46.3893957 17.3240175,45.2116959 18.1006114,44.0838986 C18.7975546,43.0559064 19.4048908,41.5588304 19.5940611,40.3511891 L19.6737118,39.8222222 L15.0041921,39.8222222 L10.3346725,39.8222222 L10.0957205,39.5727096 C9.92646288,39.4130214 9.84681223,39.2233918 9.84681223,38.9838596 C9.84681223,38.5646784 9.15982533,39.442963 19.7434061,26.3984405 L26.8621834,17.6155945 L26.8721397,9.71103314 L26.8721397,1.80647173 L23.3276856,1.77653021 L19.7832314,1.74658869 L19.5442795,1.4671345 C19.2256769,1.08787524 19.2256769,0.568888889 19.5542358,0.249512671 L19.7931878,0 L27.7482969,0 L35.7034061,0 L35.9124891,0.229551657 C36.2310917,0.568888889 36.211179,1.18768031 35.8726638,1.50705653 L35.6137991,1.74658869 L32.1390393,1.77653021 L28.6642795,1.80647173 L28.6642795,9.76093567 L28.6742358,17.7153996 L37.1271616,28.1450292 C44.8532751,37.6664327 45.5900437,38.6046004 45.5900437,38.9339571 C45.5900437,39.1535283 45.510393,39.4030409 45.3809607,39.562729 L45.1818341,39.8222222 L42.7425328,39.8222222 L40.3032314,39.8222222 L40.0642795,39.5727096 C39.7158079,39.2333723 39.7257642,38.6445224 40.0742358,38.3151657 C40.3131878,38.0955945 40.4227074,38.0756335 41.5179039,38.045692 C42.1650655,38.025731 42.7027074,37.985809 42.7027074,37.965848 C42.7027074,37.9359064 42.0356332,37.0975439 41.219214,36.0895127 L39.7357205,34.2730604 L38.8097817,33.8339181 C37.1570306,33.0654191 34.5882969,32.3368421 33.5428821,32.3368421 L33.2541485,32.3368421 L33.8316157,33.614347 C34.1502183,34.3129825 35.0861135,36.3889279 35.9124891,38.2253411 L37.4258515,41.5688109 L38.3816594,41.5388694 C39.4868122,41.4989474 40.3530131,41.708538 41.129607,42.2075634 C42.2646288,42.9261598 43.1208734,44.2535673 43.32,45.5909552 C43.6784279,47.9164133 42.2546725,50.2119298 40.0244541,50.9005848 C39.1980786,51.160078 37.7842795,51.1700585 37.0674236,50.9205458 Z M33.7519651,37.8560624 C33.7021834,37.7562573 33.1346725,36.508694 32.4974672,35.0814815 C31.860262,33.654269 31.3027074,32.4466277 31.2529258,32.4067057 C31.1434061,32.2869396 29.6798253,32.5763743 27.569083,33.1352827 C25.199476,33.7740351 23.9848035,33.9536842 22.3718777,33.9137622 C21.1970306,33.8838207 21.0974672,33.8638596 20.8585153,33.6442885 C20.5100437,33.3149318 20.5000873,32.7260819 20.8286463,32.3967251 C21.0476856,32.177154 21.1572052,32.1671735 22.7502183,32.1072904 C24.5423581,32.0474074 24.9406114,31.9775439 27.569083,31.2589474 C28.3655895,31.0393762 29.34131,30.8098246 29.7395633,30.739961 C30.1278603,30.6700975 30.4564192,30.5802729 30.4564192,30.5503314 C30.4464629,30.5203899 30.3867249,30.3806628 30.3070742,30.2409357 C30.2274236,30.1012086 30.1676856,29.8117739 30.1577293,29.6021832 C30.1577293,29.0632359 30.4564192,28.7438596 30.9741485,28.7438596 C31.5516157,28.7438596 31.681048,28.8536452 32.0494323,29.6620663 C32.2286463,30.0612865 32.3879476,30.4106043 32.4078603,30.4305653 C32.4277729,30.4505263 32.9554585,30.5004288 33.5926638,30.5503314 C34.5982533,30.6201949 36.5297817,30.9794932 37.0674236,31.1990643 C37.2167686,31.2589474 37.2366812,31.2389864 37.1669869,31.1192203 C37.1172052,31.0393762 34.9765939,28.3845614 32.4078603,25.2107602 C28.7140611,20.6596491 27.7084716,19.4819493 27.6188646,19.5817544 C27.3998253,19.8212865 12.8735371,37.7762183 12.8038428,37.9059649 C12.7341485,37.9957895 14.8648035,38.025731 23.2878603,38.025731 C33.3138865,38.025731 33.8415721,38.0157505 33.7519651,37.8560624 Z" id="Shape" fill-rule="nonzero"></path>
                <path d="M10.2948472,45.4911501 C9.91650655,45.2715789 9.85676856,45.0819493 9.84681223,44.1936842 C9.84681223,43.4251852 9.87668122,43.2954386 10.0857642,43.0459259 C10.2749345,42.8263548 10.4043668,42.7664717 10.7428821,42.7664717 C11.0813974,42.7664717 11.2108297,42.8263548 11.4,43.0459259 C11.609083,43.2954386 11.638952,43.4251852 11.638952,44.1737232 C11.638952,44.9821442 11.6289956,45.0420273 11.3502183,45.3214815 C11.0415721,45.6308772 10.6532751,45.6907602 10.2948472,45.4911501 Z" id="Path"></path>
                <path d="M4.39074236,39.6226121 C4.08209607,39.3331774 4.01240175,38.9638986 4.20157205,38.5746589 C4.41065502,38.1355166 4.87860262,37.985809 5.79458515,38.0556725 C6.4019214,38.0955945 6.53135371,38.1355166 6.73048035,38.3650682 C7.03912664,38.734347 7.03912664,39.2533333 6.71056769,39.5727096 C6.49152838,39.8022612 6.39196507,39.8222222 5.53572052,39.8222222 C4.73921397,39.8222222 4.57991266,39.7922807 4.39074236,39.6226121 Z" id="Path"></path>
            </g>
        </g>
    </g>
</svg>