<?xml version="1.0" encoding="UTF-8"?>
<svg width="37px" height="49px" viewBox="0 0 37 49" version="1.1" xmlns="http://www.w3.org/2000/svg" xmlns:xlink="http://www.w3.org/1999/xlink">
    <!-- Generator: Sketch 52.6 (67491) - http://www.bohemiancoding.com/sketch -->
    <title>cupcake</title>
    <desc>Created with Sketch.</desc>
    <g id="Page-1" stroke="none" stroke-width="1" fill="none" fill-rule="evenodd" opacity="0.331054688">
        <g id="cupcake" fill="#BE8400" fill-rule="nonzero">
            <g id="Group" transform="translate(18.400000, 24.400000) scale(-1, 1) rotate(-180.000000) translate(-18.400000, -24.400000) ">
                <path d="M25.2816976,48.6760938 C23.7296552,48.2471875 22.2654642,46.9890625 21.2014854,45.1685938 L20.8891247,44.644375 L19.9910875,44.5967188 C19.3956499,44.5585938 18.8880637,44.4728125 18.5268966,44.3298438 C17.8143236,44.0725 16.935809,43.4339063 16.506313,42.8620313 C16.3208488,42.62375 16.1353846,42.4235938 16.0865782,42.4235938 C16.0475332,42.4235938 15.8132626,42.7190625 15.5692308,43.08125 C15.0811671,43.8342188 14.8566578,43.9867188 14.397878,43.9104688 C13.7048276,43.7770313 11.5085411,42.1376563 10.4933687,40.9939063 C8.97061008,39.2592188 7.99448276,37.019375 7.83830239,34.884375 C7.77973475,34.0742188 7.76997347,34.045625 7.49665782,33.93125 C6.4131565,33.4928125 5.26132626,32.444375 4.74397878,31.4340625 C4.20710875,30.3760938 4.07045093,29.6421875 4.11925729,28.1076563 L4.15830239,26.801875 L3.86546419,26.6875 C3.69952255,26.6207813 3.26026525,26.3825 2.89909814,26.1442188 C1.37633952,25.1720313 0.654005305,23.6470313 0.878514589,21.8742188 C0.937082228,21.4357813 1.06397878,20.8829688 1.17135279,20.6446875 L1.35681698,20.2157813 L1.08350133,20.2157813 C0.683289125,20.2157813 0.204986737,20.0346875 0.0976127321,19.8345313 C0.0390450928,19.7392188 0,19.5104688 0,19.329375 C0,19.1482813 0.898037135,15.1260938 1.99129973,10.3890625 C4.10949602,1.24859375 4.17782493,1.029375 4.84159151,0.53375 C5.58344828,-0.0190625 4.79278515,0.00953125 18.0876393,0.00953125 L30.3185146,0.00953125 L30.8261008,0.25734375 C31.4312997,0.5528125 31.8607958,1.029375 32.0657825,1.62984375 C32.4074271,2.64015625 36.2143236,19.3198438 36.1655172,19.5485938 C36.0776658,19.863125 35.833634,20.1204688 35.6091247,20.1204688 C35.3846154,20.1204688 35.3846154,20.168125 35.6188859,20.4826563 C36.3119363,21.4453125 36.7121485,22.6748438 36.7219098,23.8185938 C36.7414324,25.7725 35.9312467,27.3832813 33.978992,29.2704688 L32.9442971,30.27125 L33.0516711,30.7954688 C33.3152255,31.9678125 33.1102387,33.4070313 32.5343236,34.4459375 C32.1829178,35.0845313 31.1677454,36.1329688 30.4649337,36.5904688 C29.2642971,37.3720313 27.3998939,38.1059375 25.4964456,38.5634375 C24.8522016,38.7159375 24.7838727,38.7540625 24.832679,38.9351563 C25.0767109,39.916875 24.9595756,41.0129688 24.510557,41.9851563 C24.2177188,42.6142188 23.4172944,43.5292188 22.8901857,43.8532813 L22.5485411,44.0534375 L22.8413793,44.5490625 C23.3489655,45.4354688 24.3250928,46.3790625 25.115756,46.7603125 C26.2285411,47.2940625 26.9215915,47.3035938 28.6590981,46.7984375 C29.225252,46.626875 29.5571353,46.74125 29.7425995,47.160625 C30.0549602,47.9040625 29.6059416,48.3710938 28.2881698,48.6665625 C27.5072679,48.838125 25.9064191,48.838125 25.2816976,48.6760938 Z M21.54313,42.6046875 C22.6559151,42.09 23.2806366,41.0415625 23.2123077,39.8501562 C23.114695,38.2107812 21.7285942,37.0098437 20.0594164,37.1051562 C17.4531565,37.2671875 16.2818037,40.2790625 18.1266844,42.0709375 C18.5952255,42.5379687 18.93687,42.7190625 19.6201592,42.8620312 C20.3229708,43.0145312 20.8012732,42.9478125 21.54313,42.6046875 Z M14.6614324,41.40375 C14.8566578,41.1464062 15.1299735,40.8414062 15.2666313,40.7175 C15.4813793,40.5173437 15.5204244,40.4029687 15.5204244,39.9073437 C15.5204244,37.0289062 18.4683289,34.7985937 21.328382,35.5134375 C22.2068966,35.7326562 22.8706631,36.0853125 23.4856233,36.6476562 L24.0322546,37.1623437 L25.2719363,36.8478125 C26.618992,36.5046875 27.331565,36.2759375 27.7512997,36.0757812 C27.9562865,35.9614062 28.0148541,35.8660937 28.0148541,35.6182812 C28.0148541,34.503125 25.0864721,32.749375 20.5767639,31.1671875 C18.9173475,30.5857812 18.7416446,30.461875 18.7416446,29.851875 C18.7416446,29.50875 19.0051989,29.2132812 19.3956499,29.1179687 C19.6982493,29.0417187 20.6743767,29.3467187 22.7437666,30.156875 C26.7458886,31.7295312 28.9519363,33.1878125 29.6059416,34.7032812 L29.7425995,35.036875 L30.2794695,34.503125 C30.5723077,34.2171875 30.9432361,33.7215625 31.0994164,33.4070312 C31.3532095,32.901875 31.3824934,32.749375 31.3824934,31.8915625 C31.3824934,30.9670312 31.3727321,30.919375 30.9725199,30.1282812 C30.7480106,29.6803125 30.2501857,28.936875 29.869496,28.4603125 C29.2350133,27.6882812 29.1764456,27.5739062 29.225252,27.2784375 C29.3033422,26.801875 29.5864191,26.5540625 30.0744828,26.5540625 C30.4454111,26.5540625 30.5332626,26.61125 30.9139523,27.030625 C31.1579841,27.2975 31.5289125,27.755 31.7436605,28.06 L32.1243501,28.6128125 L32.4855172,28.3078125 C33.0614324,27.83125 33.9594695,26.7923437 34.3108753,26.2014062 C35.4334218,24.3428125 35.2381963,22.6367187 33.6959151,20.8448437 L33.1590451,20.2157812 L27.0972944,20.2157812 L21.0355438,20.2157812 L21.5724138,20.51125 C24.5984085,22.1792187 26.9703979,23.6565625 27.3120424,24.0759375 C27.6048806,24.438125 27.5853581,24.7526562 27.2437135,25.08625 C26.7849337,25.5246875 26.5506631,25.4675 25.0767109,24.5334375 C23.3001592,23.4182812 20.8988859,22.0839062 18.8197347,21.0640625 L17.0822281,20.2157812 L10.2590981,20.2157812 L3.4262069,20.2157812 L3.17241379,20.5398437 C3.03575597,20.7209375 2.83076923,21.1021875 2.7331565,21.3976562 C2.26461538,22.684375 2.69411141,23.9710937 3.83618037,24.7335937 C4.52923077,25.1910937 4.86111406,25.2959375 7.63331565,25.886875 C10.1224403,26.420625 12.6310875,27.0210937 14.7395225,27.5929687 C15.686366,27.8503125 16.0084881,27.9742187 16.1744297,28.174375 C16.4379841,28.4698437 16.4672679,28.8510937 16.2427586,29.1560937 C15.9499204,29.5754687 15.7156499,29.5754687 14.3197878,29.2228125 C10.1907692,28.1648437 5.99342175,27.2021875 5.89580902,27.2975 C5.8665252,27.3260937 5.81771883,27.6692187 5.78843501,28.0695312 C5.64201592,29.9185937 6.48148541,31.5198437 7.98472149,32.2632812 C8.73633952,32.635 9.93697613,32.94 12.4749072,33.4165625 C13.7438727,33.6548437 14.8859416,33.9217187 15.0128382,33.9979687 C15.4813793,34.2934375 15.5301857,34.884375 15.1299735,35.2751562 C14.8468966,35.5515625 14.4076393,35.5229687 11.8013793,35.0082812 L9.50748011,34.5603125 L9.58557029,35.1321875 C9.84912467,37.019375 10.6788329,38.6778125 12.1235013,40.18375 C12.7872679,40.8795312 13.9976658,41.8517187 14.2026525,41.8517187 C14.2612202,41.8517187 14.4662069,41.6515625 14.6614324,41.40375 Z M4.43161804,18.2428125 C4.49994695,17.9092187 7.32095491,1.75375 7.32095491,1.68703125 C7.32095491,1.6584375 7.08668435,1.62984375 6.80360743,1.62984375 C6.2667374,1.62984375 5.93485411,1.78234375 5.75915119,2.10640625 C5.70058355,2.21125 4.82206897,5.88078125 3.80689655,10.2746875 C2.78196286,14.6685937 1.9327321,18.3190625 1.90344828,18.3857812 C1.87416446,18.4715625 2.15724138,18.5001562 3.12360743,18.5001562 L4.3730504,18.5001562 L4.43161804,18.2428125 Z M8.68753316,18.414375 C8.68753316,18.261875 10.5324138,2.36375 10.6007427,1.99203125 L10.6593103,1.62984375 L9.96625995,1.62984375 C9.31225464,1.62984375 9.27320955,1.639375 9.13655172,1.89671875 C9.05846154,2.04921875 8.37517241,5.72828125 7.6137931,10.0745312 C6.86217507,14.4207812 6.21793103,18.0903125 6.18864721,18.2428125 L6.13007958,18.5001562 L7.40880637,18.5001562 C8.13114058,18.5001562 8.68753316,18.4620312 8.68753316,18.414375 Z M12.9824934,18.1284375 C12.9824934,17.7376562 13.8219629,3.11671875 13.9000531,2.18265625 L13.9390981,1.62984375 L13.2167639,1.62984375 C12.5432361,1.62984375 12.4846684,1.64890625 12.396817,1.85859375 C12.3284881,2.05875 10.4445623,17.8996875 10.4445623,18.338125 C10.4445623,18.4810937 10.5714589,18.5001562 11.7135279,18.5001562 L12.9824934,18.5001562 L12.9824934,18.1284375 Z M17.1798408,10.065 L17.1798408,1.62984375 L16.4477454,1.62984375 C15.9401592,1.62984375 15.6961273,1.66796875 15.6668435,1.75375 C15.647321,1.8109375 15.4228117,5.36609375 15.1885411,9.63609375 C14.9445093,13.9060937 14.72,17.651875 14.6907162,17.956875 L14.6321485,18.5001562 L15.9108753,18.5001562 L17.1798408,18.5001562 L17.1798408,10.065 Z M21.4748011,18.4334375 C21.4748011,18.3857812 21.2502918,14.6114062 20.9867374,10.026875 C20.7134218,5.451875 20.4986737,1.68703125 20.4986737,1.66796875 C20.4986737,1.64890625 20.1472679,1.62984375 19.7177719,1.62984375 L18.93687,1.62984375 L18.93687,10.065 L18.93687,18.5001562 L20.2058355,18.5001562 C20.9086472,18.5001562 21.4748011,18.4715625 21.4748011,18.4334375 Z M25.7209549,18.2428125 C25.6916711,18.0903125 25.2524138,14.3635937 24.7448276,9.950625 C24.2274801,5.528125 23.7882228,1.8490625 23.758939,1.7728125 C23.7101326,1.66796875 23.5344297,1.62984375 22.9780371,1.62984375 C22.294748,1.62984375 22.2557029,1.639375 22.2557029,1.8490625 C22.2459416,2.25890625 23.1439788,17.880625 23.1927851,18.1951562 L23.2415915,18.5001562 L24.5007958,18.5001562 L25.7697613,18.5001562 L25.7209549,18.2428125 Z M29.9671088,18.3953125 C29.9671088,17.9282812 27.0972944,2.020625 26.9899204,1.8490625 C26.8532626,1.6584375 26.7556499,1.62984375 26.1504509,1.62984375 C25.545252,1.62984375 25.4671618,1.64890625 25.5159682,1.80140625 C25.5354907,1.8871875 25.9942706,5.680625 26.511618,10.2365625 L27.4682228,18.5001562 L28.7176658,18.5001562 C29.5376127,18.5001562 29.9671088,18.4620312 29.9671088,18.3953125 Z M34.2230239,18.338125 C34.1937401,18.2428125 33.3445093,14.5828125 32.3195756,10.1889062 C31.3044032,5.80453125 30.4161273,2.135 30.3477984,2.03015625 C30.1720955,1.75375 29.8402122,1.62984375 29.2642971,1.62984375 C28.8055172,1.62984375 28.7762334,1.639375 28.8250398,1.8490625 C28.8933687,2.096875 31.7241379,18.3095312 31.7241379,18.4239062 C31.7241379,18.4620312 32.3000531,18.5001562 33.0028647,18.5001562 C34.1644562,18.5001562 34.2718302,18.490625 34.2230239,18.338125 Z" id="Shape"></path>
            </g>
        </g>
    </g>
</svg>