<?xml version="1.0" encoding="UTF-8"?>
<svg width="14px" height="12px" viewBox="0 0 14 12" version="1.1" xmlns="http://www.w3.org/2000/svg" xmlns:xlink="http://www.w3.org/1999/xlink">
    <!-- Generator: Sketch 52.6 (67491) - http://www.bohemiancoding.com/sketch -->
    <title>envelope</title>
    <desc>Created with Sketch.</desc>
    <g id="Symbols" stroke="none" stroke-width="1" fill="none" fill-rule="evenodd" opacity="0.510509673">
        <g id="envelope" fill="#FFFFFF" fill-rule="nonzero">
            <g id="Group" transform="translate(7.000000, 6.000000) scale(-1, 1) rotate(-180.000000) translate(-7.000000, -6.000000) ">
                <path d="M0.795547745,11.94375 C0.519429799,11.825 0.325327085,11.65 0.180433509,11.390625 C-0.0109353642,11.046875 0.00273384105,11.459375 0.00273384105,6 C0.00273384105,0.5375 -0.0109353642,0.95 0.180433509,0.609375 C0.330794767,0.34375 0.544034368,0.153125 0.806483109,0.053125 C0.932239797,0.003125 1.42159734,0 7.00136692,0 C12.5702011,0 13.070494,0.003125 13.1962507,0.053125 C13.5489162,0.1875 13.8332357,0.5125 13.9535247,0.91875 C13.9972662,1.059375 14,1.4875 14,6 C14,10.5125 13.9972662,10.940625 13.9535247,11.08125 C13.8332357,11.4875 13.5489162,11.8125 13.1962507,11.946875 C13.070494,11.996875 12.572935,12 6.99043156,11.996875 C1.38332357,11.996875 0.910369069,11.990625 0.795547745,11.94375 Z M12.9064636,11.296875 C12.9064636,11.278125 8.40656122,6.578125 7.4661199,5.615625 C7.23374341,5.378125 7.06971295,5.315625 6.85647335,5.3875 C6.75258739,5.421875 6.66237063,5.4875 6.53661394,5.615625 C5.59617262,6.578125 1.09627026,11.278125 1.09627026,11.296875 C1.09627026,11.30625 3.75356376,11.3125 7.00136692,11.3125 C10.2491701,11.3125 12.9064636,11.30625 12.9064636,11.296875 Z M2.92247608,8.421875 C4.16637376,7.121875 5.18609647,6.05 5.19156415,6.034375 C5.19429799,6.021875 4.93731693,5.74375 4.61745753,5.41875 C3.85471588,4.646875 2.63815661,3.365625 1.53368483,2.175 C1.04432728,1.65 0.636984964,1.21875 0.6260496,1.21875 C0.612380394,1.21875 0.604178871,3.371875 0.604178871,6 C0.604178871,9.2375 0.612380394,10.78125 0.631517282,10.78125 C0.647920328,10.78125 1.6785784,9.71875 2.92247608,8.421875 Z M13.398555,6 C13.398555,3.371875 13.3903534,1.21875 13.3766842,1.21875 C13.3657489,1.21875 12.9584066,1.65 12.469049,2.175 C11.3645772,3.365625 10.148018,4.646875 9.38527631,5.41875 C9.06541691,5.74375 8.80843585,6.021875 8.81116969,6.034375 C8.82757274,6.084375 13.3302089,10.778125 13.3657489,10.778125 C13.3903534,10.78125 13.398555,9.80625 13.398555,6 Z M5.98984573,5.225 C6.40812341,4.79375 6.65143527,4.65625 7.00136692,4.65625 C7.35129857,4.65625 7.59461043,4.79375 8.01562195,5.225 C8.20425698,5.421875 8.32727983,5.525 8.34915056,5.5125 C8.49677797,5.409375 10.0714704,3.771875 11.7527827,1.971875 L12.9365358,0.703125 L9.9703183,0.69375 C8.33548135,0.690625 5.66725249,0.690625 4.03514938,0.69375 L1.06619801,0.703125 L2.08592072,1.796875 C3.70162078,3.534375 5.62351103,5.53125 5.67818785,5.53125 C5.68638938,5.53125 5.82581527,5.39375 5.98984573,5.225 Z" id="Shape"></path>
            </g>
        </g>
    </g>
</svg>