<?xml version="1.0" encoding="UTF-8"?>
<svg width="14px" height="14px" viewBox="0 0 14 14" version="1.1" xmlns="http://www.w3.org/2000/svg" xmlns:xlink="http://www.w3.org/1999/xlink">
    <!-- Generator: Sketch 52.6 (67491) - http://www.bohemiancoding.com/sketch -->
    <title>instagram (1)</title>
    <desc>Created with Sketch.</desc>
    <g id="Symbols" stroke="none" stroke-width="1" fill="none" fill-rule="evenodd" opacity="0.51093">
        <g id="instagram-(1)" fill="#FFFFFF" fill-rule="nonzero">
            <g id="Group" transform="translate(7.000000, 7.000000) scale(-1, 1) rotate(-180.000000) translate(-7.000000, -7.000000) ">
                <path d="M3.1890411,13.9453125 C1.62739726,13.6800781 0.389041096,12.4851562 0.0493150685,10.915625 C0.00273972603,10.7078125 0,10.4261719 0,6.98632812 C0,3.54648437 0.00273972603,3.26484375 0.0493150685,3.05703125 C0.210958904,2.29960938 0.564383562,1.6515625 1.10958904,1.10742188 C1.65479452,0.56328125 2.30410959,0.210546875 3.0630137,0.04921875 C3.27123288,0.002734375 3.55342466,0 7,0 C10.4465753,0 10.7287671,0.002734375 10.9369863,0.04921875 C11.6958904,0.210546875 12.3452055,0.56328125 12.890411,1.10742188 C13.4356164,1.6515625 13.7890411,2.29960938 13.9506849,3.05703125 C13.9972603,3.26484375 14,3.54648437 14,6.98632812 C14,10.4261719 13.9972603,10.7078125 13.9506849,10.915625 C13.7890411,11.6730469 13.4356164,12.3210937 12.890411,12.8652344 C12.3561644,13.3984375 11.7452055,13.7320312 10.9589041,13.9234375 C10.7835616,13.9671875 10.4465753,13.9699219 7.08219178,13.9753906 C4.18082192,13.9808594 3.35342466,13.9726562 3.1890411,13.9453125 Z M10.6575342,13.1003906 C11.3123288,12.9828125 11.7972603,12.7285156 12.2767123,12.2527344 C12.7534247,11.7742188 13.0082192,11.2902344 13.1260274,10.6367188 C13.1835616,10.3113281 13.1835616,3.66132813 13.1260274,3.3359375 C13.0082192,2.68242188 12.7534247,2.1984375 12.2767123,1.71992188 C11.7972603,1.24414063 11.3123288,0.98984375 10.6575342,0.872265625 C10.3315068,0.81484375 3.66849315,0.81484375 3.34246575,0.872265625 C2.68767123,0.98984375 2.20273973,1.24414063 1.72328767,1.71992188 C1.24657534,2.1984375 0.991780822,2.68242188 0.873972603,3.3359375 C0.816438356,3.66132813 0.816438356,10.3113281 0.873972603,10.6367188 C0.991780822,11.2902344 1.24657534,11.7742188 1.72328767,12.2527344 C2.19452055,12.7203125 2.67945205,12.9773438 3.31506849,13.0976563 C3.6109589,13.1523438 10.3479452,13.1550781 10.6575342,13.1003906 Z" id="Shape"></path>
                <path d="M10.8383562,12.20625 C10.5315068,12.1460938 10.2082192,11.9136719 10.0547945,11.6429688 C9.82739726,11.2355469 9.8630137,10.696875 10.139726,10.3414063 C10.3616438,10.0570313 10.6493151,9.909375 11.0191781,9.89023438 C11.6383562,9.86015625 12.1369863,10.2648438 12.2383562,10.8800781 C12.3726027,11.68125 11.6493151,12.3648438 10.8383562,12.20625 Z M11.2575342,11.3203125 C11.2931507,11.2957031 11.3452055,11.2300781 11.3726027,11.1753906 C11.4136986,11.0878906 11.4136986,11.0632812 11.3808219,10.9675781 C11.3369863,10.8445312 11.1972603,10.7324219 11.090411,10.7324219 C10.9753425,10.7324219 10.8438356,10.8144531 10.7972603,10.9101562 C10.739726,11.0304687 10.7424658,11.1097656 10.8082192,11.2191406 C10.9068493,11.3804687 11.1013699,11.4214844 11.2575342,11.3203125 Z" id="Shape"></path>
                <path d="M6.56164384,10.8144531 C6.07671233,10.7542969 5.63835616,10.6203125 5.22191781,10.4015625 C4.16712329,9.85195312 3.41369863,8.83476562 3.20273973,7.66992187 C3.1369863,7.31992187 3.1369863,6.65273437 3.20273973,6.30273437 C3.48767123,4.73320312 4.74246575,3.48085938 6.31506849,3.19648438 C6.66575342,3.13085938 7.33424658,3.13085938 7.68493151,3.19648438 C9.25753425,3.48085938 10.5123288,4.73320312 10.7972603,6.30273437 C10.8630137,6.65273437 10.8630137,7.31992187 10.7972603,7.66992187 C10.5863014,8.83476562 9.83835616,9.84648437 8.77808219,10.4042969 C8.46849315,10.565625 8.03287671,10.7132812 7.69863014,10.7734375 C7.39178082,10.828125 6.83287671,10.8472656 6.56164384,10.8144531 Z M7.51506849,9.93671875 C7.71506849,9.90664062 8.13424658,9.76992187 8.32876712,9.67148437 C8.87945205,9.3953125 9.41369863,8.86210937 9.69041096,8.3125 C9.7890411,8.12109375 9.9260274,7.70546875 9.96164384,7.48671875 C10,7.24882812 10,6.72382812 9.96164384,6.4859375 C9.9260274,6.2671875 9.7890411,5.8515625 9.69041096,5.66015625 C9.41369863,5.11054687 8.87945205,4.57734375 8.32876712,4.30117187 C8.1369863,4.20273438 7.72054795,4.06601563 7.50136986,4.03046875 C7.2630137,3.9921875 6.7369863,3.9921875 6.49863014,4.03046875 C6.27945205,4.06601563 5.8630137,4.20273438 5.67123288,4.30117187 C5.12054795,4.57734375 4.58630137,5.11054687 4.30958904,5.66015625 C4.2109589,5.8515625 4.0739726,6.2671875 4.03835616,6.4859375 C4,6.72382812 4,7.24882812 4.03835616,7.48671875 C4.0739726,7.70546875 4.2109589,8.12109375 4.30958904,8.3125 C4.62739726,8.94414062 5.21643836,9.49375 5.84383562,9.74804687 C6.39452055,9.97226562 6.90410959,10.0296875 7.51506849,9.93671875 Z" id="Shape"></path>
            </g>
        </g>
    </g>
</svg>