<?xml version="1.0" encoding="UTF-8"?>
<svg width="61px" height="61px" viewBox="0 0 61 61" version="1.1" xmlns="http://www.w3.org/2000/svg" xmlns:xlink="http://www.w3.org/1999/xlink">
    <!-- Generator: Sketch 52.6 (67491) - http://www.bohemiancoding.com/sketch -->
    <title>instagram copy</title>
    <desc>Created with Sketch.</desc>
    <g id="Page-1" stroke="none" stroke-width="1" fill="none" fill-rule="evenodd">
        <g id="instagram-copy" fill="#4A1E0A">
            <g id="Group" transform="translate(30.500000, 30.500000) scale(-1, 1) rotate(-180.000000) translate(-30.500000, -30.500000) ">
                <path d="M14.8754386,60.7146199 C7.11072125,59.382846 1.3079922,53.4730994 0.142690058,45.7083821 C-0.0356725146,44.5192982 -0.0356725146,16.385575 0.142690058,15.1964912 C1.31988304,7.32475634 7.32475634,1.31988304 15.1964912,0.142690058 C16.385575,-0.0356725146 44.5192982,-0.0356725146 45.7083821,0.142690058 C53.580117,1.31988304 59.5849903,7.32475634 60.7621832,15.1964912 C60.9405458,16.385575 60.9405458,44.5192982 60.7621832,45.7083821 C59.5849903,53.580117 53.580117,59.5849903 45.7083821,60.7621832 C44.388499,60.9643275 16.0526316,60.9167641 14.8754386,60.7146199 Z M45.5538012,55.8631579 C48.288694,55.2567251 50.4290448,54.1152047 52.2721248,52.2721248 C54.1865497,50.345809 55.411306,47.9795322 55.9107212,45.197076 C56.148538,43.8890838 56.148538,17.0157895 55.9107212,15.7077973 C55.0189084,10.7849903 51.6538012,6.89668616 47.0401559,5.4460039 C45.0068226,4.81578947 45.3516569,4.82768031 30.4524366,4.82768031 C15.5532164,4.82768031 15.8980507,4.81578947 13.8647173,5.4460039 C9.90506823,6.69454191 6.69454191,9.90506823 5.4460039,13.8647173 C4.81578947,15.8980507 4.82768031,15.5532164 4.82768031,30.4524366 C4.82768031,45.3516569 4.81578947,45.0068226 5.4460039,47.0401559 C6.89668616,51.6538012 10.9871345,55.1853801 15.7077973,55.8869396 C17.1346979,56.1009747 17.1584795,56.1009747 31.2253411,56.077193 C43.2350877,56.0534113 44.757115,56.0296296 45.5538012,55.8631579 Z" id="Shape" fill-rule="nonzero"></path>
                <path d="M45.934308,49.2280702 C45.197076,48.8594542 44.8046784,48.2054581 44.7452242,47.2660819 C44.6500975,45.7916179 45.4705653,44.8403509 46.9331384,44.7452242 C48.4076023,44.6500975 49.3588694,45.4705653 49.4539961,46.9331384 C49.5134503,47.8962963 49.1923977,48.6335283 48.4908382,49.097271 C47.8249513,49.537232 46.6596491,49.5966862 45.934308,49.2280702 Z" id="Path"></path>
                <path d="M27.6461988,46.67154 C25.8863548,46.374269 23.5795322,45.5300195 22.0693957,44.6263158 C19.1918129,42.9021442 16.7185185,40.1315789 15.434308,37.1707602 C14.4473684,34.911501 14.0430799,32.9614035 14.0430799,30.4524366 C14.0430799,27.9434698 14.4473684,25.9933723 15.434308,23.7341131 C16.9920078,20.1549708 20.1549708,16.9920078 23.7341131,15.434308 C25.9933723,14.4473684 27.9434698,14.0430799 30.4524366,14.0430799 C32.9614035,14.0430799 34.911501,14.4473684 37.1707602,15.434308 C40.7499025,16.9920078 43.9128655,20.1549708 45.4705653,23.7341131 C46.4575049,25.9933723 46.8617934,27.9434698 46.8617934,30.4524366 C46.8617934,34.245614 45.7797271,37.479922 43.5204678,40.4407407 C40.9996101,43.7463938 37.2183236,46.0294347 33.1516569,46.6834308 C31.8079922,46.8974659 28.9660819,46.8974659 27.6461988,46.67154 Z M33.4251462,41.6298246 C35.5179337,41.0233918 37.1231969,40.0840156 38.6095517,38.6095517 C40.1077973,37.0994152 41.0352827,35.5060429 41.6536062,33.365692 C41.891423,32.5452242 41.9270955,32.1528265 41.9270955,30.4524366 C41.9270955,28.2883041 41.7725146,27.4916179 41.011501,25.7555556 C39.905653,23.2465887 37.6582846,20.9992203 35.1493177,19.8933723 C33.4132554,19.1323587 32.6165692,18.9777778 30.4524366,18.9777778 C28.2883041,18.9777778 27.4916179,19.1323587 25.7555556,19.8933723 C23.2465887,20.9992203 20.9992203,23.2465887 19.8933723,25.7555556 C19.1323587,27.4916179 18.9777778,28.2883041 18.9777778,30.4524366 C18.9777778,32.1528265 19.0134503,32.5452242 19.2512671,33.365692 C19.8695906,35.5060429 20.797076,37.0994152 22.2953216,38.6095517 C23.8054581,40.1077973 25.4820663,41.082846 27.4797271,41.6179337 C28.7996101,41.9746589 28.8233918,41.9746589 30.7497076,41.9270955 C32.1528265,41.9033138 32.7235867,41.8438596 33.4251462,41.6298246 Z" id="Shape" fill-rule="nonzero"></path>
            </g>
        </g>
    </g>
</svg>