<?xml version="1.0" encoding="UTF-8"?>
<svg width="68px" height="65px" viewBox="0 0 68 65" version="1.1" xmlns="http://www.w3.org/2000/svg" xmlns:xlink="http://www.w3.org/1999/xlink">
    <!-- Generator: Sketch 52.6 (67491) - http://www.bohemiancoding.com/sketch -->
    <title>Group 9</title>
    <desc>Created with Sketch.</desc>
    <g id="Page-1" stroke="none" stroke-width="1" fill="none" fill-rule="evenodd">
        <g id="BLOGS" transform="translate(-688.000000, -16.000000)">
            <g id="Group-5" transform="translate(-1.000000, 0.000000)">
                <g id="Group-4" transform="translate(689.000000, 16.000000)">
                    <g id="Group-9">
                        <g id="Group" transform="translate(16.038000, 0.594000)">
                            <path d="M8.05403944,13.8870878 C9.97156267,14.0760353 11.5319586,14.3835525 12.7352273,14.8096396 C13.9384959,15.2357266 15.4988919,16.0333067 17.4164151,17.2023798 L17.4164151,29.3627917 C15.7706773,28.7418117 14.5180632,28.3592144 13.6585727,28.215 C12.7990823,28.0707856 11.77149,28.0707856 10.5757961,28.215 L8.05403944,13.8870878 Z" id="Path-3" fill="#FFFFFF"></path>
                            <path d="M18.954,14.1075 C20.8715232,14.2964475 22.4319192,14.6039648 23.6351878,15.0300518 C24.8384565,15.4561389 26.3988524,16.253719 28.3163757,17.4227921 L28.3163757,29.5832039 C26.6706379,28.9622239 25.4180237,28.5796267 24.5585333,28.4354122 C23.6990428,28.2911978 22.6714506,28.2911978 21.4757566,28.4354122 L18.954,14.1075 Z" id="Path-3" fill="#FFFFFF" transform="translate(23.635188, 21.845352) scale(-1, 1) translate(-23.635188, -21.845352) "></path>
                            <path d="M6.41068416,25.1023436 C2.67289314,27.2518571 1.88649889,28.9982775 4.05150141,30.3416048 C7.2990052,32.3565957 11.7145596,33.0395135 18.0015723,33.0395135 C22.1929141,33.0395135 26.6324923,32.1402106 31.3203069,30.3416048" id="Path-4" stroke="#FFFFFF" stroke-width="1.38996"></path>
                            <path d="M6.99125964,19.0553598 C6.9071206,17.9336843 6.31332618,17.0196723 5.2098764,16.3133238 C3.55470173,15.253801 1.30487178,14.6468443 0.160376669,17.0262685 C-0.60262007,18.6125513 2.19424151,21.4100983 8.5509614,25.4189095" id="Path-5" stroke="#FFFFFF" stroke-width="1.38996"></path>
                            <path d="M17.6974046,0.573668438 C16.1871899,1.57313677 15.634055,2.73963406 16.038,4.0731603 C16.6439175,6.07344966 19.2014402,6.2408859 19.6156038,6.9061371 C19.8917129,7.3496379 19.6958083,8.6088666 19.0278901,10.6838232" id="Path-6" stroke="#FFFFFF" stroke-width="1.38996"></path>
                            <path d="M13.5433553,3.28884436 C12.9486446,4.0566954 12.9486446,5.08799668 13.5433553,6.38274818 C14.4354214,8.32487544 15.7549679,8.18269986 16.038,8.71996364 C16.2266881,9.07813949 16.2266881,9.87754827 16.038,11.11819" id="Path-7" stroke="#FFFFFF" stroke-width="1.38996"></path>
                        </g>
                        <path d="M5.966136,52.888286 L5.966136,53.593958 C5.966136,53.9467958 5.89931167,54.2809174 5.765661,54.596333 C5.63201033,54.9117486 5.44757518,55.1924108 5.21235,55.438328 C4.97712482,55.6842452 4.70180858,55.8793723 4.386393,56.023715 C4.07097742,56.1680577 3.73150982,56.240228 3.36798,56.240228 C3.05791045,56.240228 2.7424996,56.1974604 2.421738,56.111924 C2.1009764,56.0263876 1.81229528,55.8767011 1.555686,55.66286 C1.29907672,55.4490189 1.08791183,55.1737027 0.922185,54.836903 C0.756458171,54.5001033 0.673596,54.0697546 0.673596,53.545844 L0.673596,47.258948 C0.673596,46.8847261 0.737747358,46.5372396 0.866052,46.216478 C0.994356642,45.8957164 1.17611882,45.6177272 1.411344,45.382502 C1.64656918,45.1472768 1.92723137,44.9628417 2.253339,44.829191 C2.57944663,44.6955403 2.94029802,44.628716 3.335904,44.628716 C4.10573185,44.628716 4.73120759,44.8799755 5.21235,45.382502 C5.44757518,45.6284192 5.63201033,45.9197733 5.765661,46.256573 C5.89931167,46.5933727 5.966136,46.95957 5.966136,47.355176 L5.966136,47.996696 L4.33026,47.996696 L4.33026,47.451404 C4.33026,47.1306424 4.23937891,46.8526532 4.057614,46.617428 C3.87584909,46.3822028 3.62993555,46.264592 3.319866,46.264592 C2.91356797,46.264592 2.64359767,46.3902217 2.509947,46.641485 C2.37629633,46.8927483 2.309472,47.2108321 2.309472,47.595746 L2.309472,53.433578 C2.309472,53.7650317 2.38164228,54.0430209 2.525985,54.267554 C2.67032772,54.4920871 2.92960613,54.604352 3.303828,54.604352 C3.41074853,54.604352 3.52568639,54.5856412 3.648645,54.548219 C3.77160361,54.5107968 3.88654147,54.4493184 3.993462,54.363782 C4.08969048,54.2782456 4.16987968,54.1606347 4.234032,54.010946 C4.29818432,53.8612573 4.33026,53.6741491 4.33026,53.449616 L4.33026,52.888286 L5.966136,52.888286 Z M12.58983,44.724944 L12.58983,53.57792 C12.58983,53.9521419 12.5230057,54.2969554 12.389355,54.612371 C12.2557043,54.9277866 12.0659232,55.2084488 11.820006,55.454366 C11.5740888,55.7002832 11.2907536,55.8927373 10.969992,56.031734 C10.6492304,56.1707307 10.3070898,56.240228 9.94356,56.240228 C9.58003018,56.240228 9.24056258,56.1707307 8.925147,56.031734 C8.60973142,55.8927373 8.32906923,55.7002832 8.083152,55.454366 C7.83723477,55.2084488 7.64478069,54.9277866 7.505784,54.612371 C7.36678731,54.2969554 7.29729,53.9521419 7.29729,53.57792 L7.29729,44.724944 L8.933166,44.724944 L8.933166,53.41754 C8.933166,53.823838 9.02939304,54.123211 9.22185,54.315668 C9.41430696,54.508125 9.65487456,54.604352 9.94356,54.604352 C10.2322454,54.604352 10.472813,54.508125 10.66527,54.315668 C10.857727,54.123211 10.953954,53.823838 10.953954,53.41754 L10.953954,44.724944 L12.58983,44.724944 Z M14.129478,56.144 L14.129478,44.724944 L16.583292,44.724944 C17.0323582,44.724944 17.4279583,44.7837494 17.770104,44.901362 C18.1122497,45.0189746 18.4223146,45.2274665 18.700308,45.526844 C18.9783014,45.8262215 19.1707555,46.176381 19.277676,46.577333 C19.3845965,46.978285 19.438056,47.5208986 19.438056,48.20519 C19.438056,48.7184086 19.4086533,49.1514302 19.349847,49.504268 C19.2910407,49.8571058 19.165411,50.1885544 18.972954,50.498624 C18.7484209,50.8728459 18.4490479,51.1642 18.074826,51.372695 C17.7006041,51.58119 17.208777,51.685436 16.59933,51.685436 L15.765354,51.685436 L15.765354,56.144 L14.129478,56.144 Z M15.765354,46.264592 L15.765354,50.145788 L16.551216,50.145788 C16.8826697,50.145788 17.1392751,50.0976745 17.32104,50.001446 C17.5028049,49.9052175 17.6364536,49.7715689 17.72199,49.600496 C17.8075264,49.4401152 17.8583129,49.2423152 17.874351,49.00709 C17.8903891,48.7718648 17.898408,48.5099134 17.898408,48.221228 C17.898408,47.9539267 17.8930621,47.6999942 17.88237,47.459423 C17.8716779,47.2188518 17.8235644,47.0076869 17.738028,46.825922 C17.6524916,46.6441571 17.5241889,46.5051625 17.353116,46.408934 C17.1820431,46.3127055 16.9361296,46.264592 16.615368,46.264592 L15.765354,46.264592 Z M28.531602,56.144 L27.98631,55.277948 C27.6655484,55.5987096 27.3340997,55.8392772 26.991954,55.999658 C26.6498083,56.1600388 26.2542082,56.240228 25.805142,56.240228 C25.4843804,56.240228 25.1796614,56.1760766 24.890976,56.047772 C24.6022906,55.9194674 24.3510311,55.7377052 24.13719,55.50248 C23.9233489,55.2779469 23.7549516,55.0026306 23.631993,54.676523 C23.5090344,54.3504154 23.447556,53.989564 23.447556,53.593958 C23.447556,52.9631268 23.5972425,52.4124944 23.89662,51.942044 C24.1959975,51.4715936 24.5702138,51.033226 25.01928,50.626928 C24.7305946,50.22063 24.4926999,49.8009732 24.305589,49.367945 C24.1184781,48.9349168 24.024924,48.4778384 24.024924,47.996696 C24.024924,47.6973185 24.0730375,47.4113104 24.169266,47.138663 C24.2654945,46.8660156 24.4044891,46.628121 24.586254,46.424972 C24.7680189,46.232515 24.9978946,46.0774826 25.275888,45.95987 C25.5538814,45.8422574 25.8799841,45.783452 26.254206,45.783452 C26.6070438,45.783452 26.9171087,45.8395844 27.18441,45.951851 C27.4517113,46.0641176 27.6762411,46.2111311 27.858006,46.392896 C28.2322279,46.788502 28.419336,47.2749831 28.419336,47.852354 C28.419336,48.3976487 28.2536117,48.9108596 27.922158,49.392002 C27.5907043,49.8731444 27.2004502,50.316858 26.751384,50.723156 C26.8583045,50.8728447 26.9678964,51.043915 27.080163,51.236372 C27.1924296,51.428829 27.3180593,51.6319749 27.457056,51.845816 C27.7243573,52.3055743 27.9916547,52.7279041 28.258956,53.112818 L29.141046,51.909968 L30.15144,52.61564 L28.932552,54.187364 L30.167478,56.144 L28.531602,56.144 Z M24.890976,53.513768 C24.890976,53.909374 25.0059139,54.2488416 25.235793,54.532181 C25.4656721,54.8155204 25.7570262,54.957188 26.109864,54.957188 C26.3557812,54.957188 26.5910029,54.8796718 26.815536,54.724637 C27.0400691,54.5696022 27.2111394,54.4172427 27.328752,54.267554 L25.757028,51.765626 C25.5111108,52.0115432 25.3052918,52.2761676 25.139565,52.559507 C24.9738382,52.8428464 24.890976,53.1609302 24.890976,53.513768 Z M25.468344,48.028772 C25.468344,48.2746892 25.5271494,48.5393136 25.644762,48.822653 C25.7623746,49.1059924 25.9120611,49.3920006 26.093826,49.680686 C26.1900545,49.5844575 26.2969734,49.4748656 26.414586,49.351907 C26.5321986,49.2289484 26.6391175,49.0926267 26.735346,48.942938 C26.8315745,48.7932493 26.9117637,48.6301979 26.975916,48.453779 C27.0400683,48.2773601 27.072144,48.087579 27.072144,47.88443 C27.072144,47.681281 27.0026467,47.4941729 26.86365,47.3231 C26.7246533,47.1520271 26.5321992,47.066492 26.286282,47.066492 C26.0403648,47.066492 25.8425647,47.165392 25.692876,47.363195 C25.5431873,47.560998 25.468344,47.7828548 25.468344,48.028772 Z M34.337358,56.144 L34.337358,44.724944 L35.973234,44.724944 L35.973234,49.937294 L36.00531,49.937294 L38.394972,44.724944 L40.030848,44.724944 L37.801566,49.295774 L40.447836,56.144 L38.715732,56.144 L36.855324,51.075992 L35.973234,52.727906 L35.973234,56.144 L34.337358,56.144 Z M41.21766,56.144 L41.21766,44.724944 L42.853536,44.724944 L42.853536,56.144 L41.21766,56.144 Z M45.515844,56.144 L45.515844,46.264592 L43.62336,46.264592 L43.62336,44.724944 L49.044204,44.724944 L49.044204,46.264592 L47.15172,46.264592 L47.15172,56.144 L45.515844,56.144 Z M52.187652,52.150538 L51.385752,48.012734 L51.353676,48.012734 L50.551776,52.150538 L52.187652,52.150538 Z M48.146076,56.144 L50.696118,44.724944 L52.059348,44.724944 L54.60939,56.144 L52.973514,56.144 L52.492374,53.690186 L50.263092,53.690186 L49.781952,56.144 L48.146076,56.144 Z M58.715118,52.150538 L57.913218,48.012734 L57.881142,48.012734 L57.079242,52.150538 L58.715118,52.150538 Z M54.673542,56.144 L57.223584,44.724944 L58.586814,44.724944 L61.136856,56.144 L59.50098,56.144 L59.01984,53.690186 L56.790558,53.690186 L56.309418,56.144 L54.673542,56.144 Z M61.938756,56.144 L61.938756,44.724944 L64.328418,44.724944 C64.8523286,44.724944 65.2987152,44.8051332 65.667591,44.965514 C66.0364668,45.1258948 66.3385128,45.3397327 66.573738,45.607034 C66.8089632,45.8743353 66.9773605,46.1817273 67.078935,46.529219 C67.1805095,46.8767107 67.231296,47.2375621 67.231296,47.611784 L67.231296,48.028772 C67.231296,48.3388416 67.2072392,48.6007929 67.159125,48.814634 C67.1110108,49.0284751 67.0388405,49.2155832 66.942612,49.375964 C66.7608471,49.6753415 66.4828579,49.9319469 66.108636,50.145788 C66.4935499,50.3275529 66.7768851,50.5948502 66.95865,50.947688 C67.1404149,51.3005258 67.231296,51.781661 67.231296,52.391108 L67.231296,53.032628 C67.231296,54.037681 66.9880554,54.8074973 66.501567,55.3421 C66.0150786,55.8767027 65.2372433,56.144 64.168038,56.144 L61.938756,56.144 Z M63.574632,50.85146 L63.574632,54.508124 L64.280304,54.508124 C64.6117577,54.508124 64.8710361,54.4600105 65.058147,54.363782 C65.2452579,54.2675535 65.3869255,54.1339049 65.483154,53.962832 C65.5793825,53.7917591 65.6381879,53.5886132 65.659572,53.353388 C65.6809561,53.1181628 65.691648,52.8615574 65.691648,52.583564 C65.691648,52.2948786 65.6756102,52.0436191 65.643534,51.829778 C65.6114578,51.6159369 65.5473065,51.4341747 65.451078,51.284486 C65.3441575,51.1347973 65.1998169,51.0252053 65.018052,50.955707 C64.8362871,50.8862087 64.5957195,50.85146 64.296342,50.85146 L63.574632,50.85146 Z M63.574632,46.264592 L63.574632,49.40804 L64.31238,49.40804 C64.8576747,49.40804 65.2238721,49.2717184 65.410983,48.999071 C65.5980939,48.7264236 65.691648,48.3281506 65.691648,47.80424 C65.691648,47.2910214 65.587402,46.9061133 65.378907,46.649504 C65.170412,46.3928947 64.7935227,46.264592 64.248228,46.264592 L63.574632,46.264592 Z" id="CUP-&amp;-KITAAB" fill="#FFFFFF"></path>
                        <path d="M0.240152344,63.1705244 L0.71784668,63.1287588 C0.74046984,63.3201855 0.793111403,63.4772401 0.875772949,63.5999272 C0.958434495,63.7226144 1.0867755,63.8218068 1.2607998,63.8975073 C1.43482411,63.9732079 1.63059852,64.0110576 1.84812891,64.0110576 C2.04129589,64.0110576 2.21183715,63.982344 2.35975781,63.924916 C2.50767847,63.867488 2.6177472,63.7887432 2.68996729,63.6886792 C2.76218737,63.5886152 2.79829687,63.4794166 2.79829687,63.3610801 C2.79829687,63.2410033 2.76349254,63.1361552 2.69388281,63.0465327 C2.62427309,62.9569102 2.50941877,62.8816458 2.34931641,62.8207373 C2.24664206,62.7807117 2.01954375,62.718499 1.66801465,62.6340972 C1.31648555,62.5496954 1.07024485,62.4700805 0.929285156,62.39525 C0.746559633,62.2995366 0.610387655,62.1807668 0.520765137,62.038937 C0.431142618,61.8971072 0.386332031,61.7383124 0.386332031,61.5625479 C0.386332031,61.3693809 0.441148866,61.1888334 0.55078418,61.0208999 C0.660419493,60.8529664 0.820519455,60.7254956 1.03108887,60.6384834 C1.24165828,60.5514712 1.47571746,60.5079658 1.73327344,60.5079658 C2.01693306,60.5079658 2.26708925,60.5536465 2.48374951,60.6450093 C2.70040977,60.736372 2.86703555,60.8708038 2.98363184,61.0483086 C3.10022812,61.2258134 3.16287593,61.4268084 3.17157715,61.6512998 L2.68605176,61.6878447 C2.65994811,61.4459509 2.5716321,61.2632282 2.42110107,61.1396709 C2.27057005,61.0161136 2.04825733,60.9543359 1.75415625,60.9543359 C1.44787347,60.9543359 1.22469064,61.0104579 1.08460107,61.1227036 C0.944511507,61.2349493 0.874467773,61.3702512 0.874467773,61.5286133 C0.874467773,61.6660925 0.924063957,61.7792066 1.02325781,61.867959 C1.12071142,61.9567114 1.37521816,62.0476377 1.78678564,62.1407407 C2.19835313,62.2338437 2.48070334,62.3151989 2.63384473,62.3848086 C2.85659584,62.4874829 3.02104634,62.6175642 3.12720117,62.7750562 C3.233356,62.9325482 3.28643262,63.1139658 3.28643262,63.3193145 C3.28643262,63.5229229 3.22813535,63.7147818 3.11153906,63.894897 C2.99494278,64.0750121 2.82744689,64.2150996 2.60904639,64.3151636 C2.39064588,64.4152276 2.14484023,64.4652588 1.87162207,64.4652588 C1.5253137,64.4652588 1.23513252,64.4147925 1.00106982,64.3138584 C0.76700713,64.2129243 0.58341424,64.0610904 0.450285645,63.8583521 C0.317157049,63.6556137 0.247113316,63.4263401 0.240152344,63.1705244 Z M5.48991751,64.4 L5.48991751,60.5732246 L5.99632571,60.5732246 L5.99632571,64.4 L5.48991751,64.4 Z M8.31466607,64.4 L8.31466607,60.5732246 L9.75819049,60.5732246 C10.012266,60.5732246 10.2063002,60.5854061 10.3402989,60.6097695 C10.5282451,60.6410939 10.6857348,60.7006963 10.8127725,60.7885786 C10.9398103,60.8764609 11.042048,60.9995812 11.1194888,61.1579434 C11.1969296,61.3163055 11.2356495,61.4903272 11.2356495,61.6800137 C11.2356495,62.0054391 11.1321066,62.2808285 10.9250176,62.5061899 C10.7179287,62.7315514 10.3437821,62.8442305 9.80256646,62.8442305 L8.82107428,62.8442305 L8.82107428,64.4 L8.31466607,64.4 Z M8.82107428,62.3926396 L9.81039752,62.3926396 C10.1375632,62.3926396 10.3698822,62.3317321 10.5073614,62.209915 C10.6448406,62.088098 10.7135792,61.9166867 10.7135792,61.6956758 C10.7135792,61.5355734 10.6731191,61.3985313 10.5921978,61.2845454 C10.5112765,61.1705595 10.4046882,61.0952951 10.2724297,61.05875 C10.1871578,61.0361268 10.0296682,61.0248154 9.79995611,61.0248154 L8.82107428,61.0248154 L8.82107428,62.3926396 Z M13.1337232,63.1705244 L13.6114176,63.1287588 C13.6340407,63.3201855 13.6866823,63.4772401 13.7693438,63.5999272 C13.8520054,63.7226144 13.9803464,63.8218068 14.1543707,63.8975073 C14.328395,63.9732079 14.5241694,64.0110576 14.7416998,64.0110576 C14.9348668,64.0110576 15.105408,63.982344 15.2533287,63.924916 C15.4012494,63.867488 15.5113181,63.7887432 15.5835382,63.6886792 C15.6557583,63.5886152 15.6918678,63.4794166 15.6918678,63.3610801 C15.6918678,63.2410033 15.6570634,63.1361552 15.5874537,63.0465327 C15.517844,62.9569102 15.4029897,62.8816458 15.2428873,62.8207373 C15.140213,62.7807117 14.9131146,62.718499 14.5615855,62.6340972 C14.2100564,62.5496954 13.9638157,62.4700805 13.822856,62.39525 C13.6401305,62.2995366 13.5039585,62.1807668 13.414336,62.038937 C13.3247135,61.8971072 13.2799029,61.7383124 13.2799029,61.5625479 C13.2799029,61.3693809 13.3347198,61.1888334 13.4443551,61.0208999 C13.5539904,60.8529664 13.7140903,60.7254956 13.9246598,60.6384834 C14.1352292,60.5514712 14.3692883,60.5079658 14.6268443,60.5079658 C14.9105039,60.5079658 15.1606601,60.5536465 15.3773204,60.6450093 C15.5939807,60.736372 15.7606064,60.8708038 15.8772027,61.0483086 C15.993799,61.2258134 16.0564468,61.4268084 16.065148,61.6512998 L15.5796226,61.6878447 C15.553519,61.4459509 15.465203,61.2632282 15.314672,61.1396709 C15.1641409,61.0161136 14.9418282,60.9543359 14.6477271,60.9543359 C14.3414444,60.9543359 14.1182615,61.0104579 13.978172,61.1227036 C13.8380824,61.2349493 13.7680387,61.3702512 13.7680387,61.5286133 C13.7680387,61.6660925 13.8176348,61.7792066 13.9168287,61.867959 C14.0142823,61.9567114 14.268789,62.0476377 14.6803565,62.1407407 C15.091924,62.2338437 15.3742742,62.3151989 15.5274156,62.3848086 C15.7501667,62.4874829 15.9146172,62.6175642 16.0207721,62.7750562 C16.1269269,62.9325482 16.1800035,63.1139658 16.1800035,63.3193145 C16.1800035,63.5229229 16.1217062,63.7147818 16.0051099,63.894897 C15.8885137,64.0750121 15.7210178,64.2150996 15.5026173,64.3151636 C15.2842168,64.4152276 15.0384111,64.4652588 14.765193,64.4652588 C14.4188846,64.4652588 14.1287034,64.4147925 13.8946407,64.3138584 C13.660578,64.2129243 13.4769851,64.0610904 13.3438565,63.8583521 C13.2107279,63.6556137 13.1406842,63.4263401 13.1337232,63.1705244 Z M21.0542262,62.536209 C21.0542262,61.9010203 21.2247675,61.4037533 21.5658551,61.0443931 C21.9069428,60.6850329 22.3472177,60.5053555 22.886693,60.5053555 C23.2399624,60.5053555 23.5584221,60.589756 23.8420817,60.7585596 C24.1257413,60.9273631 24.3419633,61.1627275 24.490754,61.4646597 C24.6395448,61.7665918 24.7139391,62.1089795 24.7139391,62.491833 C24.7139391,62.8799072 24.6356293,63.2270805 24.4790075,63.5333633 C24.3223856,63.8396461 24.1005079,64.07153 23.8133678,64.229022 C23.5262277,64.386514 23.2164691,64.4652588 22.8840827,64.4652588 C22.5238523,64.4652588 22.2019122,64.3782479 21.9182526,64.2042236 C21.634593,64.0301993 21.4196762,63.7926597 21.2734957,63.4915977 C21.1273153,63.1905356 21.0542262,62.8720759 21.0542262,62.536209 Z M21.5762965,62.54404 C21.5762965,63.0052045 21.700287,63.3684747 21.9482716,63.6338618 C22.1962563,63.8992489 22.5073201,64.0319404 22.8814723,64.0319404 C23.2625855,64.0319404 23.5762597,63.8979437 23.822504,63.6299463 C24.0687484,63.3619489 24.1918688,62.9817114 24.1918688,62.4892227 C24.1918688,62.1777191 24.1392272,61.9058102 24.0339425,61.6734878 C23.9286578,61.4411653 23.7746486,61.2610529 23.5719103,61.133145 C23.369172,61.0052372 23.1416386,60.9412842 22.8893034,60.9412842 C22.5308133,60.9412842 22.2223598,61.0644045 21.9639337,61.3106489 C21.7055076,61.5568933 21.5762965,61.9680196 21.5762965,62.54404 Z M26.8182306,64.4 L26.8182306,60.5732246 L29.3998683,60.5732246 L29.3998683,61.0248154 L27.3246388,61.0248154 L27.3246388,62.209915 L29.1205607,62.209915 L29.1205607,62.6615059 L27.3246388,62.6615059 L27.3246388,64.4 L26.8182306,64.4 Z M34.221884,63.1705244 L34.6995784,63.1287588 C34.7222015,63.3201855 34.7748431,63.4772401 34.8575046,63.5999272 C34.9401662,63.7226144 35.0685072,63.8218068 35.2425315,63.8975073 C35.4165558,63.9732079 35.6123302,64.0110576 35.8298606,64.0110576 C36.0230276,64.0110576 36.1935688,63.982344 36.3414895,63.924916 C36.4894101,63.867488 36.5994789,63.7887432 36.671699,63.6886792 C36.743919,63.5886152 36.7800286,63.4794166 36.7800286,63.3610801 C36.7800286,63.2410033 36.7452242,63.1361552 36.6756145,63.0465327 C36.6060048,62.9569102 36.4911504,62.8816458 36.3310481,62.8207373 C36.2283737,62.7807117 36.0012754,62.718499 35.6497463,62.6340972 C35.2982172,62.5496954 35.0519765,62.4700805 34.9110168,62.39525 C34.7282913,62.2995366 34.5921193,62.1807668 34.5024968,62.038937 C34.4128743,61.8971072 34.3680637,61.7383124 34.3680637,61.5625479 C34.3680637,61.3693809 34.4228805,61.1888334 34.5325159,61.0208999 C34.6421512,60.8529664 34.8022511,60.7254956 35.0128205,60.6384834 C35.22339,60.5514712 35.4574491,60.5079658 35.7150051,60.5079658 C35.9986647,60.5079658 36.2488209,60.5536465 36.4654812,60.6450093 C36.6821414,60.736372 36.8487672,60.8708038 36.9653635,61.0483086 C37.0819598,61.2258134 37.1446076,61.4268084 37.1533088,61.6512998 L36.6677834,61.6878447 C36.6416798,61.4459509 36.5533638,61.2632282 36.4028327,61.1396709 C36.2523017,61.0161136 36.029989,60.9543359 35.7358879,60.9543359 C35.4296051,60.9543359 35.2064223,61.0104579 35.0663327,61.1227036 C34.9262432,61.2349493 34.8561994,61.3702512 34.8561994,61.5286133 C34.8561994,61.6660925 34.9057956,61.7792066 35.0049895,61.867959 C35.1024431,61.9567114 35.3569498,62.0476377 35.7685173,62.1407407 C36.1800848,62.2338437 36.462435,62.3151989 36.6155764,62.3848086 C36.8383275,62.4874829 37.002778,62.6175642 37.1089328,62.7750562 C37.2150877,62.9325482 37.2681643,63.1139658 37.2681643,63.3193145 C37.2681643,63.5229229 37.209867,63.7147818 37.0932707,63.894897 C36.9766745,64.0750121 36.8091786,64.2150996 36.5907781,64.3151636 C36.3723776,64.4152276 36.1265719,64.4652588 35.8533537,64.4652588 C35.5070454,64.4652588 35.2168642,64.4147925 34.9828015,64.3138584 C34.7487388,64.2129243 34.5651459,64.0610904 34.4320173,63.8583521 C34.2988887,63.6556137 34.228845,63.4263401 34.221884,63.1705244 Z M40.3591687,64.4 L40.3591687,61.0248154 L39.0983689,61.0248154 L39.0983689,60.5732246 L42.1315974,60.5732246 L42.1315974,61.0248154 L40.8655769,61.0248154 L40.8655769,64.4 L40.3591687,64.4 Z M43.8260638,62.536209 C43.8260638,61.9010203 43.996605,61.4037533 44.3376927,61.0443931 C44.6787803,60.6850329 45.1190552,60.5053555 45.6585306,60.5053555 C46.0117999,60.5053555 46.3302596,60.589756 46.6139192,60.7585596 C46.8975789,60.9273631 47.1138008,61.1627275 47.2625916,61.4646597 C47.4113824,61.7665918 47.4857767,62.1089795 47.4857767,62.491833 C47.4857767,62.8799072 47.4074669,63.2270805 47.250845,63.5333633 C47.0942231,63.8396461 46.8723455,64.07153 46.5852054,64.229022 C46.2980653,64.386514 45.9883066,64.4652588 45.6559202,64.4652588 C45.2956899,64.4652588 44.9737498,64.3782479 44.6900901,64.2042236 C44.4064305,64.0301993 44.1915137,63.7926597 44.0453333,63.4915977 C43.8991529,63.1905356 43.8260638,62.8720759 43.8260638,62.536209 Z M44.3481341,62.54404 C44.3481341,63.0052045 44.4721245,63.3684747 44.7201092,63.6338618 C44.9680938,63.8992489 45.2791576,64.0319404 45.6533099,64.0319404 C46.0344231,64.0319404 46.3480972,63.8979437 46.5943416,63.6299463 C46.840586,63.3619489 46.9637063,62.9817114 46.9637063,62.4892227 C46.9637063,62.1777191 46.9110648,61.9058102 46.8057801,61.6734878 C46.7004954,61.4411653 46.5464862,61.2610529 46.3437478,61.133145 C46.1410095,61.0052372 45.9134762,60.9412842 45.6611409,60.9412842 C45.3026508,60.9412842 44.9941974,61.0644045 44.7357713,61.3106489 C44.4773452,61.5568933 44.3481341,61.9680196 44.3481341,62.54404 Z M49.5717957,64.4 L49.5717957,60.5732246 L51.2685242,60.5732246 C51.6096119,60.5732246 51.8689042,60.6075939 52.046409,60.6763335 C52.2239138,60.7450731 52.3657415,60.8664532 52.4718963,61.0404775 C52.5780511,61.2145018 52.6311278,61.4067958 52.6311278,61.6173652 C52.6311278,61.8888432 52.5432468,62.1176817 52.3674822,62.3038877 C52.1917177,62.4900937 51.9202439,62.6084285 51.5530526,62.6588955 C51.6870513,62.7232845 51.788854,62.7868024 51.8584637,62.8494512 C52.0063844,62.9851901 52.1464718,63.1548613 52.2787303,63.3584697 L52.9443699,64.4 L52.3074442,64.4 L51.801036,63.6038428 C51.6531153,63.3741307 51.5313001,63.1983688 51.4355867,63.0765518 C51.3398734,62.9547347 51.2541677,62.8694641 51.1784671,62.8207373 C51.1027665,62.7720105 51.0257619,62.7380763 50.947451,62.7189336 C50.890023,62.7067519 50.7960513,62.7006611 50.665533,62.7006611 L50.0782039,62.7006611 L50.0782039,64.4 L49.5717957,64.4 Z M50.0782039,62.2621221 L51.1667205,62.2621221 C51.3981729,62.2621221 51.5791554,62.2381941 51.7096737,62.1903374 C51.8401919,62.1424807 51.9393843,62.0659112 52.0072537,61.9606265 C52.0751232,61.8553418 52.1090574,61.7409225 52.1090574,61.6173652 C52.1090574,61.43638 52.0433643,61.2875914 51.9119759,61.1709951 C51.7805875,61.0543988 51.5730667,60.9961016 51.2894071,60.9961016 L50.0782039,60.9961016 L50.0782039,62.2621221 Z M54.9364164,64.4 L54.9364164,60.5732246 L55.4428246,60.5732246 L55.4428246,64.4 L54.9364164,64.4 Z M57.7716063,64.4 L57.7716063,60.5732246 L60.538579,60.5732246 L60.538579,61.0248154 L58.2780145,61.0248154 L58.2780145,62.1968633 L60.3950097,62.1968633 L60.3950097,62.6458437 L58.2780145,62.6458437 L58.2780145,63.9484092 L60.6273309,63.9484092 L60.6273309,64.4 L57.7716063,64.4 Z M62.5802221,63.1705244 L63.0579164,63.1287588 C63.0805396,63.3201855 63.1331811,63.4772401 63.2158427,63.5999272 C63.2985042,63.7226144 63.4268452,63.8218068 63.6008695,63.8975073 C63.7748939,63.9732079 63.9706683,64.0110576 64.1881986,64.0110576 C64.3813656,64.0110576 64.5519069,63.982344 64.6998276,63.924916 C64.8477482,63.867488 64.9578169,63.7887432 65.030037,63.6886792 C65.1022571,63.5886152 65.1383666,63.4794166 65.1383666,63.3610801 C65.1383666,63.2410033 65.1035623,63.1361552 65.0339526,63.0465327 C64.9643428,62.9569102 64.8494885,62.8816458 64.6893861,62.8207373 C64.5867118,62.7807117 64.3596135,62.718499 64.0080844,62.6340972 C63.6565553,62.5496954 63.4103146,62.4700805 63.2693549,62.39525 C63.0866294,62.2995366 62.9504574,62.1807668 62.8608349,62.038937 C62.7712124,61.8971072 62.7264018,61.7383124 62.7264018,61.5625479 C62.7264018,61.3693809 62.7812186,61.1888334 62.8908539,61.0208999 C63.0004892,60.8529664 63.1605892,60.7254956 63.3711586,60.6384834 C63.581728,60.5514712 63.8157872,60.5079658 64.0733432,60.5079658 C64.3570028,60.5079658 64.607159,60.5536465 64.8238192,60.6450093 C65.0404795,60.736372 65.2071053,60.8708038 65.3237016,61.0483086 C65.4402979,61.2258134 65.5029457,61.4268084 65.5116469,61.6512998 L65.0261215,61.6878447 C65.0000178,61.4459509 64.9117018,61.2632282 64.7611708,61.1396709 C64.6106398,61.0161136 64.3883271,60.9543359 64.094226,60.9543359 C63.7879432,60.9543359 63.5647604,61.0104579 63.4246708,61.1227036 C63.2845812,61.2349493 63.2145375,61.3702512 63.2145375,61.5286133 C63.2145375,61.6660925 63.2641337,61.7792066 63.3633276,61.867959 C63.4607812,61.9567114 63.7152879,62.0476377 64.1268554,62.1407407 C64.5384229,62.2338437 64.8207731,62.3151989 64.9739145,62.3848086 C65.1966656,62.4874829 65.3611161,62.6175642 65.4672709,62.7750562 C65.5734257,62.9325482 65.6265024,63.1139658 65.6265024,63.3193145 C65.6265024,63.5229229 65.5682051,63.7147818 65.4516088,63.894897 C65.3350125,64.0750121 65.1675166,64.2150996 64.9491161,64.3151636 C64.7307156,64.4152276 64.48491,64.4652588 64.2116918,64.4652588 C63.8653834,64.4652588 63.5752023,64.4147925 63.3411396,64.3138584 C63.1070769,64.2129243 62.923484,64.0610904 62.7903554,63.8583521 C62.6572268,63.6556137 62.5871831,63.4263401 62.5802221,63.1705244 Z" id="SIPS-OF-STORIES" fill="#FFFFFF"></path>
                    </g>
                </g>
            </g>
        </g>
    </g>
</svg>