<?xml version="1.0" encoding="UTF-8"?>
<svg width="49px" height="49px" viewBox="0 0 49 49" version="1.1" xmlns="http://www.w3.org/2000/svg" xmlns:xlink="http://www.w3.org/1999/xlink">
    <!-- Generator: Sketch 52.6 (67491) - http://www.bohemiancoding.com/sketch -->
    <title>pizza copy</title>
    <desc>Created with Sketch.</desc>
    <g id="Page-1" stroke="none" stroke-width="1" fill="none" fill-rule="evenodd" opacity="0.328078497">
        <g id="pizza-copy" fill="#BE8400">
            <path d="M21.34851,48.673532 C17.1145677,48.1490071 13.2239179,46.5754322 9.71470445,43.971881 C8.28431851,42.9037575 5.90034196,40.5195531 4.83232047,39.0890305 C2.20041036,35.5413344 0.646057645,31.6598497 0.121582804,27.3587451 C-0.0405276014,25.9472961 -0.0405276014,22.8573672 0.121582804,21.4459182 C0.646057645,17.1448136 2.20041036,13.2633289 4.83232047,9.71563277 C5.90034196,8.28511016 8.28431851,5.9009058 9.71470445,4.83278224 C13.2620616,2.20062063 17.1431754,0.646119382 21.4438691,0.121594422 C22.8551832,-0.0405314741 25.9448168,-0.0405314741 27.3561309,0.121594422 C31.6568246,0.646119382 35.5379384,2.20062063 39.0852956,4.83278224 C40.5156815,5.9009058 42.899658,8.28511016 43.9676795,9.71563277 C46.5995896,13.2633289 48.1539424,17.1448136 48.6784172,21.4459182 C48.8405276,22.8573672 48.8405276,25.9472961 48.6784172,27.3587451 C48.1539424,31.6598497 46.5995896,35.5413344 43.9676795,39.0890305 C42.899658,40.5195531 40.5156815,42.9037575 39.0852956,43.971881 C35.5379384,46.6040427 31.6568246,48.1585439 27.3561309,48.6830689 C25.9924963,48.8451948 22.7026087,48.8356579 21.34851,48.673532 Z M27.6422081,46.9569049 C34.2982706,45.9555391 40.1151734,42.1503489 43.7292819,36.4473321 C44.4158671,35.3505981 45.4648168,33.1857405 45.8843967,31.9745647 C46.3135125,30.7443152 46.7521641,28.9513936 46.97149,27.5494814 C47.2003517,26.0331274 47.2003517,22.7715359 46.97149,21.2551819 C46.2276893,16.4104786 44.1583977,12.157058 40.8780459,8.70473012 C37.311617,4.9758345 32.7534538,2.62977741 27.546849,1.82868475 C26.03064,1.59980113 22.76936,1.59980113 21.253151,1.82868475 C16.0465462,2.62977741 11.488383,4.9758345 7.92195408,8.70473012 C6.23409868,10.4785782 4.99443087,12.2714998 3.89780166,14.5317256 C2.85838788,16.6679727 2.20994626,18.7851462 1.82851001,21.2551819 C1.59964827,22.7715359 1.59964827,26.0331274 1.82851001,27.5494814 C2.5723107,32.3941847 4.64160234,36.6476052 7.92195408,40.0999332 C10.9543723,43.2661566 14.7878065,45.4977718 18.9740694,46.5182113 C20.0897704,46.7852422 21.6822667,47.0522731 22.7312164,47.1381044 C23.6657352,47.214399 26.6600098,47.0999572 27.6422081,46.9569049 Z" id="Shape" fill-rule="nonzero" transform="translate(24.400000, 24.400000) scale(-1, 1) rotate(-180.000000) translate(-24.400000, -24.400000) "></path>
            <path d="M23.764823,45.4717069 C23.5295555,45.4058078 22.7955209,45.1327973 22.1179505,44.8597868 L20.9039701,44.3608366 L19.1065264,44.3043517 C17.3373148,44.2384526 17.3090827,44.2384526 16.6691551,43.9371996 C16.1515666,43.6924316 15.79396,43.4100069 14.975229,42.6098038 C13.7800701,41.4424485 13.5448026,41.2824079 12.1896618,40.7269727 C10.9380387,40.2091942 10.5427893,39.9832545 10.0628436,39.4748901 C9.56407646,38.9571116 9.38527316,38.6276161 8.88650605,37.4226043 C8.33127474,36.0669659 8.17129284,35.8316121 7.00436602,34.6360144 C6.20445651,33.8169829 5.92213551,33.459245 5.6774573,32.9414664 C5.3763149,32.3013039 5.3763149,32.2730614 5.31044,30.5032002 L5.25397579,28.7050966 L4.75520869,27.4906706 C3.74826377,24.9959195 3.74826377,24.6193533 4.75520869,22.1246022 L5.25397579,20.9101762 L5.31044,19.1120725 C5.3763149,17.3422114 5.3763149,17.3139689 5.6774573,16.6738064 C5.92213551,16.1560278 6.20445651,15.7982899 7.00436602,14.9792584 C8.17129284,13.7836607 8.33127474,13.5483068 8.88650605,12.1926685 C9.38527316,10.9876567 9.56407646,10.6581612 10.0628436,10.1403827 C10.5427893,9.63201831 10.9380387,9.40607859 12.1896618,8.88830005 C13.5448026,8.3328649 13.7800701,8.17282426 14.975229,7.00546903 C15.79396,6.20526584 16.1515666,5.92284119 16.6691551,5.67807315 C17.3090827,5.37682019 17.3373148,5.37682019 19.1065264,5.3109211 L20.9039701,5.25443617 L22.1179505,4.75548595 C24.611786,3.74817135 24.988214,3.74817135 27.4820495,4.75548595 L28.7054406,5.25443617 L30.4934736,5.3109211 C32.2626852,5.36740603 32.2909173,5.36740603 32.9308449,5.67807315 C33.4484334,5.92284119 33.8154507,6.20526584 34.624771,7.00546903 C35.8199299,8.17282426 36.0551974,8.3328649 37.4103382,8.88830005 C38.6619613,9.40607859 39.0572107,9.63201831 39.5371564,10.1403827 C40.0359235,10.6581612 40.2147268,10.9876567 40.7134939,12.1926685 C41.2687253,13.5483068 41.4287072,13.7836607 42.595634,14.9792584 C43.3955435,15.7982899 43.6778645,16.1560278 43.9225427,16.6738064 C44.2236851,17.3139689 44.2236851,17.3422114 44.28956,19.1120725 L44.3460242,20.9101762 L44.8447913,22.1246022 C45.8517362,24.6193533 45.8517362,24.9959195 44.8447913,27.4906706 L44.3460242,28.7145108 L44.28956,30.5032002 C44.2330958,32.2730614 44.2330958,32.3013039 43.9225427,32.9414664 C43.6778645,33.459245 43.3955435,33.826397 42.595634,34.6360144 C41.4287072,35.8316121 41.2687253,36.0669659 40.7134939,37.4226043 C40.2147268,38.6276161 40.0359235,38.9571116 39.5371564,39.4748901 C39.0572107,39.9832545 38.6619613,40.2091942 37.4103382,40.7269727 C36.0551974,41.2824079 35.8199299,41.4424485 34.624771,42.6098038 C33.80604,43.4100069 33.4484334,43.6924316 32.9308449,43.9371996 C32.2909173,44.2384526 32.2626852,44.2384526 30.4934736,44.3043517 L28.6960299,44.3608366 L27.4820495,44.8597868 C26.8044791,45.1327973 26.0516231,45.415222 25.7881235,45.4811211 C25.2140708,45.6411617 24.329465,45.6411617 23.764823,45.4717069 Z M26.399819,43.4947343 C28.0184595,42.7886727 28.0843344,42.7698444 30.0229386,42.7039453 C31.3404366,42.6568745 31.9050786,42.5909754 32.1591675,42.4874197 C32.3473815,42.4026923 33.0437733,41.8190147 33.6931116,41.1882663 C34.9541455,39.9738403 35.1988237,39.8232138 37.2691777,38.9665257 C38.1255514,38.618202 38.6054971,38.1380801 38.953693,37.2813919 C39.800656,35.219692 39.9606379,34.9560956 41.1463862,33.7322555 C41.7580817,33.0920929 42.3415451,32.4048596 42.4450628,32.1977482 C42.595634,31.8870811 42.6332768,31.519929 42.689741,30.0324925 C42.7556159,28.0931765 42.7744373,28.0084491 43.4896505,26.4080428 C43.8096143,25.6831528 43.8378464,25.5325263 43.8378464,24.8076364 C43.8378464,24.0827464 43.8096143,23.93212 43.4896505,23.20723 C42.7744373,21.6162378 42.7556159,21.5220962 42.689741,19.5827803 C42.6426875,18.2647986 42.5768126,17.6999493 42.4732949,17.4457671 C42.3885986,17.257484 41.8051352,16.5608365 41.1746183,15.9112598 C39.9606379,14.649763 39.8100667,14.404995 38.953693,12.3338808 C38.6054971,11.4771927 38.1255514,10.9970708 37.2691777,10.6487471 C35.2082344,9.8014731 34.9447348,9.64143247 33.7213437,8.45524892 C33.0814161,7.84332883 32.394435,7.25965122 32.1873996,7.15609551 C31.8768465,7.00546903 31.5098292,6.96781241 30.0229386,6.91132748 C28.0937451,6.84542839 28.1219772,6.85484255 26.4468725,6.13936675 C25.6187309,5.79104301 25.4211062,5.74397224 24.8,5.74397224 C24.1694831,5.74397224 23.9812691,5.79104301 23.0401991,6.19585169 C21.5062549,6.84542839 21.1204162,6.92074163 19.5300079,6.92074163 C17.5161181,6.92074163 17.4502432,6.9489841 15.9445312,8.39876399 C14.6364438,9.65084662 14.4011763,9.79205895 12.3308223,10.6487471 C11.4744486,10.9970708 10.9945029,11.4771927 10.646307,12.3338808 C9.79934397,14.3955808 9.63936206,14.6591772 8.45361384,15.8830173 C7.84191834,16.5231799 7.25845493,17.2104132 7.15493722,17.4175246 C7.00436602,17.7281917 6.96672322,18.0953438 6.91025902,19.5827803 C6.84438412,21.5220962 6.82556272,21.6068236 6.11034951,23.20723 C5.7903857,23.93212 5.7621536,24.0827464 5.7621536,24.8076364 C5.7621536,25.5325263 5.7903857,25.6831528 6.11034951,26.4080428 C6.82556272,27.999035 6.84438412,28.0931765 6.91025902,30.0324925 C6.95731252,31.3504742 7.02318742,31.9153235 7.12670512,32.1695057 C7.21140143,32.3577888 7.79486483,33.0544363 8.42538174,33.704013 C9.63936206,34.9655098 9.78993327,35.2102778 10.646307,37.2813919 C10.9945029,38.1380801 11.4744486,38.618202 12.3308223,38.9665257 C14.3917656,39.8137997 14.6552652,39.9738403 15.8786563,41.1600239 C16.5185839,41.7719439 17.205565,42.3556216 17.4126004,42.4591773 C17.7231535,42.6098038 18.0901708,42.6474604 19.5770614,42.7039453 C21.4874335,42.7698444 21.5438977,42.7792585 23.106074,43.4476636 C24.1694831,43.899543 24.235358,43.9183713 24.9411605,43.8807147 C25.4399276,43.8524722 25.7975342,43.7583307 26.399819,43.4947343 Z" id="Shape" fill-rule="nonzero" transform="translate(24.800000, 24.800000) scale(-1, 1) rotate(-180.000000) translate(-24.800000, -24.800000) "></path>
            <path d="M22.8176602,10.2902122 C22.5113761,10.1346796 22.4,9.92425303 22.4,9.54914483 C22.4,9.23807951 22.4649694,9.11914276 22.9383176,8.65254477 C23.2353204,8.34147944 23.5972926,8.07615901 23.7643566,8.03041411 C24.3583623,7.86573246 24.9245238,8.39637332 24.7760224,8.98190806 C24.6553651,9.44850605 23.5880112,10.4 23.198195,10.4 C23.086819,10.4 22.9197549,10.3451061 22.8176602,10.2902122 Z" id="Path" transform="translate(23.600000, 9.200000) scale(-1, 1) rotate(-180.000000) translate(-23.600000, -9.200000) "></path>
            <path d="M27.2093131,15.1170435 C27.0712255,15.0710156 26.7950501,14.9237264 26.6017274,14.7948484 C25.3865559,13.9479356 25.2484682,12.0147651 26.3439637,11.002152 C26.9699612,10.4222008 28.2035443,10.2196782 29.0044528,10.5786956 C29.5015684,10.7996293 30.1275659,11.4624307 30.2932711,11.9503261 C30.4497704,12.4198103 30.4313587,13.3219566 30.2564477,13.745413 C29.8974197,14.6199425 28.9860411,15.2090992 28.0286333,15.1998936 C27.7248404,15.1998936 27.3566066,15.1538658 27.2093131,15.1170435 Z M28.2679853,13.5520959 C28.461308,13.5520959 28.8111301,13.0549949 28.8111301,12.7972389 C28.8111301,12.4750438 28.3692495,11.9871484 28.0746625,11.9871484 C27.5591352,11.9871484 27.1632839,12.4382215 27.2369307,12.9537336 C27.2921657,13.3035454 27.7800755,13.680974 28.0562508,13.5889182 C28.1298976,13.5705071 28.221956,13.5520959 28.2679853,13.5520959 Z" id="Shape" fill-rule="nonzero" transform="translate(28.000000, 12.800000) scale(-1, 1) rotate(-180.000000) translate(-28.000000, -12.800000) "></path>
            <path d="M18.5806108,18.3354839 C17.0338939,17.84 16.0788741,16.5909677 16.0062096,14.9703226 C15.9543063,13.876129 16.2242032,13.1225806 16.9508487,12.3690323 C18.4352817,10.8103226 20.8435925,10.8103226 22.2865028,12.3690323 C22.992387,13.1329032 23.2,13.6903226 23.2,14.8154839 C23.2,15.6516129 23.1584774,15.8787097 22.9301031,16.363871 C22.5875417,17.0864516 21.9024188,17.7677419 21.1757733,18.1083871 C20.7190247,18.3148387 20.4179858,18.3767742 19.7224823,18.3974194 C19.2345917,18.4077419 18.7259399,18.3870968 18.5806108,18.3354839 Z M20.6463601,16.2812903 C21.1757733,15.8580645 21.4041476,15.4141935 21.4041476,14.8258065 C21.4041476,13.1948387 19.4214434,12.4 18.3003332,13.5974194 C18.040817,13.8658065 17.7501588,14.5058065 17.7501588,14.7845161 C17.7501588,15.4554839 18.2899526,16.24 18.9439335,16.5393548 C19.4214434,16.756129 20.1999922,16.6322581 20.6463601,16.2812903 Z" id="Shape" fill-rule="nonzero" transform="translate(19.600000, 14.800000) scale(-1, 1) rotate(-180.000000) translate(-19.600000, -14.800000) "></path>
            <path d="M33.0032274,13.387535 C32.8646633,13.2397333 32.8,13.0549811 32.8,12.8240409 C32.8,12.5191998 32.8739009,12.3898733 33.3819693,11.8818048 C34.120978,11.1150833 34.4812447,11.0227072 34.9338876,11.4661124 C35.3772928,11.9187553 35.2849167,12.279022 34.5181952,13.0272683 C34.0008891,13.5353367 33.8900378,13.6 33.5667215,13.6 C33.3080685,13.6 33.1417915,13.5353367 33.0032274,13.387535 Z" id="Path" transform="translate(34.000000, 12.400000) scale(-1, 1) rotate(-180.000000) translate(-34.000000, -12.400000) "></path>
            <path d="M13.2293751,14.3161127 C12.7434675,14.0635211 12.6500238,13.3431675 13.051832,12.9783131 C13.3321633,12.7257215 13.920859,12.744432 14.1825016,13.015734 C14.4628329,13.287036 14.4721773,13.8951268 14.2105347,14.1570736 C13.9675809,14.4003099 13.5190508,14.4751518 13.2293751,14.3161127 Z" id="Path" transform="translate(13.600000, 13.600000) scale(-1, 1) rotate(-180.000000) translate(-13.600000, -13.600000) "></path>
            <path d="M36.2372975,16.5537183 C35.7298083,16.0084706 36.0869304,15.2 36.8293683,15.2 C37.3180616,15.2 37.6,15.5008263 37.6,16.0178715 C37.6,16.3280986 37.5436123,16.4503092 37.3556534,16.6007224 C36.9985313,16.882747 36.519236,16.8639454 36.2372975,16.5537183 Z" id="Path" transform="translate(36.800000, 16.000000) scale(-1, 1) rotate(-180.000000) translate(-36.800000, -16.000000) "></path>
            <path d="M12.3541514,22.3599744 C11.2073489,22.1492112 10.4091744,21.2053584 10.4,20.0782332 C10.4,19.0427442 10.8220233,18.300491 11.6752443,17.8606373 C12.5284654,17.4116199 13.7486632,17.5582378 14.4275702,18.1813639 C15.2349191,18.9327807 15.4459308,20.3348145 14.8862912,21.2328492 C14.3633493,22.0850659 13.3358143,22.5432468 12.3541514,22.3599744 Z M13.3449887,20.5730686 C13.7486632,20.2065239 13.5835236,19.4551071 13.0605817,19.2718347 C12.4367212,19.0519078 11.8495583,19.6383794 12.06057,20.2615056 C12.2440583,20.7746683 12.9413142,20.9396134 13.3449887,20.5730686 Z" id="Shape" fill-rule="nonzero" transform="translate(12.800000, 20.000000) scale(-1, 1) rotate(-180.000000) translate(-12.800000, -20.000000) "></path>
            <path d="M26.2215385,19.9849935 C26.1107692,19.9665789 25.7415385,19.6719443 25.4092308,19.3220657 C24.9384615,18.8340771 24.8,18.6315158 24.8,18.4197472 C24.8,18.0698686 25.0953846,17.692368 25.4369231,17.6187094 C25.8061538,17.5358434 26.1292308,17.71999 26.72,18.3368812 C27.1261538,18.7788331 27.2,18.9077358 27.2,19.2115777 C27.2,19.7363956 26.7661538,20.0770668 26.2215385,19.9849935 Z" id="Path" transform="translate(26.000000, 18.800000) scale(-1, 1) rotate(-180.000000) translate(-26.000000, -18.800000) "></path>
            <path d="M32.6410693,23.9552799 C30.2225951,23.5841126 28.8950071,20.9653214 29.9858934,18.7486281 C30.356383,17.9959834 30.9224089,17.4495427 31.7251365,17.0680652 C32.2088314,16.8412408 32.4455331,16.8 33.227678,16.8 C34.0098228,16.8 34.2465246,16.8412408 34.719928,17.0680652 C35.4711987,17.4186121 36.1195557,18.0887752 36.5003367,18.8929709 C36.7576212,19.4497218 36.8090781,19.6765462 36.7987867,20.3363991 C36.7987867,22.6561945 34.9051729,24.2955166 32.6410693,23.9552799 Z M33.9995315,21.9860314 C35.3477022,21.3055581 35.3374108,19.4497218 33.9892401,18.7486281 C33.2379694,18.3671506 32.0956262,18.7176975 31.6633883,19.4806524 C31.1282365,20.429191 31.4987262,21.5530029 32.5072814,22.016962 C33.0527245,22.274717 33.4540883,22.2644068 33.9995315,21.9860314 Z" id="Shape" fill-rule="nonzero" transform="translate(33.200000, 20.400000) scale(-1, 1) rotate(-180.000000) translate(-33.200000, -20.400000) "></path>
            <path d="M21.0373755,22.16 C20.7635539,21.8738462 20.717917,21.4492308 20.9461017,21.1261538 C21.1560316,20.8215385 22.817216,20 23.2188211,20 C23.8851203,20 24.2502158,20.8030769 23.8029738,21.2830769 C23.5382796,21.56 21.8405856,22.4 21.5302544,22.4 C21.3842162,22.4 21.1834137,22.2984615 21.0373755,22.16 Z" id="Path" transform="translate(22.400000, 21.200000) scale(-1, 1) rotate(-180.000000) translate(-22.400000, -21.200000) "></path>
            <path d="M26.6566006,23.0036141 C26.3207507,22.7404682 26.3114215,22.1671859 26.6472714,21.8382534 C27.141717,21.3307576 28,21.6878843 28,22.4021376 C28,23.0975949 27.2163503,23.4453235 26.6566006,23.0036141 Z" id="Path" transform="translate(27.200000, 22.400000) scale(-1, 1) rotate(-180.000000) translate(-27.200000, -22.400000) "></path>
            <path d="M17.0183684,23.7712576 C16.7123694,23.4422612 16.7309148,22.897067 17.0554592,22.6150701 C17.6118209,22.1262753 18.4,22.5210711 18.4,23.2918628 C18.4,23.921656 17.4541851,24.2506525 17.0183684,23.7712576 Z" id="Path" transform="translate(17.600000, 23.200000) scale(-1, 1) rotate(-180.000000) translate(-17.600000, -23.200000) "></path>
            <path d="M38.8382454,24.3668023 C37.7742716,23.8312411 37.6,23.6650325 37.6,23.2125756 C37.6,22.7693526 37.9210266,22.4 38.3154307,22.4 C38.6823182,22.4 40.3700008,23.2495109 40.6084777,23.5542267 C40.8469546,23.8497088 40.8561268,24.0620865 40.672683,24.4222052 C40.4158617,24.9392988 39.9297358,24.930065 38.8382454,24.3668023 Z" id="Path" transform="translate(39.200000, 23.600000) scale(-1, 1) rotate(-180.000000) translate(-39.200000, -23.600000) "></path>
            <path d="M24.2407722,27.9521617 C23.7537855,27.8240419 23.4138136,27.6410136 23.0646532,27.2932599 C21.8609689,26.0852734 22.3663326,23.8797829 23.9834962,23.3306981 C25.1504268,22.9371873 26.4643722,23.4588179 26.9881127,24.5386846 C27.2545772,25.0877694 27.272954,25.9937593 27.0248664,26.5611469 C26.8043441,27.073626 26.2622268,27.6227108 25.7936168,27.8148905 C25.3801375,27.9887673 24.6542516,28.0528272 24.2407722,27.9521617 Z M25.2055573,26.2957559 C25.4352681,26.1767876 25.6649788,25.6368542 25.582283,25.4172203 C25.4628334,25.0694666 25.1596152,24.8406813 24.8288317,24.8406813 C24.4612945,24.8498327 24.2591491,24.968801 24.1029458,25.2707977 C23.9283656,25.5910971 23.9743078,25.8473367 24.2591491,26.1310305 C24.5439904,26.4147243 24.8747739,26.4696328 25.2055573,26.2957559 Z" id="Shape" fill-rule="nonzero" transform="translate(24.800000, 25.600000) scale(-1, 1) rotate(-180.000000) translate(-24.800000, -25.600000) "></path>
            <path d="M10.0405352,26.2989518 C9.74371226,26.1413623 9.06658484,25.4646548 8.91817335,25.1865558 C8.60279893,24.5747379 8.9460005,24 9.62312792,24 C9.97560521,24 10.0683624,24.0556198 10.606354,24.5932779 C11.1072428,25.103126 11.2,25.2329056 11.2,25.5110046 C11.2,25.965233 11.1257943,26.1135524 10.8196956,26.2711419 C10.5135969,26.4380013 10.2909796,26.4380013 10.0405352,26.2989518 Z" id="Path" transform="translate(10.000000, 25.200000) scale(-1, 1) rotate(-180.000000) translate(-10.000000, -25.200000) "></path>
            <path d="M15.4088144,31.0514705 C14.3098257,30.764861 13.3135462,29.812908 12.933522,28.7074142 C12.8616255,28.482221 12.8,27.9499462 12.8,27.530268 C12.8102709,24.8688941 15.6655875,23.1799452 18.0792544,24.4082716 C19.075534,24.9200743 19.8458532,26.0460402 19.9793752,27.2231864 C20.1745227,28.9428435 18.9625538,30.6829726 17.2883934,31.0719426 C16.5488869,31.2459556 16.1277791,31.2459556 15.4088144,31.0514705 Z M17.0829749,29.229453 C17.2678515,29.1578006 17.5657083,28.9326074 17.740314,28.7278863 C18.7057807,27.6326286 17.9868161,25.9232076 16.5078032,25.8208471 C14.9466229,25.6980144 14.001698,27.5609762 15.0287903,28.7278863 C15.5731492,29.3420496 16.3537394,29.5365346 17.0829749,29.229453 Z" id="Shape" fill-rule="nonzero" transform="translate(16.400000, 27.600000) scale(-1, 1) rotate(-180.000000) translate(-16.400000, -27.600000) "></path>
            <path d="M29.0767813,27.8056598 C28.5967492,27.3553376 28.73522,26.8498739 29.5383506,26.1054637 C29.9722257,25.7010927 30.147622,25.6 30.3968694,25.6 C30.8492073,25.6 31.2,25.930849 31.2,26.3536004 C31.2,26.7487812 30.9784467,27.0888204 30.3784067,27.6126646 C29.8799118,28.0537966 29.4183425,28.1181283 29.0767813,27.8056598 Z" id="Path" transform="translate(30.000000, 26.800000) scale(-1, 1) rotate(-180.000000) translate(-30.000000, -26.800000) "></path>
            <path d="M35.1489707,30.2962252 C34.2269643,29.9548757 33.6,29.0230835 33.6,27.9990348 C33.6,27.251756 33.8305016,26.7166674 34.3744853,26.2184815 C34.8723688,25.7571983 35.3333719,25.5911363 36.0617569,25.600362 C36.7348216,25.6095877 37.1681645,25.7756496 37.6568279,26.2184815 C38.2008117,26.7166674 38.4405333,27.3532383 38.394433,28.1650967 C38.3667728,28.515672 38.2837922,28.9492782 38.1915916,29.1061145 C37.9795301,29.5212694 37.5000868,29.9917783 37.0667438,30.1947429 C36.6057407,30.4161589 35.628414,30.4715129 35.1489707,30.2962252 Z M36.51354,28.5894773 C37.0667438,28.1097428 36.7071614,27.196402 35.9695563,27.196402 C35.6745143,27.196402 35.1858509,27.6576852 35.1858509,27.9252295 C35.1858509,28.654057 35.9787764,29.0507605 36.51354,28.5894773 Z" id="Shape" fill-rule="nonzero" transform="translate(36.000000, 28.000000) scale(-1, 1) rotate(-180.000000) translate(-36.000000, -28.000000) "></path>
            <path d="M10.9552686,29.5712665 C10.1890071,29.2871757 10.2263857,28.2149617 11.0019919,28.022513 C11.7495641,27.8392286 12.3382772,28.8198003 11.7775981,29.342161 C11.5439817,29.5529381 11.1701956,29.6537445 10.9552686,29.5712665 Z" id="Path" transform="translate(11.200000, 28.800000) scale(-1, 1) rotate(-180.000000) translate(-11.200000, -28.800000) "></path>
            <path d="M22.0153846,31.0996621 C21.72,30.9340864 21.6092308,30.7317161 21.6,30.3729689 C21.6,30.1154067 21.6830769,29.949831 21.9784615,29.6186797 C22.5046154,29.0207676 22.8461538,28.8 23.2430769,28.8 C23.6676923,28.8 24,29.1495486 24,29.6002824 C24,29.8394473 23.8984615,30.0142216 23.5292308,30.4281607 C22.8461538,31.1640526 22.44,31.3388269 22.0153846,31.0996621 Z" id="Path" transform="translate(22.800000, 30.000000) scale(-1, 1) rotate(-180.000000) translate(-22.800000, -30.000000) "></path>
            <path d="M26.0313838,30.2945454 C25.5452395,30.018263 25.4517502,29.3828134 25.8444052,29.0236462 C26.3585964,28.5447566 27.2,28.885505 27.2,29.5670017 C27.1906511,30.2116607 26.5642728,30.5984561 26.0313838,30.2945454 Z" id="Path" transform="translate(26.400000, 29.600000) scale(-1, 1) rotate(-180.000000) translate(-26.400000, -29.600000) "></path>
            <path d="M27.0756541,38.1978951 C25.4110649,37.5486946 24.4349169,35.5495693 24.9281285,33.8389775 C25.1541838,33.0661198 25.4624411,32.5817956 26.0686804,32.0459476 C27.4455629,30.8402895 29.6855657,30.9330325 30.969971,32.2623478 C32.7064869,34.0553777 32.1721743,37.0437609 29.9321715,38.0845427 C29.1409778,38.4555144 27.8565726,38.5070382 27.0756541,38.1978951 Z M29.3053817,36.3430366 C30.4870346,35.6732265 30.4870346,33.9317204 29.3053817,33.28252 C28.7813444,32.9939864 28.4217109,32.9321578 27.9696002,33.055815 C26.2536348,33.5195297 26.1611576,35.8999315 27.8360221,36.5182177 C28.298408,36.683094 28.8018948,36.6212653 29.3053817,36.3430366 Z" id="Shape" fill-rule="nonzero" transform="translate(28.400000, 34.800000) scale(-1, 1) rotate(-180.000000) translate(-28.400000, -34.800000) "></path>
            <path d="M12.2973553,35.0707692 C12.0862022,34.9138462 11.9576742,34.5446154 12.0127576,34.2584615 C12.0402993,34.1107692 12.324897,33.76 12.6829393,33.4092308 C13.1695096,32.9384615 13.3714821,32.8 13.5826353,32.8 C13.931497,32.8 14.3079004,33.0953846 14.381345,33.4369231 C14.4639701,33.8061538 14.2803587,34.1292308 13.6652604,34.72 C13.224593,35.1261538 13.1052456,35.2 12.8022867,35.2 C12.6094947,35.2 12.3799805,35.1446154 12.2973553,35.0707692 Z" id="Path" transform="translate(13.200000, 34.000000) scale(-1, 1) rotate(-180.000000) translate(-13.200000, -34.000000) "></path>
            <path d="M34.3084985,34.72 C33.6441409,34.0923077 33.4872787,33.7507692 33.6718225,33.3076923 C33.8102303,32.9846154 34.1055003,32.8 34.483815,32.8 C34.7421763,32.8 35.9140292,33.9538462 35.9878467,34.2769231 C36.052437,34.5723077 35.8494389,35.0523077 35.6187592,35.1446154 C35.5357145,35.1723077 35.3234892,35.2 35.1481726,35.2 C34.8805841,35.2 34.7237219,35.1076923 34.3084985,34.72 Z" id="Path" transform="translate(34.800000, 34.000000) scale(-1, 1) rotate(-180.000000) translate(-34.800000, -34.000000) "></path>
            <path d="M19.4771518,38.3081231 C18.7050787,38.1629786 17.8962403,37.4463279 17.703222,36.7387487 C17.252846,35.1240167 18.3282335,33.6090715 19.9183365,33.6 C20.9569586,33.6 21.7014577,34.0172903 22.1426423,34.8609424 C22.3540433,35.2510181 22.4,35.4596633 22.4,35.9495258 C22.3908087,37.2013966 21.6555009,38.0813349 20.4238605,38.3081231 C20.1297374,38.3625522 19.8815711,38.4079099 19.8815711,38.3988383 C19.8723797,38.3897668 19.6977442,38.3534807 19.4771518,38.3081231 Z M20.3687124,36.6389619 C21.205125,36.2126001 20.6260701,34.9425862 19.7345095,35.2510181 C19.2106028,35.4233771 19.0359672,36.1853855 19.4403865,36.5301036 C19.7528922,36.7931779 20.0102499,36.829464 20.3687124,36.6389619 Z" id="Shape" fill-rule="nonzero" transform="translate(20.000000, 36.000000) scale(-1, 1) rotate(-180.000000) translate(-20.000000, -36.000000) "></path>
            <path d="M23.419618,39.7430262 C23.2274522,39.5312308 23.2,39.4207288 23.2,38.7669254 C23.2,38.0762881 23.2183015,38.0210371 23.4562209,37.8092416 C23.8680046,37.4593187 24.4902555,37.5606122 24.7007227,38.0210371 C24.8471346,38.334126 24.8288332,39.3010183 24.6641197,39.6048987 C24.435351,40.0653236 23.7856479,40.1389916 23.419618,39.7430262 Z" id="Path" transform="translate(24.000000, 38.800000) scale(-1, 1) rotate(-180.000000) translate(-24.000000, -38.800000) "></path>
            <path d="M26.1552686,40.7712665 C25.3890071,40.4871757 25.4263857,39.4149617 26.2019919,39.222513 C26.9495641,39.0392286 27.5382772,40.0198003 26.9775981,40.542161 C26.7439817,40.7529381 26.3701956,40.8537445 26.1552686,40.7712665 Z" id="Path" transform="translate(26.400000, 40.000000) scale(-1, 1) rotate(-180.000000) translate(-26.400000, -40.000000) "></path>
        </g>
    </g>
</svg>