<?xml version="1.0" encoding="UTF-8"?>
<svg width="106px" height="16px" viewBox="0 0 106 16" version="1.1" xmlns="http://www.w3.org/2000/svg" xmlns:xlink="http://www.w3.org/1999/xlink">
    <!-- Generator: Sketch 52.6 (67491) - http://www.bohemiancoding.com/sketch -->
    <title>Group 26</title>
    <desc>Created with Sketch.</desc>
    <g id="Page-1" stroke="none" stroke-width="1" fill="none" fill-rule="evenodd">
        <g id="Group-26">
            <g id="Group-3-Copy" transform="translate(0.000000, 3.000000)">
                <path d="M36.6964043,10.6029985 L36.6964043,6.74701734 C36.6964043,6.16197192 37.1617813,5.56363001 37.8797916,5.56363001 L37.8797916,3.98134807 C36.3639921,3.98134807 35.1407153,5.20462487 35.1407153,6.72042437 L35.1407153,10.6029985 L36.6964043,10.6029985 Z M41.5629185,10.7625564 C42.041592,10.7625564 42.4803761,10.669481 42.8925672,10.4966266 L42.8925672,8.62182199 C42.5734515,8.98082714 42.0814815,9.19357093 41.5629185,9.19357093 C40.5523855,9.19357093 39.7412998,8.38248523 39.7412998,7.38524871 C39.7412998,6.37471571 40.5523855,5.56363001 41.5629185,5.56363001 C42.5734515,5.56363001 43.3845372,6.37471571 43.3845372,7.38524871 L43.3845372,10.6029985 L44.9402262,10.6029985 L44.9402262,7.38524871 C44.9402262,5.51044406 43.4377231,3.98134807 41.5629185,3.98134807 C39.6881138,3.98134807 38.1590179,5.51044406 38.1590179,7.38524871 C38.1590179,9.24675688 39.6881138,10.7625564 41.5629185,10.7625564 Z M47.7324884,3.63563941 L47.7324884,1.62786989 L46.1767994,1.62786989 L46.1767994,3.63563941 L47.7324884,3.63563941 Z M47.7324884,10.6029985 L47.7324884,4.16749889 L46.1767994,4.16749889 L46.1767994,10.6029985 L47.7324884,10.6029985 Z M51.0566101,10.7625564 C52.3729623,10.7625564 53.4233848,9.71213392 53.4233848,8.39578172 C53.4233848,7.10602249 52.5458167,6.80020329 51.5618766,6.44119814 C51.1762785,6.30823328 50.6577155,6.16197192 50.6577155,5.80296677 C50.6577155,5.61681596 50.8305698,5.43066514 51.0300172,5.43066514 C51.2028715,5.43066514 51.4422082,5.55033352 51.5219872,5.64340893 L52.5192237,4.68606188 C52.173515,4.2605743 51.6416555,3.99464456 51.0433136,3.99464456 C49.9928912,3.99464456 49.141916,4.84561972 49.141916,5.89604218 C49.141916,7.13261546 50.0726701,7.58469602 50.644419,7.74425386 C51.3092434,7.94370116 51.8012134,8.08996252 51.8012134,8.54204307 C51.8012134,8.95423417 51.4688012,9.28664634 51.0566101,9.28664634 C50.644419,9.28664634 50.3120069,8.95423417 50.3120069,8.54204307 C50.3120069,8.43567118 50.3253033,8.35589226 50.3518963,8.27611333 L48.8360968,7.58469602 C48.7430214,7.83732927 48.6898355,8.10325901 48.6898355,8.39578172 C48.6898355,9.71213392 49.7535544,10.7625564 51.0566101,10.7625564 Z M55.9497173,3.63563941 L55.9497173,1.62786989 L54.3940283,1.62786989 L54.3940283,3.63563941 L55.9497173,3.63563941 Z M55.9497173,10.6029985 L55.9497173,4.16749889 L54.3940283,4.16749889 L54.3940283,10.6029985 L55.9497173,10.6029985 Z M58.7419795,10.6029985 L58.7419795,6.90657519 C58.7419795,6.14867543 59.3403215,5.55033352 60.0982212,5.55033352 C60.856121,5.55033352 61.4677594,6.14867543 61.4677594,6.90657519 L61.4677594,10.6029985 L63.0234483,10.6029985 L63.0234483,6.8932787 C63.0234483,5.28440379 61.7203926,3.98134807 60.0982212,3.98134807 C58.4893463,3.98134807 57.1862906,5.28440379 57.1862906,6.8932787 L57.1862906,10.6029985 L58.7419795,10.6029985 Z M67.3979925,10.7625564 C68.940385,10.7625564 70.2567372,9.73872689 70.6822248,8.3160028 L68.9536815,8.3160028 C68.6345658,8.83456578 68.0628168,9.19357093 67.3979925,9.19357093 C66.3874595,9.19357093 65.5763738,8.38248523 65.5763738,7.38524871 C65.5763738,6.37471571 66.3874595,5.56363001 67.3979925,5.56363001 C67.7304047,5.56363001 68.0362239,5.64340893 68.2888571,5.78967029 L69.4190585,4.6594689 C68.8606061,4.23398132 68.1558923,3.98134807 67.3979925,3.98134807 C65.5231879,3.98134807 63.9940919,5.51044406 63.9940919,7.38524871 C63.9940919,9.24675688 65.5231879,10.7625564 67.3979925,10.7625564 Z M74.7642462,10.7625564 C76.6390509,10.7625564 78.1681469,9.24675688 78.1681469,7.38524871 C78.1681469,5.51044406 76.6390509,3.98134807 74.7642462,3.98134807 C72.8894416,3.98134807 71.3603456,5.51044406 71.3603456,7.38524871 C71.3603456,9.24675688 72.8894416,10.7625564 74.7642462,10.7625564 Z M74.7642462,9.19357093 C73.7537132,9.19357093 72.9426275,8.38248523 72.9426275,7.38524871 C72.9426275,6.37471571 73.7537132,5.56363001 74.7642462,5.56363001 C75.7747792,5.56363001 76.5858649,6.37471571 76.5858649,7.38524871 C76.5858649,8.38248523 75.7747792,9.19357093 74.7642462,9.19357093 Z M82.2634648,10.7625564 C84.1382695,10.7625564 85.6407725,9.23346039 85.6407725,7.35865574 L85.6407725,0.949749063 L84.0850835,0.949749063 L84.0850835,7.35865574 C84.0850835,8.36918874 83.2739978,9.18027444 82.2634648,9.18027444 C81.2529318,9.18027444 80.4418461,8.36918874 80.4418461,7.35865574 C80.4418461,6.36141922 81.2529318,5.55033352 82.2634648,5.55033352 C82.7820278,5.55033352 83.2739978,5.76307731 83.5931135,6.12208246 L83.5931135,4.24727781 C83.1809224,4.07442348 82.7421384,3.98134807 82.2634648,3.98134807 C80.3886602,3.98134807 78.8595642,5.49714758 78.8595642,7.35865574 C78.8595642,9.23346039 80.3886602,10.7625564 82.2634648,10.7625564 Z M90.0020202,10.7625564 C91.6374881,10.7625564 93.0203227,9.59246554 93.3394384,8.05007306 L91.690674,8.05007306 C91.4247443,8.72819389 90.7732164,9.19357093 90.0020202,9.19357093 C89.722794,9.19357093 89.4435678,9.1270885 89.2175275,9.03401309 L92.8075789,5.45725812 C92.209237,4.56639349 91.172111,3.98134807 90.0020202,3.98134807 C88.1272156,3.98134807 86.5981196,5.51044406 86.5981196,7.38524871 C86.5981196,9.24675688 88.1272156,10.7625564 90.0020202,10.7625564 Z M88.2468839,7.87721873 C88.1804015,7.74425386 88.1006226,7.45173115 88.1006226,7.27887682 C88.1006226,6.2816403 88.9117083,5.45725812 89.9222413,5.45725812 C90.0817991,5.45725812 90.3344324,5.55033352 90.4806937,5.63011245 L88.2468839,7.87721873 Z" id="raisincode" fill="#FFFFFF" fill-rule="nonzero"></path>
                <g id="Group">
                    <circle id="Oval" fill="#6D659E" cx="12.6152115" cy="6.91517509" r="5.85003733"></circle>
                    <path d="M9.46519136,9.46519136 C9.46519136,5.98577523 6.64456728,3.16515115 3.16515115,3.16515115 C-0.314264975,3.16515115 -3.13488905,5.98577523 -3.13488905,9.46519136" id="Path" fill="#38DCAD" transform="translate(3.165151, 6.315171) rotate(-90.000000) translate(-3.165151, -6.315171) "></path>
                    <path d="M28.365312,9.76519328 C28.365312,6.28577715 25.5446879,3.46515307 22.0652718,3.46515307 C18.5858556,3.46515307 15.7652316,6.28577715 15.7652316,9.76519328" id="Path" fill="#FD4676" transform="translate(22.065272, 6.615173) scale(-1, 1) rotate(-90.000000) translate(-22.065272, -6.615173) "></path>
                    <path d="M35.265356,9.76519328 C35.265356,6.28577715 32.4447319,3.46515307 28.9653158,3.46515307 C25.4858997,3.46515307 22.6652756,6.28577715 22.6652756,9.76519328" id="Path" fill="#FCC52D" transform="translate(28.965316, 6.615173) scale(1, -1) rotate(-90.000000) translate(-28.965316, -6.615173) "></path>
                </g>
            </g>
            <path d="M100.296,5.632 C100.088,5.632 99.96,5.456 99.992,5.264 L100.824,0.96 C100.856,0.832 100.984,0.72 101.128,0.72 L101.192,0.72 C101.288,0.72 101.432,0.816 101.464,0.896 L102.76,4.288 L104.072,0.896 C104.104,0.816 104.248,0.72 104.344,0.72 L104.408,0.72 C104.536,0.72 104.68,0.832 104.712,0.96 L105.56,5.28 C105.592,5.472 105.448,5.632 105.256,5.632 L105.064,5.632 C104.92,5.632 104.792,5.504 104.76,5.36 L104.216,2.72 L103.064,5.536 C103.032,5.616 102.904,5.68 102.808,5.68 L102.712,5.68 C102.632,5.68 102.472,5.616 102.44,5.52 L101.32,2.72 L100.76,5.376 C100.728,5.504 100.584,5.632 100.456,5.632 L100.296,5.632 Z M97.528,5.632 C97.352,5.632 97.224,5.488 97.224,5.328 L97.224,1.584 L96.104,1.584 C95.944,1.584 95.8,1.456 95.8,1.28 L95.8,1.104 C95.8,0.944 95.944,0.8 96.104,0.8 L99.16,0.8 C99.336,0.8 99.464,0.944 99.464,1.104 L99.464,1.28 C99.464,1.456 99.336,1.584 99.16,1.584 L98.04,1.584 L98.04,5.328 C98.04,5.488 97.896,5.632 97.736,5.632 L97.528,5.632 Z" id="™" fill="#FFFFFF"></path>
        </g>
    </g>
</svg>