<?xml version="1.0" encoding="UTF-8"?>
<svg width="46px" height="46px" viewBox="0 0 46 46" version="1.1" xmlns="http://www.w3.org/2000/svg" xmlns:xlink="http://www.w3.org/1999/xlink">
    <!-- Generator: Sketch 52.6 (67491) - http://www.bohemiancoding.com/sketch -->
    <title>sandwich copy</title>
    <desc>Created with Sketch.</desc>
    <g id="Page-1" stroke="none" stroke-width="1" fill="none" fill-rule="evenodd" opacity="0.330147879">
        <g id="sandwich-copy" fill="#BE8400">
            <g id="Group" transform="translate(22.800000, 22.800000) scale(-1, 1) rotate(-180.000000) translate(-22.800000, -22.800000) ">
                <path d="M20.1904688,45.4842187 C18.9435938,45.350625 16.9307813,44.8964062 15.6660938,44.4778125 C13.32375,43.711875 11.0882813,42.53625 9.05765625,41.0310938 C7.8375,40.1226563 5.5396875,37.83375 4.65796875,36.6492188 C2.3334375,33.5498438 0.92625,30.2901563 0.2671875,26.4960938 C0.13359375,25.685625 0.07125,24.8840625 0.04453125,23.2453125 L0,21.0721875 L0.3384375,21.125625 C0.534375,21.16125 0.9084375,21.1879688 1.175625,21.1879688 L1.66546875,21.1879688 L1.674375,22.906875 C1.68328125,26.2467188 2.37796875,29.1857813 3.85640625,32.1426563 C5.0409375,34.5028125 6.234375,36.1326563 8.1403125,37.97625 C10.8923438,40.6570313 14.0985938,42.4382813 17.8392188,43.355625 C19.6115625,43.7920313 20.7871875,43.9345312 22.7020313,43.9345312 L24.4209375,43.9434375 L24.4209375,44.4332813 C24.4209375,44.7004687 24.4476563,45.0745312 24.474375,45.2615625 L24.5367188,45.5910937 L22.7198438,45.5821875 C21.7223438,45.5732812 20.5823438,45.52875 20.1904688,45.4842187 Z" id="Path"></path>
                <path d="M29.8092188,44.638125 C28.7671875,44.495625 27.5648438,43.9078125 26.754375,43.1329688 L26.1754688,42.5807813 L25.8548438,42.785625 C25.186875,43.2220313 24.0825,43.3021875 23.4145313,42.9459375 C23.0048438,42.7321875 4.025625,23.86875 3.598125,23.2453125 C3.30421875,22.8267188 3.26859375,22.7020313 3.241875,22.123125 C3.19734375,21.3928125 3.313125,20.9296875 3.64265625,20.4932813 L3.85640625,20.199375 L3.41109375,19.7985938 C1.82578125,18.3735938 1.2825,15.7640625 2.1375,13.6710938 C2.53828125,12.6825 3.39328125,11.6315625 4.168125,11.1773438 C4.42640625,11.0170313 4.453125,10.9635938 4.5065625,10.3579688 C4.7559375,7.61484375 6.8934375,5.47734375 9.59203125,5.2725 L10.2154688,5.2190625 L10.5182813,4.78265625 C11.2307813,3.7584375 12.4954688,2.91234375 13.7779688,2.60953125 C14.6685938,2.4046875 16.0579688,2.4759375 16.8684375,2.77875 C17.705625,3.0815625 18.3646875,3.50015625 18.9525,4.096875 L19.4601563,4.60453125 L19.8075,4.35515625 C20.4932813,3.85640625 21.4907813,3.811875 22.2923438,4.239375 C22.5684375,4.381875 25.7657813,7.52578125 32.4098438,14.17875 C43.2309375,25.0176563 42.465,24.1448438 42.4026562,25.400625 C42.3670313,25.9528125 42.3225,26.1398438 42.0909375,26.505 L41.8148438,26.9414063 L42.4115625,27.57375 C44.6559375,29.925 44.3353125,33.8704688 41.7435938,35.7764063 L41.2092187,36.1682812 L41.1023438,36.943125 C41.0489063,37.370625 40.9153125,37.9584375 40.8173437,38.2434375 C40.1048438,40.2740625 38.2701563,41.6723437 36.0346875,41.895 L35.41125,41.9573437 L34.98375,42.53625 C33.8526563,44.0592187 31.7864063,44.8964062 29.8092188,44.638125 Z M31.7151562,42.8390625 C32.7215625,42.5273438 33.5765625,41.8148438 34.0129687,40.9420313 C34.3425,40.291875 34.4582812,40.220625 35.304375,40.2384375 C37.7803125,40.2740625 39.4725,38.6175 39.4725,36.159375 C39.4725,35.2420313 39.5526562,35.090625 40.2028125,34.7610938 C40.861875,34.4315625 41.5298437,33.7190625 41.8771875,32.98875 C42.4204687,31.8576563 42.3314062,30.3614063 41.6634375,29.3104688 C41.4140625,28.9185938 40.7282812,28.2239063 40.5857812,28.2239063 C40.5323437,28.2239063 40.39875,28.3129688 40.291875,28.42875 L40.0959375,28.6335938 L40.363125,29.1234375 C41.0667187,30.4326563 41.075625,32.1426563 40.3898437,33.55875 C40.078125,34.2089063 39.151875,35.1707813 38.5195312,35.5092188 C37.26375,36.1682813 35.8565625,36.2929688 34.5651562,35.8476563 L34.2178125,35.7229688 L34.2178125,37.8604688 L34.2178125,39.9979688 L33.9595312,40.25625 L33.70125,40.5145313 L30.9492187,40.5145313 L28.1971875,40.5145313 L27.8142187,40.9064063 C27.3689062,41.360625 27.3778125,41.4229688 28.0101562,42.001875 C29.0165625,42.928125 30.4148437,43.2398438 31.7151562,42.8390625 Z M32.7928125,33.523125 C40.39875,25.9171875 40.755,25.543125 40.755,25.2403125 C40.755,24.9375 40.3364063,24.5010937 31.1451563,15.3098438 C23.191875,7.3565625 21.4729688,5.6821875 21.2325,5.63765625 C20.9296875,5.5753125 20.8940625,5.6109375 12.9229688,13.5820312 C8.514375,17.9817188 4.88953125,21.6778125 4.8628125,21.7757813 C4.83609375,21.8826563 4.87171875,22.0875 4.951875,22.2210938 C5.094375,22.5060938 23.904375,41.325 24.1982813,41.4853125 C24.29625,41.53875 24.474375,41.5565625 24.5990625,41.5298437 C24.7415625,41.503125 27.6984375,38.6085937 32.7928125,33.523125 Z M32.525625,37.5754687 C32.525625,36.8451562 32.5167187,36.2395312 32.4989062,36.2395312 C32.49,36.2395312 31.8754687,36.8451562 31.1451562,37.5754687 L29.8092187,38.9114062 L31.171875,38.9114062 L32.525625,38.9114062 L32.525625,37.5754687 Z M36.6670313,34.3603125 C38.1454688,34.0842188 39.223125,32.8551563 39.2320313,31.4390625 C39.2409375,30.886875 39.0004688,29.9160938 38.866875,29.9160938 C38.83125,29.9160938 37.869375,30.85125 36.729375,31.99125 L34.6542188,34.0664063 L35.0817188,34.2089063 C35.4557813,34.3425 35.7051563,34.4048438 36.0525,34.449375 C36.1059375,34.449375 36.3820313,34.41375 36.6670313,34.3603125 Z M5.34375,18.7565625 L5.5396875,18.5428125 L5.2725,18.0173437 C4.8984375,17.2959375 4.738125,16.636875 4.738125,15.7996875 C4.738125,13.715625 5.9671875,11.97 7.9265625,11.293125 C8.91515625,10.9457812 9.85921875,10.9635937 11.221875,11.3554687 L11.4178125,11.4089062 L11.4178125,9.3515625 C11.4178125,7.19625 11.47125,6.8578125 11.8185938,6.72421875 C11.89875,6.6975 13.1901563,6.67078125 14.6953125,6.67078125 L17.420625,6.67078125 L17.8035938,6.29671875 C18.0173438,6.091875 18.1865625,5.878125 18.1865625,5.8246875 C18.1865625,5.61984375 17.2335938,4.78265625 16.7170313,4.53328125 C15.211875,3.82078125 13.644375,4.06125 12.4064063,5.21015625 C12.1214063,5.47734375 11.7651563,5.91375 11.6048438,6.2165625 C11.4534375,6.51046875 11.2753125,6.7865625 11.2129688,6.8221875 C11.150625,6.8578125 10.6429688,6.91125 10.081875,6.93796875 C9.1734375,6.9825 8.98640625,7.018125 8.4609375,7.2675 C6.9825,7.9621875 6.163125,9.28921875 6.163125,11.008125 C6.163125,11.4178125 6.11859375,11.8364062 6.0740625,11.9254687 C6.020625,12.0145312 5.74453125,12.219375 5.450625,12.3796875 C4.76484375,12.7448437 4.08796875,13.46625 3.73171875,14.214375 C3.46453125,14.784375 3.44671875,14.8823437 3.44671875,15.8085937 C3.44671875,16.7615625 3.455625,16.8060937 3.77625,17.45625 C4.0790625,18.0707812 4.845,18.9614062 5.0765625,18.9614062 C5.12109375,18.9614062 5.236875,18.8723437 5.34375,18.7565625 Z M10.5984375,12.9496875 C10.0017187,12.6735937 8.86171875,12.7003125 8.19375,13.0120312 C6.67078125,13.715625 5.94046875,15.6215625 6.661875,17.0109375 L6.804375,17.2959375 L8.8884375,15.211875 L10.9814062,13.1278125 L10.5984375,12.9496875 Z M14.4904687,9.60984375 L15.8264062,8.27390625 L14.46375,8.27390625 L13.11,8.27390625 L13.11,9.60984375 C13.11,10.3490625 13.1189062,10.9457812 13.1367187,10.9457812 C13.145625,10.9457812 13.7601562,10.3490625 14.4904687,9.60984375 Z" id="Shape" fill-rule="nonzero"></path>
                <path d="M23.9489062,37.5754688 C23.7707812,37.5220313 23.4679687,37.4151563 23.2809375,37.3171875 C23.0939062,37.2192188 19.9321875,34.1198438 15.995625,30.1654688 C9.64546875,23.8064063 9.02203125,23.15625 8.8884375,22.7554687 C8.4965625,21.5442187 8.9240625,20.4042187 10.0017188,19.8075 C10.4203125,19.5759375 10.5717187,19.5403125 11.150625,19.5492187 C11.6671875,19.5492187 11.9076562,19.6026562 12.219375,19.7540625 C12.504375,19.8965625 14.6685937,21.9984375 19.5046875,26.825625 C27.0660937,34.378125 26.8523437,34.1376563 26.86125,35.2064063 C26.86125,35.5003125 26.8078125,35.91 26.7454687,36.0970313 C26.5851562,36.55125 25.9884375,37.2014063 25.5342187,37.40625 C25.08,37.6021875 24.3853125,37.6823438 23.9489062,37.5754688 Z M24.9285937,35.7942187 C25.1601562,35.5804687 25.258125,35.3132812 25.186875,35.055 C25.1601562,34.948125 22.0607812,31.7864062 18.3023437,28.0279687 C12.0234375,21.7490625 11.435625,21.1879687 11.1684375,21.1879687 C10.7765625,21.1879687 10.438125,21.5264062 10.438125,21.9182812 C10.438125,22.194375 10.9814062,22.7554687 17.3226562,29.0967187 C23.4234375,35.1975 24.2339062,35.9723437 24.474375,35.9723437 C24.6257812,35.9723437 24.830625,35.8921875 24.9285937,35.7942187 Z" id="Shape" fill-rule="nonzero"></path>
                <path d="M28.42875,32.4009375 C27.8765625,32.1515625 14.4014062,18.7120313 14.0273438,18.0351563 C13.8135937,17.6521875 13.7779687,17.4829688 13.7779687,16.9129688 C13.7779687,16.3429688 13.8135937,16.17375 14.03625,15.7729688 C14.6329687,14.6953125 15.7996875,14.2589062 16.993125,14.6507812 C17.3939063,14.784375 18.0440625,15.4167187 24.43875,21.7935938 C32.1426563,29.4885938 31.8398438,29.1323438 31.8398438,30.2278125 C31.8398438,31.171875 31.3678125,31.9467188 30.5484375,32.3564063 C29.9517188,32.6592188 29.034375,32.6770313 28.42875,32.4009375 Z M29.9873437,30.7621875 C30.13875,30.6196875 30.21,30.4504688 30.21,30.2545313 C30.21,29.9873438 29.6578125,29.4084375 23.3254687,23.085 C17.0020312,16.7526563 16.423125,16.2004688 16.1559375,16.2004688 C15.7640625,16.2004688 15.425625,16.5389063 15.425625,16.9307813 C15.425625,17.1979688 15.9778125,17.776875 22.3101562,24.1003125 C28.6335937,30.4326563 29.2125,30.9848438 29.4796875,30.9848438 C29.675625,30.9848438 29.8448437,30.9135938 29.9873437,30.7621875 Z" id="Shape" fill-rule="nonzero"></path>
                <path d="M34.021875,27.5915625 C33.7814063,27.5559375 33.4607813,27.4490625 33.309375,27.3421875 C33.1490625,27.2442187 29.8626563,24.0023437 26.0151563,20.1459375 C18.3557812,12.4776562 18.7654687,12.9496875 18.774375,11.8364062 C18.774375,10.8478125 19.3978125,9.96609375 20.3151563,9.654375 C20.8673438,9.46734375 21.6154688,9.48515625 22.1053125,9.7078125 C22.4170313,9.84140625 24.0914063,11.47125 29.4796875,16.850625 C33.523125,20.8851562 36.5334375,23.9667187 36.6492188,24.1715625 C36.9253125,24.6792187 36.9253125,25.8014062 36.6492188,26.3179687 C36.1326563,27.2976562 35.1529688,27.7696875 34.021875,27.5915625 Z M34.8323438,25.86375 C35.1173438,25.72125 35.1975,25.5698437 35.1975,25.1690625 C35.1975,24.9107812 34.5295313,24.2160937 28.3575,18.0529687 C21.7134375,11.4 21.5175,11.2129687 21.1879688,11.2129687 C20.9475,11.2129687 20.7871875,11.2753125 20.6357813,11.435625 C20.3864063,11.685 20.3596875,11.9165625 20.5378125,12.2639062 C20.6803125,12.5221875 33.7635938,25.614375 34.12875,25.8548437 C34.3959375,26.0329687 34.5117188,26.0329687 34.8323438,25.86375 Z" id="Shape" fill-rule="nonzero"></path>
                <path d="M44.38875,25.970625 C43.925625,25.9082813 43.7475,25.8459375 43.783125,25.7657813 C43.8009375,25.7123438 43.8721875,25.08 43.9345312,24.3764063 C44.3620313,19.1573438 42.6342188,13.644375 39.2498437,9.47625 C38.3859375,8.41640625 36.6046875,6.68859375 35.55375,5.90484375 C31.42125,2.7965625 26.2021875,1.2646875 21.2325,1.674375 C20.5289063,1.73671875 19.9054688,1.7990625 19.843125,1.82578125 C19.7629688,1.8525 19.700625,1.6209375 19.6204688,1.0509375 C19.5670313,0.605625 19.5314063,0.22265625 19.5492188,0.20484375 C19.6739063,0.07125 21.7223438,-0.02671875 23.44125,0.0178125 C25.614375,0.06234375 26.7632813,0.21375 28.6157813,0.6946875 C36.6046875,2.7609375 43.035,9.27140625 44.9854687,17.278125 C45.4842187,19.3621875 45.5732812,20.1192188 45.5732812,22.7020313 C45.5732812,24.0023438 45.5376562,25.29375 45.5020313,25.57875 C45.4129687,26.1576563 45.5020313,26.1220313 44.38875,25.970625 Z" id="Path"></path>
            </g>
        </g>
    </g>
</svg>