<?xml version="1.0" encoding="UTF-8"?>
<svg width="14px" height="16px" viewBox="0 0 14 16" version="1.1" xmlns="http://www.w3.org/2000/svg" xmlns:xlink="http://www.w3.org/1999/xlink">
    <!-- Generator: Sketch 52.6 (67491) - http://www.bohemiancoding.com/sketch -->
    <title>telephone</title>
    <desc>Created with Sketch.</desc>
    <g id="Symbols" stroke="none" stroke-width="1" fill="none" fill-rule="evenodd" opacity="0.510509673">
        <g id="telephone" fill="#FFFFFF" fill-rule="nonzero">
            <g id="Group" transform="translate(7.000000, 8.000000) scale(-1, 1) rotate(-180.000000) translate(-7.000000, -8.000000) ">
                <path d="M2.42739726,15.95625 C2.24109589,15.8875 2.02465753,15.75 1.83835616,15.578125 C1.55342466,15.3125 0.547945205,14.13125 0.391780822,13.878125 C0.235616438,13.625 0.106849315,13.271875 0.0410958904,12.928125 C-0.0136986301,12.63125 -0.0136986301,11.878125 0.0438356164,11.478125 C0.224657534,10.1875 0.824657534,8.59375 1.68767123,7.09375 C2.88493151,5.01875 4.43835616,3.2375 6.15890411,1.975 C7.92054795,0.68125 9.49863014,0 10.7315068,0 C11.3616438,0 11.7726027,0.14375 12.1972603,0.509375 C12.4273973,0.70625 13.630137,2.125 13.7561644,2.346875 C13.9068493,2.6125 13.9780822,2.890625 13.9780822,3.20625 C13.9808219,3.509375 13.9452055,3.665625 13.8164384,3.953125 C13.7315068,4.146875 13.5972603,4.3125 12.690411,5.35625 C11.4356164,6.796875 11.3232877,6.89375 10.8246575,6.928125 C10.5616438,6.95 10.3534247,6.9 10.1068493,6.75625 C9.93424658,6.659375 9.82465753,6.55 9.28219178,5.940625 L8.65479452,5.234375 L8.41917808,5.375 C7.83013699,5.725 7.09041096,6.3625 6.45753425,7.0625 C5.63835616,7.971875 5.0109589,8.88125 4.67945205,9.6375 L4.55890411,9.915625 L5.13972603,10.575 C5.47123288,10.953125 5.76712329,11.31875 5.83287671,11.434375 C6.14246575,11.971875 6.14246575,12.625 5.83013699,13.165625 C5.67671233,13.43125 3.80273973,15.571875 3.56712329,15.74375 C3.32328767,15.928125 3.09589041,16 2.78630137,15.996875 C2.64931507,15.996875 2.48767123,15.978125 2.42739726,15.95625 Z M3.06849315,15.0875 C3.26027397,14.9875 5.14794521,12.828125 5.24931507,12.596875 C5.35068493,12.365625 5.33972603,12.1375 5.21369863,11.915625 C5.16712329,11.83125 4.84931507,11.45 4.50958904,11.065625 C4.14794521,10.65625 3.86575342,10.3125 3.83287671,10.240625 C3.7369863,10.021875 3.76986301,9.809375 3.98356164,9.31875 C4.34794521,8.48125 4.88219178,7.665625 5.68767123,6.721875 C6.49863014,5.76875 7.30136986,5.06875 8.14794521,4.565625 C8.47671233,4.371875 8.54246575,4.34375 8.67123288,4.34375 C8.75068493,4.34375 8.86575342,4.365625 8.92328767,4.39375 C8.99452055,4.428125 9.24657534,4.6875 9.68767123,5.1875 C10.0986301,5.653125 10.3917808,5.959375 10.4684932,6.003125 C10.6410959,6.10625 10.8575342,6.1 11.0191781,5.990625 C11.0849315,5.946875 11.5863014,5.4 12.1315068,4.775 C13.1945205,3.559375 13.2328767,3.503125 13.2356164,3.203125 C13.2356164,2.909375 13.1561644,2.78125 12.5178082,2.0375 C11.6986301,1.0875 11.6684932,1.059375 11.3178082,0.925 C10.9452055,0.784375 10.5616438,0.7875 9.90958904,0.940625 C8.78630137,1.203125 7.11506849,2.15625 5.8109589,3.28125 C4.02191781,4.825 2.46027397,6.946875 1.55068493,9.078125 C0.709589041,11.046875 0.515068493,12.5 0.980821918,13.34375 C1.11780822,13.590625 2.36712329,15.003125 2.52328767,15.0875 C2.68767123,15.178125 2.90410959,15.178125 3.06849315,15.0875 Z" id="Shape"></path>
            </g>
        </g>
    </g>
</svg>