<?xml version="1.0" encoding="UTF-8"?>
<svg width="31px" height="24px" viewBox="0 0 31 24" version="1.1" xmlns="http://www.w3.org/2000/svg" xmlns:xlink="http://www.w3.org/1999/xlink">
    <!-- Generator: Sketch 52.6 (67491) - http://www.bohemiancoding.com/sketch -->
    <title>“</title>
    <desc>Created with Sketch.</desc>
    <g id="Page-1" stroke="none" stroke-width="1" fill="none" fill-rule="evenodd" fill-opacity="0.183480525">
        <path d="M11.1328125,23.9375 L0.15625,23.9375 L0.15625,16.0859375 C0.15625,12.9088383 0.436195117,10.4023529 0.99609375,8.56640625 C1.55599238,6.73045957 2.59113828,5.08334062 4.1015625,3.625 C5.61198672,2.16665938 7.53905078,1.0208375 9.8828125,0.1875 L12.03125,4.71875 C9.84373906,5.44792031 8.27474434,6.46353516 7.32421875,7.765625 C6.37369316,9.06771484 5.87239609,10.7994684 5.8203125,12.9609375 L11.1328125,12.9609375 L11.1328125,23.9375 Z M29.453125,23.9375 L18.4765625,23.9375 L18.4765625,16.0859375 C18.4765625,12.8827965 18.7565076,10.3698008 19.3164062,8.546875 C19.8763049,6.72394922 20.9179611,5.08334062 22.4414062,3.625 C23.9648514,2.16665938 25.8854051,1.0208375 28.203125,0.1875 L30.3515625,4.71875 C28.1640516,5.44792031 26.5950568,6.46353516 25.6445312,7.765625 C24.6940057,9.06771484 24.1927086,10.7994684 24.140625,12.9609375 L29.453125,12.9609375 L29.453125,23.9375 Z" id="“" fill="#000000"></path>
    </g>
</svg>