<?xml version="1.0" encoding="UTF-8"?>
<svg width="245px" height="168px" viewBox="0 0 245 168" version="1.1" xmlns="http://www.w3.org/2000/svg" xmlns:xlink="http://www.w3.org/1999/xlink">
    <!-- Generator: Sketch 52.6 (67491) - http://www.bohemiancoding.com/sketch -->
    <title>11</title>
    <desc>Created with Sketch.</desc>
    <g id="Page-1" stroke="none" stroke-width="1" fill="none" fill-rule="evenodd" opacity="0.0979352679">
        <g id="11" transform="translate(0.000000, -1.000000)" fill="#606060">
            <g id="Group" transform="translate(0.000000, 37.029703)">
                <g id="Path">
                    <path d="M13.9424342,95.839604 L13.9907895,95.0990099 C13.9424342,95.1158416 13.9263158,95.3009901 13.9424342,95.839604 Z"></path>
                    <path d="M25.4832237,71.4673267 L25.4993421,71.6356436 C25.4993421,71.5178218 25.4832237,71.4841584 25.4832237,71.4673267 Z"></path>
                    <path d="M15.5703947,67.2257426 C15.5703947,67.2425743 15.5703947,67.2594059 15.5703947,67.2594059 C15.5703947,67.3267327 15.5865132,67.3940594 15.5865132,67.4445545 L15.5703947,67.2257426 Z"></path>
                    <path d="M16.6180921,104.642574 C16.2957237,94.8128713 16.5536184,92.2039604 16.0539474,82.0376238 C15.8927632,77.190099 15.7315789,72.0059406 15.5703947,67.2762376 C15.2480263,65.0376238 15.4575658,61.0485149 15.2157895,58.3891089 L15.3608553,57.3623762 C15.2802632,56.4534653 15.2319079,55.3762376 15.3125,54.450495 L15.3608553,54.5009901 C15.2963816,53.8277228 15.3286184,53.0871287 15.2157895,52.2455446 C15.1351974,51.4207921 14.7644737,50.5455446 14.4259868,50.1415842 L14.5065789,50.1920792 C14.0069079,49.4683168 13.3460526,49.0138614 12.7980263,48.6940594 L13.1203947,48.8118812 C12.4756579,48.4415842 11.8792763,48.2227723 11.3957237,48.0039604 C10.9282895,47.7683168 10.5414474,47.549505 10.1384868,47.2633663 C9.36480263,46.6574257 8.65559211,45.9168317 8.12368421,45.1089109 L8.07532895,45.3613861 C6.89868421,43.6108911 6.22171053,42.2643564 5.59309211,40.9683168 C5.01282895,39.6386139 4.46480263,38.3257426 4.06184211,36.339604 L4.12631579,36.3732673 C3.25592105,33.9831683 3.03026316,31.9128713 2.98190789,29.909901 C2.94967105,27.9405941 3.20756579,25.8871287 3.35263158,23.2277228 C3.32039474,23.8841584 3.48157895,22.9584158 3.52993421,23.0257426 C3.85230263,20.6188119 4.56151316,18.1277228 4.23914474,17.9762376 C4.77105263,16.2762376 4.81940789,16.6633663 5.01282895,16.4782178 C4.85164474,16.4277228 5.31907895,14.9465347 5.91546053,13.7178218 L5.68980263,14.3069307 C6.23782895,13.1287129 6.81809211,11.950495 7.52730263,10.8732673 L6.85032895,11.3445545 C8.05921053,9.64455446 7.41447368,11.1089109 8.52664474,9.45940594 L8.31710526,9.30792079 C9.23585526,8.21386139 10.0901316,7.45643564 10.9927632,6.83366337 C11.8792763,6.19405941 12.8302632,5.67227723 13.9907895,5.13366337 C16.3279605,3.83762376 19.0036184,3.46732673 21.4536184,4.46039604 C23.9036184,5.41980198 26.0151316,7.50693069 27.6269737,9.8970297 C29.2549342,12.2871287 30.3509868,15.0643564 31.2536184,17.8415842 C32.1240132,20.6188119 32.6881579,23.4465347 32.8976974,26.1732673 L32.76875,26.6782178 C32.5592105,26.8970297 33.4134868,29.6405941 33.1394737,30.0782178 L33.2684211,31.3405941 C33.2039474,31.6940594 33.1233553,32.4346535 33.0911184,31.8118812 C33.0427632,32.9732673 33.0588816,33.0069307 33.075,33.8485149 C32.9782895,34.2524752 32.8654605,34.6564356 32.7526316,35.060396 C32.3819079,37.2990099 31.8983553,39.3524752 31.1407895,41.2881188 C30.3671053,43.2069307 29.3516447,45.1425743 27.6753289,46.6237624 C26.64375,47.5326733 24.9996711,48.4584158 23.6779605,50.6128713 C23.0332237,51.6732673 22.7269737,53.1207921 22.7753289,54.349505 C22.7914474,55.4267327 22.8236842,56.5376238 22.8398026,57.6485149 C22.96875,62.0752475 23.2105263,66.5693069 23.4039474,69.8514851 C24.0970395,79.0584158 23.5167763,89.8475248 24.6289474,99.2564356 C24.6128289,99.5594059 24.7578947,100.350495 24.7901316,100.350495 L25.4348684,108.985149 C25.4348684,108.985149 25.6444079,111.594059 26.0151316,115.027723 C26.1924342,116.744554 26.4342105,118.646535 26.6921053,120.531683 C26.8371711,121.474257 26.9661184,122.4 27.1111842,123.308911 C27.1756579,123.79703 27.25625,124.133663 27.25625,124.487129 C27.2723684,124.840594 27.25625,125.194059 27.1917763,125.513861 C26.9822368,126.860396 26.3052632,127.853465 25.7894737,128.425743 C25.2898026,128.99802 24.9513158,129.284158 25.2575658,129.30099 C25.4993421,129.284158 26.5309211,129.09901 27.7236842,127.516832 C28.2717105,126.725743 28.8358553,125.513861 28.8197368,123.914851 C28.7552632,122.450495 28.6907895,120.733663 28.5940789,118.747525 L28.6746711,118.949505 C28.2878289,114.253465 28.0621711,111.291089 27.4657895,108.093069 C27.7881579,107.554455 27.1917763,104.221782 27.2240132,103.110891 L27.25625,103.211881 C26.7565789,100.367327 27.0628289,97.2871287 26.64375,94.5267327 C26.6759868,94.6277228 26.7888158,94.6782178 26.8371711,95.3178218 C26.6598684,93.2980198 26.4180921,90.5544554 26.6276316,90.3861386 C26.2891447,85.5722772 26.0957237,78.8227723 25.6282895,75.7425743 L25.6927632,75.9445545 C25.3865132,74.1940594 25.5799342,73.6554455 25.3865132,71.7029703 C25.41875,71.6019802 25.41875,71.450495 25.4348684,71.4841584 C25.1447368,69.5653465 25.2253289,65.8792079 25.0963816,64.3306931 L25.2414474,64.229703 L25.1286184,60.4089109 L25.1286184,61.839604 C24.7256579,61.3514851 25.3059211,58.9445545 25.0319079,56.1673267 C25.0319079,55.5108911 24.9835526,54.8712871 24.9029605,54.2148515 C24.8546053,53.6425743 24.7901316,53.0366337 24.9029605,52.4475248 C25.0802632,51.2524752 25.8700658,50.1079208 26.9016447,49.3168317 C27.7075658,48.3405941 26.2730263,50.2762376 27.5786184,48.929703 C27.7559211,49.0475248 27.0144737,49.6029703 27.4819079,49.4178218 C28.7391447,48.1554455 30.0608553,47.5663366 31.2858553,45.4455446 L31.4792763,45.4623762 C32.9460526,42.6683168 34.2516447,40.1435644 34.4611842,38.0227723 C34.7513158,36.4237624 34.9125,35.9188119 35.0898026,35.3633663 C35.2509868,34.8247525 35.4282895,34.2524752 35.3638158,32.5524752 L35.6217105,31.239604 C35.6539474,29.7920792 35.3638158,30.1960396 35.4121711,28.5970297 C35.5572368,28.6811881 35.3799342,26.5772277 35.5733553,27.5029703 C35.4766447,23.8336634 34.2838816,20.2821782 33.1072368,15.6871287 C32.5269737,14.8118812 31.8177632,12.539604 31.2697368,11.9168317 C31.3019737,11.8326733 30.7861842,10.7386139 30.3832237,9.98118812 C29.9641447,9.24059406 29.7384868,8.76930693 30.5444079,9.88019802 C30.6733553,10.0821782 30.8667763,10.4356436 30.8184211,10.4356436 L31.1085526,10.6376238 C30.0608553,8.02871287 28.3684211,6.37920792 26.3858553,4.47722772 C26.9822368,5.06633663 27.6914474,5.87425743 27.1273026,5.41980198 C26.5470395,4.7970297 25.9184211,4.22475248 25.2414474,3.68613861 L25.7411184,3.9049505 C24.7740132,3.04653465 23.6618421,2.33960396 22.4368421,1.81782178 L22.8720395,2.18811881 C21.1634868,1.38019802 20.4703947,0.841584158 18.2460526,1.04356436 C17.2628289,1.17821782 20.0674342,1.2960396 18.0365132,1.32970297 C16.7631579,1.31287129 15.1674342,1.5990099 13.6361842,2.23861386 C12.1049342,2.87821782 10.6381579,3.82079208 9.44539474,4.86435644 C9.8,4.83069307 9.12302632,5.33564356 8.55888158,6.00891089 L8.38157895,5.95841584 C7.28552632,7.23762376 7.09210526,7.45643564 6.80197368,7.60792079 C6.54407895,7.79306931 6.25394737,7.94455446 5.38355263,9.39207921 L5.44802632,9.07227723 L5.25460526,10.0148515 C4.60986842,11.3782178 4.36809211,11.6980198 4.09407895,12.0514851 C3.85230263,12.4217822 3.52993421,12.8257426 3.11085526,14.4415842 C3.61052632,13.229703 3.64276316,14.0207921 3.01414474,15.4683168 L3.01414474,15.0306931 C2.74013158,15.8722772 2.69177632,16.1752475 2.48223684,16.7306931 C2.56282895,16.1920792 2.35328947,16.3940594 1.98256579,17.639604 L2.06315789,16.7306931 C1.88585526,17.5554455 1.77302632,18.380198 1.66019737,19.1881188 C0.999342105,20.9891089 0.773684211,24.0188119 0.499671053,24.7594059 C0.499671053,24.7594059 0.354605263,25.7693069 0.290131579,26.9138614 C0.209539474,28.0584158 0.274013158,29.3881188 0.435197368,29.8425743 C0.241776316,29.0178218 0.322368421,31.3237624 0.112828947,30.6841584 C0.322368421,31.7782178 0.950986842,34.8415842 1.11217105,36.1039604 L1.03157895,35.8683168 C1.46677632,38.1574257 2.14375,40.0594059 2.94967105,41.8267327 C3.77171053,43.5940594 4.67434211,45.2435644 5.88322368,47.0445545 C5.89934211,46.909901 6.22171053,47.3138614 6.54407895,47.650495 C6.89868421,47.9871287 7.20493421,48.2732673 7.10822368,47.9871287 C7.49506579,48.3910891 7.91414474,48.7445545 8.33322368,49.0811881 C8.73618421,49.4346535 9.1875,49.7207921 9.62269737,49.990099 C10.5092105,50.5623762 11.2506579,50.8485149 11.7019737,51.2019802 C12.1694079,51.5554455 12.2822368,51.7742574 12.4273026,52.0940594 C12.5723684,52.4138614 12.6851974,52.8346535 12.8786184,53.1712871 C12.9269737,55.0059406 12.7013158,55.409901 12.6690789,56.3693069 L12.6368421,55.9148515 C12.6851974,59.4831683 12.7013158,60.509901 12.7496711,63.1524752 C12.8463816,64.4653465 13.1848684,64.6673267 13.1526316,67.0237624 C13.0075658,66.2663366 13.0398026,67.2257426 13.0559211,68.1178218 C13.0236842,67.5623762 12.9753289,67.3772277 12.8947368,68.5386139 C12.9430921,68.7069307 12.9753289,68.9594059 12.9914474,69.1950495 C12.9753289,69.2118812 12.9753289,69.2455446 12.9592105,69.2287129 C13.0398026,70.6930693 13.0720395,70.4405941 13.0881579,69.750495 C13.1042763,69.7841584 13.1365132,69.7336634 13.16875,69.5148515 C13.0236842,71.0465347 13.2815789,73.7732673 13.0559211,73.9584158 C13.2332237,78.3851485 13.5717105,81.5326733 13.78125,85.2188119 C13.6684211,85.639604 13.5394737,84.7811881 13.4588816,83.7207921 L13.5878289,86.329703 C13.4105263,86.3128713 13.4427632,84.8316832 13.3782895,84.0237624 C13.2009868,87.1376238 13.8779605,90.419802 13.7651316,94.0891089 L13.9263158,94.8465347 L13.9101974,95.0653465 C13.9746711,95.0485149 14.1036184,95.8732673 14.1519737,96.4118812 C14.0230263,96.9336634 13.7973684,96.3950495 13.8779605,98.1960396 C13.78125,99.6267327 14.1197368,102.252475 14.2809211,104.120792 C14.2648026,103.110891 14.3615132,103.430693 14.4259868,103.868317 C14.4743421,104.777228 14.3453947,105.29901 14.4421053,105.989109 L14.2486842,106.090099 C14.4259868,105.719802 14.5549342,108.429703 14.6516447,108.766337 C14.5226974,109.288119 14.4582237,107.369307 14.3453947,107.150495 C14.5226974,110.769307 14.4421053,108.951485 14.6194079,112.570297 C14.8611842,114.489109 14.7967105,112.216832 15.0223684,113.125743 C15.1351974,114.825743 15.3608553,116.475248 15.3286184,118.444554 L15.4736842,117.821782 C15.7315789,121.019802 15.8444079,122.955446 16.3279605,125.109901 C16.8921053,126.540594 17.6335526,127.70198 18.5039474,128.476238 C19.3743421,129.233663 20.3092105,129.654455 21.1151316,129.822772 C22.7753289,130.193069 23.8069079,129.536634 24.1615132,129.048515 C24.5161184,128.560396 24.6773026,128.105941 24.6289474,128.00495 C24.5967105,127.887129 24.3710526,128.00495 24.0325658,128.274257 C23.58125,128.594059 22.8075658,128.829703 21.8565789,128.526733 C20.9378289,128.240594 20.2608553,127.651485 20.2608553,127.651485 C19.0197368,126.624752 18.4072368,124.924752 18.0526316,123.275248 C17.6819079,121.592079 17.6013158,119.892079 17.4723684,117.956436 C17.2789474,114.219802 16.9243421,110.213861 16.6180921,104.642574 Z"></path>
                </g>
                <g transform="translate(41.907895, 5.049505)" id="Path">
                    <path d="M2.54671053,4.6960396 C2.64342105,4.37623762 2.74013158,4.05643564 2.86907895,3.71980198 C2.82072368,3.73663366 2.70789474,3.98910891 2.54671053,4.6960396 Z"></path>
                    <path d="M16.4891447,124.453465 C16.4085526,124.419802 16.3279605,124.386139 16.2473684,124.352475 C16.4085526,124.419802 16.4730263,124.453465 16.4891447,124.453465 Z"></path>
                    <path d="M13.9746711,20.5009901 C13.9746711,20.5178218 13.9746711,20.5346535 13.9746711,20.5514851 C13.9746711,20.6356436 13.9746711,20.719802 13.9907895,20.7871287 L13.9746711,20.5009901 Z"></path>
                    <path d="M3.27203947,16.2930693 C3.61052632,12.539604 4.09407895,9.64455446 4.59375,7.1029703 C4.85164474,5.82376238 5.06118421,4.54455446 5.43190789,3.92178218 C5.59309211,3.6019802 5.80263158,3.41683168 5.99605263,3.31584158 C6.06052632,3.2990099 6.07664474,3.31584158 6.10888158,3.33267327 C6.125,3.34950495 6.125,3.36633663 6.125,3.38316832 C6.125,3.41683168 6.10888158,3.34950495 6.125,3.46732673 C6.14111842,3.58514851 6.14111842,3.73663366 6.14111842,3.93861386 C6.14111842,4.81386139 6.14111842,5.72277228 6.14111842,6.68217822 C6.15723684,8.61782178 6.17335526,10.7891089 6.18947368,13.3306931 C6.18947368,14.8792079 6.18947368,16.4613861 6.20559211,18.0435644 L6.22171053,20.4336634 C6.20559211,21.3257426 6.35065789,22.4029703 6.64078947,23.3118812 C6.94703947,24.2544554 7.33388158,25.1970297 8.30098684,26.1227723 C8.76842105,26.560396 9.55822368,26.9811881 10.4125,26.9475248 C11.2506579,26.9138614 11.8953947,26.6108911 12.4273026,26.1732673 C12.9592105,25.7356436 13.3621711,25.1633663 13.5878289,24.5405941 C13.7006579,24.2376238 13.78125,23.9178218 13.8296053,23.5811881 C13.8457237,23.429703 13.8618421,23.2445545 13.8618421,23.109901 L13.8779605,22.8237624 C13.8940789,22.049505 13.9263158,21.2920792 13.9424342,20.5178218 C13.78125,17.6227723 14.2325658,12.5564356 14.1358553,9.13960396 L14.3453947,7.82673267 C14.2970395,6.64851485 14.3131579,5.35247525 14.6677632,4.57821782 L14.7,4.64554455 C14.8128289,4.02277228 15.1674342,3.53465347 15.5059211,3.28217822 C15.8121711,3.06336634 16.1184211,3.06336634 16.2634868,3.06336634 L16.23125,3.11386139 C16.4891447,3.14752475 16.6825658,3.28217822 16.6986842,3.4 C16.6664474,3.38316832 16.6342105,3.38316832 16.6180921,3.38316832 C16.6986842,3.38316832 16.8115132,3.9049505 16.8115132,4.74653465 C16.8276316,5.52079208 16.84375,6.27821782 16.8759868,7.03564356 C16.9082237,8.55049505 16.9082237,10.0316832 16.8921053,11.4287129 L17.0694079,11.1930693 C17.0049342,14.1554455 17.0694079,16.1920792 17.1177632,18.1445545 C17.1661184,19.1039604 17.1338816,20.0465347 17.2144737,21.2247525 C17.2628289,21.7970297 17.3273026,22.419802 17.5046053,23.1267327 C17.6819079,23.8168317 17.9881579,24.6247525 18.68125,25.3485149 L18.5684211,25.2980198 C18.9875,25.7188119 19.6644737,26.139604 20.3092105,26.2237624 C20.9539474,26.3415842 21.6148026,26.2069307 22.1467105,25.870297 C22.4207237,25.7188119 22.6625,25.5168317 22.8720395,25.3148515 C23.0493421,25.129703 23.2105263,24.9445545 23.3394737,24.7594059 C23.6618421,24.3217822 23.9036184,23.7831683 24.0003289,23.2950495 C24.2098684,22.3188119 24.1292763,21.5108911 24.0970395,20.8207921 C24.0809211,20.4841584 24.0648026,20.1643564 24.0648026,19.8782178 C24.0648026,19.6089109 24.0970395,19.390099 24.1453947,19.0029703 C24.4516447,16.2425743 24.5161184,13.4990099 24.5161184,10.0821782 C24.5161184,10.9405941 24.6289474,9.72871287 24.6773026,9.7960396 C24.7740132,8.23069307 24.9513158,6.64851485 25.1286184,5.45346535 C25.1769737,5.16732673 25.2092105,4.88118812 25.2575658,4.62871287 C25.2736842,4.51089109 25.2898026,4.39306931 25.3059211,4.29207921 L25.3220395,4.12376238 C25.3381579,3.92178218 25.3703947,3.78712871 25.2898026,3.71980198 C25.6766447,3.24851485 25.9667763,3.34950495 26.0473684,3.38316832 C26.1440789,3.43366337 26.1118421,3.5009901 26.1440789,3.58514851 C26.1601974,3.51782178 26.3375,3.45049505 26.64375,3.73663366 C26.9983553,4.09009901 27.3851974,4.86435644 27.5625,5.63861386 C27.4819079,5.4029703 27.3851974,5.18415842 27.2884868,4.96534653 C27.5463816,5.68910891 27.6914474,6.36237624 27.7236842,7.2039604 L27.86875,9.81287129 L28.1266447,8.76930693 C28.175,11.5465347 27.7881579,9.49306931 27.9815789,12.1524752 L28.2394737,12.1019802 C28.3684211,15.939604 28.0944079,18.2118812 28.0782895,21.9485149 C28.2233553,25.819802 28.4328947,29.7415842 28.6585526,33.6970297 C28.8680921,37.6188119 29.1582237,41.5742574 27.7720395,44.8564356 C27.1111842,46.4891089 25.9506579,47.7683168 24.5967105,49.1653465 C23.9358553,49.8722772 23.2588816,50.6128713 22.6625,51.4712871 C22.0661184,52.3465347 21.5825658,53.2891089 21.2279605,54.2653465 C19.8578947,58.2376238 20.2286184,62.2267327 20.3736842,65.7950495 L20.2286184,66.4346535 C19.9868421,66.7207921 20.8894737,70.3227723 20.6638158,70.8950495 L20.8733553,72.5613861 C20.8411184,73.0326733 20.8411184,74.0257426 20.7444079,73.2009901 C20.8088816,74.749505 20.8411184,74.7831683 20.9700658,75.8940594 L20.8572368,77.560396 C20.9217105,83.6534653 21.3730263,88.8376238 21.4052632,95.250495 C21.2924342,99.1049505 21.3407895,104.659406 21.4052632,110.29802 C21.4213816,111.711881 21.4375,113.125743 21.4536184,114.505941 C21.4536184,115.90297 21.5180921,117.3 21.4213816,118.49505 C21.3407895,119.706931 21.0990132,120.851485 20.6476974,121.642574 C20.2125,122.433663 19.5355263,122.837624 18.8585526,122.90495 C17.8914474,123.039604 16.6825658,122.416832 15.9411184,121.440594 C15.1835526,120.464356 14.7805921,119.084158 14.6032895,117.619802 C14.2809211,114.640594 14.2164474,111.375248 14.1197368,108.210891 C13.9585526,101.831683 13.9263158,95.4019802 13.5394737,89.3930693 C13.5717105,89.0059406 13.4588816,87.9960396 13.4266447,87.9960396 L13.2815789,76.9712871 C13.2815789,76.9712871 13.1203947,63.7079208 13.0236842,55.3425743 C12.9430921,51.2019802 12.8463816,48.3405941 12.5078947,49.0138614 C12.1855263,49.7039604 11.6052632,53.9623762 11.025,64.1287129 L10.9605263,63.8594059 C10.8154605,69.9019802 10.8315789,73.7059406 11.1861842,77.880198 C10.8315789,78.5366337 11.2184211,82.8455446 11.1217105,84.2594059 L11.0894737,84.1247525 C11.4440789,87.8108911 11.0088816,91.7158416 11.3634868,95.2673267 C11.33125,95.1326733 11.2184211,95.0653465 11.2023026,94.2405941 C11.3151316,96.8326733 11.5246711,100.367327 11.3151316,100.569307 C11.4601974,103.666337 11.6052632,107.369307 11.8309211,110.80297 C12.0888158,114.236634 12.25,117.367327 12.9592105,119.471287 L12.8302632,119.20198 C13.2171053,120.363366 13.5394737,121.120792 13.9585526,121.878218 C14.39375,122.635644 14.9578947,123.443564 16.2151316,124.167327 C16.3279605,124.285149 16.5213816,124.386139 16.4730263,124.386139 C17.1177632,124.672277 17.9881579,124.941584 18.9875,124.857426 C19.9868421,124.790099 21.0023026,124.285149 21.7115132,123.510891 C23.1299342,121.89505 23.3072368,119.976238 23.4039474,118.949505 L23.5651316,118.831683 C23.7101974,117.081188 23.6457237,115.482178 23.6618421,113.832673 L23.6134868,115.667327 C23.2266447,115.027723 23.8875,111.964356 23.6296053,108.412871 C23.6779605,105.080198 22.7592105,101.680198 22.9203947,98.229703 C22.7108553,96.580198 23.2427632,99.6772277 23.0654605,97.219802 C23.275,97.1356436 23.2105263,98.3643564 23.3717105,97.7247525 C23.2427632,95.3178218 23.5328947,93.7524752 23.3394737,90.790099 L23.5006579,90.6722772 C23.1299342,86.8009901 23.5490132,83.3336634 23.1944079,80.7584158 C22.9365132,76.7524752 23.5973684,78.0485149 23.1138158,73.8910891 L23.2588816,72.2584158 C23.2105263,70.4742574 22.9365132,70.9960396 22.9365132,68.9930693 C23.0815789,69.1108911 22.8881579,66.4683168 23.0976974,67.629703 C23.0654605,65.3405941 22.7269737,63.1188119 22.6786184,60.7792079 C22.6141447,58.4732673 22.8236842,55.8980198 24.19375,53.760396 C24.3871711,52.6326733 26.4342105,50.7475248 26.9983553,49.8891089 C27.0950658,49.8722772 28.1427632,48.7950495 28.8197368,47.8356436 C29.4483553,46.8762376 29.8513158,46.2871287 28.9648026,47.9534653 C28.8036184,48.239604 28.4651316,48.6772277 28.4490132,48.609901 L28.3039474,49.0475248 C29.6095395,47.7514851 30.4315789,46.0346535 30.8345395,44.4019802 C31.2536184,42.7356436 31.3503289,41.1029703 31.4631579,39.3524752 C31.3664474,40.3792079 31.2213816,41.7762376 31.2052632,40.8336634 C31.3180921,39.739604 31.3664474,38.6623762 31.3664474,37.6019802 L31.4953947,38.2752475 C31.54375,36.6762376 31.4792763,35.1108911 31.4470395,33.5792079 L31.3180921,34.2188119 C31.3019737,31.9633663 31.54375,31.1554455 31.1891447,28.6306931 C31.0118421,27.4861386 31.0601974,30.7683168 30.8990132,28.3950495 C30.8667763,25.3821782 30.8345395,20.8544554 30.7055921,17.0168317 C30.5444079,17.3871287 30.4960526,16.3435644 30.4154605,15.2831683 L30.5766447,15.1485149 C30.1575658,11.0752475 30.8667763,13.6336634 30.4960526,9.59405941 L30.625,9.94752475 L30.2381579,8.88712871 C29.9802632,7.06930693 30.0769737,6.5980198 30.0447368,5.89108911 C30.0286184,5.55445545 30.0125,5.21782178 29.8513158,4.67920792 C29.6740132,4.14059406 29.4644737,3.4 28.5940789,2.35643564 C29.2065789,3.21485149 29.1421053,3.46732673 28.9486842,3.23168317 C28.8036184,3.04653465 28.6101974,2.82772277 28.4006579,2.55841584 C28.1588816,2.25544554 27.7075658,1.73366337 27.0305921,1.43069307 C27.2723684,1.48118812 27.5302632,1.56534653 27.7720395,1.68316832 C27.0628289,1.16138614 26.4503289,1.11089109 25.9667763,1.12772277 C25.4832237,1.1950495 25.0802632,1.34653465 24.5967105,1.63267327 C24.9996711,1.32970297 25.1447368,1.24554455 24.8223684,1.32970297 C24.5483553,1.41386139 23.7101974,1.86831683 23.2266447,3.01287129 C23.3878289,2.47425743 23.6457237,1.96930693 24.1131579,1.48118812 C23.4361842,2.12079208 23.0976974,2.86138614 22.9526316,3.63564356 C22.8881579,4.17425743 22.8075658,4.6960396 22.7592105,5.21782178 C22.0983553,7.60792079 22.1305921,11.4455446 21.8888158,12.3881188 C21.8888158,12.3881188 21.8404605,13.650495 21.7759868,15.0643564 C21.7276316,16.4613861 21.6792763,17.9762376 21.7598684,18.5485149 C21.7276316,18.0435644 21.6470395,18.4811881 21.5503289,18.9188119 C21.4536184,19.4069307 21.4052632,20.1138614 21.3085526,19.5920792 C21.3569079,20.4336634 21.6953947,21.8475248 21.5664474,22.5712871 C21.5342105,22.7564356 21.5019737,22.8574257 21.4375,22.9415842 C21.3730263,23.0425743 21.1634868,23.2950495 21.13125,23.2950495 C21.0345395,23.3792079 20.9217105,23.3455446 20.8733553,23.2950495 C20.8894737,23.2950495 20.9055921,23.2950495 20.9217105,23.2782178 C20.8733553,23.2613861 20.8411184,23.2445545 20.8088816,23.2108911 C20.7766447,23.1772277 20.6476974,23.0257426 20.5671053,22.9247525 C20.4059211,22.6554455 20.2447368,22.2346535 20.1641447,21.7465347 C19.9707237,20.7534653 19.9868421,19.6089109 19.9384868,18.380198 C19.8578947,16.0069307 19.7773026,13.7009901 19.8578947,11.1425743 C19.6805921,11.3782178 19.7450658,8.66831683 19.5194079,9.34158416 C19.4388158,8.01188119 19.4388158,6.74950495 19.4388158,5.55445545 C19.4388158,4.94851485 19.4549342,4.35940594 19.4549342,3.78712871 C19.4549342,3.16435644 19.3259868,2.27227723 18.8101974,1.58217822 C17.7786184,0.235643564 16.23125,0.0841584158 15.2319079,0.420792079 C14.1680921,0.774257426 13.5878289,1.53168317 13.3782895,2.08712871 C12.5078947,3.2990099 12.3628289,4.15742574 12.1694079,4.76336634 C12.0082237,5.38613861 11.8953947,5.84059406 11.8309211,6.4970297 L11.8309211,5.87425743 C11.6697368,10.4356436 11.6213816,11.7485149 11.5085526,15.1485149 C11.5246711,16.8316832 11.8470395,17.1009901 11.6536184,20.1138614 C11.5569079,19.1376238 11.5407895,20.3663366 11.4924342,21.4940594 C11.4924342,20.770297 11.4601974,20.5514851 11.3151316,22.0158416 C11.3473684,22.2178218 11.3634868,22.5544554 11.3796053,22.8574257 C11.3634868,22.8742574 11.3634868,22.9247525 11.3473684,22.8910891 C11.3473684,23.5643564 11.1861842,23.6653465 11.2023026,23.7326733 C11.2023026,23.7663366 11.3151316,23.6316832 11.3957237,23.3623762 C11.4118421,23.3960396 11.4440789,23.3623762 11.5085526,23.1940594 C11.4279605,23.5138614 11.2506579,23.850495 10.9927632,24.0524752 C10.7026316,24.2881188 10.4286184,24.3386139 10.2674342,24.2544554 C9.8,24.0861386 9.39703947,23.1940594 9.49375,23.0930693 C9.25197368,22.5712871 9.09078947,21.9990099 8.99407895,21.4435644 C8.94572368,21.1574257 8.92960526,20.9049505 8.91348684,20.6188119 C8.89736842,20.2990099 8.89736842,19.9792079 8.88125,19.6762376 C8.83289474,18.4306931 8.80065789,17.2524752 8.76842105,16.0910891 C8.68782895,13.7851485 8.62335526,11.580198 8.54276316,9.25742574 C8.65559211,8.73564356 8.76842105,9.82970297 8.81677632,11.1930693 L8.76842105,7.86039604 C8.94572368,7.89405941 8.88125,9.77920792 8.91348684,10.8059406 C9.01019737,9.30792079 8.99407895,7.79306931 8.94572368,6.21089109 C8.91348684,5.41980198 8.88125,4.61188119 8.86513158,3.8039604 C8.84901316,3.38316832 8.81677632,2.84455446 8.59111842,2.22178218 C8.36546053,1.63267327 7.94638158,1.14455446 7.41447368,0.858415842 C6.70526316,0.471287129 5.83486842,0.454455446 5.07730263,0.791089109 C4.33585526,1.12772277 3.82006579,1.63267327 3.40098684,2.25544554 C3.22368421,2.62574257 3.11085526,3.01287129 3.03026316,3.36633663 L2.91743421,3.65247525 C2.96578947,3.66930693 2.78848684,4.7970297 2.70789474,5.47029703 C2.45,6.09306931 2.36940789,5.35247525 1.98256579,7.64158416 C1.53125,9.42574257 1.28947368,12.8257426 1.16052632,15.2326733 C1.30559211,13.9366337 1.35394737,14.3742574 1.35394737,14.929703 C1.25723684,16.0910891 1.04769737,16.7306931 1.04769737,17.639604 L0.838157895,17.7405941 C1.04769737,17.3029703 0.854276316,20.7871287 0.950986842,21.2247525 C0.773684211,21.8811881 0.902631579,19.4237624 0.805921053,19.1207921 C0.644736842,23.7831683 0.676973684,21.460396 0.676973684,26.1227723 C0.854276316,28.6138614 0.854276316,25.6683168 1.04769737,26.8465347 C1.12828947,29.0346535 1.37006579,31.1554455 1.45065789,33.6633663 L1.56348684,32.8554455 C2.04703947,36.9287129 2.25657895,39.3693069 2.78848684,42.1128713 C3.38486842,43.9475248 4.17467105,45.4960396 5.10953947,46.6574257 C6.04440789,47.8188119 7.07598684,48.5930693 8.01085526,49.1148515 C9.94506579,50.1247525 11.4440789,50.0237624 12.2822368,49.8049505 C14.0069079,49.2326733 13.9101974,48.9633663 12.8141447,49.0643564 C11.9598684,49.1316832 10.4125,48.9128713 9.1875,48.1386139 C8.575,47.7851485 8.07532895,47.3475248 7.72072368,46.9940594 C7.36611842,46.6574257 7.17269737,46.4217822 7.17269737,46.4217822 C5.62532895,44.5534653 4.93223684,42.2138614 4.48092105,39.9752475 C4.04572368,37.7029703 3.82006579,35.380198 3.56217105,33.0237624 C3.11085526,28.3782178 2.77236842,23.3287129 3.27203947,16.2930693 Z"></path>
                </g>
                <g transform="translate(4.835526, 8.415842)" id="Path">
                    <path d="M6.02828947,7.67524752 L5.91546053,7.72574257 C5.94769737,7.74257426 5.97993421,7.72574257 6.02828947,7.67524752 Z"></path>
                    <path d="M8.55888158,32.2158416 L8.59111842,32.2158416 C8.575,32.2158416 8.55888158,32.2158416 8.55888158,32.2158416 Z"></path>
                    <polygon points="2.07927632 10.5366337 2.07927632 10.5366337 2.07927632 10.5029703"></polygon>
                    <path d="M4.67434211,5.28514851 C3.83618421,6.54752475 3.32039474,6.74950495 2.80460526,8.2980198 C2.46611842,8.98811881 2.27269737,9.7960396 2.07927632,10.519802 C2.22434211,10.9405941 1.78914474,11.4623762 1.91809211,11.9336634 L1.72467105,12.0514851 C1.75690789,12.219802 1.77302632,12.3881188 1.66019737,12.5059406 L1.61184211,12.4891089 C1.67631579,12.7247525 1.56348684,12.9435644 1.59572368,13.0782178 L1.54736842,13.0613861 L1.51513158,13.3306931 L1.46677632,13.280198 C1.51513158,13.6841584 1.45065789,14.0544554 1.33782895,14.3910891 L1.53125,14.3910891 C1.20888158,15.0811881 1.56348684,15.4009901 1.25723684,16.0237624 L1.20888158,16.0069307 C1.62796053,16.8653465 0.773684211,17.319802 1.24111842,18.1950495 C1.17664474,18.0940594 1.14440789,18.2455446 1.09605263,18.2287129 C1.16052632,18.6326733 1.17664474,19.0534653 1.54736842,19.0366337 C1.56348684,19.3227723 1.45065789,19.2722772 1.30559211,19.3227723 C1.46677632,19.3059406 1.54736842,19.5584158 1.57960526,19.7772277 L1.51513158,19.6762376 L1.61184211,20.2990099 L1.90197368,20.1475248 C1.8375,20.4841584 1.54736842,20.2653465 1.64407895,20.5851485 L1.88585526,20.5514851 C1.90197368,21.0059406 1.53125,21.3425743 1.43453947,21.8138614 C1.62796053,23.749505 2.80460526,25.4831683 3.04638158,27.250495 L2.90131579,27.4019802 C2.65953947,27.5534653 3.44934211,27.6881188 3.25592105,27.839604 L3.44934211,27.9742574 C3.43322368,28.0415842 3.43322368,28.1762376 3.33651316,28.1089109 C3.40098684,28.2772277 3.44934211,28.260396 3.57828947,28.3445545 L3.54605263,28.6138614 C3.75559211,29.3544554 4.31973684,29.7584158 4.67434211,30.4485149 C4.81940789,31.4752475 6.10888158,32.7376238 6.88256579,33.3772277 C8.04309211,34.1683168 8.39769737,36.1712871 9.81611842,36.760396 C9.83223684,36.8277228 9.97730263,36.8277228 9.99342105,36.8108911 L10.9927632,37.6693069 C10.9927632,37.6693069 11.2667763,37.9386139 11.9276316,38.2584158 C12.25,38.409901 12.7335526,38.5445545 13.2493421,38.4940594 C13.8779605,38.409901 14.3131579,38.0732673 14.5871711,37.6693069 C14.8773026,37.2653465 14.9256579,36.6594059 14.7483553,36.339604 C14.5710526,36.019802 14.39375,36.0534653 14.2809211,36.1544554 C14.1680921,36.2722772 14.0713816,36.5920792 13.78125,36.6762376 C13.5233553,36.760396 13.1042763,36.6594059 13.0881579,36.3059406 L13.1042763,36.2386139 C12.9592105,36.070297 12.7174342,35.8683168 12.1855263,35.8346535 C12.3467105,35.4811881 11.7986842,35.4643564 11.7503289,35.2623762 L11.7825658,35.2455446 C11.2828947,35.2287129 11.3151316,34.5217822 10.8638158,34.4712871 C10.8960526,34.4544554 10.9605263,34.3871287 11.0411184,34.4376238 C10.7993421,34.2861386 10.4769737,34.0841584 10.6059211,33.9158416 C10.0901316,33.4950495 9.54210526,32.7376238 8.99407895,32.670297 L9.05855263,32.6534653 C8.72006579,32.6366337 8.83289474,32.4346535 8.55888158,32.3 C8.575,32.2663366 8.575,32.249505 8.575,32.2326733 C8.22039474,32.1821782 8.05921053,31.6435644 7.84967105,31.5257426 L7.9625,31.4247525 L7.62401316,31.0207921 L7.72072368,31.2059406 C7.36611842,31.3910891 7.67236842,30.7346535 7.25328947,30.5663366 C7.10822368,30.229703 6.15723684,30.4316832 6.125,29.9772277 C5.86710526,29.9267327 6.46348684,29.9435644 6.20559211,29.7920792 C6.38289474,29.6742574 6.38289474,29.8257426 6.47960526,29.6742574 C6.25394737,29.4891089 6.43125,29.1861386 6.15723684,28.9673267 L6.28618421,28.8663366 C5.83486842,28.6306931 6.09276316,28.0415842 5.72203947,27.9405941 C5.41578947,27.6039604 6.02828947,27.4524752 5.54473684,27.1831683 L5.67368421,26.9306931 C5.62532895,26.7455446 5.36743421,26.9138614 5.38355263,26.6782178 C5.5125,26.6277228 5.38355263,26.3752475 5.54473684,26.4425743 C5.56085526,25.9039604 4.88388158,25.6514851 5.02894737,24.9108911 C4.73881579,24.8772277 4.77105263,24.5069307 4.56151316,24.4732673 C4.67434211,24.4227723 4.40032895,23.8336634 4.73881579,24.119802 C4.77105263,24.1366337 4.77105263,24.2039604 4.73881579,24.2039604 L4.9,24.2039604 C5.09342105,23.7663366 4.56151316,23.6316832 4.51315789,23.2613861 C4.48092105,23.3792079 4.52927632,23.5138614 4.40032895,23.4465347 L4.35197368,23.109901 L4.49703947,23.1435644 L4.46480263,22.6386139 L4.31973684,22.739604 C4.35197368,22.4871287 4.59375,22.3356436 4.31973684,22.1168317 C4.17467105,22.0158416 4.14243421,22.3861386 4.04572368,22.150495 C4.11019737,21.7970297 4.15855263,21.2920792 4.17467105,20.8712871 C3.99736842,20.9386139 3.99736842,20.8207921 3.93289474,20.719802 L4.09407895,20.6861386 C3.82006579,20.2821782 4.43256579,20.4841584 4.19078947,20.080198 L4.30361842,20.1138614 L3.96513158,20.029703 C3.62664474,19.6594059 4.2875,19.7940594 3.82006579,19.390099 C3.85230263,19.5584158 3.46546053,19.4910891 3.52993421,19.2722772 L3.69111842,19.3227723 C3.64276316,19.2049505 3.57828947,19.1712871 3.61052632,19.0871287 C3.70723684,19.1544554 3.83618421,19.1207921 3.80394737,18.9356436 L3.99736842,19.0366337 L3.70723684,18.7168317 C3.86842105,18.4643564 3.65888158,18.060396 3.86842105,17.9425743 C3.86842105,17.9425743 3.99736842,17.4039604 3.75559211,17.2693069 C3.90065789,17.3871287 3.96513158,17.0841584 4.14243421,17.1851485 C3.98125,17.0336634 3.85230263,16.6128713 4.06184211,16.4613861 L4.07796053,16.4950495 C4.31973684,15.9059406 3.93289474,15.4178218 4.23914474,14.8960396 C4.04572368,14.8960396 4.19078947,14.609901 3.94901316,14.6435644 C3.82006579,14.0207921 4.62598684,13.7178218 3.94901316,13.3306931 C3.96513158,13.0613861 4.19078947,13.0613861 4.25526316,12.9435644 L4.27138158,13.0108911 C4.33585526,12.5227723 4.35197368,12.3712871 4.48092105,12.0178218 C4.46480263,11.8158416 4.14243421,11.6811881 4.33585526,11.3950495 C4.43256579,11.5465347 4.44868421,11.4118812 4.48092105,11.2772277 C4.48092105,11.3613861 4.51315789,11.3950495 4.65822368,11.2772277 C4.62598684,11.2435644 4.60986842,11.1930693 4.59375,11.1594059 C4.60986842,11.1594059 4.60986842,11.1594059 4.62598684,11.1594059 C4.64210526,10.9405941 4.59375,10.9574257 4.54539474,11.0415842 C4.52927632,11.0247525 4.49703947,11.0247525 4.44868421,11.0415842 C4.67434211,10.890099 4.64210526,10.4693069 4.86776316,10.5366337 C5.02894737,9.93069307 4.98059211,9.42574257 5.10953947,8.9039604 C5.23848684,8.9039604 5.28684211,9.05544554 5.27072368,9.22376238 L5.38355263,8.87029703 C5.54473684,8.95445545 5.38355263,9.10594059 5.38355263,9.22376238 C5.80263158,8.93762376 5.5125,8.28118812 5.96381579,7.94455446 L5.88322368,7.77623762 L5.91546053,7.75940594 C5.85098684,7.72574257 5.81875,7.57425743 5.83486842,7.49009901 C5.99605263,7.50693069 6.14111842,7.67524752 6.25394737,7.43960396 C6.47960526,7.33861386 6.46348684,6.9009901 6.52796053,6.63168317 C6.43125,6.73267327 6.38289474,6.64851485 6.36677632,6.56435644 C6.43125,6.44653465 6.59243421,6.48019802 6.59243421,6.36237624 L6.76973684,6.46336634 C6.57631579,6.3960396 6.76973684,6.05940594 6.72138158,5.97524752 C6.88256579,5.99207921 6.72138158,6.21089109 6.80197368,6.31188119 C7.05986842,5.87425743 6.91480263,6.09306931 7.18881579,5.65544554 C7.22105263,5.33564356 6.99539474,5.58811881 6.93092105,5.36930693 C7.04375,5.15049505 7.05986842,4.86435644 7.31776316,4.71287129 L7.12434211,4.67920792 C7.26940789,4.20792079 7.47894737,4.00594059 7.80131579,3.88811881 C8.33322368,2.07029703 8.15592105,1.54851485 7.73684211,1.51485149 C7.33388158,1.48118812 6.75361842,1.95247525 6.75361842,1.95247525 C5.52861842,2.77722772 5.46414474,3.73663366 4.67434211,5.28514851 Z"></path>
                </g>
                <g transform="translate(220.822368, 3.366337)" id="Path">
                    <path d="M3.86842105,87.1376238 L3.93289474,86.4475248 C3.90065789,86.4643564 3.88453947,86.6326733 3.86842105,87.1376238 Z"></path>
                    <path d="M13.5717105,80.6405941 L13.5878289,80.8089109 C13.5878289,80.6742574 13.5717105,80.6405941 13.5717105,80.6405941 Z"></path>
                    <path d="M5.96381579,60.2910891 C5.96381579,60.3079208 5.96381579,60.3247525 5.96381579,60.3247525 L5.97993421,60.509901 L5.96381579,60.2910891 Z"></path>
                    <path d="M6.39901316,95.4524752 C6.27006579,86.2287129 6.57631579,83.7881188 6.28618421,74.2277228 C6.23782895,69.6663366 6.09276316,64.8019802 5.97993421,60.3415842 C5.67368421,58.2207921 5.88322368,54.4841584 5.59309211,51.9762376 L5.72203947,51 C5.62532895,50.1415842 5.56085526,49.1316832 5.62532895,48.2564356 L5.67368421,48.3069307 C5.52861842,47.0108911 5.56085526,45.5633663 5.48026316,44.9237624 L5.52861842,44.9742574 L5.46414474,43.4089109 L5.52861842,43.6782178 C5.35131579,41.4227723 5.27072368,39.1168317 5.27072368,37.0633663 L5.09342105,37.2316832 C5.14177632,32.8554455 4.72269737,31.2732673 4.77105263,27.3178218 L4.81940789,27.3683168 C4.11019737,22.4029703 4.69046053,19.4910891 4.17467105,14.4415842 C4.23914474,15.0811881 4.27138158,14.1722772 4.31973684,14.2227723 C4.23914474,11.8831683 4.33585526,9.40891089 3.98125,9.35841584 C4.07796053,7.65841584 4.19078947,7.9950495 4.33585526,7.77623762 C4.17467105,7.77623762 4.22302632,6.27821782 4.36809211,4.9990099 L4.36809211,5.58811881 C4.40032895,5.26831683 4.41644737,4.96534653 4.46480263,4.72970297 C4.51315789,4.47722772 4.52927632,4.42673267 4.60986842,4.27524752 C4.75493421,4.00594059 5.06118421,3.88811881 5.35131579,3.93861386 C5.25460526,3.8039604 5.10953947,3.68613861 4.91611842,3.61881188 C5.56085526,3.6019802 5.56085526,3.85445545 5.60921053,3.92178218 C5.65756579,4.03960396 5.70592105,4.03960396 6.36677632,4.47722772 L6.49572368,4.25841584 C8.47828947,5.99207921 9.23585526,7.49009901 10.4447368,9.72871287 C13.1848684,14.3069307 14.8289474,19.9118812 16.23125,25.5336634 C17.6819079,31.1217822 19.0519737,36.6257426 20.0835526,41.809901 L20.0029605,42.3148515 C19.7773026,42.5841584 21.0828947,45.0415842 20.9217105,45.4960396 L21.3246711,46.6574257 C21.3569079,46.9940594 21.4213816,47.6673267 21.2601974,47.1118812 C21.4375,48.1554455 21.4858553,48.1722772 21.6470395,48.9128713 C21.6148026,49.2831683 21.5825658,49.6534653 21.5180921,49.990099 C21.3891447,51.9762376 20.7766447,53.0871287 19.2453947,53.5584158 C18.4555921,53.8108911 17.4723684,53.8950495 16.3601974,54.080198 C15.2963816,54.2653465 13.78125,54.6019802 12.7335526,55.9653465 C12.0888158,56.739604 11.7664474,57.7831683 11.6213816,58.7257426 C11.4763158,59.7019802 11.4601974,60.5772277 11.3957237,61.5366337 C11.2828947,63.4554455 11.2506579,65.5257426 11.2506579,67.6128713 C11.2506579,71.7871287 11.3957237,76.0118812 11.5407895,79.0920792 C12.1049342,87.7435644 11.4118421,97.8930693 12.7174342,106.746535 C12.7013158,107.032673 12.8625,107.773267 12.8947368,107.773267 C13.16875,110.483168 13.4427632,113.193069 13.8940789,115.90297 C13.8940789,115.90297 13.9907895,116.508911 14.1680921,117.518812 C14.3453947,118.511881 14.5871711,119.858416 14.6516447,121.339604 C14.6838816,122.080198 14.6355263,122.837624 14.5065789,123.578218 C14.4421053,123.948515 14.3292763,124.30198 14.2164474,124.672277 C14.1036184,124.958416 13.9746711,125.227723 13.7651316,125.480198 C12.9753289,126.523762 11.5730263,127.011881 10.4769737,126.776238 C9.33256579,126.607921 8.47828947,125.816832 7.91414474,125.328713 C7.39835526,124.790099 7.05986842,124.537624 7.07598684,124.840594 C7.12434211,125.093069 7.30164474,126.086139 8.65559211,127.314851 C9.33256579,127.90396 10.4286184,128.509901 11.9276316,128.442574 C13.3460526,128.341584 15.2480263,127.567327 16.23125,125.379208 C16.23125,125.463366 16.2151316,125.530693 16.1990132,125.631683 C17.1661184,123.258416 17.0371711,121.171287 16.8598684,119.488119 C16.6503289,117.771287 16.2634868,116.374257 15.9088816,114.909901 C16.1828947,114.388119 15.4414474,111.341584 15.4414474,110.29802 L15.4898026,110.39901 C14.9095395,107.756436 15.1513158,104.861386 14.7161184,102.30297 C14.7483553,102.40396 14.8611842,102.454455 14.9095395,103.043564 C14.7161184,101.158416 14.4582237,98.5831683 14.6677632,98.4316832 C14.3131579,93.9207921 14.1680921,87.6089109 13.7328947,84.7138614 L13.7973684,84.9158416 C13.5072368,83.2663366 13.7167763,82.7782178 13.5394737,80.9267327 C13.5717105,80.8257426 13.5717105,80.6910891 13.5878289,80.7079208 C13.3138158,78.9069307 13.475,75.4564356 13.3782895,73.9920792 L13.5233553,73.8910891 L13.4911184,70.3059406 L13.4588816,71.6524752 C13.0720395,71.1811881 13.7167763,68.9425743 13.5072368,66.3336634 C13.6200658,63.9267327 12.7980263,61.3514851 13.2171053,58.8772277 C13.2332237,57.7158416 13.3299342,59.9039604 13.5072368,58.2207921 C13.7006579,58.2207921 13.475,58.9950495 13.7167763,58.6247525 C13.8134868,57.8336634 14.1197368,57.3287129 14.5549342,56.9920792 C15.00625,56.6554455 15.5703947,56.4366337 16.5213816,56.2009901 L16.6180921,56.3524752 C17.8592105,55.9990099 19.2453947,56.049505 20.5832237,55.5613861 C21.9371711,55.090099 22.9848684,53.9118812 23.2427632,52.7841584 C23.7585526,51.1178218 23.7424342,50.5960396 23.8875,50.0237624 C23.9842105,49.4683168 24.0809211,48.8455446 23.6618421,47.2633663 C23.6618421,46.8425743 23.6457237,46.4049505 23.6296053,45.9841584 C23.3555921,44.7049505 23.1460526,45.1425743 22.9042763,43.6950495 C23.0654605,43.7455446 22.5819079,41.8772277 22.9042763,42.6851485 C22.3401316,39.4366337 21.0345395,36.2722772 20.3736842,31.9465347 C19.8901316,31.1049505 19.5355263,28.9336634 19.1809211,28.3108911 C19.2615132,28.1594059 18.1654605,24.0524752 18.9875,26.3752475 C19.0519737,26.5772277 19.1486842,26.9306931 19.0842105,26.9306931 L19.3098684,27.1663366 C19.0036184,24.6752475 18.1171053,22.8405941 17.5368421,20.450495 C17.6980263,21.1742574 17.9236842,22.1 17.6657895,21.5108911 L17.0855263,19.3059406 L17.3434211,19.7267327 C17.0532895,18.6158416 16.7470395,17.5217822 16.4246711,16.4108911 L16.4085526,16.9158416 C15.9572368,15.2831683 16.0378289,14.609901 15.0868421,12.909901 C14.6355263,12.1524752 15.4898026,14.4920792 14.7644737,12.8594059 C14.0069079,10.7217822 12.5401316,7.52376238 10.5898026,5.23465347 C10.6220395,5.58811881 10.1384868,4.94851485 9.52598684,4.39306931 L9.57434211,4.20792079 C8.38157895,3.18118812 8.18815789,2.97920792 8.04309211,2.69306931 C7.9625,2.55841584 7.84967105,2.40693069 7.57565789,2.17128713 C7.43059211,2.05346535 7.23717105,1.91881188 6.94703947,1.76732673 C6.80197368,1.7 6.64078947,1.61584158 6.41513158,1.54851485 C6.15723684,1.44752475 5.85098684,1.38019802 5.5125,1.34653465 C5.67368421,1.32970297 5.83486842,1.32970297 6.01217105,1.32970297 C5.5125,1.31287129 5.02894737,1.3970297 4.60986842,1.58217822 C3.49769737,1.86831683 3.04638158,2.50792079 2.75625,2.92871287 C2.48223684,3.36633663 2.35328947,3.66930693 2.20822368,4.02277228 C2.11151316,4.27524752 2.03092105,4.56138614 1.98256579,4.94851485 C1.95032895,5.3019802 1.93421053,5.80693069 1.96644737,6.56435644 C2.06315789,5.35247525 2.36940789,6.04257426 2.17598684,7.50693069 L2.04703947,7.11980198 C2.01480263,7.94455446 2.06315789,8.21386139 1.99868421,8.75247525 C1.95032895,8.26435644 1.78914474,8.48316832 1.75690789,9.67821782 L1.61184211,8.85346535 L1.78914474,11.1425743 C1.56348684,12.8930693 1.80526316,15.670297 1.59572368,16.3772277 C1.59572368,16.3772277 1.59572368,20.1306931 1.88585526,20.9722772 C1.70855263,20.2316832 1.74078947,22.2851485 1.54736842,21.7128713 C1.75690789,22.6722772 2.04703947,25.5 1.91809211,26.6445545 L1.88585526,26.4257426 C1.91809211,30.6168317 2.45,33.5792079 2.35328947,37.3663366 C2.53059211,37.1811881 2.49835526,39.1841584 2.70789474,38.6792079 C3.0625,42.5673267 2.41776316,45.7990099 3.17532895,47.1960396 C3.25592105,48.9633663 3.04638158,49.3 3.03026316,50.2257426 L2.98190789,49.8049505 C3.11085526,53.1376238 3.14309211,54.0970297 3.15921053,56.5712871 C3.25592105,57.8 3.59440789,57.9851485 3.54605263,60.2069307 C3.40098684,59.5 3.43322368,60.3920792 3.44934211,61.2168317 C3.41710526,60.6950495 3.36875,60.5267327 3.28815789,61.6207921 C3.33651316,61.7722772 3.36875,62.0079208 3.38486842,62.2267327 C3.36875,62.2435644 3.36875,62.2772277 3.35263158,62.260396 C3.41710526,63.6405941 3.46546053,63.4049505 3.46546053,62.7653465 C3.48157895,62.7990099 3.51381579,62.7485149 3.54605263,62.5465347 C3.38486842,63.9772277 3.62664474,66.5356436 3.38486842,66.7207921 C3.49769737,70.8782178 3.78782895,73.8405941 3.93289474,77.2910891 C3.82006579,77.6782178 3.70723684,76.870297 3.64276316,75.8772277 L3.72335526,78.3346535 C3.54605263,78.3178218 3.59440789,76.9207921 3.54605263,76.180198 C3.32039474,79.1089109 3.91677632,82.1891089 3.73947368,85.6227723 L3.88453947,86.329703 L3.86842105,86.5316832 C3.93289474,86.5148515 4.04572368,87.2891089 4.09407895,87.7940594 C3.94901316,88.2821782 3.73947368,87.760396 3.78782895,89.460396 C3.675,90.8069307 3.94901316,93.2643564 4.07796053,95.0148515 C4.07796053,94.0722772 4.17467105,94.3752475 4.23914474,94.7792079 C4.27138158,95.6207921 4.12631579,96.1257426 4.20690789,96.7653465 L4.01348684,96.849505 C4.19078947,96.5128713 4.2875,99.0544554 4.36809211,99.3742574 C4.23914474,99.8623762 4.20690789,98.0613861 4.07796053,97.8594059 C4.20690789,101.259406 4.14243421,99.5594059 4.25526316,102.959406 C4.48092105,104.760396 4.43256579,102.622772 4.64210526,103.481188 C4.73881579,105.080198 4.93223684,106.628713 4.88388158,108.480198 L5.04506579,107.891089 C5.31907895,110.887129 5.36743421,112.688119 5.30296053,114.724752 C6.67302632,125.867327 7.38223684,126.978218 7.54342105,125.345545 C7.75296053,123.712871 7.57565789,119.30297 7.57565789,119.30297 C7.52730263,110.432673 6.83421053,105.921782 6.39901316,95.4524752 Z"></path>
                </g>
                <g transform="translate(91.875000, 20.198020)" id="Path">
                    <g>
                        <path d="M3.49769737,55.6287129 L3.43322368,56.5207921 C3.48157895,56.5207921 3.49769737,56.2851485 3.49769737,55.6287129 Z"></path>
                        <path d="M80.85,9.50990099 C80.7855263,9.47623762 80.7210526,9.44257426 80.6726974,9.42574257 C80.7855263,9.49306931 80.8338816,9.50990099 80.85,9.50990099 Z"></path>
                        <path d="M10.8476974,89.7970297 C10.8315789,89.780198 10.8315789,89.7633663 10.8154605,89.7633663 C10.7509868,89.7128713 10.7026316,89.6455446 10.6381579,89.5950495 L10.8476974,89.7970297 Z"></path>
                        <path d="M1.45065789,44.5534653 C1.01546053,50.6970297 0.967105263,54.5514851 1.03157895,58.5237624 C1.16052632,62.4792079 1.32171053,66.5356436 2.78848684,72.8475248 C4.11019737,78.8564356 6.81809211,85.1514851 10.8154605,89.780198 C11.8470395,90.790099 13.2171053,92.2039604 14.7483553,93.5168317 C16.2796053,94.829703 17.9398026,96.0584158 19.3582237,96.849505 L20.3414474,97.6742574 C21.3246711,98.2128713 22.4851974,98.8188119 23.4039474,99.4752475 L23.3233553,99.4752475 C24.8223684,100.19901 26.4503289,101.141584 27.2240132,101.461386 L27.1434211,101.478218 C27.7398026,101.79802 28.3523026,102.067327 28.9648026,102.353465 L28.6263158,102.269307 C31.3019737,103.413861 34.0582237,104.541584 36.5243421,105.467327 L36.3792763,105.214851 C38.9904605,106.241584 40.8440789,106.746535 42.6493421,107.150495 C44.4384868,107.554455 46.1148026,107.941584 48.6453947,108.49703 L48.5648026,108.530693 C51.9174342,108.884158 54.2546053,109.119802 56.7690789,109.389109 C59.2996711,109.624752 61.8947368,109.759406 65.1828947,109.271287 C64.3608553,109.389109 65.5375,109.338614 65.4730263,109.389109 C68.5032895,109.119802 71.7108553,108.429703 71.6786184,108.042574 C73.8384868,107.588119 73.4516447,107.756436 73.7740132,107.840594 C73.7256579,107.689109 75.5792763,107.150495 77.2233553,106.578218 L76.4819079,106.89802 C78.0453947,106.359406 79.6088816,105.770297 81.1240132,105.063366 C80.7855263,105.09703 80.4470395,105.147525 80.1085526,105.164356 C82.5424342,104.171287 80.8822368,105.282178 83.1226974,104.087129 L82.9776316,103.868317 C86.2174342,102.20198 88.2322368,101.326733 91.1013158,99.1217822 C93.9703947,96.6811881 96.5171053,93.7356436 98.6447368,90.4871287 C100.772368,87.2386139 102.513158,83.7376238 103.931579,80.1524752 C106.784539,72.9653465 108.235197,65.4415842 109.025,58.439604 L109.266776,57.8336634 C109.573026,57.5811881 109.073355,53.9118812 109.299013,53.390099 L109.170066,51.7405941 C109.218421,51.2861386 109.266776,50.309901 109.33125,51.1178218 C109.33125,49.6029703 109.266776,49.5524752 109.137829,48.4752475 L109.202303,46.8257426 C109.041118,43.7960396 108.557566,40.9851485 107.671053,38.2247525 C106.768421,35.4643564 105.446711,32.8386139 103.738158,30.1792079 C101.836184,26.829703 98.2578947,22.8237624 94.6634868,18.8851485 C91.0529605,14.8960396 87.0072368,11.0920792 83.60625,8.9039604 C78.8835526,5.77326733 73.2904605,3.26534653 67.3911184,1.81782178 C61.4917763,0.403960396 55.3667763,-0.0673267327 49.7575658,0.37029703 C49.3868421,0.336633663 48.4358553,0.471287129 48.4519737,0.504950495 C45.01875,0.63960396 41.6016447,0.892079208 38.1684211,1.34653465 C38.1684211,1.34653465 37.3947368,1.46435644 36.1052632,1.66633663 C34.8157895,1.9019802 33.0266447,2.23861386 31.0118421,2.81089109 C29.0131579,3.38316832 26.7888158,4.14059406 24.6934211,5.18415842 C22.5980263,6.21089109 20.6476974,7.49009901 19.0842105,8.78613861 C15.9894737,11.4287129 14.5065789,13.9029703 15.1513158,13.549505 C15.5220395,13.4316832 16.3440789,12.5564356 18.1654605,11.1930693 C19.9707237,9.82970297 22.7914474,7.96138614 27.1595395,6.4970297 L26.95,6.64851485 C29.4967105,5.67227723 31.6726974,5.15049505 33.6391447,4.6960396 C35.6055921,4.24158416 37.3786184,3.87128713 39.2483553,3.46732673 C39.8769737,3.73663366 43.7615132,3.01287129 45.0832237,3.08019802 L44.9703947,3.11386139 C48.3391447,2.57524752 51.9335526,3.01287129 55.1733553,2.82772277 C55.0444079,2.86138614 54.9799342,2.96237624 54.2223684,2.94554455 C56.5756579,2.94554455 59.8154605,3.06336634 59.9605263,3.34950495 C62.7651316,3.56831683 66.0855263,4.09009901 69.0835526,4.86435644 C72.0976974,5.62178218 74.7411184,6.64851485 76.4657895,7.2039604 L76.2078947,7.17029703 C78.1582237,7.84356436 78.6095395,8.2980198 80.6404605,9.37524752 C80.7371711,9.45940594 80.8661184,9.56039604 80.8338816,9.56039604 C81.8171053,10.0821782 83.2194079,10.9742574 84.4444079,11.9841584 C85.6855263,12.9940594 86.8299342,14.0544554 87.5230263,14.660396 L87.5069079,14.8455446 C88.6190789,15.8722772 89.6828947,16.9663366 90.7467105,18.060396 L89.5861842,16.7980198 C90.2792763,16.9326733 91.8105263,19.4742574 94.2121711,21.8138614 C96.2430921,24.2039604 99.0638158,25.9881188 100.885197,28.7316832 C101.949013,29.8594059 99.8375,27.8227723 101.320395,29.6069307 C101.207566,29.7920792 100.578947,28.8158416 100.804605,29.4049505 C102.206908,31.1891089 102.771053,32.5524752 104.125,34.9594059 L104.028289,35.1445545 C105.881908,38.2752475 106.059211,41.6079208 106.671711,43.9475248 C107.235855,47.7009901 106.510526,46.5059406 106.994079,50.4445545 L106.784539,51.9930693 C106.736184,53.6930693 107.090789,53.2049505 106.897368,55.090099 C106.768421,54.9722772 106.687829,57.4633663 106.607237,56.3524752 C106.155921,60.560396 106.139803,65.0039604 104.479605,70.3564356 C104.43125,71.6019802 103.544737,74.2613861 103.415789,75.170297 C103.335197,75.2207921 102.883882,76.550495 102.545395,77.4762376 C102.158553,78.3851485 101.900658,78.9069307 102.368092,77.4089109 C102.448684,77.1564356 102.59375,76.7019802 102.625987,76.7524752 L102.59375,76.3485149 C101.272039,79.1930693 100.675658,81.7514851 99.1766447,84.4782178 C99.6763158,83.7039604 100.192105,82.5930693 99.9342105,83.3841584 L98.5480263,85.9089109 L98.7253289,85.3029703 C98.0483553,86.5653465 97.2101974,87.709901 96.4526316,88.9049505 C96.6138158,88.7871287 96.7588816,88.6356436 96.9039474,88.5009901 C96.3075658,89.3594059 95.7917763,89.8475248 95.3243421,90.419802 C94.8730263,90.9920792 94.3894737,91.5811881 93.7125,92.5574257 C93.1322368,93.4663366 95.1470395,91.1940594 93.7769737,92.9108911 C91.9233553,94.9811881 88.8447368,97.7584158 85.9111842,99.5930693 C86.2819079,99.5594059 85.5082237,100.114851 84.7023026,100.636634 L84.525,100.552475 C83.0098684,101.612871 82.6391447,101.646535 82.3167763,101.730693 C81.9782895,101.79802 81.6559211,101.882178 80.0440789,102.706931 L80.2858553,102.471287 L79.5444079,103.19505 C78.0776316,103.969307 77.6263158,104.053465 77.1427632,104.120792 C76.6592105,104.20495 76.1595395,104.356436 74.4509868,105.080198 C75.8371711,104.642574 75.2085526,105.265347 73.4516447,105.652475 L73.8546053,105.383168 C72.9036184,105.652475 72.5973684,105.80396 71.9365132,105.921782 C72.5006579,105.70297 72.1944079,105.635644 70.7759868,105.938614 L71.6947368,105.551485 C70.8243421,105.820792 69.9378289,106.106931 69.0513158,106.342574 C66.9398026,106.527723 63.5871711,106.982178 62.7006579,106.763366 C62.7006579,106.763366 61.55625,106.780198 60.2828947,106.780198 C59.0095395,106.780198 57.6072368,106.763366 57.0753289,106.847525 C58.0101974,106.746535 55.4796053,106.544554 56.2049342,106.393069 C55.0121711,106.510891 51.4983553,106.292079 50.1444079,105.837624 L50.4023026,105.854455 C45.3088816,104.861386 41.6177632,104.322772 37.2496711,102.572277 C37.3947368,102.824752 35.0898026,101.882178 35.5894737,102.319802 C30.93125,100.80495 27.6914474,98.229703 25.8055921,98.0613861 C23.8230263,97.0178218 23.5973684,96.5633663 22.6302632,95.9574257 L23.0976974,96.1930693 C19.5194079,94.0386139 18.5361842,93.3148515 16.1990132,91.3287129 C15.0223684,90.3524752 14.5549342,90.5039604 12.7657895,88.3663366 C13.4588816,88.9386139 12.6690789,88.1306931 12.0404605,87.3059406 C12.4756579,87.8108911 12.6046053,87.9455446 11.8792763,86.8009901 C11.7342105,86.6831683 11.5407895,86.4475248 11.3634868,86.2455446 C11.3634868,86.2287129 11.3473684,86.1782178 11.3634868,86.1950495 C10.3157895,84.8148515 10.4930921,85.050495 10.8960526,85.7574257 C10.8476974,85.7405941 10.8799342,85.8079208 10.9927632,86.0267327 C10.0901316,84.4613861 8.38157895,81.7009901 8.54276316,81.3643564 C7.36611842,79.0079208 6.57631579,76.870297 5.89934211,74.8 C5.20625,72.729703 4.70657895,70.709901 4.2875,68.5049505 C4.31973684,67.9831683 4.57763158,69.009901 4.88388158,70.2554455 C4.65822368,69.2287129 4.48092105,68.1851485 4.30361842,67.1415842 C4.48092105,67.1415842 4.65822368,68.9257426 4.9,69.8683168 C4.46480263,66.1316832 3.49769737,62.1930693 3.59440789,57.7158416 L3.41710526,56.790099 L3.43322368,56.5207921 C3.36875,56.5376238 3.23980263,55.5445545 3.20756579,54.8712871 C3.35263158,54.2316832 3.54605263,54.9049505 3.54605263,52.7 C3.69111842,50.949505 3.54605263,47.7346535 3.62664474,45.4455446 C3.52993421,46.6742574 3.46546053,46.270297 3.44934211,45.7316832 C3.51381579,44.6207921 3.72335526,44.0148515 3.72335526,43.1564356 L3.93289474,43.0722772 C3.69111842,43.4762376 4.01348684,40.1940594 3.99736842,39.7732673 C4.22302632,39.1673267 3.91677632,41.490099 3.99736842,41.7762376 C4.52927632,37.4 4.19078947,39.5712871 4.96447368,35.2455446 C5.28684211,32.9227723 4.69046053,35.6158416 4.73881579,34.4881188 C5.14177632,32.4514851 5.52861842,30.4316832 6.44736842,28.2435644 C6.30230263,28.4623762 6.15723684,28.6643564 6.02828947,28.8831683 C7.17269737,25.1465347 8.31710526,23.0594059 9.81611842,20.9386139 C13.4105263,14.6267327 16.9726974,12.3039604 18.5361842,11.1762376 C20.1641447,10.0653465 19.9384868,9.96435644 18.9552632,10.250495 C17.9075658,10.570297 16.0378289,11.4960396 14.6032895,12.5732673 C13.1526316,13.6168317 12.0888158,14.7108911 12.0888158,14.7108911 C7.80131579,19.0029703 5.78651316,23.3118812 4.23914474,27.8732673 C2.78848684,32.5019802 1.88585526,37.5514851 1.45065789,44.5534653 Z"></path>
                    </g>
                    <g transform="translate(12.894737, 11.782178)">
                        <path d="M4.12631579,49.2831683 L4.20690789,49.9227723 C4.22302632,49.8891089 4.22302632,49.7207921 4.12631579,49.2831683 Z"></path>
                        <path d="M54.1578947,6.27821782 L54.0128289,6.24455446 C54.1095395,6.27821782 54.1417763,6.27821782 54.1578947,6.27821782 Z"></path>
                        <polygon points="15.2802632 71.8039604 15.2480263 71.7871287 15.1029605 71.6861386"></polygon>
                        <path d="M1.11217105,41.5574257 C0.902631579,46.1188119 1.41842105,49.1316832 2.19210526,51.9762376 C2.59506579,53.4069307 3.0625,54.8039604 3.73947368,56.3524752 C4.41644737,57.9009901 5.25460526,59.6346535 6.52796053,61.6039604 C8.84901316,65.4247525 11.9759868,69.0435644 15.2641447,71.8039604 C16.9243421,72.9653465 19.6805921,75.2881188 21.8404605,76.2980198 L22.5657895,76.9039604 C23.3072368,77.2574257 24.19375,77.6445545 24.8868421,78.0821782 L24.8223684,78.0990099 C25.9506579,78.570297 27.2240132,79.1257426 27.8042763,79.3108911 L27.7398026,79.3277228 C28.1911184,79.5128713 28.6585526,79.6980198 29.1259868,79.8326733 L28.8680921,79.8158416 C30.9151316,80.4049505 33.0105263,81.0277228 34.9125,81.4148515 L34.7835526,81.1960396 C35.7828947,81.4653465 36.6371711,81.6168317 37.4108553,81.7009901 C38.1845395,81.7851485 38.8615132,81.8693069 39.5384868,81.8693069 C40.2154605,81.8861386 40.8763158,81.919802 41.6016447,81.9366337 C42.3269737,81.9366337 43.1167763,81.9534653 44.0355263,82.0039604 L43.9871711,82.0544554 C46.3082237,81.6673267 48.1457237,81.5326733 49.9993421,81.2633663 C51.8368421,80.9772277 53.7226974,80.6574257 55.9309211,79.5970297 C55.3828947,79.849505 56.2049342,79.6138614 56.1726974,79.6643564 C58.2680921,78.890099 60.4118421,77.829703 60.2828947,77.4594059 C61.7335526,76.7524752 61.5078947,76.9881188 61.7657895,77.0217822 C61.6851974,76.8871287 62.8779605,76.1128713 63.9740132,75.490099 L63.5065789,75.8267327 C64.5542763,75.2039604 65.5375,74.4970297 66.5368421,73.8069307 C66.2950658,73.8742574 66.0371711,73.9079208 65.7792763,73.9415842 C67.3911184,72.9148515 66.3917763,73.9752475 67.8263158,72.8138614 L67.6651316,72.6118812 C69.7766447,71.0128713 71.1950658,70.2554455 73.1453947,68.4712871 C75.03125,66.5019802 76.7720395,64.2633663 78.09375,61.6376238 C79.4315789,58.9950495 80.0279605,56.0831683 80.4631579,53.339604 C81.3657895,47.8019802 81.5592105,42.2306931 81.1240132,37.0633663 L81.2529605,36.5752475 C81.5269737,36.3227723 80.3825658,33.8148515 80.5276316,33.3940594 C80.4148026,33.0069307 80.2697368,32.6366337 80.1246711,32.249505 C80.0924342,31.9128713 79.9634868,31.2059406 80.1730263,31.7613861 C79.8667763,30.6841584 79.8184211,30.6673267 79.4960526,29.9267327 C79.4476974,29.5227723 79.3671053,29.1188119 79.2703947,28.7316832 C77.8680921,24.5237624 75.7888158,21.3594059 73.0648026,17.7237624 C71.5496711,15.4346535 68.8417763,12.5059406 65.6825658,10.1158416 C62.5233553,7.70891089 58.9450658,5.89108911 56.2532895,4.86435644 C52.4493421,3.43366337 48.2746711,2.15445545 43.9226974,1.46435644 C39.5868421,0.791089109 35.0898026,0.740594059 31.0279605,1.58217822 C30.7539474,1.58217822 30.0769737,1.76732673 30.0930921,1.8009901 C27.6108553,2.18811881 25.1447368,2.77722772 22.7269737,3.5009901 C22.7269737,3.5009901 20.51875,4.12376238 17.7302632,5.33564356 C14.9417763,6.53069307 11.5891447,8.6009901 9.70328947,11.0752475 C7.76907895,13.5158416 7.44671053,15.7712871 7.88190789,15.350495 C8.13980263,15.1821782 8.55888158,14.3910891 9.63881579,13.1455446 C10.7348684,11.9168317 12.5401316,10.3009901 15.5542763,8.92079208 L15.4253289,9.07227723 C18.9069079,7.28811881 21.3407895,6.58118812 23.8713816,5.45346535 C24.3871711,5.68910891 27.0305921,4.62871287 27.9815789,4.57821782 L27.9009868,4.62871287 C30.2220395,3.82079208 32.8332237,4.02277228 35.1381579,3.58514851 C35.0575658,3.61881188 35.0092105,3.73663366 34.4773026,3.78712871 C36.1536184,3.58514851 38.4746711,3.48415842 38.6036184,3.71980198 C42.6493421,3.58514851 48.1940789,4.66237624 50.7569079,5.13366337 L50.5634868,5.13366337 C52.0463816,5.33564356 52.4171053,5.63861386 53.9967105,6.10990099 C54.0773026,6.17722772 54.1740132,6.22772277 54.1578947,6.22772277 C55.7536184,6.58118812 58.5098684,8.07920792 59.6542763,8.71881188 L59.6542763,8.88712871 C60.6052632,9.39207921 61.4917763,10.0148515 62.4105263,10.5871287 L61.4111842,9.8970297 C61.9753289,9.77920792 63.3453947,11.4287129 65.2957237,12.7415842 C66.9559211,14.1722772 69.2125,15.1148515 70.6148026,17.0673267 C71.4851974,17.7910891 69.7444079,16.5287129 70.9532895,17.690099 C70.8404605,17.8752475 70.3407895,17.1851485 70.5019737,17.6227723 C71.6141447,18.8178218 72.0171053,19.8277228 73.2421053,21.409901 L73.1615132,21.5782178 C74.8378289,23.6148515 75.4503289,25.9544554 76.3851974,27.4356436 C77.4973684,29.909901 76.6592105,29.2871287 77.7713816,31.8623762 C77.8197368,32.2326733 77.8197368,32.6029703 77.8519737,32.9732673 C78.1098684,34.1514851 78.3032895,33.7475248 78.4805921,35.0772277 C78.3355263,35.0267327 78.6578947,36.760396 78.4,36.019802 C78.6578947,39.0158416 79.3832237,42.129703 78.7868421,46.1356436 C79.0125,47.0277228 78.6417763,49.0306931 78.7707237,49.7039604 C78.6578947,49.8049505 78.1582237,53.7267327 78.2549342,51.4376238 C78.2710526,51.2356436 78.3194079,50.8990099 78.3677632,50.9326733 L78.2549342,50.6465347 C77.6263158,52.8514851 77.7552632,54.8207921 77.1105263,56.9079208 C77.3523026,56.3019802 77.5296053,55.4435644 77.4973684,56.0326733 C77.3200658,56.7059406 77.1266447,57.3455446 76.9009868,57.9851485 L76.9009868,57.5475248 C76.5786184,58.490099 76.1756579,59.3821782 75.7082237,60.2405941 L76.0305921,59.9544554 C75.2891447,61.2168317 74.8055921,61.4861386 74.0641447,62.9841584 C73.7256579,63.6910891 75.0473684,61.9742574 74.1930921,63.2871287 C72.9519737,64.8524752 70.8082237,66.9564356 68.9384868,68.639604 C69.2447368,68.6227723 68.7289474,69.0772277 68.2131579,69.5653465 L68.0519737,69.4811881 C66.15,71.4 67.0848684,69.8178218 65.0861842,71.5851485 L65.2151316,71.349505 C65.0861842,71.5851485 64.9733553,71.8207921 64.8282895,72.0564356 C62.9746711,73.6386139 63.6194079,72.5277228 61.5078947,74.2277228 C62.4105263,73.6891089 62.1042763,74.3118812 60.94375,74.8841584 L61.1532895,74.5811881 C60.5407895,74.9683168 60.3473684,75.1029703 59.8960526,75.2881188 C60.2506579,75.0188119 60.0088816,74.9683168 59.0740132,75.4564356 L59.6220395,74.9683168 C59.0740132,75.3386139 58.5259868,75.7425743 57.9296053,76.0792079 C56.4628289,76.550495 54.2223684,77.5267327 53.5615132,77.4930693 C53.5615132,77.4930693 52.7717105,77.6950495 51.8851974,77.9306931 C50.9986842,78.1831683 50.0154605,78.3683168 49.6769737,78.5871287 C50.2894737,78.3009901 48.5164474,78.6039604 48.9838816,78.3346535 C48.1779605,78.6544554 45.7118421,79.1257426 44.6963816,78.9742574 L44.8898026,78.9405941 C41.2148026,78.9742574 38.5552632,79.209901 35.3154605,78.3683168 C35.4282895,78.5871287 33.7197368,78.149505 34.1065789,78.4693069 C30.6411184,77.9306931 28.2878289,76.0118812 26.8532895,76.2475248 C25.4026316,75.5742574 25.2253289,75.2712871 24.5161184,74.8336634 C24.6289474,74.8841584 24.7417763,74.9346535 24.8707237,74.9851485 C22.2434211,73.5712871 21.5180921,73.1 19.7128289,71.7871287 C18.7940789,71.1811881 18.4072368,71.3831683 16.9404605,70.0029703 C17.5207237,70.3059406 16.8759868,69.8009901 16.3118421,69.3128713 C16.6986842,69.5990099 16.8115132,69.6831683 16.1667763,68.9425743 C16.0378289,68.8752475 15.8605263,68.7574257 15.7154605,68.6227723 C15.7154605,68.6059406 15.6993421,68.5722772 15.7154605,68.5722772 C14.7805921,67.7475248 14.9095395,67.9158416 15.3125,68.3366337 C15.2802632,68.3366337 15.2963816,68.3871287 15.3930921,68.5386139 C14.5388158,67.5455446 12.8625,65.9128713 12.9108553,65.6435644 C10.3963816,62.8158416 8.72006579,60.6445545 7.12434211,57.8673267 C7.05986842,57.4970297 7.51118421,58.1029703 7.99473684,58.8772277 C7.62401316,58.2207921 7.23717105,57.5811881 6.89868421,56.9079208 C7.04375,56.8574257 7.59177632,58.0019802 7.94638158,58.5910891 C6.88256579,56.1336634 5.19013158,53.760396 4.54539474,50.629703 L4.23914474,50.0405941 L4.20690789,49.8554455 C4.14243421,49.8891089 3.86842105,49.2326733 3.75559211,48.7613861 C3.82006579,48.290099 4.07796053,48.7108911 3.80394737,47.1960396 C3.73947368,45.9841584 3.36875,43.7623762 3.35263158,42.1128713 C3.32039474,42.9881188 3.23980263,42.7019802 3.19144737,42.3316832 C3.20756579,41.5405941 3.36875,41.0861386 3.35263158,40.480198 L3.56217105,40.4128713 C3.33651316,40.7158416 3.51381579,38.3425743 3.48157895,38.0227723 C3.675,37.5851485 3.48157895,39.2683168 3.59440789,39.470297 C3.90065789,36.3059406 3.70723684,37.8881188 4.14243421,34.7237624 C4.25526316,33.0237624 3.90065789,34.9930693 3.85230263,34.1683168 C4.06184211,32.670297 4.19078947,31.1891089 4.72269737,29.539604 L4.41644737,30.0277228 C4.93223684,27.2336634 5.44802632,25.6009901 6.20559211,23.8336634 C7.54342105,18.7 8.63947368,15.939604 9.01019737,14.5425743 C9.41315789,13.1455446 9.1875,13.1455446 8.70394737,13.7514851 C8.22039474,14.3742574 7.46282895,15.619802 6.89868421,16.7475248 C6.31842105,17.8752475 5.88322368,18.8514851 5.88322368,18.8514851 C4.11019737,22.739604 3.19144737,25.9039604 2.51447368,29.3039604 C1.82138158,32.7881188 1.30559211,36.4069307 1.11217105,41.5574257 Z"></path>
                    </g>
                </g>
            </g>
            <g id="Group" transform="translate(175.690789, 21.881188)">
                <g transform="translate(0.000000, 1.683168)" id="Path">
                    <path d="M8.04309211,3.38316832 L7.97861842,3.2990099 C7.97861842,3.33267327 7.99473684,3.36633663 8.04309211,3.38316832 Z"></path>
                    <path d="M5.81875,25.8366337 L5.83486842,25.8534653 C5.81875,25.8366337 5.81875,25.8366337 5.81875,25.8366337 Z"></path>
                    <polygon points="3.49769737 2.39009901 3.49769737 2.39009901 3.51381579 2.35643564"></polygon>
                    <path d="M10.1707237,1.73366337 C9.39703947,1.16138614 8.80065789,0.858415842 8.15592105,0.69009901 C7.52730263,0.521782178 6.78585526,0.471287129 5.85098684,0.858415842 C4.91611842,1.12772277 4.12631579,1.75049505 3.51381579,2.39009901 C3.38486842,2.86138614 2.72401316,3.23168317 2.62730263,3.77029703 L2.40164474,3.83762376 C2.36940789,4.02277228 2.32105263,4.22475248 2.15986842,4.32574257 L2.12763158,4.29207921 C2.09539474,4.56138614 1.93421053,4.81386139 1.91809211,4.94851485 L1.88585526,4.91485149 C1.85361842,5.01584158 1.82138158,5.1 1.78914474,5.2009901 L1.74078947,5.13366337 C1.70855263,5.57128713 1.57960526,5.99207921 1.43453947,6.34554455 L1.62796053,6.36237624 C1.24111842,7.08613861 1.57960526,7.43960396 1.27335526,8.0960396 L1.225,8.07920792 C1.66019737,8.97128713 0.822039474,9.45940594 1.32171053,10.3178218 C1.25723684,10.2168317 1.225,10.3683168 1.17664474,10.3683168 C1.25723684,10.7554455 1.30559211,11.1762376 1.67631579,11.1425743 C1.69243421,11.4287129 1.57960526,11.3782178 1.45065789,11.4287129 C1.61184211,11.4118812 1.70855263,11.6475248 1.72467105,11.8663366 L1.66019737,11.7821782 L1.78914474,12.3881188 L2.07927632,12.2366337 C2.03092105,12.5732673 1.72467105,12.3712871 1.8375,12.6574257 L2.07927632,12.6237624 C2.07927632,13.0782178 1.74078947,13.3811881 1.61184211,13.8356436 C1.72467105,15.6366337 2.62730263,17.4544554 2.45,19.1712871 L2.27269737,19.2722772 C1.99868421,19.3564356 2.74013158,19.6594059 2.49835526,19.760396 L2.65953947,19.9287129 C2.62730263,19.9960396 2.57894737,20.1138614 2.51447368,20.029703 C2.53059211,20.2148515 2.57894737,20.1980198 2.67565789,20.3158416 L2.53059211,20.5346535 C2.51447368,21.2584158 2.94967105,21.7970297 2.99802632,22.5376238 C2.80460526,23.480198 3.43322368,25.0960396 3.80394737,26.0049505 C4.46480263,27.250495 3.70723684,29.0514851 4.46480263,30.3138614 C4.43256579,30.3643564 4.54539474,30.4653465 4.57763158,30.4485149 L4.81940789,31.7108911 C4.81940789,31.7108911 5.14177632,33.2257426 5.62532895,34.1009901 C6.10888158,34.9762376 6.70526316,35.1782178 7.28552632,32.619802 L7.35,32.6366337 C7.33388158,31.929703 7.26940789,31.4920792 6.86644737,31.1049505 C7.20493421,30.9366337 6.78585526,30.549505 6.86644737,30.3475248 L6.89868421,30.3475248 C6.52796053,30.0108911 6.94703947,29.4386139 6.60855263,29.1019802 C6.64078947,29.1188119 6.7375,29.1019802 6.76973684,29.1861386 C6.65690789,28.9 6.49572368,28.529703 6.70526316,28.4623762 C6.49572368,27.7891089 6.39901316,26.7960396 5.97993421,26.4257426 L6.04440789,26.4425743 C5.77039474,26.2405941 5.94769737,26.1227723 5.77039474,25.870297 C5.80263158,25.8534653 5.80263158,25.819802 5.81875,25.819802 C5.54473684,25.5841584 5.62532895,25.0287129 5.48026316,24.809901 L5.62532895,24.7594059 L5.49638158,24.2207921 L5.5125,24.439604 C5.10953947,24.439604 5.67368421,23.9683168 5.35131579,23.6316832 C5.33519737,23.2445545 4.41644737,23.0257426 4.52927632,22.6049505 C4.31973684,22.4534653 4.85164474,22.7059406 4.65822368,22.4534653 C4.85164474,22.4029703 4.80328947,22.5544554 4.96447368,22.4534653 C4.81940789,22.2009901 5.09342105,21.9653465 4.9,21.6623762 L5.06118421,21.6118812 C4.69046053,21.2247525 5.12565789,20.7534653 4.80328947,20.5009901 C4.59375,20.0633663 5.22236842,20.1138614 4.83552632,19.6930693 L5.01282895,19.4742574 C5.01282895,19.2722772 4.72269737,19.3732673 4.80328947,19.1376238 C4.93223684,19.1207921 4.86776316,18.8346535 5.01282895,18.9524752 C5.14177632,18.4138614 4.54539474,17.9762376 4.81940789,17.2524752 C4.52927632,17.1514851 4.64210526,16.7811881 4.43256579,16.7138614 C4.54539474,16.680198 4.35197368,16.0405941 4.65822368,16.3772277 C4.69046053,16.4108911 4.69046053,16.4613861 4.64210526,16.4613861 L4.80328947,16.4782178 C5.04506579,16.0574257 4.54539474,15.8049505 4.52927632,15.4346535 C4.49703947,15.5524752 4.52927632,15.7039604 4.40032895,15.619802 L4.36809211,15.2663366 L4.51315789,15.3168317 L4.51315789,14.7782178 L4.35197368,14.8792079 C4.40032895,14.609901 4.67434211,14.4752475 4.40032895,14.2227723 C4.25526316,14.1049505 4.20690789,14.4920792 4.12631579,14.239604 C4.19078947,13.8861386 4.30361842,13.3475248 4.2875,12.909901 C4.11019737,12.9772277 4.09407895,12.8594059 4.04572368,12.7415842 L4.20690789,12.7079208 C3.93289474,12.270297 4.52927632,12.4891089 4.30361842,12.0683168 L4.41644737,12.1019802 L4.07796053,12.0178218 C3.72335526,11.6475248 4.38421053,11.7653465 3.90065789,11.3613861 C3.94901316,11.529703 3.56217105,11.4792079 3.61052632,11.260396 L3.77171053,11.2940594 C3.72335526,11.1762376 3.65888158,11.1425743 3.69111842,11.0584158 C3.78782895,11.1257426 3.91677632,11.0752475 3.88453947,10.9069307 L4.09407895,11.0079208 L3.78782895,10.7049505 C3.93289474,10.4356436 3.70723684,10.0485149 3.91677632,9.93069307 C3.91677632,9.93069307 4.01348684,9.39207921 3.77171053,9.27425743 C3.91677632,9.37524752 3.98125,9.08910891 4.15855263,9.17326733 C3.99736842,9.03861386 3.86842105,8.63465347 4.06184211,8.5 L4.07796053,8.53366337 C4.30361842,7.9950495 3.93289474,7.54059406 4.27138158,7.11980198 C4.07796053,7.08613861 4.23914474,6.86732673 3.99736842,6.86732673 C3.91677632,6.26138614 4.75493421,6.21089109 4.15855263,5.72277228 C4.23914474,5.5039604 4.43256579,5.57128713 4.52927632,5.5039604 L4.52927632,5.57128713 C4.69046053,5.18415842 4.77105263,5.08316832 4.98059211,4.86435644 C5.02894737,4.71287129 4.80328947,4.42673267 5.07730263,4.29207921 C5.09342105,4.46039604 5.17401316,4.35940594 5.25460526,4.29207921 C5.22236842,4.35940594 5.23848684,4.40990099 5.39967105,4.39306931 C5.38355263,4.34257426 5.39967105,4.30891089 5.39967105,4.27524752 C5.39967105,4.27524752 5.41578947,4.29207921 5.41578947,4.29207921 C5.52861842,4.14059406 5.48026316,4.12376238 5.39967105,4.15742574 C5.38355263,4.14059406 5.36743421,4.12376238 5.31907895,4.10693069 C5.56085526,4.12376238 5.72203947,3.78712871 5.86710526,3.98910891 C6.25394737,3.66930693 6.51184211,3.2990099 6.91480263,3.11386139 C6.97927632,3.23168317 6.91480263,3.34950495 6.80197368,3.43366337 L7.07598684,3.33267327 C7.10822368,3.51782178 6.93092105,3.46732673 6.86644737,3.51782178 C7.20493421,3.73663366 7.51118421,3.11386139 7.88190789,3.45049505 L7.97861842,3.31584158 L7.99473684,3.34950495 C8.01085526,3.28217822 8.10756579,3.18118812 8.17203947,3.18118812 C8.18815789,3.34950495 8.07532895,3.53465347 8.25263158,3.56831683 C8.33322368,3.75346535 8.65559211,3.65247525 8.88125,3.7029703 C8.80065789,3.61881188 8.88125,3.56831683 8.94572368,3.53465347 C9.04243421,3.58514851 9.01019737,3.75346535 9.10690789,3.73663366 L8.99407895,3.92178218 C9.07467105,3.73663366 9.33256579,3.92178218 9.41315789,3.88811881 C9.36480263,4.03960396 9.20361842,3.87128713 9.12302632,3.95544554 C9.44539474,4.20792079 9.28421053,4.07326733 9.59046053,4.37623762 C9.84835526,4.46039604 9.70328947,4.20792079 9.91282895,4.17425743 C10.0740132,4.30891089 10.3319079,4.40990099 10.3802632,4.71287129 L10.4769737,4.52772277 C10.8315789,4.81386139 10.9444079,5.08316832 10.9121711,5.45346535 C12.2661184,6.6990099 12.7335526,6.83366337 12.9753289,6.44653465 C13.2009868,6.07623762 13.0398026,5.3019802 13.0398026,5.3019802 C12.9269737,4.49405941 12.6046053,3.92178218 12.1532895,3.38316832 C11.6697368,2.82772277 11.0894737,2.30594059 10.1707237,1.73366337 Z"></path>
                </g>
                <g transform="translate(4.835526, 0.000000)" id="Path">
                    <path d="M5.75427632,29.9940594 L5.89934211,29.960396 C5.86710526,29.9435644 5.81875,29.9435644 5.75427632,29.9940594 Z"></path>
                    <path d="M16.1184211,3.04653465 L16.0861842,3.06336634 C16.1023026,3.06336634 16.1184211,3.04653465 16.1184211,3.04653465 Z"></path>
                    <polygon points="10.9766447 27.8059406 10.9605263 27.8227723 10.9605263 27.8564356"></polygon>
                    <path d="M6.17335526,32.8891089 C7.55953947,31.6940594 8.15592105,31.5930693 9.31644737,30.0613861 C9.91282895,29.3712871 10.4930921,28.580198 10.9605263,27.8227723 C10.9927632,27.3009901 11.6536184,26.880198 11.7342105,26.3247525 L11.9598684,26.2574257 C11.9921053,26.0722772 12.0565789,25.870297 12.2177632,25.7693069 L12.25,25.8029703 C12.2983553,25.5168317 12.5078947,25.3148515 12.5401316,25.180198 L12.5723684,25.2138614 L12.7174342,24.9445545 L12.7496711,25.0287129 C12.8786184,24.5742574 13.1042763,24.1871287 13.3621711,23.8673267 L13.1848684,23.8 C13.8134868,23.1772277 13.6200658,22.6891089 14.2164474,22.150495 L14.2486842,22.1841584 C14.3131579,21.0732673 15.2802632,20.9891089 15.3286184,19.8445545 C15.3286184,19.9792079 15.4414474,19.8445545 15.4736842,19.8782178 C15.6348684,19.4405941 15.8282895,18.9693069 15.5059211,18.8009901 C15.6509868,18.4980198 15.7315789,18.6158416 15.8766447,18.6326733 C15.7315789,18.5653465 15.7960526,18.2623762 15.9088816,18.0267327 L15.9088816,18.1613861 L16.1828947,17.4544554 L15.8444079,17.4544554 C16.0861842,17.1346535 16.2151316,17.5217822 16.3118421,17.1514851 L16.0861842,17.050495 C16.3601974,16.5623762 16.8276316,16.4445545 17.2305921,16.0237624 C18.2138158,14.0039604 18.4717105,11.5633663 19.6,9.72871287 L19.8095395,9.6950495 C20.0835526,9.74554455 19.6,8.98811881 19.8740132,8.98811881 L19.8256579,8.7019802 C19.8901316,8.65148515 19.9868421,8.51683168 20.0029605,8.65148515 C20.0835526,8.41584158 20.0351974,8.3990099 19.9868421,8.21386139 L20.2125,7.9950495 C20.5348684,7.05247525 20.3414474,6.14356436 20.2769737,5.01584158 C20.3736842,4.32574257 20.0996711,3.14752475 19.3098684,2.32277228 C18.5684211,1.44752475 17.4240132,1.09405941 16.6986842,1.04356436 C15.6671053,1.06039604 14.6355263,0.993069307 13.5717105,1.22871287 C12.5240132,1.43069307 11.4118421,2.12079208 10.9605263,3.04653465 C10.8960526,3.06336634 10.8476974,3.26534653 10.8799342,3.28217822 C10.4930921,3.73663366 10.1546053,4.24158416 9.86447368,4.74653465 C9.86447368,4.74653465 9.59046053,5.2009901 9.34868421,5.84059406 C9.10690789,6.46336634 8.86513158,7.25445545 8.80065789,7.86039604 C8.67171053,9.12277228 9.02631579,9.62772277 11.0572368,7.42277228 L11.1055921,7.47326733 C11.5407895,6.76633663 11.7664474,6.36237624 11.7664474,5.73960396 C12.1210526,5.85742574 12.1210526,5.21782178 12.3305921,5.15049505 L12.3467105,5.18415842 C12.3789474,4.61188119 13.0720395,4.62871287 13.1848684,4.17425743 C13.2009868,4.20792079 13.2493421,4.29207921 13.2009868,4.35940594 C13.3621711,4.12376238 13.6200658,3.83762376 13.7651316,4.02277228 C14.2809211,3.6019802 15.1513158,3.43366337 15.5381579,3.08019802 L15.5059211,3.14752475 C15.7315789,2.8950495 15.8121711,3.0970297 16.0861842,2.9960396 C16.1023026,3.02970297 16.1184211,3.04653465 16.1023026,3.06336634 C16.4085526,2.84455446 16.8276316,3.1980198 17.0210526,3.21485149 L16.9726974,3.34950495 C17.1177632,3.41683168 17.2467105,3.5009901 17.3756579,3.58514851 C17.3434211,3.53465347 17.3111842,3.48415842 17.2628289,3.45049505 C17.5690789,3.16435644 17.3756579,3.87128713 17.7625,3.97227723 C17.8914474,4.22475248 18.8585526,4.25841584 18.7779605,4.81386139 C19.0036184,4.98217822 18.4394737,4.6960396 18.6490132,4.98217822 C18.4555921,5.03267327 18.4878289,4.86435644 18.3427632,4.98217822 C18.4878289,5.25148515 18.1976974,5.47029703 18.3588816,5.82376238 L18.1976974,5.84059406 C18.4878289,6.32871287 17.9236842,6.71584158 18.1493421,7.08613861 C18.1815789,7.62475248 17.6174342,7.32178218 17.7947368,7.92772277 L17.5368421,8.07920792 C17.4401316,8.2980198 17.7463816,8.31485149 17.5690789,8.53366337 C17.4401316,8.48316832 17.3595395,8.81980198 17.2950658,8.61782178 C16.9243421,9.08910891 17.1661184,9.88019802 16.5375,10.5366337 C16.7148026,10.8059406 16.4246711,11.1425743 16.5697368,11.3445545 C16.4569079,11.3277228 16.2473684,12.1188119 16.1828947,11.580198 C16.1828947,11.529703 16.2151316,11.4623762 16.2473684,11.4960396 L16.1184211,11.3782178 C15.6671053,11.6980198 15.9572368,12.2366337 15.7476974,12.6574257 C15.8444079,12.5564356 15.9088816,12.3712871 15.9572368,12.5227723 L15.7799342,12.909901 L15.6832237,12.7752475 L15.3608553,13.3475248 L15.5542763,13.3306931 C15.3608553,13.5831683 15.0546053,13.5663366 15.1351974,14.0039604 C15.1996711,14.2059406 15.4575658,13.8188119 15.3769737,14.1554455 C15.1190789,14.4920792 14.7161184,15.0138614 14.4421053,15.4683168 C14.6355263,15.5019802 14.5710526,15.6366337 14.5388158,15.7881188 L14.39375,15.7376238 C14.3615132,16.360396 13.9907895,15.7712871 13.9263158,16.360396 L13.8457237,16.2594059 L14.0875,16.5455446 C14.1519737,17.1514851 13.6684211,16.6465347 13.8134868,17.3534653 C13.8779605,17.1346535 14.1842105,17.4207921 13.9907895,17.639604 L13.8779605,17.5049505 C13.8457237,17.6564356 13.8779605,17.7405941 13.7973684,17.8079208 C13.7651316,17.690099 13.6200658,17.6564356 13.5394737,17.8752475 L13.4266447,17.6564356 L13.4911184,18.1782178 C13.2009868,18.3970297 13.1526316,18.9524752 12.8947368,18.9693069 C12.8947368,18.9693069 12.4756579,19.5415842 12.6207237,19.7940594 C12.55625,19.5920792 12.3305921,19.9118812 12.2338816,19.7267327 C12.2983553,19.9792079 12.1694079,20.5178218 11.8953947,20.6019802 L11.8953947,20.5514851 C11.3473684,21.1405941 11.4601974,21.8643564 10.8960526,22.3524752 C11.0733553,22.4366337 10.7832237,22.6891089 11.0411184,22.739604 C10.8638158,23.5138614 9.94506579,23.5980198 10.3963816,24.2376238 C10.2351974,24.5405941 10.0417763,24.4564356 9.91282895,24.5910891 L9.92894737,24.5069307 C9.62269737,25.0623762 9.54210526,25.2306931 9.25197368,25.5841584 C9.17138158,25.819802 9.42927632,26.0554455 9.10690789,26.3415842 C9.07467105,26.139604 8.99407895,26.3079208 8.91348684,26.4257426 C8.96184211,26.3247525 8.92960526,26.2742574 8.73618421,26.3752475 C8.75230263,26.4257426 8.75230263,26.4762376 8.73618421,26.5267327 C8.72006579,26.5267327 8.72006579,26.5267327 8.70394737,26.509901 C8.59111842,26.7455446 8.65559211,26.7455446 8.73618421,26.6613861 C8.75230263,26.6782178 8.76842105,26.6950495 8.83289474,26.6782178 C8.54276316,26.7792079 8.38157895,27.2841584 8.18815789,27.149505 C7.73684211,27.7722772 7.59177632,28.3950495 7.22105263,28.9336634 C7.07598684,28.9 7.10822368,28.7148515 7.20493421,28.5465347 L6.93092105,28.9168317 C6.80197368,28.7990099 7.02763158,28.6475248 7.10822368,28.529703 C6.54407895,28.7316832 6.56019737,29.5564356 5.94769737,29.8425743 L5.94769737,30.0277228 L5.89934211,30.0445545 C5.94769737,30.0950495 5.91546053,30.2633663 5.86710526,30.3475248 C5.70592105,30.2970297 5.62532895,30.0782178 5.41578947,30.3138614 C5.14177632,30.3811881 4.96447368,30.8524752 4.78717105,31.1554455 C4.93223684,31.0544554 4.94835526,31.1554455 4.93223684,31.2564356 C4.81940789,31.3742574 4.65822368,31.3069307 4.60986842,31.4415842 L4.46480263,31.290099 C4.64210526,31.4079208 4.2875,31.7277228 4.30361842,31.8287129 C4.14243421,31.7613861 4.40032895,31.5594059 4.35197368,31.4584158 C3.88453947,31.8792079 4.12631579,31.6772277 3.65888158,32.0980198 C3.49769737,32.4346535 3.82006579,32.2158416 3.82006579,32.4683168 C3.62664474,32.7039604 3.46546053,32.990099 3.12697368,33.0910891 L3.32039474,33.1752475 C2.94967105,33.629703 2.67565789,33.8316832 2.27269737,33.8990099 C0.934868421,35.7 0.950986842,36.2891089 1.38618421,36.4069307 C1.80526316,36.5247525 2.62730263,36.1544554 2.62730263,36.1544554 C4.2875,35.4138614 4.70657895,34.370297 6.17335526,32.8891089 Z"></path>
                </g>
            </g>
            <g id="Group" transform="translate(149.901316, 0.000000)">
                <g transform="translate(0.000000, 3.366337)" id="Path">
                    <path d="M6.15723684,3.2990099 L6.04440789,3.1980198 C6.04440789,3.23168317 6.07664474,3.26534653 6.15723684,3.2990099 Z"></path>
                    <path d="M17.6657895,13.9366337 C17.6657895,13.919802 17.6496711,13.919802 17.6496711,13.9029703 C17.6496711,13.919802 17.6657895,13.9366337 17.6657895,13.9366337 Z"></path>
                    <path d="M1.06381579,5.70594059 C1.06381579,5.67227723 1.06381579,5.67227723 1.04769737,5.63861386 L1.06381579,5.70594059 Z"></path>
                    <path d="M8.62335526,1.7 C8.12368421,1.3970297 7.73684211,1.12772277 7.17269737,0.925742574 C6.70526316,0.757425743 6.35065789,0.656435644 5.88322368,0.589108911 C5.02894737,0.454455446 3.64276316,0.63960396 2.56282895,1.91881188 C1.48289474,3.08019802 1.19276316,4.51089109 1.06381579,5.70594059 C1.24111842,6.32871287 0.967105263,7.28811881 1.25723684,7.89405941 L1.12828947,8.14653465 C1.225,8.34851485 1.30559211,8.6009901 1.25723684,8.81980198 L1.20888158,8.81980198 C1.37006579,9.12277228 1.37006579,9.49306931 1.45065789,9.64455446 L1.40230263,9.64455446 L1.51513158,10.0148515 L1.43453947,9.96435644 C1.67631579,10.4861386 1.85361842,11.0247525 1.96644737,11.529703 L2.12763158,11.4287129 C2.30493421,12.5227723 2.83684211,12.6910891 3.0625,13.650495 L3.01414474,13.6673267 C4.02960526,14.4079208 3.80394737,15.5188119 5.01282895,16.1079208 C4.86776316,16.0405941 4.99671053,16.2257426 4.94835526,16.2594059 C5.15789474,16.4613861 5.39967105,16.629703 5.60921053,16.7475248 C5.83486842,16.8990099 6.125,16.949505 6.18947368,16.7643564 C6.41513158,16.9326733 6.25394737,16.9663366 6.18947368,17.0841584 C6.28618421,16.949505 6.59243421,17.1346535 6.81809211,17.3366337 L6.67302632,17.2861386 L7.35,17.8079208 L7.41447368,17.4544554 C7.70460526,17.8247525 7.26940789,17.8247525 7.64013158,18.0435644 L7.80131579,17.8415842 C8.25263158,18.2792079 8.30098684,18.8346535 8.68782895,19.3564356 C9.67105263,20.1811881 10.8638158,20.7871287 12.0243421,21.3594059 C12.6207237,21.6455446 13.2009868,21.9316832 13.7490132,22.1841584 C14.0230263,22.3188119 14.2809211,22.470297 14.5710526,22.6217822 C14.7,22.6891089 14.8289474,22.7732673 14.9578947,22.8574257 C15.0707237,22.9247525 15.1996711,23.0257426 15.4414474,23.1435644 L15.5542763,23.3960396 C15.61875,23.7158416 16.6019737,23.3623762 16.6986842,23.5980198 C16.8276316,23.5643564 16.9404605,23.5306931 17.0694079,23.480198 C17.1822368,23.5306931 17.4401316,23.5475248 17.2628289,23.6316832 C17.3111842,23.6316832 17.3434211,23.6148515 17.3756579,23.6148515 C17.6335526,23.5475248 17.6657895,23.4970297 17.8430921,23.3287129 C17.9881579,23.3287129 18.1332237,23.2950495 18.2782895,23.2613861 C18.9069079,22.8237624 19.1809211,22.049505 19.2615132,21.2415842 C19.2776316,21.039604 19.29375,20.8376238 19.29375,20.6356436 C19.29375,20.5009901 19.29375,20.3663366 19.3098684,20.2316832 C19.3098684,19.9960396 19.3421053,19.7435644 19.3743421,19.4742574 C19.8578947,18.2623762 19.7773026,15.8386139 19.6805921,14.4415842 C19.4065789,12.4891089 20.5993421,10.250495 20.0513158,8.1970297 C20.0835526,8.12970297 20.0029605,7.96138614 19.9707237,7.96138614 C19.9707237,7.33861386 19.9384868,6.73267327 19.90625,6.10990099 C19.90625,6.10990099 19.7450658,3.83762376 19.1970395,2.52475248 C18.6328947,1.17821782 18.1009868,0.908910891 17.5046053,4.27524752 L17.4401316,4.24158416 C17.4240132,5.2009901 17.4401316,5.79009901 17.7947368,6.42970297 C17.4401316,6.56435644 17.8108553,7.22079208 17.6980263,7.45643564 L17.6657895,7.43960396 C17.9720395,8.01188119 17.4723684,8.65148515 17.7302632,9.20693069 C17.6980263,9.19009901 17.6013158,9.17326733 17.5851974,9.03861386 C17.6335526,9.44257426 17.7141447,10.0148515 17.5046053,10.0485149 C17.5529605,11.0247525 17.4078947,12.4049505 17.6980263,13.0613861 L17.6335526,13.0108911 C17.8430921,13.3811881 17.6496711,13.4821782 17.7302632,13.9029703 C17.6980263,13.919802 17.6819079,13.9534653 17.6657895,13.9366337 C17.8753289,14.3574257 17.6174342,15.0980198 17.6819079,15.4178218 L17.5368421,15.4178218 L17.5046053,16.2089109 L17.5690789,15.9227723 C17.9559211,16.0574257 17.2628289,16.4950495 17.4723684,17.0841584 C17.3756579,17.6059406 18.1815789,18.2623762 17.9236842,18.8009901 C18.0848684,19.0871287 17.6496711,18.5316832 17.7463816,18.9524752 C17.5368421,18.9356436 17.6335526,18.750495 17.45625,18.8346535 C17.5046053,19.2386139 17.1822368,19.4574257 17.2628289,19.9455446 L17.1016447,19.9455446 C17.3111842,20.6524752 16.84375,20.4841584 17.0210526,20.8881188 C16.9404605,21.3089109 16.6180921,20.5851485 16.5697368,21.0227723 L16.5375,20.9722772 C16.4891447,20.9049505 16.4569079,20.8376238 16.4246711,20.7534653 C16.3440789,20.6861386 16.4085526,21.0564356 16.2957237,20.8881188 C16.2957237,20.7366337 16.1828947,20.719802 16.2473684,20.6019802 C16.1990132,20.5178218 16.2151316,20.5178218 16.1345395,20.5009901 C15.9733553,20.450495 15.7960526,20.4 15.61875,20.349505 C15.2641447,20.2485149 14.8773026,20.1138614 14.5710526,19.7435644 C14.2809211,19.9118812 13.9585526,19.5415842 13.7328947,19.6594059 C13.7651316,19.5415842 12.9592105,19.2049505 13.5072368,19.2217822 C13.5555921,19.2217822 13.6200658,19.2722772 13.5878289,19.3059406 L13.7167763,19.1881188 C13.4266447,18.6663366 12.8463816,18.8851485 12.4273026,18.5821782 C12.5240132,18.7168317 12.7013158,18.8009901 12.5401316,18.8346535 L12.1532895,18.5653465 L12.2983553,18.4980198 L11.7503289,18.0435644 L11.7503289,18.2455446 C11.5085526,17.9762376 11.5730263,17.6732673 11.1217105,17.6564356 C10.9121711,17.6732673 11.2667763,18.0267327 10.9444079,17.8752475 C10.6220395,17.5217822 10.1868421,16.9663366 9.75164474,16.5623762 C9.68717105,16.7475248 9.55822368,16.6465347 9.41315789,16.5792079 L9.49375,16.4277228 C8.88125,16.2089109 9.54210526,15.990099 8.96184211,15.7544554 L9.07467105,15.7039604 L8.73618421,15.8722772 C8.10756579,15.7544554 8.72006579,15.4178218 7.99473684,15.3336634 C8.18815789,15.4851485 7.84967105,15.6871287 7.67236842,15.4346535 L7.83355263,15.3673267 C7.76907895,15.3336634 7.68848684,15.2831683 7.60789474,15.2326733 C7.54342105,15.1821782 7.47894737,15.1653465 7.41447368,15.0980198 C7.64013158,15.1485149 7.52730263,14.8960396 7.36611842,14.8118812 C7.41447368,14.7613861 7.52730263,14.7613861 7.59177632,14.7277228 C7.35,14.6772277 7.39835526,14.8287129 7.18881579,14.7782178 C7.05986842,14.4415842 6.54407895,14.2059406 6.60855263,13.9366337 C6.60855263,13.9366337 6.23782895,13.3306931 5.94769737,13.3475248 C6.15723684,13.3643564 5.96381579,13.0108911 6.17335526,12.9940594 C5.93157895,12.960396 5.5125,12.5732673 5.56085526,12.2871287 L5.59309211,12.3039604 C5.35131579,11.529703 4.72269737,11.1930693 4.67434211,10.4188119 C4.51315789,10.519802 4.48092105,10.1158416 4.2875,10.2841584 C3.82006579,9.59405941 4.40032895,8.81980198 3.64276316,8.68514851 C3.54605263,8.33168317 3.75559211,8.23069307 3.77171053,8.04554455 L3.82006579,8.12970297 C3.69111842,7.47326733 3.69111842,7.28811881 3.69111842,6.8 C3.62664474,6.56435644 3.27203947,6.51386139 3.41710526,6.07623762 C3.52993421,6.22772277 3.52993421,6.05940594 3.54605263,5.89108911 C3.56217105,5.99207921 3.59440789,6.02574257 3.72335526,5.84059406 C3.69111842,5.80693069 3.675,5.75643564 3.65888158,5.70594059 C3.675,5.70594059 3.675,5.70594059 3.69111842,5.70594059 C3.69111842,5.43663366 3.64276316,5.47029703 3.59440789,5.58811881 C3.57828947,5.57128713 3.54605263,5.58811881 3.49769737,5.6049505 C3.72335526,5.36930693 3.675,4.86435644 3.91677632,4.91485149 C4.11019737,4.20792079 4.20690789,3.65247525 4.60986842,3.24851485 C4.72269737,3.33267327 4.67434211,3.46732673 4.59375,3.61881188 C4.67434211,3.51782178 4.75493421,3.45049505 4.85164474,3.38316832 C4.93223684,3.55148515 4.73881579,3.56831683 4.67434211,3.66930693 C4.91611842,3.66930693 5.01282895,3.51782178 5.19013158,3.38316832 C5.35131579,3.24851485 5.60921053,3.14752475 5.86710526,3.2990099 L5.99605263,3.16435644 L6.02828947,3.1980198 C6.02828947,3.11386139 6.17335526,3.02970297 6.28618421,3.02970297 C6.35065789,3.1980198 6.22171053,3.38316832 6.51184211,3.43366337 C6.60855263,3.6019802 7.07598684,3.56831683 7.41447368,3.66930693 C7.26940789,3.55148515 7.35,3.51782178 7.44671053,3.5009901 C7.59177632,3.58514851 7.60789474,3.77029703 7.75296053,3.77029703 L7.65625,3.95544554 C7.70460526,3.73663366 8.13980263,4.02277228 8.23651316,3.97227723 C8.23651316,4.15742574 7.94638158,3.93861386 7.84967105,4.02277228 C8.42993421,4.39306931 8.13980263,4.20792079 8.70394737,4.5950495 C9.09078947,4.6960396 8.76842105,4.39306931 9.01019737,4.35940594 C9.30032895,4.52772277 9.63881579,4.62871287 9.86447368,4.98217822 L9.88059211,4.76336634 C10.4608553,5.06633663 10.7348684,5.35247525 10.9282895,5.79009901 C13.1365132,6.88415842 13.6523026,7.01881188 13.7006579,6.46336634 C13.6845395,5.87425743 13.0559211,5.01584158 13.0559211,5.01584158 C11.8631579,3.24851485 10.8154605,2.94554455 8.62335526,1.7 Z"></path>
                </g>
                <g transform="translate(11.282895, 0.000000)" id="Path">
                    <path d="M4.70657895,4.88118812 L4.73881579,4.81386139 C4.72269737,4.84752475 4.70657895,4.86435644 4.70657895,4.88118812 Z"></path>
                    <path d="M2.40164474,8.23069307 L2.41776316,8.23069307 L2.40164474,8.23069307 Z"></path>
                    <polygon points="4.72269737 1.98613861 4.72269737 1.98613861 4.73881579 1.96930693"></polygon>
                    <path d="M6.49572368,3.28217822 C6.15723684,2.84455446 6.22171053,2.44059406 5.60921053,2.25544554 C5.36743421,2.08712871 5.02894737,2.03663366 4.72269737,1.98613861 C4.51315789,2.22178218 4.33585526,1.88514851 4.12631579,2.1039604 L4.07796053,1.93564356 C4.01348684,2.0029703 3.93289474,2.05346535 3.88453947,1.96930693 L3.88453947,1.91881188 C3.78782895,2.03663366 3.675,1.96930693 3.62664474,2.03663366 L3.62664474,1.98613861 L3.51381579,2.0029703 L3.52993421,1.93564356 C3.36875,2.07029703 3.20756579,2.1039604 3.04638158,2.07029703 L3.09473684,2.25544554 C2.74013158,2.12079208 2.74013158,2.54158416 2.40164474,2.42376238 L2.38552632,2.37326733 C2.32105263,2.97920792 1.69243421,2.39009901 1.69243421,3.02970297 C1.69243421,2.94554455 1.61184211,2.96237624 1.57960526,2.92871287 C1.48289474,3.0970297 1.38618421,3.26534653 1.67631579,3.5009901 C1.61184211,3.58514851 1.53125,3.5009901 1.40230263,3.41683168 C1.53125,3.51782178 1.51513158,3.65247525 1.48289474,3.71980198 L1.45065789,3.65247525 L1.37006579,3.88811881 L1.66019737,4.02277228 C1.53125,4.07326733 1.32171053,3.85445545 1.33782895,3.98910891 L1.56348684,4.12376238 C1.45065789,4.22475248 1.06381579,4.14059406 0.838157895,4.22475248 C0.467434211,4.86435644 1.01546053,5.58811881 0.483552632,5.95841584 L0.290131579,5.94158416 C0.0161184211,5.90792079 0.676973684,6.14356436 0.419078947,6.12673267 L0.531907895,6.21089109 C0.483552632,6.21089109 0.419078947,6.24455446 0.370723684,6.21089109 C0.354605263,6.26138614 0.402960526,6.27821782 0.467434211,6.32871287 L0.290131579,6.36237624 C0.128947368,6.54752475 0.435197368,6.78316832 0.338486842,6.98514851 C-0.0483552632,7.2039604 0.241776316,7.75940594 0.402960526,8.04554455 C0.789802632,8.44950495 -0.30625,8.9039604 0.161184211,9.32475248 C0.128947368,9.34158416 0.209539474,9.37524752 0.241776316,9.37524752 L0.209539474,9.76237624 C0.209539474,9.76237624 0.209539474,10.2336634 0.499671053,10.4861386 C0.789802632,10.7554455 1.33782895,10.7554455 2.41776316,10.0316832 L2.48223684,10.0316832 C2.61118421,9.84653465 2.64342105,9.72871287 2.33717105,9.62772277 C2.70789474,9.59405941 2.36940789,9.47623762 2.48223684,9.42574257 L2.51447368,9.42574257 C2.22434211,9.32475248 2.74013158,9.19009901 2.48223684,9.08910891 C2.51447368,9.08910891 2.61118421,9.08910891 2.62730263,9.12277228 C2.57894737,9.05544554 2.49835526,8.93762376 2.70789474,8.93762376 C2.64342105,8.75247525 2.75625,8.51683168 2.41776316,8.38217822 L2.48223684,8.3990099 C2.25657895,8.31485149 2.45,8.31485149 2.33717105,8.23069307 C2.36940789,8.23069307 2.38552632,8.23069307 2.38552632,8.23069307 C2.15986842,8.14653465 2.36940789,8.01188119 2.27269737,7.94455446 L2.41776316,7.94455446 L2.40164474,7.79306931 L2.36940789,7.84356436 C1.98256579,7.79306931 2.62730263,7.75940594 2.38552632,7.62475248 C2.45,7.54059406 1.59572368,7.33861386 1.78914474,7.25445545 C1.61184211,7.18712871 2.07927632,7.33861386 1.95032895,7.23762376 C2.15986842,7.25445545 2.07927632,7.28811881 2.24046053,7.28811881 C2.15986842,7.2039604 2.46611842,7.18712871 2.33717105,7.08613861 L2.49835526,7.1029703 C2.22434211,6.95148515 2.74013158,6.91782178 2.46611842,6.8 C2.35328947,6.66534653 2.94967105,6.8 2.65953947,6.63168317 L2.88519737,6.61485149 C2.93355263,6.56435644 2.62730263,6.53069307 2.74013158,6.4970297 C2.86907895,6.53069307 2.85296053,6.44653465 2.98190789,6.4970297 C3.20756579,6.41287129 2.72401316,6.17722772 3.11085526,6.07623762 C2.85296053,5.97524752 3.03026316,5.94158416 2.83684211,5.85742574 C2.94967105,5.87425743 2.88519737,5.70594059 3.11085526,5.85742574 C3.12697368,5.87425743 3.12697368,5.87425743 3.07861842,5.87425743 L3.22368421,5.92475248 C3.52993421,5.90792079 3.09473684,5.73960396 3.15921053,5.67227723 C3.11085526,5.68910891 3.11085526,5.72277228 3.01414474,5.67227723 L3.04638158,5.6049505 L3.17532895,5.65544554 L3.27203947,5.57128713 L3.11085526,5.53762376 C3.20756579,5.52079208 3.48157895,5.58811881 3.27203947,5.47029703 C3.15921053,5.4029703 3.04638158,5.43663366 3.01414474,5.36930693 C3.14309211,5.33564356 3.33651316,5.33564356 3.40098684,5.3019802 C3.22368421,5.21782178 3.23980263,5.21782178 3.22368421,5.18415842 L3.36875,5.25148515 C3.19144737,5.08316832 3.69111842,5.4029703 3.56217105,5.28514851 L3.65888158,5.35247525 L3.38486842,5.16732673 C3.14309211,4.94851485 3.675,5.33564356 3.33651316,5.04950495 C3.35263158,5.06633663 3.04638158,4.84752475 3.11085526,4.86435644 L3.22368421,4.96534653 C3.20756579,4.93168317 3.15921053,4.88118812 3.19144737,4.8980198 C3.25592105,4.96534653 3.36875,5.04950495 3.35263158,5.01584158 L3.49769737,5.15049505 C3.43322368,5.08316832 3.35263158,5.01584158 3.30427632,4.93168317 C3.43322368,5.03267327 3.32039474,4.84752475 3.46546053,5.01584158 C3.46546053,5.01584158 3.54605263,5.08316832 3.41710526,4.88118812 C3.49769737,5.01584158 3.52993421,5.06633663 3.62664474,5.2009901 C3.52993421,5.04950495 3.49769737,4.91485149 3.57828947,5.08316832 L3.57828947,5.1 C3.65888158,5.26831683 3.54605263,4.83069307 3.62664474,5.04950495 C3.57828947,4.86435644 3.62664474,4.96534653 3.57828947,4.71287129 C3.62664474,4.46039604 3.675,5.21782178 3.70723684,4.44356436 C3.73947368,4.39306931 3.73947368,4.62871287 3.75559211,4.66237624 L3.73947368,4.6960396 C3.80394737,4.64554455 3.83618421,4.62871287 3.88453947,4.66237624 C3.93289474,4.5950495 4.01348684,4.25841584 4.06184211,4.35940594 C4.01348684,4.49405941 4.02960526,4.47722772 4.06184211,4.47722772 C4.04572368,4.49405941 4.02960526,4.54455446 4.02960526,4.64554455 C4.04572368,4.61188119 4.06184211,4.57821782 4.07796053,4.56138614 C4.07796053,4.57821782 4.07796053,4.57821782 4.06184211,4.5950495 C4.11019737,4.56138614 4.12631579,4.51089109 4.11019737,4.49405941 C4.11019737,4.47722772 4.12631579,4.44356436 4.12631579,4.40990099 C4.11019737,4.5950495 4.23914474,4.44356436 4.15855263,4.66237624 C4.27138158,4.64554455 4.46480263,4.46039604 4.60986842,4.44356436 C4.56151316,4.56138614 4.48092105,4.64554455 4.43256579,4.66237624 L4.51315789,4.66237624 C4.41644737,4.81386139 4.43256579,4.72970297 4.38421053,4.74653465 C4.30361842,5.04950495 4.69046053,4.5950495 4.62598684,4.88118812 L4.72269737,4.78019802 L4.70657895,4.7970297 C4.75493421,4.72970297 4.83552632,4.66237624 4.85164474,4.66237624 C4.77105263,4.7970297 4.64210526,4.94851485 4.69046053,4.96534653 C4.62598684,5.1 4.81940789,4.98217822 4.91611842,4.96534653 C4.91611842,4.93168317 4.98059211,4.86435644 5.01282895,4.83069307 C5.04506579,4.84752475 4.94835526,4.96534653 5.01282895,4.93168317 L4.86776316,5.08316832 C4.99671053,4.93168317 5.06118421,4.98217822 5.12565789,4.93168317 C5.02894737,5.04950495 4.99671053,4.9990099 4.91611842,5.06633663 C4.99671053,5.13366337 4.96447368,5.1 5.04506579,5.16732673 C5.20625,5.1 5.17401316,5.03267327 5.33519737,4.93168317 C5.39967105,4.94851485 5.54473684,4.8980198 5.49638158,5.03267327 L5.62532895,4.8980198 C5.80263158,4.8980198 5.83486842,4.98217822 5.72203947,5.15049505 C6.57631579,5.13366337 7.07598684,5.08316832 7.33388158,4.84752475 C7.59177632,4.62871287 7.55953947,4.27524752 7.55953947,4.27524752 C7.64013158,3.56831683 7.01151316,3.6019802 6.49572368,3.28217822 Z"></path>
                </g>
            </g>
        </g>
    </g>
</svg>