<?xml version="1.0" encoding="UTF-8"?>
<svg width="165px" height="162px" viewBox="0 0 165 162" version="1.1" xmlns="http://www.w3.org/2000/svg" xmlns:xlink="http://www.w3.org/1999/xlink">
    <!-- Generator: Sketch 52.6 (67491) - http://www.bohemiancoding.com/sketch -->
    <title>12</title>
    <desc>Created with Sketch.</desc>
    <g id="Page-1" stroke="none" stroke-width="1" fill="none" fill-rule="evenodd" opacity="0.0979352679">
        <g id="12" transform="translate(-1.000000, 0.000000)" fill="#606060">
            <g id="Group" transform="translate(0.000000, 50.412371)">
                <path d="M81.5978641,2.16773196 L82.7582524,2.23494845 C82.7260194,2.21814433 82.4359223,2.18453608 81.5978641,2.16773196 Z" id="Path"></path>
                <path d="M5.57631068,93.9854639 C5.52796117,93.9014433 5.47961165,93.8006186 5.44737864,93.7165979 C5.52796117,93.9014433 5.56019417,93.9686598 5.57631068,93.9854639 Z" id="Path"></path>
                <path d="M126.562913,4.68835052 C126.53068,4.68835052 126.514563,4.68835052 126.498447,4.68835052 C126.401748,4.68835052 126.288932,4.68835052 126.20835,4.70515464 L126.562913,4.68835052 Z" id="Path"></path>
                <path d="M67.5442718,4.65474227 C83.0483495,4.68835052 87.1580583,5.02443299 103.226214,4.80597938 C110.865437,4.83958763 119.133204,4.6043299 126.498447,4.67154639 C128.239029,4.58752577 130.640388,4.73876289 133.025631,5.20927835 C135.42699,5.64618557 137.747767,6.48639175 139.472233,7.37701031 C139.891262,7.66268041 140.278058,7.99876289 140.648738,8.33484536 C141.760777,9.04061856 142.953398,10.1160825 143.646408,11.275567 L143.565825,11.2251546 C144.855146,12.771134 145.660971,15.0228866 146.015534,15.9975258 L145.951068,15.9303093 C146.225049,16.7369072 146.45068,17.5771134 146.660194,18.4173196 L146.499029,17.9972165 C147.498252,21.593299 147.772233,25.6598969 148.046214,29.205567 L148.207379,28.8862887 C148.642524,36.4985567 149.190485,39.254433 149.287184,46.1273196 L149.238835,46.043299 C150.076893,54.7142268 149.335534,59.7890722 149.706214,68.7456701 C149.657864,67.6197938 149.609515,69.2161856 149.561165,69.1321649 C149.545049,73.2659794 149.416117,77.6686598 149.786796,77.7526804 C149.657864,80.7606186 149.577282,80.1892784 149.416117,80.5757732 C149.577282,80.5589691 149.528932,83.1804124 149.4,85.5161856 L149.4,84.4407216 C149.303301,86.6756701 149.174369,88.8602062 148.561942,90.8598969 C148.787573,90.5070103 148.980971,90.1373196 149.174369,89.7340206 C148.723107,91.3808247 148.497476,91.5152577 148.368544,91.6664948 C148.207379,91.8009278 148.191262,92.0025773 147.41767,93.313299 L147.643301,93.4309278 C146.370097,95.3297938 144.74233,96.2708247 143.13068,96.9597938 C141.486796,97.6151546 139.746214,98.0184536 137.554369,98.3713402 C118.891456,101.312062 98.2623301,102.20268 80.5341748,101.429691 L79.7605825,101.211237 C79.4221359,100.908763 74.861165,101.54732 74.1842718,101.261649 L72.1213592,101.34567 C71.541165,101.278454 70.3163107,101.194433 71.347767,101.160825 C69.4299029,101.093608 69.3976699,101.144021 68.0116505,101.194433 L65.9648544,100.959175 C58.4223301,100.606289 52.0079612,100.77433 44.0625243,100.48866 C39.2920388,100.169381 32.4264078,99.967732 25.4479612,99.833299 C23.7073786,99.7996907 21.9506796,99.7828866 20.2262136,99.7492784 C18.4856311,99.7156701 16.8256311,99.7324742 15.3106796,99.5140206 C13.7796117,99.3123711 12.4419417,98.8754639 11.3137864,98.1360825 C10.1856311,97.4135052 9.2992233,96.438866 8.60621359,95.4306186 C6.64,92.5571134 5.78582524,88.6921649 5.3184466,84.7936082 C4.86718447,80.8278351 4.51262136,76.7276289 4.27087379,72.6442268 C3.78737864,64.4438144 3.72291262,56.2097938 3.61009709,48.496701 C3.6423301,48.2446392 3.6423301,47.7909278 3.62621359,47.404433 C3.61009709,47.0179381 3.59398058,46.6986598 3.57786408,46.6986598 C3.70679612,41.9935052 3.94854369,37.2883505 4.33533981,32.5831959 C4.33533981,32.5831959 4.6576699,28.3149485 5.28621359,22.7359794 C5.60854369,19.9464948 5.89864078,16.8209278 6.75281553,14.0314433 C7.59087379,11.2083505 9.12194175,8.82216495 11.1365049,7.62907216 C13.1349515,6.38556701 15.1817476,6.26793814 16.3582524,6.60402062 C17.5508738,6.90649485 18.1149515,7.34340206 17.8732039,6.92329897 C17.7442718,6.75525773 17.4058252,6.38556701 16.6805825,5.99907216 C15.9553398,5.62938144 14.811068,5.31010309 13.2638835,5.47814433 C11.748932,5.67979381 9.81495146,6.36876289 8.02601942,8.08278351 C6.26932039,9.83041237 4.89941748,12.5526804 4.09359223,15.8294845 L4.10970874,15.4597938 C3.22330097,19.3919588 2.96543689,22.5175258 2.62699029,25.3910309 C2.3368932,28.247732 2.17572816,30.835567 2.12737864,33.5242268 C1.6761165,34.3476289 1.66,39.9265979 1.48271845,41.7414433 L1.46660194,41.5734021 C1.54718447,46.3457732 0.934757282,51.3870103 1.27320388,55.9745361 C1.24097087,55.7896907 1.14427184,55.7056701 1.12815534,54.6470103 C1.17650485,57.9910309 1.43436893,62.5617526 1.24097087,62.8306186 C1.54718447,70.8293814 2.53029126,81.9369072 3.67456311,86.9949485 L3.56174757,86.658866 C3.91631068,88.1880412 4.12582524,89.0618557 4.35145631,90.0196907 C4.59320388,90.9943299 4.83495146,92.0361856 5.49572816,93.5989691 C5.54407767,93.7838144 5.62466019,94.002268 5.59242718,93.9854639 C6.3176699,95.4642268 7.52640777,97.6319588 9.34757282,99.1779381 C10.2662136,99.9341237 11.2654369,100.539072 12.2324272,100.908763 C13.183301,101.278454 14.0535922,101.463299 14.6982524,101.54732 L14.843301,101.715361 C16.9545631,102.051443 19.0013592,102.001031 20.9998058,102.068247 L18.7434951,101.967423 C19.5493204,101.580928 23.304466,102.353918 27.7042718,102.20268 C31.7978641,102.370722 36.0365049,101.580928 40.2912621,101.900206 C42.3219417,101.765773 38.5023301,102.169072 41.532233,102.101856 C41.628932,102.320309 40.1139806,102.20268 40.8875728,102.387526 C43.8691262,102.370722 45.7708738,102.740412 49.4454369,102.706804 L49.5904854,102.874845 C54.3932039,102.706804 58.6318447,103.345361 61.8390291,103.143711 C66.7867961,103.143711 65.1429126,103.731856 70.3001942,103.54701 L72.2986408,103.815876 C74.5066019,103.899897 73.8780583,103.580619 76.327767,103.74866 C76.1827184,103.883093 79.4221359,103.916701 77.987767,104.03433 C83.5318447,104.353608 89.2370874,103.916701 96.5378641,104.219175 C98.1172816,103.950309 101.807961,104.017526 102.984466,103.799072 C103.177864,103.916701 110.349709,103.597423 106.24,103.983918 C105.885437,104.017526 105.256893,104.03433 105.305243,103.983918 L104.821748,104.168763 C108.995922,104.370412 112.396505,103.698247 116.52233,103.513402 C115.297476,103.530206 113.669709,103.631031 114.749515,103.46299 C116.022718,103.395773 117.295922,103.328557 118.585243,103.227732 L117.795534,103.429381 C119.697282,103.311753 121.599029,103.210928 123.500777,103.042887 L122.694951,102.942062 C125.483107,102.790825 126.498447,102.97567 129.625049,102.370722 C131.027184,102.085052 126.965825,102.437938 129.899029,102.051443 C131.768544,101.866598 134.073204,101.698557 136.571262,101.34567 C139.06932,100.992784 141.728544,100.404639 144.09767,99.2787629 C143.581942,99.295567 144.855146,98.7578351 146.047767,97.8840206 L146.273398,97.9176289 C148.497476,96.1027835 148.70699,95.4810309 149.158252,95.1785567 C149.35165,94.9937113 149.528932,94.7752577 149.867379,94.3047423 C150.173592,93.8174227 150.624854,93.0108247 151.027767,91.5992784 C151.01165,91.7841237 150.995534,91.9521649 150.963301,92.1370103 C151.027767,91.5992784 151.06,91.0783505 151.076117,90.5574227 C151.446796,88.02 151.479029,87.3982474 151.640194,86.6756701 C151.769126,85.9530928 151.865825,85.1801031 151.785243,82.5418557 C151.70466,84.6087629 151.38233,83.4996907 151.575728,80.9454639 L151.70466,81.6008247 C151.736893,80.1892784 151.688544,79.7187629 151.75301,78.777732 C151.801359,79.6179381 151.962524,79.2314433 152.010874,77.147732 L152.155922,78.5424742 L152.010874,74.5935052 C152.268738,71.5687629 152.123689,66.7459794 152.34932,65.5024742 C152.34932,65.5024742 152.462136,58.9656701 152.188155,57.4701031 C152.365437,58.7808247 152.34932,55.1847423 152.542718,56.1929897 C152.365437,54.4957732 152.07534,49.5217526 152.172039,47.5052577 L152.204272,47.8749485 C152.07534,40.4643299 151.301748,35.2550515 150.947184,28.6174227 C150.786019,28.936701 150.560388,25.4414433 150.41534,26.3152577 C149.996311,22.9208247 149.72233,19.7280412 149.142136,17.1234021 C148.578058,14.5019588 147.675534,12.4854639 146.740777,11.544433 C145.06466,8.75494845 144.645631,8.26762887 143.485243,7.04092784 C143.694757,7.20896907 143.904272,7.36020619 144.081553,7.54505155 C141.841359,5.41092784 140.004078,4.62113402 138.440777,3.93216495 C136.845243,3.27680412 135.378641,2.85670103 133.267379,2.45340206 C131.14,2.20134021 130.76932,2.45340206 127.030291,2.15092784 C128.255146,2.06690722 126.707961,2.01649485 125.305825,1.9828866 C126.20835,1.9828866 126.48233,1.93247423 124.645049,1.79804124 C124.387184,1.84845361 123.984272,1.86525773 123.613592,1.88206186 C123.597476,1.86525773 123.53301,1.86525773 123.565243,1.84845361 C121.22835,1.89886598 121.647379,1.94927835 122.727184,1.96608247 C122.678835,1.9828866 122.759417,2.01649485 123.097864,2.05010309 C120.680388,1.86525773 116.377282,2.08371134 116.087184,1.84845361 C109.108738,1.93247423 104.128738,2.20134021 98.3106796,2.3357732 C97.6499029,2.21814433 99.0198058,2.10051546 100.695922,2.03329897 L96.5700971,2.10051546 C96.6023301,1.9156701 98.9392233,1.9828866 100.212427,1.94927835 C95.3130097,1.68041237 90.1073786,2.28536082 84.3537864,2.05010309 L83.161165,2.20134021 L82.8227184,2.18453608 C82.838835,2.25175258 81.5495146,2.36938144 80.6953398,2.40298969 C79.8733981,2.25175258 80.7436893,2.03329897 77.9071845,2.06690722 C75.6508738,1.93247423 71.508932,2.16773196 68.5596117,2.2685567 C70.1551456,2.28536082 69.6394175,2.36938144 68.9464078,2.43659794 C67.5281553,2.45340206 66.7062136,2.30216495 65.6102913,2.36938144 L65.4652427,2.15092784 C66.0293204,2.35257732 61.7423301,2.38618557 61.2266019,2.47020619 C60.4207767,2.31896907 63.4345631,2.31896907 63.7891262,2.20134021 C58.0838835,2.25175258 60.9365049,2.21814433 55.2312621,2.2685567 C52.1852427,2.45340206 55.7792233,2.47020619 54.3287379,2.65505155 C51.6372816,2.72226804 49.0102913,2.9071134 45.9159223,2.85670103 L46.8990291,3.02474227 C41.8545631,3.31041237 38.8246602,3.44484536 35.4079612,3.47845361 C26.0281553,4.55391753 20.9514563,5.86463918 18.5500971,6.58721649 C16.1487379,7.32659794 16.3582524,7.5114433 17.7281553,7.39381443 C20.7419417,7.05773196 27.7203883,6.30154639 27.7203883,6.30154639 C35.021165,5.66298969 40.5974757,5.39412371 46.5283495,5.12525773 C52.3947573,4.95721649 58.7124272,4.77237113 67.5442718,4.65474227 Z" id="Path"></path>
            </g>
            <g id="Group" transform="translate(9.669903, 147.876289)">
                <path d="M2.86873786,6.97371134 L2.78815534,7.02412371 C2.83650485,7.04092784 2.86873786,7.02412371 2.86873786,6.97371134 Z" id="Path"></path>
                <path d="M8.23553398,4.63793814 C8.23553398,4.63793814 8.21941748,4.63793814 8.21941748,4.62113402 C8.23553398,4.63793814 8.23553398,4.63793814 8.23553398,4.63793814 Z" id="Path"></path>
                <polygon id="Path" points="0.983106796 10.0320619 0.983106796 10.0320619 0.950873786 10.0320619"></polygon>
                <path d="M0.59631068,6.06628866 C0.419029126,7.10814433 0.0966990291,7.4442268 0.419029126,8.53649485 C0.49961165,9.0742268 0.757475728,9.57835052 0.983106796,10.0320619 C1.3376699,10.1328866 1.27320388,10.6370103 1.61165049,10.7714433 L1.53106796,10.9562887 C1.6438835,10.9898969 1.75669903,11.0571134 1.74058252,11.1915464 L1.70834951,11.2083505 C1.88563107,11.2587629 1.91786408,11.4436082 2.01456311,11.4604124 L1.9823301,11.4772165 L2.11126214,11.6116495 L2.04679612,11.6284536 C2.30466019,11.7460825 2.46582524,11.947732 2.59475728,12.1493814 L2.70757282,11.9981443 C2.91708738,12.502268 3.28776699,12.3174227 3.49728155,12.7879381 L3.46504854,12.8215464 C3.85184466,12.8215464 4.07747573,13.0063918 4.3031068,13.2080412 C4.52873786,13.4264948 4.83495146,13.6617526 5.20563107,13.5273196 C5.10893204,13.5609278 5.23786408,13.6449485 5.23786408,13.6953608 C5.57631068,13.7625773 5.93087379,13.8802062 5.83417476,13.3424742 C6.01145631,13.2080412 6.01145631,13.3592784 6.07592233,13.4937113 C6.02757282,13.308866 6.17262136,13.1240206 6.3015534,12.9895876 L6.25320388,13.1072165 C6.38213592,12.9727835 6.51106796,12.8551546 6.6238835,12.7207216 L6.41436893,12.502268 C6.64,12.4182474 6.64,12.8047423 6.78504854,12.5526804 L6.64,12.3342268 C6.89786408,12.1493814 7.36524272,12.2670103 7.65533981,12.1997938 C8.54174757,11.3595876 8.6384466,9.98164948 9.44427184,9.20865979 L9.6376699,9.24226804 C9.89553398,9.34309278 9.37980583,8.7885567 9.6215534,8.8557732 L9.55708738,8.68773196 C9.6215534,8.67092784 9.68601942,8.62051546 9.73436893,8.70453608 C9.78271845,8.60371134 9.75048544,8.58690722 9.70213592,8.46927835 L9.89553398,8.41886598 C10.1695146,8.01556701 9.96,7.54505155 10.1372816,7.09134021 C10.6207767,6.60402062 10.4434951,5.41092784 10.2500971,4.78917526 C9.9438835,4.11701031 10.4757282,3.32721649 10.3951456,2.53742268 L9.47650485,4.16742268 C9.57320388,4.15061856 9.65378641,4.10020619 9.75048544,3.98257732 C9.76660194,4.01618557 9.79883495,3.91536082 9.79883495,3.8985567 C9.9438835,3.8985567 10.1050485,3.8985567 10.2500971,3.93216495 C10.2500971,3.93216495 10.7658252,4.01618557 11.2009709,3.99938144 C11.4266019,3.98257732 11.652233,3.8985567 11.8295146,3.62969072 C11.9745631,3.36082474 12.0873786,2.78948454 11.5071845,1.9156701 L11.555534,1.86525773 C11.1203883,1.54597938 10.7658252,1.44515464 10.3951456,1.73082474 C10.3629126,1.32752577 9.9761165,1.66360825 9.86330097,1.56278351 L9.87941748,1.52917526 C9.60543689,1.83164948 9.18640777,1.36113402 8.92854369,1.69721649 C8.92854369,1.66360825 8.91242718,1.56278351 8.9768932,1.52917526 C8.88019417,1.57958763 8.78349515,1.63 8.70291262,1.66360825 L7.65533981,2.08371134 L7.92932039,3.05835052 C7.94543689,3.14237113 7.94543689,3.22639175 7.81650485,3.24319588 C7.92932039,3.57927835 7.88097087,4.06659794 8.23553398,4.28505155 L8.17106796,4.26824742 C8.41281553,4.40268041 8.20330097,4.43628866 8.33223301,4.58752577 C8.3,4.58752577 8.2838835,4.6043299 8.2838835,4.6043299 C8.52563107,4.75556701 8.3,5.04123711 8.39669903,5.15886598 L8.25165049,5.15886598 C8.25165049,5.25969072 8.26776699,5.36051546 8.26776699,5.46134021 L8.3161165,5.36051546 C8.70291262,5.44453608 8.04213592,5.56216495 8.26776699,5.79742268 C8.20330097,5.98226804 9.00912621,6.35195876 8.78349515,6.53680412 C8.94466019,6.68804124 8.50951456,6.38556701 8.6223301,6.57041237 C8.41281553,6.53680412 8.50951456,6.46958763 8.34834951,6.46958763 C8.41281553,6.63762887 8.09048544,6.65443299 8.18718447,6.8728866 L8.02601942,6.83927835 C8.25165049,7.1585567 7.70368932,7.20896907 7.92932039,7.42742268 C7.9776699,7.71309278 7.42970874,7.41061856 7.6392233,7.76350515 L7.39747573,7.76350515 C7.33300971,7.84752577 7.6231068,7.93154639 7.47805825,7.99876289 C7.34912621,7.93154639 7.3168932,8.08278351 7.23631068,7.96515464 C6.94621359,8.09958763 7.3007767,8.58690722 6.81728155,8.70453608 C7.01067961,8.90618557 6.78504854,8.97340206 6.93009709,9.12463918 C6.83339806,9.0742268 6.73669903,9.41030928 6.6238835,9.10783505 C6.60776699,9.09103093 6.64,9.05742268 6.67223301,9.09103093 L6.54330097,8.99020619 C6.18873786,8.97340206 6.49495146,9.35989691 6.34990291,9.51113402 C6.43048544,9.4943299 6.44660194,9.4271134 6.51106796,9.52793814 L6.39825243,9.66237113 L6.3176699,9.54474227 L6.10815534,9.69597938 L6.25320388,9.78 C6.10815534,9.83041237 5.86640777,9.67917526 5.9631068,9.94804124 C6.02757282,10.0824742 6.20485437,9.99845361 6.15650485,10.1496907 C5.9792233,10.183299 5.62466019,10.317732 5.52796117,10.3681443 C5.6568932,10.5025773 5.6407767,10.5193814 5.6568932,10.5529897 L5.56019417,10.4185567 C5.6407767,10.6538144 5.33456311,10.1328866 5.41514563,10.317732 L5.36679612,10.2169072 L5.52796117,10.5361856 C5.60854369,10.9058763 5.38291262,10.2001031 5.49572816,10.7042268 C5.51184466,10.6538144 5.62466019,11.0739175 5.56019417,11.0403093 L5.52796117,10.8554639 C5.51184466,10.9058763 5.52796117,10.9898969 5.51184466,10.9730928 C5.51184466,10.872268 5.46349515,10.7042268 5.44737864,10.7546392 L5.41514563,10.5193814 C5.43126214,10.6370103 5.43126214,10.7714433 5.43126214,10.872268 C5.38291262,10.6538144 5.3184466,10.872268 5.3184466,10.6202062 C5.3023301,10.6202062 5.28621359,10.4857732 5.18951456,10.7210309 C5.25398058,10.5697938 5.23786408,10.5025773 5.3023301,10.3345361 C5.23786408,10.5025773 5.12504854,10.6034021 5.18951456,10.4017526 L5.20563107,10.3849485 C5.14116505,10.1160825 4.70601942,10.317732 4.68990291,9.98164948 C4.56097087,10.1328866 4.54485437,9.96484536 4.39980583,10.1496907 C4.04524272,10.0824742 4.46427184,9.47752577 3.83572816,9.83041237 C3.73902913,9.74639175 3.90019417,9.59515464 3.88407767,9.51113402 L3.93242718,9.51113402 C3.75514563,9.34309278 3.70679612,9.27587629 3.6584466,9.10783505 C3.56174757,9.05742268 3.23941748,9.20865979 3.23941748,9.00701031 C3.38446602,8.99020619 3.3361165,8.95659794 3.32,8.88938144 C3.35223301,8.92298969 3.40058252,8.90618557 3.46504854,8.7885567 C3.41669903,8.7885567 3.40058252,8.7885567 3.36834951,8.7885567 C3.38446602,8.7885567 3.38446602,8.77175258 3.40058252,8.77175258 C3.32,8.68773196 3.28776699,8.72134021 3.28776699,8.77175258 C3.27165049,8.77175258 3.23941748,8.7885567 3.20718447,8.82216495 C3.3361165,8.65412371 3.09436893,8.53649485 3.3038835,8.4356701 C3.17495146,8.15 2.86873786,7.99876289 2.73980583,7.72989691 C2.85262136,7.67948454 2.96543689,7.72989691 3.02990291,7.7971134 L2.96543689,7.61226804 C3.14271845,7.57865979 3.07825243,7.69628866 3.12660194,7.74670103 C3.38446602,7.49463918 2.77203883,7.32659794 3.02990291,7.04092784 L2.88485437,6.99051546 L2.90097087,6.97371134 C2.83650485,6.97371134 2.72368932,6.92329897 2.70757282,6.8728866 C2.85262136,6.83927835 3.06213592,6.8728866 3.04601942,6.73845361 C3.19106796,6.63762887 2.9976699,6.45278351 2.91708738,6.31835052 C2.88485437,6.38556701 2.80427184,6.35195876 2.75592233,6.31835052 C2.75592233,6.25113402 2.90097087,6.2343299 2.85262136,6.1671134 L3.06213592,6.18391753 C2.86873786,6.18391753 2.88485437,5.98226804 2.82038835,5.94865979 C2.9815534,5.94865979 2.93320388,6.06628866 3.02990291,6.09989691 C3.06213592,5.84783505 3.04601942,5.98226804 3.07825243,5.73020619 C2.94932039,5.56216495 2.88485437,5.71340206 2.72368932,5.5957732 C2.72368932,5.46134021 2.62699029,5.29329897 2.78815534,5.19247423 L2.61087379,5.1756701 C2.54640777,4.87319588 2.6592233,4.73876289 2.88485437,4.67154639 C2.70757282,3.46164948 2.54640777,2.94072165 2.15961165,2.87350515 C1.80504854,2.80628866 1.38601942,3.19278351 1.38601942,3.19278351 C0.370679612,4.03298969 0.612427184,4.87319588 0.59631068,6.06628866 Z" id="Path"></path>
            </g>
            <g id="Group" transform="translate(133.766990, 147.876289)">
                <path d="M3.22330097,7.07453608 L3.15883495,7.14175258 C3.19106796,7.12494845 3.20718447,7.10814433 3.22330097,7.07453608 Z" id="Path"></path>
                <path d="M8.88019417,5.54536082 C8.88019417,5.54536082 8.86407767,5.54536082 8.86407767,5.5285567 C8.86407767,5.54536082 8.88019417,5.54536082 8.88019417,5.54536082 Z" id="Path"></path>
                <polygon id="Path" points="1.53106796 10.1328866 1.53106796 10.1328866 1.49883495 10.1160825"></polygon>
                <path d="M0.838058252,6.63762887 C0.838058252,7.49463918 0.515728155,7.83072165 0.902524272,8.75494845 C0.999223301,9.20865979 1.27320388,9.69597938 1.53106796,10.1160825 C1.86951456,10.183299 1.85339806,10.6706186 2.19184466,10.7546392 L2.12737864,10.9394845 C2.24019417,10.9730928 2.35300971,11.0235052 2.3368932,11.141134 L2.30466019,11.1747423 C2.48194175,11.2083505 2.53029126,11.3763918 2.62699029,11.3763918 L2.59475728,11.41 L2.72368932,11.5108247 L2.6592233,11.544433 C2.91708738,11.6284536 3.09436893,11.7964948 3.23941748,11.9813402 L3.3361165,11.813299 C3.57786408,12.2838144 3.93242718,12.0317526 4.19029126,12.4686598 L4.15805825,12.502268 C4.81883495,12.2670103 4.89941748,13.1912371 5.59242718,12.8215464 C5.51184466,12.8719588 5.60854369,12.9223711 5.59242718,12.9727835 C5.86640777,12.9559794 6.17262136,12.9223711 6.17262136,12.5358763 C6.34990291,12.5358763 6.33378641,12.6535052 6.36601942,12.7879381 C6.34990291,12.6198969 6.51106796,12.5358763 6.6561165,12.5190722 L6.59165049,12.5862887 C6.72058252,12.5526804 6.84951456,12.502268 6.9784466,12.4518557 L6.83339806,12.1661856 C7.04291262,12.2165979 6.9623301,12.5358763 7.15572816,12.4014433 L7.09126214,12.1493814 C7.36524272,12.1157732 7.65533981,12.4350515 8.02601942,12.4518557 C8.6223301,12.1997938 9.05747573,11.6452577 9.36368932,11.141134 C9.68601942,10.6202062 9.92776699,10.1328866 10.3467961,9.76319588 L10.5401942,9.81360825 C10.7980583,9.91443299 10.2823301,9.35989691 10.5401942,9.44391753 L10.4757282,9.27587629 C10.5401942,9.25907216 10.6046602,9.20865979 10.6530097,9.29268041 C10.7013592,9.19185567 10.6530097,9.17505155 10.6046602,9.05742268 L10.8141748,9.00701031 C11.0881553,8.60371134 10.8625243,8.13319588 10.9914563,7.67948454 C11.4427184,7.14175258 11.1365049,6.08309278 10.9108738,5.56216495 C10.4596117,4.83958763 11.4427184,3.83134021 10.8786408,3.15917526 C10.9108738,3.12556701 10.8141748,3.07515464 10.7819417,3.09195876 L10.7335922,2.43659794 C10.7335922,2.43659794 10.6691262,1.66360825 10.3790291,1.20989691 C10.1050485,0.772989691 9.52485437,0.504123711 8.47728155,1.9156701 L8.41281553,1.89886598 C8.3,2.30216495 8.3,2.5542268 8.6384466,2.77268041 C8.26776699,2.85670103 8.6384466,3.09195876 8.52563107,3.19278351 L8.49339806,3.19278351 C8.79961165,3.37762887 8.3161165,3.69690722 8.60621359,3.86494845 C8.57398058,3.86494845 8.47728155,3.86494845 8.46116505,3.81453608 C8.52563107,3.9657732 8.6384466,4.16742268 8.42893204,4.20103093 C8.52563107,4.55391753 8.47728155,5.05804124 8.84796117,5.25969072 L8.78349515,5.2428866 C9.02524272,5.36051546 8.83184466,5.41092784 8.9607767,5.54536082 C8.92854369,5.56216495 8.91242718,5.56216495 8.91242718,5.56216495 C9.15417476,5.69659794 8.9607767,5.96546392 9.07359223,6.08309278 L8.92854369,6.09989691 L8.9607767,6.36876289 L8.99300971,6.26793814 C9.39592233,6.30154639 8.75126214,6.46958763 8.99300971,6.67123711 C8.94466019,6.83927835 9.78271845,7.10814433 9.57320388,7.29298969 C9.75048544,7.41061856 9.2831068,7.17536082 9.41203883,7.32659794 C9.20252427,7.30979381 9.2992233,7.24257732 9.12194175,7.25938144 C9.20252427,7.41061856 8.89631068,7.42742268 8.99300971,7.61226804 L8.83184466,7.57865979 C9.07359223,7.84752577 8.54174757,7.88113402 8.78349515,8.08278351 C8.84796117,8.33484536 8.2838835,8.04917526 8.52563107,8.35164948 L8.3,8.33484536 C8.23553398,8.40206186 8.52563107,8.5028866 8.38058252,8.55329897 C8.25165049,8.48608247 8.23553398,8.62051546 8.13883495,8.5028866 C7.86485437,8.58690722 8.21941748,9.04061856 7.76815534,9.0742268 C7.94543689,9.27587629 7.75203883,9.29268041 7.88097087,9.46072165 C7.78427184,9.39350515 7.70368932,9.64556701 7.60699029,9.37670103 C7.59087379,9.35989691 7.6231068,9.34309278 7.65533981,9.37670103 L7.54252427,9.25907216 C7.23631068,9.15824742 7.51029126,9.56154639 7.38135922,9.62876289 C7.44582524,9.64556701 7.47805825,9.59515464 7.52640777,9.69597938 L7.41359223,9.76319588 L7.34912621,9.64556701 C7.28466019,9.67917526 7.22019417,9.67917526 7.17184466,9.69597938 L7.3007767,9.81360825 C7.17184466,9.79680412 6.99456311,9.59515464 7.05902913,9.83041237 C7.09126214,9.96484536 7.25242718,9.98164948 7.20407767,10.0656701 C7.04291262,10.048866 6.83339806,9.96484536 6.70446602,9.94804124 C6.78504854,10.1160825 6.75281553,10.1328866 6.72058252,10.183299 L6.6561165,10.0320619 C6.60776699,10.3009278 6.51106796,9.71278351 6.46271845,9.89762887 L6.44660194,9.78 L6.49495146,10.1328866 C6.43048544,10.4857732 6.39825243,9.81360825 6.3176699,10.2673196 C6.36601942,10.2337113 6.38213592,10.6370103 6.3015534,10.5697938 L6.3015534,10.4017526 C6.26932039,10.4353608 6.25320388,10.5025773 6.22097087,10.4857732 C6.23708738,10.4017526 6.22097087,10.2505155 6.17262136,10.2841237 L6.20485437,10.0824742 C6.17262136,10.183299 6.14038835,10.2841237 6.10815534,10.3849485 C6.04368932,10.2169072 5.89864078,10.4017526 5.89864078,10.183299 C5.89864078,10.183299 5.76970874,10.048866 5.67300971,10.2673196 C5.75359223,10.1328866 5.67300971,10.048866 5.75359223,9.88082474 C5.67300971,10.048866 5.47961165,10.1160825 5.51184466,9.93123711 L5.52796117,9.91443299 C5.46349515,9.66237113 5.09281553,9.96484536 5.07669903,9.64556701 C4.9638835,9.81360825 4.94776699,9.64556701 4.81883495,9.86402062 C4.48038835,9.88082474 4.86718447,9.22546392 4.27087379,9.66237113 C4.15805825,9.59515464 4.3192233,9.44391753 4.3192233,9.37670103 L4.36757282,9.37670103 C4.19029126,9.24226804 4.15805825,9.19185567 4.09359223,9.05742268 C3.9968932,9.02381443 3.69067961,9.19185567 3.69067961,9.02381443 C3.83572816,9.00701031 3.78737864,8.95659794 3.75514563,8.90618557 C3.78737864,8.92298969 3.83572816,8.90618557 3.88407767,8.80536082 C3.83572816,8.82216495 3.81961165,8.82216495 3.78737864,8.80536082 C3.80349515,8.80536082 3.80349515,8.7885567 3.81961165,8.7885567 C3.73902913,8.72134021 3.70679612,8.75494845 3.70679612,8.80536082 C3.69067961,8.80536082 3.6584466,8.82216495 3.6423301,8.8557732 C3.75514563,8.68773196 3.52951456,8.60371134 3.73902913,8.5028866 C3.59398058,8.26762887 3.28776699,8.13319588 3.14271845,7.89793814 C3.25553398,7.83072165 3.36834951,7.8643299 3.43281553,7.93154639 L3.35223301,7.76350515 C3.51339806,7.72989691 3.48116505,7.83072165 3.51339806,7.88113402 C3.72291262,7.61226804 3.14271845,7.52824742 3.35223301,7.2257732 L3.20718447,7.19216495 L3.22330097,7.17536082 C3.15883495,7.19216495 3.04601942,7.14175258 3.01378641,7.10814433 C3.15883495,7.04092784 3.35223301,7.05773196 3.3361165,6.94010309 C3.46504854,6.82247423 3.22330097,6.67123711 3.14271845,6.53680412 C3.12660194,6.60402062 3.04601942,6.60402062 2.9815534,6.57041237 C2.96543689,6.50319588 3.11048544,6.45278351 3.04601942,6.40237113 L3.25553398,6.38556701 C3.06213592,6.41917526 3.04601942,6.2343299 2.94932039,6.21752577 C3.09436893,6.1671134 3.07825243,6.31835052 3.20718447,6.31835052 C3.17495146,6.04948454 3.19106796,6.18391753 3.15883495,5.93185567 C2.9976699,5.79742268 2.96543689,5.96546392 2.78815534,5.89824742 C2.73980583,5.76381443 2.59475728,5.64618557 2.72368932,5.49494845 L2.54640777,5.54536082 C2.40135922,5.29329897 2.41747573,5.14206186 2.61087379,4.99082474 C1.17650485,3.09195876 0.612427184,4.57072165 0.612427184,4.57072165 C0.112815534,5.25969072 0.628543689,5.69659794 0.838058252,6.63762887 Z" id="Path"></path>
            </g>
            <g id="Group" transform="translate(146.660194, 67.216495)">
                <path d="M6.88174757,1.66360825 L6.99456311,1.73082474 C6.9784466,1.68041237 6.94621359,1.66360825 6.88174757,1.66360825 Z" id="Path"></path>
                <path d="M8.55786408,12.2165979 L8.52563107,12.2334021 C8.55786408,12.2334021 8.55786408,12.2165979 8.55786408,12.2165979 Z" id="Path"></path>
                <polygon id="Path" points="10.8625243 3.81453608 10.8464078 3.81453608 10.8302913 3.84814433"></polygon>
                <path d="M6.01145631,4.21783505 C7.3168932,4.13381443 7.68757282,4.45309278 9.00912621,4.13381443 C9.65378641,4.08340206 10.2823301,3.91536082 10.8625243,3.83134021 C11.1203883,3.52886598 11.6038835,3.78092784 11.9100971,3.5456701 L12.0229126,3.71371134 C12.1357282,3.62969072 12.2646602,3.57927835 12.3613592,3.68010309 L12.3452427,3.73051546 C12.5064078,3.6128866 12.6675728,3.69690722 12.7481553,3.64649485 L12.7320388,3.69690722 L12.9093204,3.69690722 L12.8770874,3.76412371 C13.151068,3.66329897 13.4250485,3.71371134 13.6345631,3.81453608 L13.6667961,3.6128866 C14.0858252,3.94896907 14.3598058,3.62969072 14.6660194,4.06659794 L14.6337864,4.10020619 C15.3751456,3.94896907 15.1495146,4.82278351 15.8264078,4.83958763 C15.7458252,4.82278351 15.7780583,4.92360825 15.7458252,4.95721649 C15.9553398,5.09164948 16.1003883,5.29329897 16.4227184,5.09164948 C16.5194175,5.25969072 16.4066019,5.29329897 16.2937864,5.37731959 C16.4227184,5.29329897 16.567767,5.39412371 16.632233,5.5285567 L16.5516505,5.49494845 C16.6161165,5.61257732 16.696699,5.73020619 16.7450485,5.86463918 L17.0029126,5.67979381 C16.9867961,5.93185567 16.6805825,5.84783505 16.7933981,6.03268041 L17.0351456,5.96546392 C17.0673786,6.30154639 16.6805825,6.53680412 16.4871845,6.75525773 C16.3904854,7.24257732 16.3099029,7.81391753 15.9714563,8.38525773 C15.6491262,8.95659794 15.068932,9.4271134 14.4403883,9.4943299 L14.3114563,9.34309278 C14.1825243,9.09103093 14.1825243,9.88082474 14.0374757,9.64556701 L13.9568932,9.81360825 C13.9085437,9.78 13.8118447,9.76319588 13.8601942,9.66237113 C13.7312621,9.69597938 13.7473786,9.72958763 13.6829126,9.84721649 L13.5056311,9.71278351 C12.9737864,9.71278351 12.5708738,10.1160825 11.9584466,10.0824742 C11.2493204,9.78 9.83106796,10.0320619 8.94466019,10.1496907 C7.73592233,10.4857732 6.23708738,9.22546392 4.85106796,9.89762887 C4.80271845,9.86402062 4.68990291,9.96484536 4.70601942,9.99845361 C4.28699029,10.048866 3.85184466,10.1160825 3.43281553,10.2169072 C3.43281553,10.2169072 3.04601942,10.3009278 2.54640777,10.5361856 C2.06291262,10.7546392 1.48271845,11.1579381 1.14427184,11.5780412 C0.805825243,11.9981443 0.709126214,12.4182474 0.983106796,12.5862887 C1.25708738,12.7879381 1.88563107,12.7039175 2.93320388,12.8215464 L2.93320388,12.8887629 C3.46504854,12.7879381 3.75514563,12.7375258 4.04524272,12.3174227 C4.19029126,12.6703093 4.49650485,12.2502062 4.6415534,12.3510309 L4.6415534,12.3846392 C4.93165049,12.0317526 5.36679612,12.5190722 5.67300971,12.2334021 C5.6568932,12.2670103 5.6568932,12.3678351 5.59242718,12.3846392 C5.83417476,12.3174227 6.15650485,12.2165979 6.18873786,12.4350515 C6.76893204,12.3510309 7.59087379,12.502268 8.02601942,12.1829897 L7.99378641,12.2502062 C8.23553398,12.0317526 8.3,12.2334021 8.55786408,12.1325773 C8.57398058,12.1661856 8.59009709,12.1829897 8.59009709,12.1997938 C8.86407767,11.9813402 9.33145631,12.2165979 9.54097087,12.1325773 L9.54097087,12.2838144 L10.056699,12.2838144 L9.86330097,12.2334021 C9.9438835,11.8301031 10.2339806,12.5190722 10.6368932,12.2670103 C11.0075728,12.3342268 11.3621359,11.4268041 11.7328155,11.6116495 C11.8939806,11.41 11.587767,11.9309278 11.8456311,11.7796907 C11.8617476,11.9981443 11.7328155,11.9141237 11.7972816,12.0821649 C12.0551456,11.9645361 12.2485437,12.2838144 12.5708738,12.0989691 L12.6031068,12.2670103 C13.0060194,11.9309278 13.4572816,12.3678351 13.6990291,12.0317526 C14.1180583,11.7964948 14.1180583,12.4518557 14.5209709,11.9813402 L14.778835,12.1325773 C15.004466,12.0821649 14.843301,11.813299 15.101165,11.8301031 C15.1333981,11.9645361 15.4234951,11.7964948 15.3429126,11.9813402 C15.9714563,11.9309278 16.1970874,11.1915464 17.0029126,11.006701 C16.9706796,10.6874227 17.3413592,10.5529897 17.2930097,10.317732 C17.3897087,10.4017526 17.8248544,9.76319588 17.7281553,10.2673196 C17.7120388,10.317732 17.6636893,10.3681443 17.6475728,10.317732 L17.7281553,10.4689691 C18.26,10.3345361 18.1471845,9.71278351 18.421165,9.35989691 C18.3083495,9.46072165 18.2116505,9.61195876 18.195534,9.44391753 L18.4372816,9.09103093 L18.5017476,9.24226804 C18.6306796,9.0742268 18.7596117,8.87257732 18.8724272,8.68773196 L18.6790291,8.70453608 C18.8885437,8.45247423 19.1786408,8.41886598 19.0819417,7.98195876 C19.0013592,7.78030928 18.7918447,8.21721649 18.8240777,7.8643299 C19.0497087,7.49463918 19.3075728,6.82247423 19.3075728,6.20072165 C19.1302913,6.26793814 19.1141748,6.11670103 19.0658252,5.96546392 L19.2269903,5.93185567 C18.9046602,5.36051546 19.5493204,5.62938144 19.2108738,5.04123711 L19.3398058,5.05804124 L18.9691262,5.00762887 C18.4856311,4.63793814 19.1786408,4.57072165 18.5339806,4.23463918 C18.6629126,4.41948454 18.2761165,4.50350515 18.2116505,4.23463918 L18.3728155,4.21783505 C18.2761165,4.10020619 18.195534,4.10020619 18.163301,3.99938144 C18.2761165,4.03298969 18.3728155,3.91536082 18.227767,3.73051546 L18.4695146,3.74731959 C18.3083495,3.68010309 18.163301,3.6128866 18.0021359,3.56247423 C17.9537864,3.17597938 17.4541748,2.9743299 17.5186408,2.72226804 C17.5186408,2.72226804 17.0834951,2.16773196 16.8256311,2.28536082 C17.0190291,2.23494845 16.761165,1.96608247 16.9384466,1.88206186 C16.696699,1.9156701 16.2132039,1.76443299 16.1165049,1.51237113 L16.1648544,1.51237113 C15.5685437,0.974639175 14.8916505,1.19309278 14.3436893,0.823402062 C14.3275728,1.02505155 14.0213592,0.840206186 14.0535922,1.10907216 C13.408932,1.20989691 12.9576699,0.436907216 12.6836893,1.17628866 C12.4097087,1.20989691 12.3613592,0.974639175 12.2324272,0.941030928 L12.2968932,0.90742268 C11.781165,0.957835052 11.6361165,0.974639175 11.2654369,0.974639175 C11.0881553,1.05865979 11.0720388,1.41154639 10.7497087,1.36113402 C10.8464078,1.20989691 10.7174757,1.24350515 10.5885437,1.26030928 C10.6691262,1.22670103 10.6852427,1.17628866 10.5240777,1.09226804 C10.5079612,1.14268041 10.4757282,1.17628866 10.4434951,1.19309278 C10.4434951,1.17628866 10.4273786,1.17628866 10.4434951,1.15948454 C10.2500971,1.22670103 10.2823301,1.2771134 10.3790291,1.2771134 C10.3790291,1.29391753 10.3790291,1.32752577 10.4112621,1.36113402 C10.1856311,1.19309278 9.83106796,1.42835052 9.78271845,1.19309278 C9.18640777,1.32752577 8.81572816,1.63 8.33223301,1.78123711 C8.26776699,1.66360825 8.36446602,1.54597938 8.49339806,1.47876289 L8.15495146,1.56278351 C8.13883495,1.37793814 8.33223301,1.42835052 8.44504854,1.37793814 C8.00990291,1.14268041 7.6392233,1.78123711 7.12349515,1.57958763 L7.04291262,1.73082474 L7.01067961,1.71402062 C7.02679612,1.78123711 6.93009709,1.89886598 6.86563107,1.93247423 C6.78504854,1.78123711 6.83339806,1.57958763 6.59165049,1.61319588 C6.38213592,1.49556701 6.07592233,1.76443299 5.83417476,1.88206186 C5.9631068,1.89886598 5.93087379,1.9828866 5.88252427,2.05010309 C5.76970874,2.06690722 5.67300971,1.93247423 5.59242718,1.99969072 L5.56019417,1.79804124 C5.62466019,1.9828866 5.27009709,2.05010309 5.23786408,2.15092784 C5.15728155,1.99969072 5.39902913,1.99969072 5.41514563,1.86525773 C4.94776699,1.94927835 5.17339806,1.89886598 4.70601942,1.9828866 C4.48038835,2.16773196 4.77048544,2.16773196 4.67378641,2.36938144 C4.44815534,2.43659794 4.25475728,2.6214433 3.9807767,2.52061856 L4.07747573,2.68865979 C3.67456311,2.89030928 3.41669903,2.9071134 3.11048544,2.75587629 C0.177281553,4.68835052 2.70757282,4.92360825 2.70757282,4.92360825 C3.9807767,5.1756701 4.56097087,4.55391753 6.01145631,4.21783505 Z" id="Path"></path>
            </g>
            <g id="Group" transform="translate(17.728155, 55.453608)">
                <path d="M17.2446602,5.56216495 L17.5669903,5.62938144 C17.5669903,5.5957732 17.4864078,5.56216495 17.2446602,5.56216495 Z" id="Path"></path>
                <path d="M97.4565049,3.57927835 C97.4887379,3.57927835 97.5048544,3.56247423 97.5370874,3.56247423 C97.4726214,3.56247423 97.4565049,3.57927835 97.4565049,3.57927835 Z" id="Path"></path>
                <path d="M29.6221359,7.89793814 L29.6060194,7.89793814 C29.5737864,7.89793814 29.5576699,7.91474227 29.5254369,7.91474227 L29.6221359,7.89793814 Z" id="Path"></path>
                <path d="M13.4572816,8.08278351 C17.6959223,8.06597938 18.8401942,8.41886598 23.2238835,8.15 C25.3190291,8.13319588 27.5592233,7.98195876 29.6060194,7.89793814 C30.5730097,7.59546392 32.2974757,7.83072165 33.4417476,7.56185567 L33.8930097,7.71309278 C34.2798058,7.62907216 34.7471845,7.56185567 35.1500971,7.62907216 L35.1339806,7.67948454 C35.7302913,7.54505155 36.391068,7.59546392 36.681165,7.52824742 L36.6650485,7.57865979 L37.3902913,7.54505155 L37.2613592,7.61226804 C38.2928155,7.46103093 39.3565049,7.42742268 40.2912621,7.46103093 L40.2106796,7.27618557 C42.2252427,7.4442268 42.9504854,7.02412371 44.7716505,7.24257732 L44.755534,7.29298969 C47.0279612,6.72164948 48.3817476,7.56185567 50.7347573,7.00731959 C50.4446602,7.07453608 50.8636893,7.10814433 50.8475728,7.1585567 C51.9273786,7.07453608 53.087767,7.02412371 53.1038835,6.63762887 C53.8935922,6.62082474 53.7485437,6.73845361 53.8613592,6.88969072 C53.8452427,6.72164948 54.5382524,6.63762887 55.1506796,6.60402062 L54.8605825,6.67123711 L56.6333981,6.57041237 L56.278835,6.26793814 C57.2135922,6.33515464 56.5205825,6.65443299 57.4231068,6.55360825 L57.4069903,6.28474227 C58.7124272,6.30154639 59.4860194,6.68804124 60.7431068,6.83927835 C65.9809709,6.82247423 71.5733981,6.01587629 76.456699,6.36876289 L76.6823301,6.55360825 C76.7790291,6.83927835 78.02,6.09989691 78.2133981,6.35195876 L78.7774757,6.20072165 C78.9386408,6.25113402 79.2770874,6.30154639 78.9869903,6.36876289 C79.5027184,6.36876289 79.518835,6.31835052 79.8895146,6.21752577 L80.4535922,6.38556701 C82.5165049,6.46958763 84.2732039,6.08309278 86.448932,6.09989691 C89.0598058,6.40237113 93.9753398,5.94865979 96.7957282,5.67979381 C100.760388,5.15886598 105.418058,6.18391753 109.479417,5.5957732 C109.60835,5.62938144 109.946796,5.5285567 109.946796,5.49494845 L113.669709,5.44453608 C113.669709,5.44453608 117.038058,5.37731959 119.761748,5.14206186 L120.374175,5.09164948 L120.632039,4.63793814 C121.034951,3.91536082 121.002718,3.10876289 120.777087,2.5542268 C120.567573,1.9828866 120.229126,1.57958763 119.858447,1.31072165 C119.100971,0.739381443 118.295146,0.90742268 118.133981,1.09226804 C117.956699,1.29391753 118.23068,1.31072165 118.730291,1.63 C118.955922,1.79804124 119.213786,2.08371134 119.358835,2.48701031 C119.503883,2.87350515 119.47165,3.46164948 119.181553,3.64649485 L119.729515,3.32721649 C119.19767,3.24319588 118.617476,3.14237113 117.972816,3.04154639 L118.069515,2.9743299 C116.022718,2.87350515 114.733398,2.87350515 113.347379,3.22639175 C113.121748,2.83989691 111.671262,3.22639175 111.187767,3.10876289 L111.236117,3.07515464 C109.995146,3.41123711 108.673592,2.89030928 107.480971,3.19278351 C107.52932,3.15917526 107.545437,3.05835052 107.819417,3.04154639 C106.949126,3.10876289 105.756505,3.22639175 105.675922,3.00793814 C103.596893,3.12556701 100.679806,3.09195876 99.3421359,3.47845361 L99.438835,3.41123711 C98.6813592,3.68010309 98.4557282,3.47845361 97.6015534,3.6128866 C97.5532039,3.57927835 97.4887379,3.57927835 97.5048544,3.56247423 C96.6829126,3.81453608 95.0873786,3.66329897 94.4104854,3.78092784 L94.3621359,3.62969072 L92.7021359,3.69690722 L93.3145631,3.71371134 C93.1050485,4.13381443 92.0574757,3.47845361 90.8648544,3.78092784 C89.736699,3.76412371 88.6085437,4.68835052 87.4320388,4.52030928 C86.8840777,4.72195876 87.915534,4.20103093 87.0935922,4.36907216 C87.0613592,4.15061856 87.4803883,4.21783505 87.2547573,4.06659794 C86.448932,4.1842268 85.9170874,3.88175258 84.9017476,4.04979381 L84.8533981,3.88175258 C83.5479612,4.21783505 82.3714563,3.73051546 81.501165,4.03298969 C80.1473786,4.20103093 80.5825243,3.56247423 79.1803883,3.91536082 L78.6324272,3.69690722 C78.0361165,3.68010309 78.2133981,3.98257732 77.5365049,3.8985567 C77.5687379,3.74731959 76.6823301,3.79773196 77.0852427,3.66329897 C75.5702913,3.47845361 74.0231068,4.04979381 72.0246602,3.73051546 C71.6056311,4.01618557 70.5902913,3.88175258 70.2679612,4.10020619 C70.2196117,3.98257732 68.2533981,4.13381443 69.3815534,3.84814433 C69.4782524,3.83134021 69.655534,3.83134021 69.6394175,3.86494845 L69.7683495,3.69690722 C68.6240777,3.41123711 67.7054369,3.91536082 66.5772816,3.8985567 C66.9157282,3.94896907 67.3508738,3.91536082 67.0607767,4.03298969 L66.0132039,4.03298969 L66.2227184,3.88175258 L64.6594175,3.83134021 L64.8850485,3.99938144 C64.1275728,3.93216495 63.8535922,3.64649485 62.9994175,3.91536082 C62.6126214,4.06659794 63.7246602,4.13381443 62.918835,4.20103093 C61.9034951,4.11701031 60.3724272,3.9657732 59.0669903,3.94896907 C59.1959223,4.13381443 58.8413592,4.13381443 58.4867961,4.1842268 L58.4384466,4.01618557 C57.0685437,4.28505155 57.9227184,3.66329897 56.5528155,3.88175258 L56.6656311,3.76412371 L56.311068,4.11701031 C55.0862136,4.48670103 55.6341748,3.78092784 54.2803883,4.26824742 C54.8283495,4.23463918 54.5382524,4.63793814 53.8774757,4.57072165 L54.0386408,4.40268041 C53.6679612,4.45309278 53.5551456,4.52030928 53.2972816,4.48670103 C53.5229126,4.40268041 53.4100971,4.2514433 52.8621359,4.28505155 L53.216699,4.06659794 L52.2013592,4.38587629 C51.4116505,4.23463918 50.1545631,4.48670103 49.8161165,4.26824742 C49.8161165,4.26824742 48.107767,4.20103093 47.7209709,4.45309278 C48.0594175,4.28505155 47.1246602,4.2514433 47.3825243,4.06659794 C46.9473786,4.2514433 45.6419417,4.43628866 45.1100971,4.2514433 L45.2067961,4.23463918 C43.2728155,4.08340206 41.9029126,4.57072165 40.1623301,4.38587629 C40.2429126,4.57072165 39.3242718,4.48670103 39.5660194,4.73876289 C37.7770874,5.02443299 36.2782524,4.31865979 35.6497087,5.09164948 C34.827767,5.15886598 34.6827184,4.94041237 34.2475728,4.90680412 L34.4409709,4.85639175 C32.9099029,4.95721649 32.4747573,4.97402062 31.3304854,4.99082474 C30.7664078,5.07484536 30.6858252,5.44453608 29.6704854,5.37731959 C29.9928155,5.22608247 29.5737864,5.25969072 29.2031068,5.27649485 C29.4448544,5.2428866 29.5254369,5.19247423 29.0258252,5.10845361 C28.9613592,5.15886598 28.8485437,5.1756701 28.7518447,5.20927835 C28.7518447,5.19247423 28.7196117,5.19247423 28.7357282,5.1756701 C28.1071845,5.2428866 28.22,5.27649485 28.5100971,5.29329897 C28.4939806,5.31010309 28.5262136,5.34371134 28.6067961,5.37731959 C27.9460194,5.20927835 26.7695146,5.42773196 26.688932,5.19247423 C24.7871845,5.29329897 23.4172816,5.57896907 21.8378641,5.71340206 C21.6605825,5.5957732 22.0312621,5.47814433 22.4825243,5.41092784 L21.3543689,5.47814433 C21.3543689,5.29329897 21.9990291,5.36051546 22.3535922,5.31010309 C20.9998058,5.05804124 19.5976699,5.66298969 18.0182524,5.44453608 L17.6959223,5.5957732 L17.5992233,5.57896907 C17.5992233,5.64618557 17.2607767,5.76381443 17.0190291,5.79742268 C16.7933981,5.64618557 17.0190291,5.42773196 16.2454369,5.46134021 C15.6330097,5.32690722 14.5048544,5.57896907 13.6990291,5.67979381 C14.1341748,5.69659794 13.9891262,5.78061856 13.8118447,5.84783505 C13.4250485,5.86463918 13.1994175,5.71340206 12.8932039,5.78061856 L12.8448544,5.56216495 C13.0060194,5.76381443 11.8295146,5.79742268 11.684466,5.89824742 C11.458835,5.74701031 12.2807767,5.74701031 12.3774757,5.62938144 C10.8141748,5.67979381 11.6038835,5.66298969 10.0405825,5.71340206 C9.21864078,5.89824742 10.2017476,5.91505155 9.79883495,6.09989691 C9.05747573,6.1671134 8.34834951,6.31835052 7.51029126,6.21752577 L7.78427184,6.40237113 C6.41436893,6.57041237 5.54407767,6.63762887 4.72213592,6.26793814 C4.12582524,6.25113402 3.61009709,6.08309278 3.25553398,5.73020619 C2.88485437,5.39412371 2.83650485,4.83958763 2.93320388,4.41948454 C3.02990291,3.98257732 3.22330097,3.62969072 3.51339806,3.37762887 C3.78737864,3.10876289 4.23864078,3.02474227 4.54485437,3.10876289 C5.20563107,3.34402062 5.22174757,3.32721649 5.36679612,3.27680412 C5.44737864,3.20958763 5.43126214,3.07515464 5.35067961,2.87350515 C5.18951456,2.68865979 4.9961165,2.48701031 4.62543689,2.3357732 C4.27087379,2.18453608 3.80349515,2.16773196 3.41669903,2.2685567 C2.6431068,2.48701031 2.17572816,2.99113402 1.85339806,3.47845361 C1.53106796,3.9657732 1.36990291,4.52030928 1.3376699,5.00762887 C1.30543689,5.47814433 1.38601942,5.8142268 1.38601942,5.8142268 C1.45048544,6.15030928 1.57941748,6.46958763 1.75669903,6.77206186 C1.90174757,6.99051546 2.03067961,7.17536082 2.19184466,7.34340206 C2.51417476,7.67948454 2.88485437,7.93154639 3.22330097,8.11639175 C3.91631068,8.46927835 4.52873786,8.57010309 5.07669903,8.62051546 C6.17262136,8.70453608 6.88174757,8.58690722 7.71980583,8.53649485 C9.31533981,8.41886598 11.0398058,8.20041237 13.4572816,8.08278351 Z" id="Path"></path>
            </g>
            <g id="Group" transform="translate(149.883495, 115.948454)">
                <path d="M4.17417476,0.873814433 L4.22252427,0.957835052 C4.23864078,0.924226804 4.23864078,0.890618557 4.17417476,0.873814433 Z" id="Path"></path>
                <path d="M5.28621359,17.8963918 L5.3023301,17.9131959 C5.28621359,17.9131959 5.28621359,17.8963918 5.28621359,17.8963918 Z" id="Path"></path>
                <polygon id="Path" points="2.96543689 3.98257732 2.96543689 3.98257732 2.94932039 3.9657732"></polygon>
                <path d="M2.78815534,3.27680412 C2.9815534,3.37762887 2.70757282,3.71371134 2.82038835,3.6128866 C2.80427184,3.62969072 2.82038835,3.64649485 2.85262136,3.66329897 L2.90097087,3.69690722 C2.91708738,3.73051546 2.94932039,3.88175258 2.96543689,3.9657732 C3.25553398,4.11701031 3.04601942,4.48670103 3.28776699,4.68835052 L3.14271845,4.78917526 C3.22330097,4.85639175 3.28776699,4.94041237 3.22330097,5.02443299 L3.17495146,5.02443299 C3.3038835,5.12525773 3.25553398,5.25969072 3.32,5.31010309 L3.27165049,5.31010309 L3.3038835,5.44453608 L3.23941748,5.42773196 C3.38446602,5.61257732 3.41669903,5.83103093 3.36834951,6.01587629 L3.54563107,5.98226804 C3.36834951,6.40237113 3.77126214,6.50319588 3.54563107,6.88969072 L3.49728155,6.88969072 C4.02912621,7.30979381 3.20718447,7.62907216 3.70679612,8.06597938 C3.6423301,8.01556701 3.61009709,8.09958763 3.56174757,8.09958763 C3.62621359,8.31804124 3.67456311,8.53649485 4.02912621,8.51969072 C4.02912621,8.67092784 3.91631068,8.65412371 3.77126214,8.68773196 C3.93242718,8.67092784 3.9968932,8.82216495 4.01300971,8.93979381 L3.94854369,8.88938144 L4.01300971,9.24226804 L4.3192233,9.15824742 C4.23864078,9.34309278 3.94854369,9.22546392 4.02912621,9.39350515 L4.28699029,9.37670103 C4.23864078,9.64556701 3.86796117,9.79680412 3.69067961,10.048866 C3.59398058,11.0739175 4.22252427,12.2165979 3.73902913,13.174433 L3.54563107,13.2080412 C3.27165049,13.2080412 3.94854369,13.4937113 3.69067961,13.5105155 L3.80349515,13.6281443 C3.75514563,13.6617526 3.69067961,13.7121649 3.6423301,13.6617526 C3.62621359,13.7625773 3.67456311,13.7625773 3.75514563,13.8465979 L3.57786408,13.9474227 C3.41669903,14.3507216 3.72291262,14.7204124 3.62621359,15.1237113 C3.23941748,15.5942268 3.43281553,16.434433 3.43281553,16.9217526 C3.51339806,17.2914433 3.19106796,17.5435052 2.90097087,17.6275258 C2.61087379,17.7115464 2.46582524,17.5939175 2.35300971,17.9131959 C2.3207767,17.8795876 2.3207767,17.9804124 2.3368932,18.0140206 C2.20796117,18.0308247 2.07902913,18.0476289 1.95009709,18.0308247 C1.91786408,18.0308247 1.59553398,17.9972165 1.35378641,18.0812371 C1.20873786,18.1316495 0.966990291,18.0980412 0.709126214,18.2828866 C0.49961165,18.4173196 0.0322330097,18.9886598 0.741359223,20.0641237 L0.693009709,20.1145361 C1.22485437,20.5178351 1.6761165,20.5682474 2.04679612,20.2489691 C2.12737864,20.6354639 2.51417476,20.2489691 2.6431068,20.3329897 L2.6431068,20.3665979 C2.90097087,20.0137113 3.41669903,20.4002062 3.62621359,19.9801031 C3.62621359,20.0137113 3.67456311,20.1145361 3.59398058,20.1481443 C3.80349515,19.9801031 4.04524272,19.7112371 4.19029126,19.8792784 C4.72213592,19.4087629 5.20563107,18.7870103 5.07669903,18.2828866 L5.12504854,18.333299 C5.01223301,18.0476289 5.20563107,18.0812371 5.18951456,17.8459794 C5.22174757,17.8459794 5.23786408,17.8459794 5.25398058,17.8459794 C5.12504854,17.5603093 5.41514563,17.2746392 5.36679612,17.0897938 L5.51184466,17.1234021 L5.57631068,16.7369072 L5.51184466,16.8713402 C5.14116505,16.7369072 5.81805825,16.6360825 5.60854369,16.3168041 C5.70524272,16.0647423 4.86718447,15.6950515 5.09281553,15.4934021 C4.91553398,15.3589691 5.38291262,15.6278351 5.25398058,15.4429897 C5.46349515,15.4597938 5.36679612,15.5438144 5.54407767,15.5102062 C5.46349515,15.3253608 5.78582524,15.2413402 5.6568932,15.0228866 L5.81805825,15.0228866 C5.54407767,14.7204124 6.05980583,14.5187629 5.80194175,14.3171134 C5.68912621,14.0314433 6.28543689,14.1658763 5.99533981,13.8465979 L6.22097087,13.7457732 C6.26932039,13.6281443 5.9631068,13.6449485 6.07592233,13.5105155 C6.20485437,13.5273196 6.18873786,13.3424742 6.3176699,13.4264948 C6.54330097,13.1240206 6.04368932,12.771134 6.41436893,12.3678351 C6.15650485,12.2670103 6.3176699,12.0653608 6.10815534,11.9981443 C6.22097087,11.9813402 6.14038835,11.5780412 6.38213592,11.813299 C6.39825243,11.8301031 6.39825243,11.8637113 6.34990291,11.8637113 L6.51106796,11.8973196 C6.81728155,11.6620619 6.34990291,11.4604124 6.39825243,11.2251546 C6.34990291,11.2923711 6.36601942,11.3931959 6.25320388,11.3259794 L6.26932039,11.1075258 L6.39825243,11.1579381 L6.47883495,10.8386598 L6.3176699,10.8890722 C6.39825243,10.7378351 6.68834951,10.6706186 6.44660194,10.4857732 C6.3176699,10.4017526 6.22097087,10.6370103 6.17262136,10.4689691 C6.28543689,10.2505155 6.44660194,9.93123711 6.49495146,9.66237113 C6.3176699,9.69597938 6.3176699,9.61195876 6.26932039,9.54474227 L6.43048544,9.52793814 C6.20485437,9.24226804 6.78504854,9.41030928 6.59165049,9.12463918 L6.70446602,9.1414433 L6.36601942,9.0742268 C6.04368932,8.82216495 6.68834951,8.92298969 6.25320388,8.65412371 C6.28543689,8.77175258 5.89864078,8.72134021 5.9631068,8.58690722 L6.12427184,8.62051546 C6.09203883,8.53649485 6.02757282,8.51969072 6.05980583,8.46927835 C6.14038835,8.5028866 6.28543689,8.48608247 6.25320388,8.36845361 L6.44660194,8.4356701 L6.15650485,8.23402062 C6.3176699,8.06597938 6.09203883,7.81391753 6.3015534,7.72989691 C6.3015534,7.72989691 6.38213592,7.36020619 6.14038835,7.29298969 C6.3015534,7.36020619 6.33378641,7.1585567 6.51106796,7.19216495 C6.33378641,7.10814433 6.17262136,6.85608247 6.34990291,6.72164948 L6.36601942,6.73845361 C6.52718447,6.31835052 6.05980583,6.06628866 6.25320388,5.67979381 C6.07592233,5.71340206 6.15650485,5.51175258 5.91475728,5.57896907 C5.6407767,5.22608247 6.33378641,4.83958763 5.57631068,4.78917526 C5.51184466,4.62113402 5.72135922,4.57072165 5.75359223,4.46989691 L5.80194175,4.50350515 C5.70524272,4.20103093 5.68912621,4.10020619 5.67300971,3.86494845 C5.59242718,3.76412371 5.23786408,3.78092784 5.3023301,3.56247423 C5.44737864,3.6128866 5.41514563,3.52886598 5.39902913,3.44484536 C5.43126214,3.49525773 5.47961165,3.49525773 5.56019417,3.37762887 C5.51184466,3.37762887 5.49572816,3.34402062 5.46349515,3.32721649 C5.47961165,3.32721649 5.47961165,3.32721649 5.49572816,3.32721649 C5.43126214,3.20958763 5.39902913,3.22639175 5.38291262,3.29360825 C5.36679612,3.29360825 5.33456311,3.31041237 5.3023301,3.32721649 C5.46349515,3.17597938 5.20563107,2.82309278 5.43126214,2.73907216 C5.28621359,2.16773196 4.9961165,1.89886598 4.85106796,1.54597938 C4.94776699,1.39474227 5.06058252,1.41154639 5.12504854,1.51237113 L5.02834951,1.20989691 C5.17339806,1.05865979 5.14116505,1.32752577 5.18951456,1.41154639 C5.27009709,1.09226804 5.17339806,0.90742268 5.07669903,0.756185567 C4.81883495,0.789793814 4.54485437,0.890618557 4.38368932,0.739381443 L4.20640777,0.873814433 L4.19029126,0.857010309 C4.14194175,0.924226804 3.9968932,1.02505155 3.93242718,1.05865979 C3.94854369,0.90742268 4.10970874,0.705773196 3.86796117,0.705773196 C3.72291262,0.554536082 3.28776699,0.772989691 3.06213592,0.857010309 C3.19106796,0.890618557 3.12660194,0.974639175 3.07825243,1.02505155 C2.9815534,1.02505155 2.91708738,0.873814433 2.83650485,0.941030928 L2.83650485,0.72257732 C2.83650485,0.924226804 2.61087379,0.941030928 2.59475728,1.02505155 C2.54640777,0.873814433 2.70757282,0.890618557 2.73980583,0.772989691 C2.43359223,0.789793814 2.57864078,0.772989691 2.28854369,0.789793814 C2.12737864,0.941030928 2.3207767,0.991443299 2.24019417,1.17628866 C2.09514563,1.20989691 1.95009709,1.36113402 1.78893204,1.22670103 L1.83728155,1.41154639 C1.56330097,1.54597938 1.40213592,1.52917526 1.22485437,1.3443299 C-0.805825243,2.83989691 0.773592233,3.42804124 0.773592233,3.42804124 C1.16038835,3.64649485 1.46660194,3.6128866 1.78893204,3.51206186 C1.93398058,3.46164948 2.11126214,3.39443299 2.30466019,3.32721649 C2.40135922,3.29360825 2.49805825,3.26 2.59475728,3.24319588 C2.69145631,3.32721649 2.80427184,3.29360825 2.78815534,3.27680412 Z" id="Path"></path>
            </g>
            <g id="Group" transform="translate(11.281553, 0.000000)">
                <path d="M2.3207767,26.9202062 C2.36912621,26.7185567 2.41747573,26.5337113 2.48194175,26.3320619 C2.46582524,26.348866 2.38524272,26.483299 2.3207767,26.9202062 Z" id="Path"></path>
                <path d="M129.206019,15.1237113 L129.286602,15.2413402 C129.238252,15.1573196 129.222136,15.1237113 129.206019,15.1237113 Z" id="Path"></path>
                <path d="M16.4549515,11.141134 C16.438835,11.141134 16.438835,11.1579381 16.438835,11.1579381 L16.3260194,11.2419588 L16.4549515,11.141134 Z" id="Path"></path>
                <path d="M5.17339806,33.4402062 C4.62543689,31.8270103 4.54485437,30.4154639 4.59320388,29.1719588 C4.6576699,27.9116495 4.86718447,26.8193814 5.15728155,25.7439175 C5.78582524,23.6097938 6.6238835,21.4420619 8.70291262,18.4173196 C10.7658252,15.5942268 13.5378641,13.0063918 16.438835,11.1579381 C17.6798058,10.0152577 20.3712621,8.92298969 22.0957282,8.01556701 L22.8532039,7.89793814 C23.4495146,7.56185567 24.1908738,7.27618557 24.835534,7.14175258 L24.803301,7.19216495 C25.7219417,6.77206186 26.8339806,6.55360825 27.3013592,6.36876289 L27.2691262,6.41917526 C27.6559223,6.30154639 28.058835,6.21752577 28.4456311,6.11670103 L28.252233,6.2343299 C29.9283495,5.71340206 31.7172816,5.37731959 33.3128155,5.22608247 L33.1516505,5.05804124 C36.5683495,4.82278351 37.8093204,4.35226804 40.9359223,4.43628866 L40.8875728,4.48670103 C44.82,3.79773196 47.1407767,4.65474227 51.2343689,4.11701031 C50.7186408,4.1842268 51.46,4.21783505 51.4116505,4.26824742 C53.2972816,4.20103093 55.3118447,4.15061856 55.3440777,3.76412371 C56.7139806,3.76412371 56.472233,3.88175258 56.6495146,4.01618557 C56.6333981,3.84814433 57.8421359,3.76412371 58.9058252,3.74731959 L58.4062136,3.81453608 L61.484466,3.73051546 L60.8720388,3.41123711 C62.4998058,3.49525773 61.291068,3.79773196 62.8543689,3.69690722 L62.8382524,3.42804124 C65.0945631,3.46164948 66.432233,3.84814433 68.6079612,4.01618557 C77.6976699,4.04979381 87.4642718,3.27680412 95.9093204,3.66329897 L96.28,3.86494845 C96.441165,4.15061856 98.6007767,3.42804124 98.9231068,3.71371134 L99.9062136,3.59608247 C100.180194,3.64649485 100.760388,3.71371134 100.260777,3.78092784 C101.163301,3.81453608 101.179417,3.76412371 101.824078,3.69690722 L102.774951,3.91536082 C106.272233,4.2514433 109.286019,4.2514433 112.815534,5.31010309 C114.878447,6.06628866 117.827767,7.20896907 120.503107,8.93979381 C123.194563,10.6370103 125.499223,12.9895876 126.80466,14.9892784 C128.738641,17.7787629 129.625049,21.5596907 129.834563,25.3406186 C129.963495,27.2394845 129.931262,29.1551546 129.882913,31.0540206 C129.834563,32.9864948 129.818447,34.767732 129.48,36.3473196 C129.399417,36.5489691 129.302718,37.0530928 129.334951,37.0698969 C128.980388,37.9437113 128.496893,38.6662887 127.82,39.0863918 C127.17534,39.523299 126.256699,39.6913402 125.19301,39.8593814 C125.19301,39.8593814 124.725631,39.9097938 123.839223,40.1114433 C123.404078,40.212268 122.84,40.3635052 122.211456,40.6827835 C121.582913,41.0020619 120.938252,41.5061856 120.422524,42.1951546 C119.294369,43.6235052 119.165437,45.5559794 119.213786,47.0851546 C119.294369,48.6647423 119.52,50.0930928 119.632816,51.3197938 C119.939029,53.7395876 119.536117,55.2519588 119.955146,54.9998969 C120.132427,54.8486598 120.583689,54.193299 120.841553,52.6809278 C120.970485,51.9247423 121.051068,50.9669072 121.083301,49.8410309 C121.13165,48.7151546 121.099417,47.3540206 121.341165,45.9592784 L121.389515,46.1105155 C121.776311,42.7496907 123.581359,42.6824742 126.031068,41.9598969 C126.256699,42.111134 127.030291,42.0103093 127.900583,41.6742268 C128.803107,41.3381443 129.625049,40.5987629 129.995728,40.2626804 L129.947379,40.3635052 C131.623495,38.1789691 132.380971,35.5407216 132.268155,33.2721649 C132.284272,33.3561856 132.397087,33.4234021 132.364854,33.9443299 C132.42932,32.2639175 132.332621,30.1129897 132.542136,29.9617526 C132.493786,28.0292784 132.397087,25.6935052 132.042524,23.5425773 C131.720194,21.3916495 131.123883,19.4423711 130.559806,18.3164948 L130.672621,18.467732 C129.963495,17.2074227 130.027961,16.7201031 129.206019,15.3253608 C129.189903,15.2413402 129.15767,15.1237113 129.173786,15.1405155 C128.319612,13.8297938 126.691845,11.3259794 125.724854,10.5193814 L125.773204,10.3513402 C125.064078,9.61195876 124.290485,8.93979381 123.500777,8.30123711 L124.354951,9.05742268 C123.823107,9.12463918 122.775534,7.32659794 120.744854,6.40237113 C119.004272,5.27649485 116.780194,5.25969072 114.926796,4.38587629 C113.943689,4.2514433 115.845437,4.35226804 114.411068,4.03298969 C114.427184,3.81453608 115.104078,4.11701031 114.797864,3.83134021 C113.395728,3.46164948 112.55767,2.92391753 110.784854,2.67185567 L110.752621,2.48701031 C108.415728,2.31896907 106.433398,1.57958763 104.870097,1.73082474 C102.484854,1.69721649 103.29068,1.10907216 100.808738,1.3443299 L99.8578641,1.09226804 C98.7941748,1.04185567 99.1003883,1.36113402 97.9238835,1.24350515 C97.9883495,1.09226804 96.441165,1.12587629 97.1341748,0.991443299 C94.4749515,0.772989691 91.7834951,1.3443299 88.3184466,1.00824742 C87.5609709,1.29391753 85.8203883,1.14268041 85.2563107,1.36113402 C85.1596117,1.24350515 81.7590291,1.37793814 83.7091262,1.09226804 C83.8702913,1.07546392 84.1765049,1.07546392 84.1603883,1.12587629 L84.3860194,0.957835052 C82.4036893,0.672164948 80.7920388,1.15948454 78.8419417,1.12587629 C79.4221359,1.17628866 80.1957282,1.15948454 79.68,1.2771134 L77.858835,1.2771134 L78.2295146,1.14268041 L75.5219417,1.09226804 L75.8926214,1.26030928 C74.571068,1.19309278 74.1036893,0.890618557 72.6048544,1.15948454 C71.9279612,1.29391753 73.8619417,1.37793814 72.4598058,1.44515464 C70.6869903,1.3443299 68.027767,1.19309278 65.7714563,1.15948454 C65.9809709,1.3443299 65.3685437,1.3443299 64.7561165,1.39474227 L64.675534,1.22670103 C62.2741748,1.47876289 63.7891262,0.873814433 61.42,1.07546392 L61.6295146,0.957835052 L61.0009709,1.31072165 C58.8574757,1.66360825 59.8405825,0.974639175 57.4553398,1.44515464 C58.4062136,1.41154639 57.9066019,1.81484536 56.7462136,1.74762887 L57.0363107,1.57958763 C56.3916505,1.61319588 56.1821359,1.69721649 55.7469903,1.66360825 C56.1337864,1.57958763 55.9403883,1.42835052 55.0056311,1.46195876 L55.6341748,1.26030928 L53.8452427,1.57958763 C52.4592233,1.41154639 50.2834951,1.66360825 49.703301,1.42835052 C49.703301,1.42835052 46.7217476,1.3443299 46.0448544,1.61319588 C46.641165,1.44515464 44.9972816,1.41154639 45.4646602,1.22670103 C44.691068,1.41154639 42.4186408,1.61319588 41.4838835,1.47876289 L41.661165,1.44515464 C38.244466,1.39474227 35.8592233,2.05010309 32.7809709,2.23494845 C32.9421359,2.40298969 31.3143689,2.53742268 31.7495146,2.72226804 C28.6551456,3.44484536 25.9314563,3.41123711 25.0128155,4.48670103 C23.6267961,4.94041237 23.3205825,4.83958763 22.5953398,5.04123711 L22.9176699,4.89 C20.3551456,5.8814433 19.6460194,6.25113402 17.7926214,7.14175258 C16.9223301,7.69628866 16.9223301,8.06597938 15.3267961,8.92298969 C15.7619417,8.48608247 15.1333981,8.90618557 14.5693204,9.27587629 C14.9238835,9.02381443 15.0205825,8.88938144 14.2147573,9.30948454 C14.1341748,9.41030928 13.9730097,9.54474227 13.8440777,9.67917526 C13.8279612,9.67917526 13.7957282,9.69597938 13.8118447,9.66237113 C12.9093204,10.3849485 13.0866019,10.3009278 13.5378641,9.99845361 C13.5217476,10.0320619 13.5862136,10.0320619 13.7312621,9.96484536 C12.6353398,10.4857732 11.1042718,12.0149485 10.8625243,11.9309278 C8.26776699,14.3003093 6.89786408,16.4848454 5.44737864,19.022268 C5.17339806,19.2407216 5.44737864,18.6021649 5.86640777,17.8459794 C5.51184466,18.4509278 5.14116505,19.0390722 4.81883495,19.6608247 C4.67378641,19.5431959 5.33456311,18.5517526 5.6568932,17.9972165 C4.04524272,19.963299 3.38446602,22.6687629 2.51417476,25.5086598 C2.51417476,25.7271134 2.51417476,25.9287629 2.53029126,26.1472165 L2.48194175,26.3152577 C2.54640777,26.3152577 2.54640777,27.0042268 2.51417476,27.441134 C2.3368932,27.844433 2.14349515,27.3739175 2.07902913,28.8694845 C1.86951456,30.0625773 2.30466019,32.2975258 2.90097087,33.7426804 C2.67533981,32.9360825 2.83650485,33.1713402 2.9976699,33.4906186 C3.20718447,34.1963918 3.23941748,34.6501031 3.52951456,35.1542268 L3.36834951,35.3054639 C3.38446602,34.9693814 4.41592233,36.952268 4.68990291,37.1035052 C4.78660194,37.5572165 3.94854369,36.2128866 3.80349515,36.0784536 C4.54485437,37.3891753 4.80271845,37.6748454 5.02834951,37.9773196 C5.27009709,38.2629897 5.46349515,38.5990722 6.55941748,39.6241237 C7.88097087,40.5147423 6.46271845,39.2880412 7.15572816,39.6241237 C7.68757282,40.0442268 8.2838835,40.3803093 8.89631068,40.6827835 C9.25087379,40.8508247 9.44427184,40.9348454 9.68601942,41.0356701 C10.024466,41.0524742 9.92776699,41.4221649 9.92776699,41.7078351 C9.9761165,41.5734021 10.024466,41.4221649 10.088932,41.2541237 C10.121165,41.5229897 10.1533981,41.7582474 10.1695146,41.9935052 C10.2017476,42.2791753 10.2178641,42.5480412 10.2500971,42.8001031 C10.2823301,43.3210309 10.3145631,43.7915464 10.3467961,44.2452577 C10.3790291,45.1358763 10.3790291,45.9424742 10.3306796,46.7826804 C12.8448544,65.3176289 12.5547573,50.5804124 12.5547573,50.5804124 C12.5547573,48.7319588 12.5064078,47.1187629 12.4258252,45.6063918 C12.3774757,44.8502062 12.3291262,44.1108247 12.2807767,43.3714433 C12.2001942,42.4136082 12.1357282,41.4557732 12.0551456,40.481134 L12.0067961,39.9434021 L11.9906796,39.6745361 C12.0067961,39.5737113 11.8456311,39.5905155 11.781165,39.5401031 L10.7819417,39.1536082 C9.92776699,38.8343299 9.84718447,38.7671134 9.54097087,38.6158763 C8.9768932,38.3470103 8.44504854,37.9605155 7.89708738,37.49 C6.86563107,36.5825773 5.85029126,35.2382474 5.17339806,33.4402062 Z" id="Path"></path>
            </g>
            <g id="Group" transform="translate(62.854369, 18.484536)">
                <path d="M5.41514563,11.6452577 L5.52796117,11.678866 C5.51184466,11.6620619 5.47961165,11.6452577 5.41514563,11.6452577 Z" id="Path"></path>
                <path d="M26.7533981,3.66329897 L26.7695146,3.64649485 C26.7533981,3.66329897 26.7533981,3.66329897 26.7533981,3.66329897 Z" id="Path"></path>
                <polygon id="Path" points="9.54097087 12.905567 9.54097087 12.905567 9.52485437 12.9391753"></polygon>
                <path d="M5.17339806,14.3171134 C6.33378641,13.9810309 6.75281553,14.2162887 7.86485437,13.6449485 C8.42893204,13.4601031 8.99300971,13.1576289 9.52485437,12.9223711 C9.68601942,12.5526804 10.2339806,12.6535052 10.4757282,12.3174227 L10.6530097,12.4182474 C10.7335922,12.3006186 10.8302913,12.1997938 10.9753398,12.2502062 L10.9914563,12.3006186 C11.1042718,12.1325773 11.3137864,12.1325773 11.3621359,12.0485567 L11.3782524,12.0989691 L11.555534,12.0149485 L11.5394175,12.0821649 C11.7650485,11.8637113 12.0551456,11.7460825 12.3291262,11.7124742 L12.2485437,11.544433 C12.8609709,11.544433 12.9254369,11.0907216 13.4895146,11.1579381 L13.5056311,11.2083505 C13.9407767,10.5025773 14.5854369,11.1747423 15.0528155,10.4857732 C14.9883495,10.5697938 15.1172816,10.5697938 15.1333981,10.6202062 C15.4073786,10.4521649 15.6974757,10.317732 15.5846602,9.94804124 C15.7941748,9.88082474 15.7941748,9.99845361 15.8747573,10.1328866 C15.8264078,9.98164948 15.9875728,9.84721649 16.1487379,9.76319588 L16.1003883,9.84721649 L16.5516505,9.61195876 L16.3582524,9.34309278 C16.632233,9.34309278 16.5516505,9.67917526 16.761165,9.52793814 L16.6805825,9.27587629 C17.0351456,9.19185567 17.3735922,9.4943299 17.7765049,9.54474227 C19.2108738,9.12463918 20.4840777,7.94835052 21.9345631,7.89793814 L22.0634951,8.06597938 C22.1763107,8.33484536 22.2891262,7.52824742 22.4180583,7.76350515 L22.5308738,7.57865979 C22.5953398,7.61226804 22.6920388,7.62907216 22.6436893,7.71309278 C22.7887379,7.67948454 22.7726214,7.62907216 22.8532039,7.5114433 L23.0627184,7.62907216 C23.6590291,7.56185567 24.0135922,7.05773196 24.6099029,6.90649485 C25.4157282,6.99051546 26.624466,6.18391753 27.3174757,5.73020619 C28.2361165,4.92360825 29.8316505,5.54536082 30.7664078,4.68835052 C30.8147573,4.70515464 30.8792233,4.58752577 30.8631068,4.55391753 L31.8623301,4.21783505 C31.8623301,4.21783505 32.5231068,3.98257732 33.1194175,3.66329897 L32.4586408,2.82309278 C32.5875728,2.73907216 32.4747573,2.82309278 32.3135922,2.73907216 C32.1685437,2.65505155 32.1846602,2.60463918 32.2330097,2.70546392 C32.3458252,2.9743299 32.2330097,3.04154639 32.3135922,2.94072165 L32.3297087,2.92391753 L32.4264078,2.83989691 L32.4102913,2.85670103 L32.3780583,2.87350515 C32.3458252,2.9071134 32.3135922,2.94072165 32.2813592,2.9743299 C32.2168932,3.04154639 32.1363107,3.14237113 32.2007767,3.31041237 C32.2652427,3.46164948 32.5231068,3.6128866 32.8454369,3.52886598 C33.0066019,3.49525773 33.2,3.41123711 33.3772816,3.19278351 C33.5706796,3.00793814 33.6996117,2.40298969 33.3933981,1.94927835 L33.361165,1.9156701 L32.4264078,1.69721649 L32.2652427,1.66360825 L32.2652427,1.59639175 C31.668932,1.64680412 31.3143689,1.74762887 31.0403883,2.18453608 C30.8631068,1.84845361 30.5891262,2.31896907 30.4118447,2.23494845 L30.4118447,2.20134021 C30.1700971,2.60463918 29.6543689,2.21814433 29.4126214,2.58783505 C29.4126214,2.5542268 29.3803883,2.45340206 29.4609709,2.41979381 C29.2514563,2.5542268 28.9613592,2.75587629 28.8646602,2.5542268 C28.3328155,2.82309278 27.5269903,3.00793814 27.2852427,3.47845361 L27.2852427,3.41123711 C27.1563107,3.71371134 27.0273786,3.5456701 26.8500971,3.74731959 C26.8339806,3.73051546 26.8017476,3.71371134 26.8017476,3.69690722 C26.656699,3.99938144 26.1732039,3.9657732 26.0281553,4.13381443 L25.9636893,3.99938144 L25.5285437,4.20103093 L25.7058252,4.16742268 C25.7864078,4.57072165 25.2867961,4.04979381 25.061165,4.41948454 C24.738835,4.48670103 24.738835,5.44453608 24.3520388,5.37731959 C24.2714563,5.61257732 24.3842718,5.04123711 24.2069903,5.25969072 C24.1264078,5.05804124 24.2714563,5.09164948 24.1586408,4.95721649 C23.9813592,5.14206186 23.7396117,4.89 23.5139806,5.12525773 L23.4495146,4.97402062 C23.1916505,5.39412371 22.7242718,5.00762887 22.5792233,5.37731959 C22.2568932,5.64618557 22.1763107,5.00762887 21.9023301,5.44453608 L21.676699,5.29329897 C21.4994175,5.32690722 21.644466,5.5957732 21.4349515,5.56216495 C21.4027184,5.42773196 21.1770874,5.54536082 21.2415534,5.37731959 C20.7741748,5.31010309 20.5324272,5.98226804 19.8716505,5.83103093 C19.8394175,6.13350515 19.5332039,6.08309278 19.5009709,6.30154639 C19.4526214,6.20072165 18.9530097,6.48639175 19.1786408,6.11670103 C19.1947573,6.08309278 19.2431068,6.06628866 19.2592233,6.11670103 L19.2431068,5.94865979 C18.8401942,5.76381443 18.7434951,6.31835052 18.4372816,6.38556701 C18.5500971,6.40237113 18.6629126,6.35195876 18.6145631,6.48639175 L18.324466,6.57041237 L18.3405825,6.41917526 L17.9054369,6.50319588 L18.0182524,6.63762887 C17.7926214,6.63762887 17.6153398,6.38556701 17.4702913,6.70484536 C17.4058252,6.8728866 17.7442718,6.85608247 17.5347573,6.97371134 C17.2285437,6.95690722 16.761165,6.95690722 16.4066019,7.02412371 C16.503301,7.19216495 16.4066019,7.2257732 16.3260194,7.29298969 L16.2615534,7.14175258 C15.9714563,7.49463918 16.0036893,6.83927835 15.6974757,7.1585567 L15.6974757,7.04092784 L15.7135922,7.41061856 C15.4879612,7.84752577 15.4234951,7.14175258 15.1978641,7.71309278 C15.3267961,7.62907216 15.3912621,8.03237113 15.1817476,8.03237113 L15.1817476,7.8643299 C15.101165,7.93154639 15.0850485,8.01556701 15.004466,7.99876289 C15.036699,7.89793814 14.9561165,7.76350515 14.8271845,7.84752577 L14.8594175,7.62907216 L14.6821359,8.01556701 C14.4081553,7.93154639 14.1502913,8.26762887 13.9891262,8.08278351 C13.9891262,8.08278351 13.5056311,8.15 13.4733981,8.41886598 C13.5217476,8.23402062 13.247767,8.28443299 13.2638835,8.08278351 C13.1994175,8.28443299 12.9093204,8.55329897 12.6998058,8.4356701 L12.7159223,8.40206186 C12.1357282,8.41886598 11.9262136,8.97340206 11.3782524,8.92298969 C11.458835,9.09103093 11.1848544,9.09103093 11.3299029,9.29268041 C10.9269903,9.69597938 10.2984466,9.1414433 10.3790291,9.93123711 C10.1695146,10.048866 10.056699,9.86402062 9.9438835,9.86402062 L9.9761165,9.81360825 C9.58932039,10.0320619 9.47650485,10.0824742 9.17029126,10.1664948 C9.04135922,10.3009278 9.13805825,10.6370103 8.83184466,10.6538144 C8.88019417,10.4857732 8.76737864,10.5529897 8.67067961,10.5865979 C8.73514563,10.5361856 8.73514563,10.4857732 8.57398058,10.4521649 C8.57398058,10.5025773 8.54174757,10.5361856 8.52563107,10.5697938 C8.52563107,10.5529897 8.50951456,10.5529897 8.50951456,10.5361856 C8.36446602,10.6538144 8.39669903,10.6706186 8.47728155,10.6706186 C8.47728155,10.6874227 8.49339806,10.7210309 8.52563107,10.7378351 C8.2838835,10.6370103 8.04213592,10.9394845 7.94543689,10.7042268 C7.46194175,10.9394845 7.17184466,11.3259794 6.78504854,11.5612371 C6.70446602,11.4604124 6.75281553,11.3259794 6.86563107,11.2251546 L6.57553398,11.3763918 C6.52718447,11.2083505 6.72058252,11.2083505 6.80116505,11.141134 C6.34990291,11.006701 6.15650485,11.6956701 5.6568932,11.5948454 L5.60854369,11.7628866 L5.57631068,11.7460825 C5.60854369,11.813299 5.54407767,11.947732 5.47961165,11.9981443 C5.36679612,11.8805155 5.36679612,11.6620619 5.15728155,11.7460825 C4.94776699,11.6620619 4.72213592,11.9981443 4.52873786,12.1493814 C4.6576699,12.1325773 4.6415534,12.2334021 4.60932039,12.3006186 C4.51262136,12.3510309 4.39980583,12.2165979 4.33533981,12.3174227 L4.25475728,12.1157732 C4.36757282,12.2838144 4.06135922,12.4182474 4.04524272,12.5190722 C3.93242718,12.4014433 4.15805825,12.3342268 4.15805825,12.2165979 C3.75514563,12.3846392 3.94854369,12.3006186 3.54563107,12.4686598 C3.36834951,12.7039175 3.6584466,12.636701 3.61009709,12.8551546 C3.43281553,12.9727835 3.28776699,13.174433 3.01378641,13.1408247 L3.14271845,13.2920619 C2.82038835,13.5609278 2.59475728,13.6281443 2.28854369,13.5441237 C0.0483495146,16.0143299 2.38524272,15.7286598 2.38524272,15.7286598 C3.54563107,15.6614433 3.93242718,14.938866 5.17339806,14.3171134 Z" id="Path"></path>
            </g>
            <g id="Group" transform="translate(56.407767, 28.567010)">
                <path d="M6.57553398,12.6030928 L6.72058252,12.636701 C6.72058252,12.6030928 6.67223301,12.5862887 6.57553398,12.6030928 Z" id="Path"></path>
                <path d="M37.1163107,3.12556701 L37.1485437,3.10876289 C37.1163107,3.12556701 37.1163107,3.12556701 37.1163107,3.12556701 Z" id="Path"></path>
                <polygon id="Path" points="12.0229126 13.3928866 12.0067961 13.3928866 11.9906796 13.4264948"></polygon>
                <path d="M5.9631068,15.4261856 C7.55864078,14.9052577 8.10660194,15.1069072 9.66990291,14.3507216 C10.4596117,14.0986598 11.2654369,13.7121649 12.0067961,13.3928866 C12.2807767,12.9895876 13.0060194,13.04 13.3605825,12.6535052 L13.5700971,12.7543299 C13.6990291,12.6198969 13.8440777,12.5190722 14.0213592,12.5358763 L14.0213592,12.5862887 C14.1986408,12.4014433 14.4726214,12.3678351 14.5693204,12.2838144 L14.5693204,12.3342268 L14.8271845,12.2165979 L14.7949515,12.3006186 C15.1333981,12.0485567 15.5363107,11.8973196 15.9069903,11.8301031 L15.8264078,11.6620619 C16.6483495,11.6116495 16.7933981,11.141134 17.5508738,11.1579381 L17.5508738,11.2083505 C18.26,10.4353608 19.0174757,11.1075258 19.758835,10.3513402 C19.6621359,10.4521649 19.8394175,10.4353608 19.8394175,10.4857732 C20.2262136,10.3009278 20.6613592,10.1328866 20.5646602,9.76319588 C20.8708738,9.67917526 20.8386408,9.79680412 20.9192233,9.93123711 C20.8708738,9.76319588 21.1126214,9.62876289 21.3382524,9.54474227 L21.2415534,9.64556701 L21.9023301,9.37670103 L21.676699,9.10783505 C22.0634951,9.09103093 21.8700971,9.44391753 22.1924272,9.27587629 L22.1118447,9.02381443 C22.6114563,8.92298969 23.0143689,9.20865979 23.5462136,9.25907216 C25.5446602,8.77175258 27.5108738,7.5114433 29.4932039,7.4442268 L29.6221359,7.61226804 C29.7349515,7.88113402 30.0250485,7.05773196 30.1700971,7.29298969 L30.3473786,7.10814433 C30.4279612,7.14175258 30.5568932,7.1585567 30.4763107,7.25938144 C30.6858252,7.20896907 30.6697087,7.17536082 30.7986408,7.04092784 L31.0565049,7.1585567 C31.8784466,7.09134021 32.4586408,6.55360825 33.3128155,6.41917526 C34.3926214,6.52 36.1976699,5.71340206 37.2452427,5.25969072 C38.6796117,4.45309278 40.7102913,5.1756701 42.1768932,4.35226804 C42.2413592,4.38587629 42.3541748,4.26824742 42.3380583,4.23463918 L43.7885437,3.9657732 C43.7885437,3.9657732 50.8153398,2.63824742 45.0456311,1.37793814 L45.0778641,1.31072165 C44.2559223,1.32752577 43.7401942,1.39474227 43.256699,1.83164948 C43.095534,1.47876289 42.5959223,1.93247423 42.3864078,1.84845361 L42.4025243,1.81484536 C41.9834951,2.21814433 41.3549515,1.78123711 40.9359223,2.15092784 C40.9520388,2.11731959 40.9359223,2.01649485 41.0487379,1.9828866 C40.7264078,2.10051546 40.2751456,2.30216495 40.1945631,2.08371134 C39.3887379,2.3357732 38.244466,2.48701031 37.7932039,2.95752577 L37.8093204,2.89030928 C37.5675728,3.19278351 37.4386408,3.02474227 37.1324272,3.22639175 C37.1001942,3.20958763 37.0840777,3.19278351 37.0840777,3.17597938 C36.8100971,3.49525773 36.1493204,3.44484536 35.9236893,3.59608247 L35.8753398,3.46164948 L35.2467961,3.64649485 L35.4885437,3.6128866 C35.5046602,4.03298969 34.9405825,3.47845361 34.5376699,3.86494845 C34.0864078,3.93216495 33.8607767,4.92360825 33.361165,4.83958763 C33.1838835,5.07484536 33.4739806,4.48670103 33.1838835,4.70515464 C33.1194175,4.50350515 33.296699,4.5371134 33.1838835,4.38587629 C32.8937864,4.57072165 32.6198058,4.30185567 32.2652427,4.55391753 L32.2168932,4.40268041 C31.7817476,4.83958763 31.2176699,4.45309278 30.9436893,4.82278351 C30.4601942,5.09164948 30.4763107,4.43628866 30.008932,4.90680412 L29.751068,4.73876289 C29.5093204,4.77237113 29.6543689,5.05804124 29.3642718,5.00762887 C29.3481553,4.87319588 29.0097087,4.99082474 29.1225243,4.80597938 C28.4778641,4.75556701 28.0266019,5.44453608 27.1563107,5.29329897 C27.0596117,5.61257732 26.6405825,5.56216495 26.56,5.79742268 C26.5116505,5.67979381 25.7864078,5.99907216 26.1409709,5.62938144 C26.1732039,5.5957732 26.2376699,5.57896907 26.2537864,5.62938144 L26.2699029,5.46134021 C25.7541748,5.27649485 25.5285437,5.86463918 25.0772816,5.93185567 C25.2223301,5.94865979 25.3834951,5.8814433 25.3029126,6.03268041 L24.9,6.13350515 L24.9483495,5.98226804 L24.3359223,6.08309278 L24.4648544,6.21752577 C24.1425243,6.21752577 23.9652427,5.96546392 23.7073786,6.30154639 C23.5945631,6.46958763 24.0458252,6.43597938 23.7557282,6.58721649 C23.336699,6.58721649 22.7081553,6.60402062 22.1924272,6.70484536 C22.2891262,6.8728866 22.1601942,6.90649485 22.0312621,6.99051546 L21.9667961,6.83927835 C21.4994175,7.2257732 21.676699,6.55360825 21.1932039,6.88969072 L21.2093204,6.75525773 L21.1609709,7.12494845 C20.7741748,7.59546392 20.8064078,6.8728866 20.4196117,7.46103093 C20.6130097,7.37701031 20.6130097,7.78030928 20.3390291,7.7971134 L20.3551456,7.62907216 C20.2262136,7.71309278 20.1939806,7.78030928 20.0972816,7.78030928 C20.1617476,7.66268041 20.081165,7.54505155 19.8716505,7.62907216 L19.952233,7.39381443 L19.6460194,7.7971134 C19.2914563,7.72989691 18.8724272,8.08278351 18.6951456,7.91474227 C18.6951456,7.91474227 18.0182524,8.01556701 17.9376699,8.30123711 C18.0182524,8.11639175 17.6475728,8.16680412 17.6959223,7.96515464 C17.5831068,8.18360825 17.1157282,8.48608247 16.8739806,8.36845361 L16.9062136,8.33484536 C16.1165049,8.40206186 15.7297087,9.00701031 15.004466,9.00701031 C15.0850485,9.17505155 14.7143689,9.19185567 14.875534,9.41030928 C14.2631068,9.86402062 13.4895146,9.35989691 13.4733981,10.1664948 C13.183301,10.317732 13.0543689,10.1160825 12.8770874,10.1496907 L12.9415534,10.0824742 C12.3774757,10.3513402 12.2163107,10.4017526 11.781165,10.5361856 C11.587767,10.6874227 11.6683495,11.0235052 11.2654369,11.0907216 C11.3460194,10.9058763 11.2009709,10.9898969 11.0559223,11.0403093 C11.1365049,10.9898969 11.1526214,10.9226804 10.9269903,10.9058763 C10.9108738,10.9562887 10.8786408,10.9898969 10.8464078,11.0403093 C10.8464078,11.0235052 10.8302913,11.0235052 10.8302913,11.006701 C10.6046602,11.141134 10.6691262,11.1747423 10.7819417,11.141134 C10.7819417,11.1579381 10.7980583,11.1915464 10.8464078,11.2083505 C10.5401942,11.1243299 10.1533981,11.4772165 10.056699,11.2587629 C9.36368932,11.5780412 8.92854369,11.9981443 8.36446602,12.3006186 C8.25165049,12.1997938 8.36446602,12.0485567 8.50951456,11.947732 L8.10660194,12.1493814 C8.05825243,11.9813402 8.3161165,11.9645361 8.42893204,11.8805155 C7.83262136,11.7964948 7.49417476,12.5358763 6.81728155,12.5190722 L6.73669903,12.7039175 L6.68834951,12.6871134 C6.72058252,12.7543299 6.6238835,12.905567 6.54330097,12.9559794 C6.41436893,12.8383505 6.43048544,12.6198969 6.14038835,12.7375258 C5.86640777,12.6871134 5.51184466,13.0568041 5.23786408,13.2584536 C5.41514563,13.2248454 5.38291262,13.3256701 5.33456311,13.3928866 C5.18951456,13.4601031 5.06058252,13.3424742 4.9638835,13.443299 L4.88330097,13.2584536 C5.01223301,13.4264948 4.57708738,13.6113402 4.54485437,13.7121649 C4.41592233,13.5945361 4.72213592,13.4937113 4.72213592,13.3760825 C4.14194175,13.6281443 4.43203883,13.4937113 3.86796117,13.7457732 C3.61009709,14.0146392 3.9968932,13.9138144 3.90019417,14.1490722 C3.6423301,14.3003093 3.43281553,14.535567 3.06213592,14.535567 L3.22330097,14.67 C2.75592233,15.0060825 2.44970874,15.1237113 2.04679612,15.073299 C-1.20873786,18.0476289 1.9823301,17.3418557 1.9823301,17.3418557 C3.6423301,17.0729897 4.22252427,16.2663918 5.9631068,15.4261856 Z" id="Path"></path>
            </g>
            <g id="Group" transform="translate(11.281553, 67.216495)">
                <path d="M4.73825243,11.4268041 L4.6415534,11.5948454 C4.67378641,11.5948454 4.72213592,11.5612371 4.73825243,11.4268041 Z" id="Path"></path>
                <path d="M4.60932039,59.0160825 C4.60932039,59.0328866 4.62543689,59.0328866 4.62543689,59.0664948 C4.62543689,59.0328866 4.60932039,59.0160825 4.60932039,59.0160825 Z" id="Path"></path>
                <path d="M1.38601942,18.4509278 C1.38601942,18.4173196 1.38601942,18.4173196 1.36990291,18.3837113 L1.38601942,18.4509278 Z" id="Path"></path>
                <path d="M2.77203883,8.7885567 C2.30466019,11.3091753 1.90174757,11.9309278 1.70834951,14.5859794 C1.54718447,15.8462887 1.48271845,17.1906186 1.40213592,18.4341237 C1.59553398,19.0390722 1.27320388,20.0473196 1.43436893,20.7698969 L1.25708738,21.0219588 C1.3215534,21.2740206 1.35378641,21.5596907 1.24097087,21.7781443 L1.19262136,21.7613402 C1.28932039,22.1310309 1.17650485,22.5175258 1.22485437,22.7023711 L1.17650485,22.685567 L1.16038835,23.1224742 L1.09592233,23.0384536 C1.16038835,23.6770103 1.14427184,24.315567 1.06368932,24.8701031 L1.25708738,24.8364948 C0.983106796,26.0295876 1.35378641,26.5001031 1.04757282,27.575567 L0.999223301,27.5587629 C1.41825243,28.9535052 0.59631068,29.7264948 1.01533981,31.1716495 C0.966990291,30.9868041 0.918640777,31.238866 0.870291262,31.2220619 C0.902524272,31.8774227 0.918640777,32.5831959 1.28932039,32.6 C1.27320388,33.0705155 1.16038835,32.9864948 1.01533981,33.0537113 C1.17650485,33.0537113 1.24097087,33.4738144 1.25708738,33.8435052 L1.19262136,33.6754639 L1.24097087,34.7509278 L1.54718447,34.5492784 C1.45048544,35.1206186 1.17650485,34.6837113 1.24097087,35.2382474 L1.49883495,35.2382474 C1.45048544,36.0112371 1.06368932,36.4817526 0.870291262,37.2379381 C0.789708738,40.3971134 1.54718447,43.7579381 1.27320388,46.6986598 L1.09592233,46.8330928 C0.821941748,46.9003093 1.56330097,47.6060825 1.30543689,47.7405155 L1.45048544,48.0765979 C1.40213592,48.1774227 1.36990291,48.3790722 1.28932039,48.2110309 C1.30543689,48.5303093 1.35378641,48.5303093 1.45048544,48.7487629 L1.30543689,49.1016495 C1.27320388,50.3619588 1.6438835,51.3870103 1.72446602,52.697732 C1.51495146,54.2941237 2.14349515,57.2180412 2.56252427,58.8816495 C3.23941748,61.2006186 2.59475728,64.1245361 3.44893204,66.4771134 C3.41669903,66.561134 3.54563107,66.7459794 3.57786408,66.7459794 L3.93242718,68.9641237 C3.93242718,68.9641237 4.02912621,69.6362887 4.23864078,70.5101031 C4.43203883,71.3839175 4.72213592,72.4425773 5.01223301,73.2491753 C5.59242718,74.845567 6.25320388,75.3328866 6.57553398,71.0814433 L6.64,71.1150515 C6.54330097,69.9051546 6.43048544,69.1489691 5.99533981,68.3759794 C6.33378641,68.1743299 5.86640777,67.3845361 5.93087379,67.0820619 L5.9631068,67.098866 C5.56019417,66.426701 5.93087379,65.5528866 5.56019417,64.8975258 C5.59242718,64.9143299 5.68912621,64.9143299 5.72135922,65.0823711 C5.59242718,64.5782474 5.41514563,63.8892784 5.62466019,63.8220619 C5.38291262,62.6121649 5.22174757,60.8813402 4.78660194,60.1419588 L4.85106796,60.1923711 C4.56097087,59.772268 4.73825243,59.6210309 4.56097087,59.1337113 C4.59320388,59.1001031 4.59320388,59.0664948 4.60932039,59.0664948 C4.3192233,58.6127835 4.39980583,57.6381443 4.25475728,57.2516495 L4.39980583,57.2012371 L4.23864078,56.2265979 L4.25475728,56.5962887 C3.85184466,56.512268 4.39980583,55.823299 4.09359223,55.151134 C4.07747573,54.4789691 3.14271845,53.8908247 3.27165049,53.1682474 C3.06213592,52.8489691 3.59398058,53.4203093 3.41669903,52.9497938 C3.62621359,52.9161856 3.56174757,53.1682474 3.72291262,53.0170103 C3.57786408,52.5464948 3.85184466,52.2104124 3.6584466,51.622268 L3.81961165,51.5886598 C3.46504854,50.8324742 3.91631068,50.0930928 3.61009709,49.6057732 C3.41669903,48.8159794 4.04524272,49.034433 3.67456311,48.2110309 L3.86796117,47.8749485 C3.88407767,47.5220619 3.57786408,47.6396907 3.6584466,47.2363918 C3.80349515,47.2531959 3.72291262,46.732268 3.88407767,46.9507216 C4.04524272,46.043299 3.49728155,45.1526804 3.80349515,43.9427835 C3.52951456,43.6907216 3.6584466,43.1025773 3.44893204,42.917732 C3.56174757,42.8841237 3.41669903,41.7246392 3.69067961,42.38 C3.70679612,42.4304124 3.72291262,42.5312371 3.67456311,42.5312371 L3.83572816,42.5984536 C4.09359223,41.9094845 3.6423301,41.3717526 3.6584466,40.7163918 C3.61009709,40.9180412 3.62621359,41.1869072 3.51339806,41.0020619 L3.51339806,40.3803093 L3.6423301,40.4979381 L3.70679612,39.5737113 L3.54563107,39.7081443 C3.62621359,39.254433 3.90019417,39.0863918 3.6584466,38.582268 C3.52951456,38.3470103 3.44893204,39.0191753 3.38446602,38.5318557 C3.48116505,37.9269072 3.6423301,37.0194845 3.69067961,36.2464948 C3.51339806,36.3137113 3.51339806,36.1120619 3.48116505,35.8936082 L3.6423301,35.8768041 C3.41669903,35.0534021 3.9968932,35.5743299 3.81961165,34.767732 L3.93242718,34.8349485 L3.59398058,34.6164948 C3.27165049,33.8771134 3.93242718,34.23 3.49728155,33.4065979 C3.52951456,33.7258763 3.14271845,33.5578351 3.20718447,33.1545361 L3.36834951,33.2553608 C3.3361165,33.0369072 3.27165049,32.9528866 3.3038835,32.8184536 C3.38446602,32.9528866 3.52951456,32.8856701 3.51339806,32.5663918 L3.70679612,32.7848454 L3.43281553,32.1630928 C3.61009709,31.6925773 3.41669903,30.9363918 3.6423301,30.7515464 C3.6423301,30.7515464 3.77126214,29.743299 3.54563107,29.5080412 C3.69067961,29.7096907 3.75514563,29.1551546 3.93242718,29.3231959 C3.77126214,29.0543299 3.6584466,28.2813402 3.85184466,27.978866 L3.86796117,28.0460825 C4.10970874,26.9034021 3.72291262,26.08 3.9968932,25.0549485 C3.80349515,25.0885567 3.93242718,24.5508247 3.69067961,24.6684536 C3.49728155,23.5761856 4.3192233,22.7695876 3.59398058,22.3158763 C3.59398058,21.8285567 3.80349515,21.7613402 3.86796117,21.5092784 L3.90019417,21.6269072 C3.91631068,20.7194845 3.93242718,20.4506186 3.9968932,19.7784536 C3.94854369,19.4423711 3.61009709,19.3415464 3.75514563,18.7534021 C3.86796117,18.9550515 3.86796117,18.7197938 3.90019417,18.4845361 C3.90019417,18.6357732 3.94854369,18.6861856 4.07747573,18.4005155 C4.04524272,18.3501031 4.01300971,18.2828866 4.01300971,18.2324742 C4.02912621,18.2324742 4.02912621,18.2156701 4.04524272,18.2324742 C4.02912621,17.8459794 3.9807767,17.9131959 3.94854369,18.0812371 C3.93242718,18.064433 3.90019417,18.0812371 3.85184466,18.1316495 C4.06135922,17.7619588 3.94854369,17.0393814 4.19029126,17.0225773 C4.25475728,15.896701 4.07747573,15.0564948 4.12582524,14.0986598 C4.25475728,14.0146392 4.33533981,14.2498969 4.35145631,14.5187629 L4.39980583,13.8465979 C4.57708738,13.8802062 4.44815534,14.2330928 4.46427184,14.4515464 C4.85106796,13.6953608 4.39980583,12.7879381 4.77048544,11.8973196 L4.6576699,11.678866 L4.68990291,11.6284536 C4.62543689,11.6284536 4.54485437,11.3931959 4.54485437,11.2587629 C4.70601942,11.141134 4.88330097,11.3259794 4.93165049,10.8554639 C5.10893204,10.5193814 4.9961165,9.81360825 4.9961165,9.32628866 C4.93165049,9.57835052 4.86718447,9.47752577 4.81883495,9.35989691 C4.85106796,9.12463918 5.01223301,9.02381443 4.98,8.83896907 L5.18951456,8.8557732 C4.98,8.92298969 5.07669903,8.21721649 5.01223301,8.13319588 C5.17339806,8.03237113 5.09281553,8.5028866 5.18951456,8.58690722 C5.3184466,7.66268041 5.25398058,8.13319588 5.36679612,7.20896907 C5.28621359,6.68804124 5.15728155,7.25938144 5.02834951,7.00731959 C5.06058252,6.57041237 4.98,6.11670103 5.17339806,5.64618557 L4.9638835,5.76381443 C4.9638835,4.92360825 5.07669903,4.43628866 5.35067961,3.93216495 C5.17339806,0.772989691 4.75436893,0.336082474 4.35145631,0.705773196 C3.96466019,1.07546392 3.61009709,2.2685567 3.61009709,2.2685567 C2.73980583,4.5371134 3.06213592,5.89824742 2.77203883,8.7885567 Z" id="Path"></path>
            </g>
        </g>
    </g>
</svg>