<?xml version="1.0" encoding="UTF-8"?>
<svg width="163px" height="168px" viewBox="0 0 163 168" version="1.1" xmlns="http://www.w3.org/2000/svg" xmlns:xlink="http://www.w3.org/1999/xlink">
    <!-- Generator: Sketch 52.6 (67491) - http://www.bohemiancoding.com/sketch -->
    <title>4</title>
    <desc>Created with Sketch.</desc>
    <g id="Page-1" stroke="none" stroke-width="1" fill="none" fill-rule="evenodd" opacity="0.0979352679">
        <g id="4" fill="#606060">
            <g id="Group" transform="translate(26.000000, 105.000000)">
                <path d="M6.23294118,24.7402703 L6.21588235,25.0978378 C6.25,25.0978378 6.26705882,25.0127027 6.23294118,24.7402703 Z" id="Path"></path>
                <path d="M17.27,16.2267568 C17.2529412,16.1927027 17.2529412,16.1756757 17.2358824,16.1416216 C17.2529412,16.1927027 17.27,16.2267568 17.27,16.2267568 Z" id="Path"></path>
                <path d="M6.18176471,38.8727027 L6.18176471,38.8556757 C6.16470588,38.8216216 6.16470588,38.8045946 6.14764706,38.7705405 L6.18176471,38.8727027 Z" id="Path"></path>
                <path d="M3.02588235,20.9262162 C3.79352941,25.6427027 3.65705882,26.9537838 4.69764706,31.7894595 C5.09,34.1221622 5.63588235,36.5740541 6.16470588,38.8386486 C6.67647059,39.8602703 6.79588235,41.8183784 7.29058824,43.0443243 L7.23941176,43.5721622 C7.41,43.9978378 7.58058824,44.4916216 7.58058824,44.9683784 L7.52941176,44.9513514 C7.78529412,45.5813514 7.87058824,46.3475676 7.99,46.6540541 L7.93882353,46.637027 L8.12647059,47.4372973 L8.02411765,47.3181081 C8.38235294,48.4418919 8.63823529,49.6167568 8.80882353,50.6724324 L8.97941176,50.5362162 C9.30352941,52.8178378 9.91764706,53.532973 10.4976471,55.6613514 L10.4464706,55.6443243 C11.2482353,56.8191892 11.7258824,57.8067568 12.4082353,58.7943243 C13.0735294,59.7478378 13.9264706,60.7013514 15.4276471,61.2462162 C15.0523529,61.11 15.53,61.4164865 15.4788235,61.4505405 C16.7923529,62.1145946 18.4641176,62.2678378 18.4982353,61.8591892 C19.5388235,61.9102703 19.3511765,61.9783784 19.5047059,62.1316216 C19.4876471,61.9613514 20.4088235,61.8421622 21.1764706,61.5527027 L20.8352941,61.722973 C21.5858824,61.5016216 22.2852941,61.127027 22.8994118,60.7013514 C22.7117647,60.7013514 22.5411765,60.6843243 22.3535294,60.6672973 C23.3770588,60.1054054 22.8482353,60.8545946 23.7011765,60.0883784 L23.5135294,59.9010811 C24.7076471,58.8794595 25.5947059,58.3345946 26.4988235,56.9554054 C28.0170588,53.8054054 27.5735294,50.2978378 26.9082353,47.3351351 C26.1917647,44.3213514 25.4070588,41.5459459 25.0147059,38.8045946 L25.1511765,38.5151351 C25.4070588,38.3448649 24.3835294,37.152973 24.5882353,36.8805405 L24.3152941,36.2845946 C24.3323529,36.0972973 24.2982353,35.7227027 24.4347059,36.0121622 C24.3152941,35.4332432 24.2641176,35.4332432 24.0764706,35.0416216 L24.1105882,34.3775676 C23.7182353,32.0789189 22.9164706,30.24 22.4217647,27.8562162 C22.0976471,24.9105405 20.4941176,19.6151351 19.5558824,16.5672973 C18.8223529,14.4389189 18.4470588,12.0381081 18.0547059,9.6372973 C17.85,8.42837838 17.6623529,7.21945946 17.4064706,6.04459459 C17.2870588,5.44864865 17.1505882,4.86972973 16.9970588,4.30783784 C16.7923529,3.62675676 16.6047059,2.94567568 16.3829412,2.21351351 C16.3658824,1.94108108 16.1270588,1.36216216 16.0929412,1.39621622 L15.9905882,0.970540541 C15.8882353,0.919459459 15.7176471,0.936486486 15.5811765,0.919459459 L14.7111765,0.885405405 L13.1758824,0.851351351 C12.4423529,0.851351351 11.7258824,0.868378378 10.9923529,0.919459459 C10.9923529,0.919459459 9.66176471,0.987567568 7.95588235,1.31108108 C6.25,1.61756757 4.18588235,2.21351351 2.68470588,2.89459459 C1.18352941,3.57567568 0.262352941,4.23972973 0.637647059,4.42702703 C1.03,4.66540541 2.68470588,4.23972973 6.47176471,3.93324324 L6.38647059,4.01837838 C8.58705882,3.66081081 9.95176471,3.55864865 11.47,3.11594595 C11.6064706,3.30324324 12.05,3.28621622 12.5447059,3.25216216 C13.0052941,3.21810811 13.6705882,3.16702703 13.6364706,3.21810811 L13.6194118,3.25216216 C13.7558824,3.18405405 13.9435294,3.16702703 14.08,3.16702703 C14.1994118,3.20108108 14.1482353,3.45648649 14.1652941,3.5927027 C14.1652941,3.67783784 14.1652941,3.71189189 14.1652941,3.83108108 C14.1994118,4.01837838 14.2335294,4.18864865 14.2676471,4.35891892 C14.3358824,4.69945946 14.4382353,5.04 14.5747059,5.34648649 C14.5235294,5.29540541 14.4211765,5.29540541 14.3358824,5.00594595 C14.6088235,5.95945946 15.0011765,7.23648649 14.7964706,7.35567568 C15.3935294,9.62027027 16.0588235,12.8383784 16.7582353,14.2175676 L16.6729412,14.1324324 C17.1164706,14.9156757 16.9629412,15.2051351 17.3041176,16.1075676 C17.2870588,16.1586486 17.2870588,16.2267568 17.27,16.2267568 C17.7305882,17.0781081 17.9352941,18.8659459 18.2082353,19.5810811 L18.0717647,19.6662162 L18.5323529,21.4710811 L18.3958824,20.79 C18.8564706,20.9262162 18.4641176,22.2202703 19.0441176,23.4632432 C19.2829412,24.7062162 20.4770588,25.7618919 20.5794118,27.072973 C20.9205882,27.6348649 20.1358824,26.6132432 20.5111765,27.4816216 C20.3064706,27.5667568 20.2723529,27.09 20.17,27.3624324 C20.4770588,28.2308108 20.3064706,28.8778378 20.6988235,29.9505405 L20.5452941,30.0356757 C21.1935294,31.3978378 20.9717647,32.7940541 21.4835294,33.6794595 C21.9782353,35.1267568 21.2276471,34.7862162 21.9270588,36.2505405 L21.8417647,36.8975676 C21.9611765,37.5616216 22.2341176,37.3062162 22.3023529,38.0554054 C22.1488235,38.0383784 22.4047059,39.0089189 22.1829412,38.6172973 C22.3535294,40.32 23.2917647,41.9035135 23.4452941,44.1851351 C23.8376471,44.5937838 23.9229412,45.7175676 24.2129412,46.0240541 C24.1105882,46.1091892 24.6564706,48.1864865 24.1447059,47.0286486 C24.0935294,46.9264865 24.0594118,46.7391892 24.1105882,46.7562162 L23.9229412,46.6540541 C23.8717647,47.9310811 24.5370588,48.8164865 24.6223529,50.0083784 C24.6394118,49.6508108 24.5711765,49.1910811 24.7247059,49.4805405 C24.7588235,49.8551351 24.7929412,50.2127027 24.81,50.5872973 L24.6564706,50.3659459 C24.6735294,50.9108108 24.6564706,51.4386486 24.6223529,51.9664865 L24.7929412,51.7451351 C24.6905882,52.5283784 24.3835294,52.7497297 24.5029412,53.6181081 C24.5711765,54.0267568 24.8441176,52.937027 24.7758824,53.7543243 C24.52,54.7418919 23.8205882,56.052973 23.0529412,56.9894595 C23.2747059,57.0064865 23.07,57.2789189 22.8823529,57.5683784 L22.7288235,57.4832432 C22.0123529,58.5559459 22.1658824,57.6024324 21.3641176,58.4537838 L21.3811765,58.3005405 L21.3129412,58.7772973 C20.4770588,59.5605405 20.6988235,58.7602703 19.7094118,59.4924324 C20.1529412,59.3562162 20.0164706,59.85 19.3852941,59.832973 L19.5217647,59.6627027 C19.1976471,59.7308108 19.0952941,59.7989189 18.8735294,59.7648649 C19.0782353,59.6627027 18.9758824,59.5435135 18.5152941,59.5264865 L18.8394118,59.3562162 C18.5494118,59.4413514 18.2423529,59.5094595 17.9182353,59.5264865 C17.2870588,59.237027 16.1611765,58.8283784 16.0417647,58.4367568 C16.0076471,58.4708108 14.8817647,57.347027 14.4894118,57.1767568 C14.8135294,57.33 14.3017647,56.5978378 14.6088235,56.682973 C14.1994118,56.4956757 13.3976471,55.44 13.3635294,54.8610811 L13.4317647,54.9462162 C12.8005882,53.1072973 11.9817647,51.8132432 11.7770588,49.8551351 C11.6064706,49.9913514 11.5041176,48.9527027 11.2994118,49.2762162 C10.6511765,47.3691892 11.0605882,45.5643243 10.1564706,45.0364865 C9.93470588,44.1510811 10.1223529,43.9297297 10.0541176,43.47 L10.1394118,43.6743243 C9.73,42.0056757 9.62764706,41.5289189 9.38882353,40.2689189 C9.18411765,39.6559459 8.80882353,39.6389189 8.67235294,38.4981081 C8.89411765,38.8386486 8.77470588,38.3789189 8.68941176,37.9702703 C8.77470588,38.2256757 8.84294118,38.3108108 8.80882353,37.7318919 C8.74058824,37.6637838 8.68941176,37.5445946 8.65529412,37.4424324 C8.67235294,37.4424324 8.67235294,37.4083784 8.68941176,37.4254054 C8.50176471,36.7443243 8.48470588,36.8635135 8.51882353,37.187027 C8.50176471,37.17 8.46764706,37.2040541 8.45058824,37.3232432 C8.48470588,36.557027 8.00705882,35.3140541 8.24588235,35.1778378 C7.80235294,33.0664865 7.27352941,31.6021622 6.84705882,29.8654054 C6.93235294,29.6440541 7.12,30.0356757 7.25647059,30.5294595 L6.98352941,29.2864865 C7.17117647,29.2694595 7.22235294,29.9845946 7.32470588,30.3591892 C7.34176471,28.8267568 6.47176471,27.3454054 6.42058824,25.5575676 L6.21588235,25.217027 L6.21588235,25.1148649 C6.14764706,25.1318919 5.96,24.7572973 5.89176471,24.5018919 C6.01117647,24.2294595 6.25,24.4508108 6.09647059,23.5994595 C6.13058824,22.8843243 5.67,21.6754054 5.41411765,20.807027 C5.48235294,21.3008108 5.36294118,21.1475676 5.26058824,20.9602703 C5.17529412,20.5345946 5.29470588,20.2451351 5.15823529,19.9386486 L5.36294118,19.8535135 C5.19235294,20.0578378 4.93647059,18.7637838 4.81705882,18.6275676 C4.93647059,18.3551351 5.07294118,19.2745946 5.20941176,19.3597297 C4.86823529,17.64 5.03882353,18.4913514 4.69764706,16.7716216 C4.37352941,15.8862162 4.52705882,16.9759459 4.25411765,16.5672973 C4.06647059,15.767027 3.77647059,15.0008108 3.72529412,14.0302703 L3.58882353,14.3537838 C3.16235294,12.8554054 3.00882353,11.9359459 3.00882353,10.8632432 C-0.607647059,-0.255405405 0.484117647,8.83702703 0.484117647,8.83702703 C0.927647059,13.4002703 1.9,15.6137838 3.02588235,20.9262162 Z" id="Path"></path>
            </g>
            <g id="Group">
                <path d="M15.4765957,69.8133333 L15.3574468,69.06 C15.3234043,69.0771212 15.3404255,69.2825758 15.4765957,69.8133333 Z" id="Path"></path>
                <path d="M77.8085106,75.6516667 L77.8595745,75.8228788 C77.8425532,75.7030303 77.8255319,75.6516667 77.8085106,75.6516667 Z" id="Path"></path>
                <path d="M10.1659574,40.5531818 C10.1659574,40.570303 10.1659574,40.5874242 10.1829787,40.5874242 C10.2,40.6559091 10.2340426,40.7072727 10.2510638,40.7757576 L10.1659574,40.5531818 Z" id="Path"></path>
                <path d="M20.3106383,78.0657576 C17.6893617,68.2039394 17.3319149,65.4987879 14.3702128,55.3630303 C13.0595745,50.5006061 11.5446809,45.33 10.1829787,40.6045455 C9.28085106,38.4301515 8.46382979,34.3724242 7.49361702,31.77 L7.35744681,30.6913636 C7.01702128,29.8010606 6.67659574,28.7224242 6.50638298,27.7807576 L6.57446809,27.8321212 C6.08085106,26.4966667 5.72340426,24.9215152 5.46808511,24.2537879 L5.53617021,24.3051515 L5.05957447,22.6443939 L5.19574468,22.9183333 C4.80425532,21.7369697 4.42978723,20.5384848 4.0893617,19.34 C3.73191489,18.1586364 3.49361702,17.0971212 3.56170213,16.3095455 L3.35744681,16.4465152 C3.52765957,14.7001515 4.54893617,13.929697 5.70638298,13.2277273 C6.91489362,12.5771212 8.27659574,12.1490909 10.3702128,11.9093939 L10.3191489,11.9607576 C15.612766,10.4712121 18.8978723,10.7793939 24.3617021,9.28984848 C23.6808511,9.47818182 24.6680851,9.34121212 24.6340426,9.39257576 C27.187234,8.87893939 29.9106383,8.36530303 29.8765957,7.97151515 C31.7489362,7.64621212 31.4085106,7.81742424 31.6808511,7.92015152 C31.6468085,7.74893939 33.2468085,7.38939394 34.693617,7.11545455 L34.0297872,7.30378788 L38.1829787,6.49909091 L37.3148936,6.32787879 C39.5446809,6.01969697 37.9446809,6.61893939 40.0553191,6.15666667 L39.987234,5.89984848 C43.0510638,5.40333333 44.9234043,5.47181818 47.9191489,5.14651515 C51,4.61575758 54.1319149,4.03363636 57.2808511,3.43439394 C58.0978723,3.28030303 58.7957447,3.12621212 59.1702128,3.21181818 C59.493617,3.28030303 59.6638298,3.3830303 59.9191489,3.96515152 C60.1404255,4.49590909 60.293617,5.31772727 60.4808511,6.10530303 L61.0255319,8.45090909 C62.4723404,14.7001515 63.8510638,20.8466667 64.8553191,26.6165152 L64.7702128,27.1643939 C64.5319149,27.4383333 65.8765957,30.2290909 65.706383,30.7256061 L66.1319149,32.0268182 C66.1659574,32.4034848 66.2851064,33.2081818 66.0638298,32.5575758 C66.3191489,33.790303 66.3702128,33.8074242 66.6425532,34.6806061 L66.7446809,36.0331818 C67.6468085,40.9127273 68.8893617,44.9704545 69.9276596,50.089697 C70.8978723,56.304697 73.7234043,67.7759091 75.3404255,74.384697 C75.6468085,75.5318182 75.9361702,76.7474242 76.1914894,77.9116667 C76.4297872,79.0587879 76.5148936,80.1887879 76.106383,80.9763636 C75.7148936,81.7639394 74.8297872,82.294697 73.706383,82.6028788 C72.6170213,82.9110606 71.306383,83.0822727 70.0297872,83.3048485 C64.9234043,84.1780303 59.8,85.0683333 55.0851064,86.2839394 C54.7617021,86.3010606 53.9787234,86.5578788 53.9957447,86.5921212 L45.2638298,88.3556061 C45.2638298,88.3556061 2.89787234,96.9504545 35.5617021,92.7215152 L35.3574468,92.8242424 C40.1744681,92.0024242 43.187234,91.4031818 46.4212766,90.4101515 C47.0170213,90.6840909 50.3531915,89.639697 51.493617,89.5369697 L51.3914894,89.5883333 C54.2510638,88.6980303 57.4510638,88.595303 60.2085106,87.7563636 C60.106383,87.8077273 60.0723404,87.9275758 59.4255319,88.0645455 C61.4680851,87.6022727 64.2425532,86.9345455 64.4468085,87.1228788 C66.8978723,86.6092424 69.8085106,85.9928788 72.5148936,85.4107576 C73.893617,85.1025758 75.3914894,84.7087879 76.6,83.8013636 C77.8595745,82.8939394 78.4382979,81.3530303 78.4212766,80.3771212 L78.4382979,80.6681818 C78.4893617,79.5039394 78.3702128,78.8704545 78.2851064,78.2027273 C78.1829787,77.535 78.0638298,76.8843939 77.7914894,75.9084848 C77.7914894,75.7886364 77.7744681,75.6516667 77.7914894,75.6687879 C77.1276596,73.7683333 76.5319149,69.9845455 76.0893617,68.4265152 L76.2085106,68.2895455 L75.3404255,64.4030303 L75.6297872,65.8583333 C75.1191489,65.4474242 75.2553191,62.8621212 74.3702128,60.1056061 C73.8595745,57.4518182 72.3617021,54.935 71.9702128,52.1613636 C71.493617,50.8943939 72.5319149,53.24 71.9531915,51.3224242 C72.1574468,51.219697 72.2765957,52.2127273 72.3446809,51.6648485 C71.8340426,49.7643939 71.8851064,48.480303 71.2212766,46.134697 L71.3744681,45.9977273 C70.4042553,42.9843939 70.3361702,40.1251515 69.6042553,38.1390909 C68.787234,34.9887879 69.6382979,35.8962121 68.6,32.660303 L68.5489362,31.3248485 C68.2765957,29.9037879 68.0553191,30.3660606 67.8170213,28.7737879 C67.987234,28.8422727 67.493617,26.7706061 67.8340426,27.6609091 C67.2893617,24.0483333 65.9617021,20.5042424 65.3148936,15.7445455 C64.8212766,14.7857576 64.4808511,12.3887879 64.106383,11.6868182 C64.1914894,11.5327273 63.1021277,6.96136364 63.9361702,9.54666667 C64.0042553,9.76924242 64.0893617,10.1801515 64.0382979,10.1630303 L64.2765957,10.4369697 C64.1404255,9.06727273 63.8340426,7.86878788 63.493617,6.67030303 C63.3234043,6.07106061 63.1531915,5.47181818 62.9829787,4.87257576 C62.812766,4.29045455 62.6765957,3.55424242 62.3191489,2.71530303 C62.7106383,3.75969697 62.8638298,4.82121212 62.6085106,4.10212121 C62.387234,3.24606061 62.1148936,2.03045455 60.906383,1.15727273 C61.1787234,1.27712121 61.4340426,1.44833333 61.6553191,1.63666667 C61.0085106,0.780606061 59.7659574,0.36969697 58.9148936,0.386818182 C58.0297872,0.36969697 57.3659574,0.523787879 56.7702128,0.609393939 L57.3148936,0.695 C55.5106383,0.93469697 54.8297872,0.746363636 52.8382979,1.36272727 C51.9531915,1.67090909 54.5744681,1.29424242 52.7021277,1.6880303 C50.2851064,1.99621212 46.6595745,2.47560606 43.5957447,2.97212121 C43.9191489,3.10909091 43.0851064,3.26318182 42.2510638,3.45151515 L42.1148936,3.29742424 C38.9148936,4.11924242 40.8553191,3.14333333 37.6723404,3.91378788 L37.9276596,3.74257576 L37.1446809,4.23909091 C34.3021277,5.09515152 35.5106383,4.17060606 32.3617021,5.215 C33.6382979,4.95818182 33.0255319,5.47181818 31.4425532,5.69439394 L31.8170213,5.45469697 C30.9489362,5.6430303 30.6765957,5.76287879 30.0808511,5.83136364 C30.5914894,5.6430303 30.3191489,5.54030303 29.0425532,5.79712121 L29.8595745,5.43757576 L27.493617,6.17378788 C25.587234,6.32787879 22.6765957,7.08121212 21.8595745,6.99560606 C21.8595745,6.99560606 17.8255319,7.6119697 16.9404255,8.02287879 C17.7234043,7.71469697 15.493617,8.05712121 16.0893617,7.76606061 C15.0851064,8.12560606 12.0382979,8.82757576 10.7617021,8.86181818 L10.9829787,8.79333333 C8.73617021,9.08439394 6.55744681,9.52954545 4.6,10.5568182 C3.61276596,11.0704545 2.64255319,11.7381818 1.84255319,12.7312121 C1.04255319,13.7071212 0.49787234,15.059697 0.446808511,16.4293939 C0.54893617,16.3095455 0.54893617,16.9601515 0.65106383,17.4909091 C0.753191489,18.0216667 0.889361702,18.4668182 0.940425532,18.1415152 C1.24680851,19.2543939 1.50212766,20.2474242 1.77446809,21.2062121 C1.99574468,22.1307576 2.2,23.0210606 2.38723404,23.8086364 C2.76170213,25.3837879 3.10212766,26.6165152 3.68085106,27.2671212 C4.24255319,29.1504545 4.12340426,29.5613636 4.36170213,30.5543939 L4.19148936,30.1092424 C5.22978723,33.6362121 5.51914894,34.6634848 6.23404255,37.3001515 C6.67659574,38.6013636 7.06808511,38.7040909 7.64680851,41.0839394 C7.30638298,40.3648485 7.59574468,41.3236364 7.83404255,42.1968182 C7.66382979,41.6318182 7.56170213,41.4777273 7.78297872,42.6590909 C7.86808511,42.8131818 7.97021277,43.0528788 8.05531915,43.2925758 C8.05531915,43.309697 8.05531915,43.3610606 8.03829787,43.3268182 C8.49787234,44.7821212 8.46382979,44.5081818 8.29361702,43.8233333 C8.32765957,43.8575758 8.32765957,43.7890909 8.3106383,43.5665152 C8.54893617,45.1416667 9.50212766,47.8125758 9.31489362,48.0693939 C10.5914894,52.4695455 11.7148936,55.5684848 12.8212766,59.2324242 C12.8212766,59.6775758 12.4638298,58.8557576 12.1234043,57.7942424 L12.8893617,60.3966667 C12.7021277,60.4309091 12.3787234,58.9242424 12.1234043,58.1366667 C12.7021277,61.3212121 14.1829787,64.4715152 14.9148936,68.1868182 L15.2553191,68.9059091 L15.2893617,69.1284848 C15.3574468,69.0942424 15.6808511,69.8818182 15.8510638,70.4125758 C15.8340426,70.9775758 15.493617,70.4810606 15.987234,72.2787879 C16.2255319,73.7512121 17.1787234,76.3193939 17.7744681,78.1513636 C17.5191489,77.1412121 17.6893617,77.4322727 17.8765957,77.860303 C18.1319149,78.7677273 18.1148936,79.3156061 18.387234,80.0004545 L18.2,80.1374242 C18.3021277,79.7265152 19.0680851,82.4316667 19.2382979,82.7398485 C19.2212766,83.3048485 18.7276596,81.3701515 18.5404255,81.1818182 C19.5617021,84.7943939 19.0510638,82.9966667 20.0723404,86.6092424 C20.7531915,88.4925758 20.1744681,86.1983333 20.6,87.0715152 C21.1106383,88.7665152 21.706383,90.3930303 22.1319149,92.3790909 L22.1489362,91.7113636 C23.1702128,94.8787879 23.6808511,96.7963636 24.0893617,99.005 C32.1744681,122.443939 27.5106383,103.456515 27.5106383,103.456515 C25.4170213,93.92 23.5446809,89.2116667 20.3106383,78.0657576 Z" id="Path"></path>
            </g>
            <g id="Group" transform="translate(31.000000, 92.000000)">
                <path d="M4.158,1.86666667 L4.086,1.91666667 C4.122,1.91666667 4.158,1.9 4.158,1.86666667 Z" id="Path"></path>
                <path d="M6.948,10.6833333 C6.948,10.6833333 6.966,10.6833333 6.966,10.6833333 C6.948,10.6833333 6.948,10.6833333 6.948,10.6833333 Z" id="Path"></path>
                <polygon id="Path" points="1.782 3.88333333 1.782 3.88333333 1.764 3.88333333"></polygon>
                <path d="M1.53,2 C1.548,2.5 1.206,2.71666667 1.494,3.18333333 C1.53,3.43333333 1.692,3.66666667 1.8,3.88333333 C2.124,3.91666667 1.89,4.18333333 2.178,4.26666667 L2.034,4.35 C2.124,4.36666667 2.196,4.41666667 2.124,4.48333333 L2.07,4.5 C2.214,4.53333333 2.16,4.63333333 2.232,4.65 L2.178,4.66666667 L2.214,4.75 L2.142,4.75 C2.304,4.83333333 2.358,4.95 2.322,5.06666667 L2.52,5 C2.358,5.28333333 2.808,5.26666667 2.592,5.53333333 L2.538,5.55 C3.15,5.66666667 2.304,6.05 2.88,6.18333333 C2.808,6.16666667 2.772,6.21666667 2.736,6.23333333 C2.826,6.33333333 2.898,6.46666667 3.294,6.36666667 C3.312,6.45 3.186,6.46666667 3.042,6.51666667 C3.222,6.46666667 3.312,6.53333333 3.348,6.6 L3.276,6.58333333 L3.402,6.76666667 L3.708,6.63333333 C3.654,6.76666667 3.312,6.76666667 3.438,6.85 L3.708,6.78333333 C3.708,6.95 3.312,7.13333333 3.168,7.33333333 C3.24,7.95 4.14,8.38333333 3.834,9.06666667 L3.636,9.15 C3.348,9.25 4.122,9.16666667 3.852,9.26666667 L4.014,9.28333333 C3.96,9.31666667 3.924,9.36666667 3.852,9.36666667 C3.852,9.43333333 3.906,9.41666667 4.014,9.43333333 L3.852,9.55 C3.798,9.81666667 4.212,9.91666667 4.23,10.1833333 C3.96,10.5833333 4.5,11.0333333 4.806,11.2833333 C5.4,11.5833333 4.428,12.4666667 5.112,12.75 C5.076,12.7833333 5.184,12.7833333 5.22,12.7666667 L5.346,13.1833333 C5.346,13.1833333 6.012,15.2 7.83,12.8833333 L7.902,12.8666667 C7.974,12.6 7.956,12.45 7.578,12.4 C7.956,12.25 7.542,12.2 7.65,12.1166667 L7.686,12.1166667 C7.326,12.0833333 7.83,11.7666667 7.506,11.7166667 C7.542,11.7166667 7.65,11.6833333 7.668,11.7 C7.578,11.6166667 7.452,11.5166667 7.668,11.4333333 C7.524,11.2333333 7.506,10.8833333 7.092,10.85 L7.164,10.8333333 C6.894,10.8333333 7.092,10.7333333 6.93,10.6833333 C6.966,10.6666667 6.966,10.65 6.984,10.65 C6.714,10.6333333 6.858,10.4 6.714,10.3666667 L6.858,10.3166667 L6.75,10.15 L6.75,10.2333333 C6.318,10.3333333 6.966,10.0166667 6.642,9.96666667 C6.66,9.83333333 5.688,9.98333333 5.85,9.8 C5.634,9.8 6.192,9.75 6.012,9.71666667 C6.228,9.65 6.156,9.71666667 6.336,9.63333333 C6.192,9.58333333 6.516,9.41666667 6.318,9.35 L6.48,9.3 C6.12,9.25 6.606,8.96666667 6.282,8.95 C6.084,8.85 6.75,8.7 6.372,8.65 L6.588,8.51666667 C6.606,8.43333333 6.282,8.55 6.372,8.45 C6.516,8.41666667 6.462,8.31666667 6.606,8.33333333 C6.786,8.1 6.174,8.08333333 6.48,7.76666667 C6.174,7.8 6.318,7.65 6.084,7.66666667 C6.21,7.63333333 6.03,7.43333333 6.336,7.48333333 C6.354,7.48333333 6.372,7.5 6.318,7.51666667 L6.498,7.48333333 C6.768,7.26666667 6.246,7.3 6.264,7.16666667 C6.228,7.21666667 6.246,7.26666667 6.12,7.26666667 L6.102,7.15 L6.246,7.13333333 L6.282,6.93333333 L6.12,7 C6.192,6.88333333 6.48,6.78333333 6.192,6.75 C6.048,6.75 5.976,6.9 5.904,6.81666667 C5.994,6.66666667 6.12,6.45 6.12,6.3 C5.922,6.36666667 5.922,6.33333333 5.868,6.3 L6.03,6.25 C5.742,6.16666667 6.39,6.1 6.156,6 L6.282,5.98333333 L5.904,6.03333333 C5.526,5.98333333 6.246,5.86666667 5.724,5.83333333 C5.778,5.88333333 5.346,5.96666667 5.4,5.86666667 L5.58,5.83333333 C5.526,5.8 5.454,5.8 5.49,5.76666667 C5.58,5.76666667 5.742,5.71666667 5.688,5.66666667 L5.904,5.65 L5.562,5.61666667 C5.706,5.48333333 5.454,5.4 5.67,5.3 C5.67,5.3 5.724,5.08333333 5.454,5.1 C5.634,5.1 5.652,4.98333333 5.85,4.96666667 C5.652,4.96666667 5.454,4.86666667 5.634,4.75 L5.652,4.75 C5.796,4.48333333 5.274,4.45 5.454,4.2 C5.256,4.26666667 5.328,4.13333333 5.094,4.21666667 C4.788,4.08333333 5.508,3.73333333 4.698,3.85 C4.626,3.76666667 4.86,3.7 4.878,3.63333333 L4.932,3.65 C4.824,3.5 4.806,3.45 4.788,3.31666667 C4.698,3.26666667 4.32,3.35 4.374,3.21666667 C4.536,3.21666667 4.5,3.18333333 4.482,3.13333333 C4.518,3.15 4.572,3.15 4.644,3.06666667 C4.59,3.06666667 4.572,3.06666667 4.536,3.06666667 C4.554,3.06666667 4.554,3.06666667 4.572,3.05 C4.5,2.98333333 4.464,3.01666667 4.446,3.05 C4.428,3.05 4.392,3.06666667 4.356,3.08333333 C4.518,2.96666667 4.284,2.88333333 4.536,2.81666667 C4.428,2.61666667 4.122,2.53333333 3.978,2.36666667 C4.104,2.31666667 4.23,2.33333333 4.302,2.36666667 L4.23,2.25 C4.41,2.21666667 4.356,2.3 4.41,2.33333333 C4.68,2.11666667 4.032,2.1 4.266,1.85 L4.104,1.85 L4.122,1.83333333 C4.05,1.85 3.924,1.83333333 3.888,1.81666667 C4.05,1.75 4.266,1.73333333 4.23,1.65 C4.374,1.55 4.104,1.46666667 3.996,1.4 C3.978,1.45 3.888,1.46666667 3.816,1.45 C3.798,1.4 3.96,1.35 3.87,1.33333333 L4.086,1.28333333 C3.888,1.35 3.834,1.21666667 3.744,1.21666667 C3.906,1.15 3.906,1.25 4.032,1.23333333 C3.96,1.06666667 3.996,1.15 3.942,0.983333333 C3.744,0.933333333 3.744,1.05 3.528,1.05 C3.456,0.983333333 3.294,0.933333333 3.402,0.8 L3.222,0.866666667 C3.024,0.75 3.024,0.65 3.204,0.5 C1.314,-0.333333333 0.954,0.7 0.954,0.7 C0.594,1.35 1.224,1.48333333 1.53,2 Z" id="Path"></path>
            </g>
            <g id="Group" transform="translate(8.000000, 14.000000)">
                <path d="M3.4,3.73333333 L3.31666667,3.76666667 C3.35,3.76666667 3.38333333,3.76666667 3.4,3.73333333 Z" id="Path"></path>
                <path d="M6.16666667,2.9 C6.16666667,2.9 6.15,2.9 6.16666667,2.9 C6.15,2.91666667 6.16666667,2.9 6.16666667,2.9 Z" id="Path"></path>
                <polygon id="Path" points="1.26666667 6.23333333 1.26666667 6.23333333 1.25 6.21666667"></polygon>
                <path d="M1.18333333,2.61666667 C0.866666667,3.46666667 0.466666667,3.75 0.716666667,4.78333333 C0.75,5.28333333 1,5.8 1.26666667,6.23333333 C1.61666667,6.31666667 1.6,6.81666667 1.98333333,6.88333333 L1.93333333,7.06666667 C2.05,7.1 2.16666667,7.13333333 2.18333333,7.26666667 L2.15,7.3 C2.33333333,7.31666667 2.4,7.48333333 2.5,7.48333333 L2.46666667,7.51666667 L2.61666667,7.6 L2.55,7.63333333 C2.83333333,7.68333333 3.03333333,7.8 3.2,7.96666667 L3.28333333,7.78333333 C3.6,8.18333333 3.9,7.86666667 4.18333333,8.23333333 L4.16666667,8.28333333 C4.75,7.9 4.91666667,8.8 5.48333333,8.31666667 C5.41666667,8.38333333 5.51666667,8.41666667 5.5,8.46666667 C5.75,8.4 6,8.35 5.95,7.96666667 C6.11666667,7.95 6.1,8.06666667 6.15,8.2 C6.11666667,8.03333333 6.25,7.95 6.36666667,7.9 L6.31666667,7.98333333 L6.66666667,7.83333333 L6.5,7.55 C6.7,7.58333333 6.66666667,7.91666667 6.81666667,7.76666667 L6.71666667,7.51666667 C6.96666667,7.48333333 7.28333333,7.76666667 7.63333333,7.78333333 C8.2,7.5 8.61666667,6.88333333 8.81666667,6.3 C9.03333333,5.7 9.08333333,5.16666667 9.33333333,4.63333333 L9.53333333,4.58333333 C9.83333333,4.55 9.1,4.28333333 9.36666667,4.23333333 L9.23333333,4.11666667 C9.28333333,4.08333333 9.33333333,4 9.4,4.05 C9.4,3.93333333 9.35,3.93333333 9.25,3.86666667 L9.4,3.71666667 C9.45,3.21666667 9,2.93333333 8.83333333,2.48333333 C8.86666667,2.13333333 8.58333333,1.73333333 8.2,1.45 C7.8,1.16666667 7.31666667,1.03333333 6.96666667,1 C6.06666667,1.08333333 5.25,-3.60017571e-13 4.6,0.483333333 C4.58333333,0.45 4.53333333,0.533333333 4.53333333,0.566666667 L4.01666667,0.516666667 C4,0.516666667 3.51666667,0.466666667 3.25,0.616666667 C3.1,0.7 2.88333333,0.816666667 2.73333333,1.1 C2.6,1.36666667 2.46666667,1.91666667 3.06666667,2.66666667 L3.03333333,2.71666667 C3.43333333,2.96666667 3.7,3 3.96666667,2.7 C4,3.08333333 4.26666667,2.75 4.33333333,2.86666667 L4.33333333,2.9 C4.55,2.6 4.75,3.15 4.93333333,2.88333333 C4.93333333,2.91666667 4.91666667,3.01666667 4.88333333,3.03333333 C5.01666667,2.98333333 5.18333333,2.9 5.18333333,3.11666667 C5.48333333,3.06666667 5.76666667,3.18333333 5.96666667,2.88333333 L5.95,2.95 C6.08333333,2.73333333 6.05,2.95 6.16666667,2.85 C6.16666667,2.88333333 6.16666667,2.9 6.15,2.9 C6.3,2.71666667 6.36666667,2.95 6.45,2.9 L6.36666667,3.03333333 C6.41666667,3.05 6.46666667,3.05 6.5,3.08333333 L6.48333333,3.01666667 C6.75,2.71666667 6.41666667,3.28333333 6.65,3.16666667 C6.66666667,3.25 7.46666667,2.81666667 7.41666667,3.1 C7.61666667,3.06666667 7.11666667,3.2 7.3,3.21666667 C7.11666667,3.33333333 7.16666667,3.25 7.03333333,3.35 C7.16666667,3.38333333 6.91666667,3.58333333 7.08333333,3.61666667 L6.93333333,3.68333333 C7.26666667,3.7 6.81666667,3.98333333 7.11666667,4 C7.28333333,4.11666667 6.65,4.18333333 7,4.26666667 L6.78333333,4.33333333 C6.75,4.38333333 7.06666667,4.35 6.95,4.43333333 C6.81666667,4.43333333 6.83333333,4.51666667 6.7,4.48333333 C6.46666667,4.58333333 7,4.8 6.58333333,4.86666667 C6.83333333,4.98333333 6.66666667,5 6.83333333,5.1 C6.71666667,5.06666667 6.75,5.23333333 6.55,5.05 C6.53333333,5.03333333 6.53333333,5.03333333 6.58333333,5.05 L6.43333333,4.98333333 C6.13333333,4.9 6.53333333,5.15 6.45,5.2 C6.51666667,5.21666667 6.51666667,5.18333333 6.6,5.26666667 L6.53333333,5.3 L6.43333333,5.2 C6.38333333,5.2 6.36666667,5.21666667 6.31666667,5.21666667 L6.45,5.33333333 C6.33333333,5.31666667 6.15,5.1 6.26666667,5.31666667 C6.33333333,5.43333333 6.45,5.45 6.45,5.53333333 C6.3,5.5 6.13333333,5.4 6.03333333,5.4 C6.11666667,5.56666667 6.1,5.58333333 6.08333333,5.61666667 L6.01666667,5.46666667 C6,5.71666667 5.85,5.15 5.83333333,5.35 L5.8,5.23333333 L5.88333333,5.56666667 C5.86666667,5.9 5.76666667,5.25 5.75,5.71666667 C5.8,5.68333333 5.85,6.06666667 5.76666667,6.01666667 L5.75,5.85 C5.71666667,5.88333333 5.71666667,5.95 5.68333333,5.93333333 C5.7,5.85 5.66666667,5.7 5.61666667,5.73333333 L5.61666667,5.53333333 C5.6,5.63333333 5.58333333,5.73333333 5.56666667,5.83333333 C5.48333333,5.66666667 5.36666667,5.88333333 5.35,5.65 C5.35,5.65 5.21666667,5.53333333 5.15,5.76666667 C5.2,5.61666667 5.13333333,5.55 5.18333333,5.36666667 C5.13333333,5.53333333 4.98333333,5.65 4.98333333,5.46666667 L5,5.45 C4.91666667,5.23333333 4.65,5.6 4.61666667,5.33333333 C4.53333333,5.5 4.51666667,5.36666667 4.4,5.6 C4.1,5.7 4.48333333,5.05 3.93333333,5.58333333 C3.85,5.55 3.98333333,5.4 4,5.33333333 L4.03333333,5.31666667 C3.91666667,5.25 3.86666667,5.23333333 3.83333333,5.13333333 C3.75,5.13333333 3.41666667,5.3 3.45,5.15 C3.58333333,5.11666667 3.55,5.08333333 3.53333333,5.05 C3.56666667,5.06666667 3.61666667,5.05 3.68333333,4.96666667 C3.63333333,4.98333333 3.61666667,4.98333333 3.58333333,4.98333333 C3.6,4.98333333 3.6,4.96666667 3.61666667,4.96666667 C3.55,4.93333333 3.5,4.95 3.5,4.98333333 C3.48333333,4.98333333 3.45,5 3.41666667,5.03333333 C3.55,4.9 3.33333333,4.85 3.55,4.76666667 C3.43333333,4.6 3.16666667,4.5 3.05,4.3 C3.16666667,4.26666667 3.28333333,4.3 3.33333333,4.35 C3.31666667,4.31666667 3.3,4.26666667 3.28333333,4.23333333 C3.46666667,4.21666667 3.38333333,4.3 3.43333333,4.33333333 C3.71666667,4.18333333 3.13333333,4.03333333 3.41666667,3.85 L3.28333333,3.8 L3.3,3.78333333 C3.23333333,3.78333333 3.13333333,3.71666667 3.11666667,3.68333333 C3.26666667,3.68333333 3.46666667,3.73333333 3.46666667,3.65 C3.63333333,3.61666667 3.43333333,3.45 3.38333333,3.33333333 C3.35,3.38333333 3.26666667,3.33333333 3.21666667,3.3 C3.23333333,3.25 3.38333333,3.26666667 3.33333333,3.21666667 L3.53333333,3.28333333 C3.33333333,3.23333333 3.36666667,3.1 3.3,3.05 C3.45,3.08333333 3.4,3.16666667 3.5,3.21666667 C3.55,3.03333333 3.51666667,3.13333333 3.56666667,2.95 C3.46666667,2.8 3.38333333,2.88333333 3.23333333,2.76666667 C3.25,2.66666667 3.15,2.5 3.33333333,2.46666667 L3.15,2.4 C3.13333333,2.15 3.23333333,2.05 3.46666667,2.06666667 C3.4,1.55 3.4,1.13333333 3.33333333,0.85 C3.26666667,0.566666667 3.13333333,0.4 2.98333333,0.3 C2.65,0.133333333 2.2,0.366666667 2.2,0.366666667 C1.23333333,0.8 1.36666667,1.61666667 1.18333333,2.61666667 Z" id="Path"></path>
            </g>
            <g id="Group" transform="translate(41.000000, 5.000000)">
                <path d="M7.85733333,9.87108696 L7.96133333,10.06 C7.97866667,10.0256522 7.96133333,9.97413043 7.85733333,9.87108696 Z" id="Path"></path>
                <path d="M20.7013333,60.8432609 C20.7186667,60.8604348 20.7186667,60.8604348 20.736,60.8776087 C20.7186667,60.8604348 20.7013333,60.8432609 20.7013333,60.8432609 Z" id="Path"></path>
                <polygon id="Path" points="11.012 17.358913 11.012 17.358913 10.9773333 17.3245652"></polygon>
                <path d="M4.23466667,9.99130435 C6.36666667,12.1380435 6.86933333,12.7391304 8.91466667,14.5080435 C9.78133333,15.4182609 10.5613333,16.3284783 11.012,17.376087 C11.4973333,17.771087 11.4973333,18.8015217 11.8266667,19.4369565 L11.688,19.728913 C11.8093333,19.9521739 11.896,20.2269565 11.8266667,20.4845652 L11.7746667,20.4673913 C11.9306667,20.8108696 11.8613333,21.2402174 11.948,21.4119565 L11.896,21.3947826 L11.9306667,21.8413043 L11.8613333,21.7726087 C12.0173333,22.4080435 12,23.1121739 11.9133333,23.7132609 L12.1213333,23.678913 C11.844,24.9841304 12.208,25.4821739 11.896,26.7015217 L11.844,26.6843478 C12.312,28.2471739 11.4106667,29.1917391 12,30.788913 C11.9306667,30.5828261 11.896,30.8747826 11.844,30.8747826 C11.9306667,31.6132609 12.0346667,32.4032609 12.4333333,32.386087 C12.4853333,32.9184783 12.3466667,32.8326087 12.208,32.9184783 C12.3813333,32.9013043 12.4853333,33.365 12.5546667,33.7771739 L12.468,33.5882609 L12.6586667,34.7732609 L12.9533333,34.4984783 C12.936,35.133913 12.572,34.7045652 12.728,35.3056522 L12.988,35.2541304 C13.0573333,36.13 12.728,36.6967391 12.676,37.5726087 C13.1613333,41.0932609 14.704,44.613913 14.964,47.8597826 L14.7906667,48.0486957 C14.5133333,48.168913 15.4146667,48.8215217 15.1893333,49.0104348 L15.4146667,49.353913 C15.38,49.4741304 15.38,49.6973913 15.276,49.5256522 C15.3453333,49.8691304 15.3973333,49.8691304 15.536,50.0923913 L15.4493333,50.5045652 C15.6226667,51.8784783 16.2466667,52.9432609 16.524,54.3686957 C16.576,56.1547826 17.7546667,59.2632609 18.5,61.0321739 C19.6786667,63.4880435 19.592,66.751087 20.7533333,69.1382609 C20.736,69.2241304 20.892,69.4302174 20.9093333,69.4130435 C21.1,70.2030435 21.2733333,70.9758696 21.3946667,71.7486957 C21.3946667,71.7486957 21.5333333,72.4528261 21.672,73.3802174 C21.8106667,74.3076087 21.9146667,75.441087 22.0013333,76.3169565 C22.088,77.1928261 22.192,77.8454348 22.556,77.7423913 C22.868,77.6393478 23.596,76.7806522 24.0986667,74.3419565 L24.168,74.4106522 C24.2373333,72.9680435 24.116,72.0578261 23.6133333,71.1647826 C23.9773333,70.9415217 23.4226667,70.0313043 23.4573333,69.6878261 L23.492,69.705 C23.0066667,68.9493478 23.3013333,67.936087 22.7986667,67.2319565 C22.8333333,67.2491304 22.9546667,67.2319565 23.0066667,67.4208696 C22.7986667,66.8713043 22.4693333,66.1156522 22.6773333,66.0126087 C22.192,64.6902174 21.6893333,62.8182609 21.0826667,62.0797826 L21.1693333,62.1141304 C20.788,61.7019565 20.944,61.4958696 20.6493333,60.9978261 C20.6666667,60.9634783 20.6666667,60.9119565 20.684,60.9119565 C20.2853333,60.4482609 20.1986667,59.3834783 19.9733333,58.9884783 L20.112,58.9197826 L19.7826667,57.8721739 L19.852,58.2671739 C19.4013333,58.2328261 19.8866667,57.4084783 19.4186667,56.7043478 C19.28,55.9658696 18.188,55.4678261 18.188,54.6606522 C17.9106667,54.3515217 18.5866667,54.901087 18.292,54.4030435 C18.5,54.3343478 18.4826667,54.6263043 18.6213333,54.4373913 C18.396,53.9393478 18.6213333,53.5271739 18.3266667,52.908913 L18.4826667,52.8402174 C17.9626667,52.0673913 18.3093333,51.1915217 17.8933333,50.6934783 C17.5466667,49.8519565 18.2573333,49.9893478 17.7026667,49.1478261 L17.8413333,48.7356522 C17.7893333,48.3406522 17.4946667,48.5123913 17.512,48.0658696 C17.668,48.0658696 17.4946667,47.4991304 17.6853333,47.7223913 C17.6853333,46.6919565 16.9053333,45.798913 16.992,44.425 C16.6453333,44.2017391 16.6626667,43.5147826 16.4026667,43.3602174 C16.524,43.2915217 16.1253333,42.055 16.5586667,42.7247826 C16.5933333,42.7763043 16.6106667,42.8965217 16.5586667,42.8965217 L16.7493333,42.9480435 C16.9053333,42.1408696 16.2813333,41.66 16.1773333,40.9215217 C16.16,41.1447826 16.2466667,41.4367391 16.0906667,41.265 L15.9693333,40.5780435 L16.1426667,40.6982609 L16.0213333,39.685 L15.8826667,39.8567391 C15.8653333,39.3415217 16.1253333,39.1182609 15.7786667,38.6202174 C15.588,38.3969565 15.64,39.1354348 15.484,38.6202174 C15.484,37.9332609 15.484,36.92 15.4146667,36.0784783 C15.224,36.1815217 15.2066667,35.9582609 15.12,35.735 L15.2933333,35.6834783 C14.9293333,34.8247826 15.6226667,35.3056522 15.3106667,34.4469565 L15.432,34.5156522 L15.0506667,34.3267391 C14.6173333,33.571087 15.3453333,33.8630435 14.7906667,33.0215217 C14.86,33.365 14.4266667,33.2276087 14.4613333,32.781087 L14.6346667,32.8669565 C14.5826667,32.6265217 14.496,32.5578261 14.5133333,32.386087 C14.6173333,32.5234783 14.756,32.4376087 14.704,32.0941304 L14.9293333,32.3173913 L14.5826667,31.6819565 C14.7213333,31.1667391 14.4613333,30.3595652 14.6866667,30.1363043 C14.6866667,30.1363043 14.7733333,29.0371739 14.5133333,28.7967391 C14.6693333,29.02 14.7386667,28.418913 14.9293333,28.5906522 C14.756,28.3158696 14.6173333,27.4743478 14.8253333,27.1308696 L14.8426667,27.1995652 C15.0853333,25.9630435 14.6866667,25.0184783 14.9813333,23.8506522 C14.7733333,23.9021739 14.912,23.2667391 14.652,23.4213043 C14.444,22.2019565 15.172,21.12 14.3573333,20.7078261 C14.2706667,20.141087 14.496,20.0208696 14.496,19.7117391 L14.548,19.8491304 C14.3573333,18.7671739 14.2706667,18.4408696 14.08,17.6336957 C13.872,17.2558696 13.5253333,17.2902174 13.352,16.586087 C13.5773333,16.7578261 13.4386667,16.4830435 13.3346667,16.2254348 C13.4213333,16.38 13.4906667,16.4143478 13.4386667,16.0365217 C13.3693333,16.0021739 13.3173333,15.9506522 13.2653333,15.8819565 C13.2826667,15.8819565 13.2826667,15.8647826 13.3,15.8647826 C13.04,15.4697826 13.04,15.5556522 13.1266667,15.7617391 C13.1093333,15.7617391 13.092,15.796087 13.0746667,15.8647826 C13.04,15.3323913 12.416,14.6969565 12.572,14.5252174 C11.7226667,13.3745652 10.8213333,12.8765217 9.972,12.2067391 C9.972,12.035 10.232,12.1208696 10.5093333,12.3097826 L9.90266667,11.8117391 C10.0413333,11.6743478 10.3186667,12.035 10.5093333,12.1723913 C10.024,11.2965217 8.86266667,11.1247826 8.23866667,10.248913 L7.97866667,10.2145652 L7.944,10.1630435 C7.892,10.2317391 7.64933333,10.1630435 7.51066667,10.0771739 C7.51066667,9.85391304 7.75333333,9.8023913 7.35466667,9.47608696 C7.14666667,9.09826087 6.436,8.78913043 6.00266667,8.49717391 C6.19333333,8.70326087 6.05466667,8.70326087 5.93333333,8.66891304 C5.76,8.49717391 5.77733333,8.29108696 5.58666667,8.20521739 L5.72533333,8.03347826 C5.63866667,8.23956522 5.136,7.72434783 5.01466667,7.70717391 C5.04933333,7.50108696 5.36133333,7.91326087 5.5,7.86173913 C4.85866667,7.14043478 5.17066667,7.51826087 4.564,6.7626087 C4.148,6.43630435 4.44266667,6.95152174 4.148,6.86565217 C3.85333333,6.505 3.48933333,6.17869565 3.368,5.64630435 L3.264,5.88673913 C2.72666667,5.14826087 2.588,4.59869565 2.65733333,3.98043478 C1.964,2.45195652 2.05066667,1.31847826 1.99866667,0.75173913 C1.94666667,0.167826087 1.73866667,0.150652174 1.47866667,0.288043478 C1.20133333,0.494130435 0.854666667,1.02652174 0.664,1.54173913 C0.490666667,2.05695652 0.421333333,2.50347826 0.421333333,2.50347826 C0.126666667,4.32391304 0.646666667,5.64630435 1.30533333,6.74543478 C2.016,7.77586957 2.9,8.77195652 4.23466667,9.99130435 Z" id="Path"></path>
            </g>
            <g id="Group" transform="translate(95.000000, 101.000000)">
                <path d="M1.34727273,40.8320513 L1.41636364,40.4541026 C1.38181818,40.4541026 1.34727273,40.5571795 1.34727273,40.8320513 Z" id="Path"></path>
                <path d="M16.5472727,48.6487179 C16.5472727,48.6830769 16.5645455,48.7002564 16.5645455,48.7346154 C16.5472727,48.6658974 16.5472727,48.6487179 16.5472727,48.6487179 Z" id="Path"></path>
                <path d="M3.93818182,26.2982051 L3.93818182,26.3153846 C3.93818182,26.3497436 3.95545455,26.3841026 3.95545455,26.4184615 L3.93818182,26.2982051 Z" id="Path"></path>
                <path d="M3.86909091,45.3502564 C3.93818182,40.3510256 4.30090909,39.0282051 4.11090909,33.84 C4.12818182,31.3661538 4.02454545,28.7376923 3.95545455,26.3153846 C3.66181818,25.164359 3.92090909,23.1371795 3.67909091,21.7971795 L3.83454545,21.2646154 C3.74818182,20.8007692 3.67909091,20.2510256 3.76545455,19.7871795 L3.81727273,19.8215385 C3.67909091,19.1171795 3.74818182,18.3441026 3.69636364,17.9833333 L3.74818182,18.0176923 L3.71363636,17.1758974 L3.78272727,17.3133333 C3.64454545,16.0935897 3.62727273,14.8394872 3.67909091,13.74 L3.47181818,13.8258974 C3.67909091,11.4551282 3.26454545,10.5961538 3.50636364,8.46589744 L3.55818182,8.50025641 C3.29909091,7.21179487 3.36818182,6.18102564 3.43727273,5.15025641 C3.47181818,4.65205128 3.52363636,4.06794872 3.54090909,3.62128205 C3.54090909,3.51820513 3.55818182,3.43230769 3.55818182,3.31205128 C3.55818182,3.24333333 3.55818182,3.1574359 3.61,3.05435897 C3.62727273,3.02 3.64454545,2.98564103 3.66181818,2.95128205 C3.61,3.05435897 3.76545455,3.02 3.76545455,3.07153846 C3.83454545,3.03717949 3.90363636,3.02 3.99,3.00282051 C4.24909091,3.00282051 4.49090909,3.00282051 4.73272727,3.00282051 C5.25090909,2.98564103 5.59636364,2.91692308 5.63090909,2.72794872 C6.56363636,2.81384615 6.37363636,2.91692308 6.49454545,3.08871795 C6.51181818,2.91692308 7.32363636,2.91692308 8.04909091,2.98564103 L7.70363636,3.02 L9.79363636,3.1574359 L9.41363636,2.79666667 C10.4672727,3.00282051 9.72454545,3.19179487 10.5709091,3.26051282 L10.6227273,3.00282051 C11.1409091,3.1574359 11.2790909,3.53538462 11.2445455,3.89615385 C11.2445455,4.30846154 11.1754545,4.96128205 11.1927273,5.7 C12.0909091,11.73 13.4727273,18.2238462 13.4036364,23.9446154 L13.2136364,24.2023077 C12.92,24.3397436 13.7663636,25.7484615 13.5072727,25.9717949 L13.68,26.6246154 C13.6454545,26.8135897 13.6109091,27.2087179 13.5245455,26.8823077 C13.5418182,27.5007692 13.5936364,27.5007692 13.7145455,27.9474359 L13.5763636,28.6174359 C13.5590909,31.0397436 14.0081818,33.0841026 14.0081818,35.6438462 C13.7318182,38.7189744 14.1809091,44.4741026 14.4054545,47.8069231 C14.6472727,50.1433333 14.4572727,52.6858974 14.2845455,55.2284615 C14.1981818,56.4997436 14.1118182,57.7710256 14.0772727,59.0423077 C14.0081818,60.2620513 14.1463636,61.7394872 14.0427273,62.2033333 C13.9736364,62.2548718 13.9909091,62.4094872 14.0081818,62.4266667 C13.7663636,62.8905128 12.1945455,63.0794872 10.83,63.1138462 C10.83,63.1138462 9.56909091,63.1997436 7.91090909,63.0794872 C7.08181818,63.0279487 6.16636364,62.9248718 5.25090909,62.7702564 L4.59454545,62.65 C4.43909091,62.615641 4.26636364,62.5812821 4.11090909,62.5125641 C3.78272727,62.3923077 3.47181818,62.2205128 3.21272727,62.0487179 C2.67727273,61.6707692 2.57363636,61.4302564 2.48727273,61.3271795 C2.41818182,61.1897436 2.50454545,60.8805128 2.28,60.8805128 C2.19363636,60.8805128 2.02090909,60.8976923 1.84818182,61.0866667 C1.67545455,61.275641 1.53727273,61.7223077 1.72727273,62.2376923 C1.9,62.7702564 2.31454545,63.3371795 2.97090909,63.8697436 C3.29909091,64.1274359 3.69636364,64.3851282 4.19727273,64.5741026 C4.62909091,64.7458974 5.07818182,64.9176923 5.59636364,65.0894872 L5.47545455,65.1238462 C7.94545455,65.7079487 9.60363636,65.7423077 11.3136364,65.33 C11.6072727,65.7079487 13.3690909,65.2441026 14.1290909,65.0723077 L14.0772727,65.1238462 C14.5090909,64.9005128 14.9581818,64.6771795 15.39,64.3164103 C15.8218182,63.9728205 16.2190909,63.4574359 16.4090909,62.9592308 C16.8236364,61.9284615 16.7890909,61.0694872 16.6854545,60.3994872 C16.72,60.4510256 16.8236364,60.4853846 16.8236364,60.8117949 C16.7718182,59.7810256 16.6854545,58.3723077 16.9272727,58.3035897 C16.8754545,55.8469231 16.9790909,52.4110256 16.5990909,50.8305128 L16.6681818,50.9335897 C16.4263636,50.0402564 16.6336364,49.7653846 16.4954545,48.7689744 C16.53,48.7174359 16.5472727,48.6487179 16.5472727,48.6487179 C16.3054545,47.6694872 16.4954545,45.7969231 16.3745455,44.9894872 L16.53,44.9379487 L16.4781818,42.9794872 L16.4609091,43.7010256 C16.0463636,43.4605128 16.7027273,42.2235897 16.4090909,40.8148718 C16.4436364,39.4920513 15.4763636,38.1520513 15.6490909,36.7776923 C15.4418182,36.1248718 15.9945455,37.3446154 15.8045455,36.3653846 C16.0290909,36.3310256 15.96,36.8120513 16.1154545,36.554359 C15.9945455,35.5923077 16.2881818,34.9738462 16.0981818,33.7884615 L16.2709091,33.7369231 C15.9081818,32.2079487 16.3745455,30.7992308 16.0290909,29.785641 C15.8218182,28.1879487 16.4781818,28.6861538 16.0463636,27.0369231 L16.2363636,26.3669231 C16.2363636,25.6453846 15.9254545,25.8687179 15.9772727,25.0784615 C16.1327273,25.1128205 16.0290909,24.0648718 16.2018182,24.5287179 C16.3054545,22.7248718 15.6145455,20.9210256 15.7872727,18.5330769 C15.4590909,18.0520513 15.4936364,16.8494872 15.2518182,16.4887179 C15.3727273,16.42 15.0272727,14.1179487 15.4245455,15.4235897 C15.4590909,15.5438462 15.4763636,15.7328205 15.4245455,15.7328205 L15.6145455,15.8702564 C15.8045455,14.4958974 15.1654545,13.4479487 15.0445455,12.1251282 C15.0445455,12.5202564 15.1136364,13.0528205 14.9581818,12.7092308 L14.8372727,11.4723077 L15.01,11.7128205 L14.8372727,9.87461538 L14.6990909,10.1494872 C14.6645455,9.23897436 14.9063636,8.87820513 14.5263636,7.89897436 C14.3190909,7.46948718 14.4054545,8.77512821 14.2154545,7.8474359 C14.1809091,7.22897436 14.1290909,6.47307692 14.0772727,5.68282051 C13.9909091,4.84102564 14.0254545,4.17102564 13.7318182,3.07153846 C13.5936364,3.36358974 13.49,2.72794872 12.9890909,2.12666667 L13.0754545,1.95487179 C12.5572727,1.42230769 12.16,1.25051282 11.9181818,1.09589744 C11.6763636,0.958461538 11.5554545,0.872564103 11.4518182,0.786666667 C11.2790909,0.632051282 10.9509091,0.408717949 10.0527273,0.425897436 L10.2081818,0.322820513 L9.74181818,0.632051282 C8.25636364,0.838205128 8.98181818,0.202564103 7.32363636,0.511794872 C7.96272727,0.546153846 7.58272727,0.924102564 6.80545455,0.769487179 L7.01272727,0.632051282 C6.58090909,0.632051282 6.42545455,0.683589744 6.13181818,0.614871795 C6.40818182,0.546153846 6.28727273,0.391538462 5.64818182,0.357179487 L6.09727273,0.185384615 L4.85363636,0.374358974 C4.56,0.288461538 4.14545455,0.202564103 3.40272727,0.254102564 C2.74636364,0.305641026 2.15909091,0.580512821 1.76181818,0.924102564 C1.38181818,1.25051282 1.15727273,1.57692308 1.00181818,1.73153846 C1.00181818,1.73153846 0.898181818,1.92051282 0.794545455,2.24692308 C0.690909091,2.53897436 0.604545455,3.14025641 0.604545455,3.46666667 C0.604545455,4.13666667 0.656363636,4.66923077 0.777272727,4.92692308 C0.621818182,4.53179487 0.57,5.63128205 0.38,5.32205128 C0.57,5.8374359 0.725454545,7.38358974 0.535454545,8.00205128 L0.518181818,7.88179487 C0.345454545,10.1666667 0.811818182,11.7815385 0.587272727,13.8258974 C0.794545455,13.7228205 0.690909091,14.8051282 0.932727273,14.5474359 C1.19181818,16.6605128 0.449090909,18.4128205 1.24363636,19.1687179 C1.29545455,20.1307692 1.07090909,20.3025641 1.03636364,20.8007692 L0.984545455,20.5774359 C1.05363636,22.3812821 1.07090909,22.8966667 1.07090909,24.2366667 C1.15727273,24.9066667 1.52,25.0097436 1.43363636,26.2123077 C1.27818182,25.834359 1.31272727,26.3153846 1.31272727,26.7620513 C1.29545455,26.47 1.22636364,26.3841026 1.14,26.9682051 C1.19181818,27.0541026 1.20909091,27.174359 1.24363636,27.2946154 C1.22636364,27.2946154 1.22636364,27.3289744 1.20909091,27.3117949 C1.26090909,28.0676923 1.31272727,27.9302564 1.33,27.5866667 C1.34727273,27.6038462 1.38181818,27.5694872 1.41636364,27.4664103 C1.22636364,28.2394872 1.45090909,29.6310256 1.19181818,29.7341026 C1.26090909,31.9846154 1.53727273,33.5823077 1.64090909,35.4548718 C1.52,35.6610256 1.39909091,35.2315385 1.34727273,34.6817949 L1.39909091,36.0046154 C1.20909091,35.9874359 1.29545455,35.2487179 1.24363636,34.8364103 C0.95,36.4169231 1.57181818,38.1005128 1.31272727,39.9558974 L1.46818182,40.3338462 L1.45090909,40.4369231 C1.52,40.4369231 1.64090909,40.8492308 1.65818182,41.1241026 C1.50272727,41.3817949 1.27818182,41.1069231 1.29545455,42.0346154 C1.14,42.7561538 1.38181818,44.0961538 1.48545455,45.0410256 C1.50272727,44.525641 1.60636364,44.6974359 1.65818182,44.9207692 C1.67545455,45.3846154 1.50272727,45.6423077 1.57181818,46.0030769 L1.34727273,46.0546154 C1.55454545,45.865641 1.57181818,47.2571795 1.67545455,47.4289744 C1.52,47.6866667 1.53727273,46.7246154 1.41636364,46.604359 C1.45090909,48.4425641 1.43363636,47.5320513 1.46818182,49.3702564 C1.64090909,50.3494872 1.67545455,49.1984615 1.86545455,49.6623077 C1.91727273,50.5212821 2.07272727,51.3802564 1.95181818,52.3766667 L2.14181818,52.0674359 C2.29727273,53.6994872 2.28,54.6615385 2.10727273,55.7610256 C3.76545455,67.8897436 4.28363636,58.3035897 4.28363636,58.3035897 C4.62909091,53.4933333 4.05909091,51.0366667 3.86909091,45.3502564 Z" id="Path"></path>
            </g>
            <g id="Group" transform="translate(96.000000, 2.000000)">
                <path d="M1.15076923,70.6486441 L1.23538462,70.1350847 C1.20153846,70.1350847 1.16769231,70.2720339 1.15076923,70.6486441 Z" id="Path"></path>
                <path d="M20.3246154,65.5644068 L20.3415385,65.6842373 C20.3246154,65.5986441 20.3246154,65.5644068 20.3246154,65.5644068 Z" id="Path"></path>
                <path d="M3.75692308,50.4315254 C3.75692308,50.4486441 3.75692308,50.4657627 3.75692308,50.4657627 C3.75692308,50.5171186 3.77384615,50.5513559 3.77384615,50.6027119 L3.75692308,50.4315254 Z" id="Path"></path>
                <path d="M3.60461538,76.9483051 C3.68923077,69.9981356 4.04461538,68.149322 3.87538462,60.9423729 C3.89230769,57.5015254 3.80769231,53.8381356 3.74,50.4657627 C3.45230769,48.8737288 3.72307692,46.0491525 3.48615385,44.1661017 L3.63846154,43.43 C3.55384615,42.7794915 3.50307692,42.0091525 3.58769231,41.3586441 L3.63846154,41.3928814 C3.52,40.4171186 3.58769231,39.3215254 3.52,38.8422034 L3.57076923,38.8764407 L3.55384615,37.6952542 L3.62153846,37.900678 C3.48615385,36.2059322 3.46923077,34.4598305 3.53692308,32.9191525 L3.33384615,33.0389831 C3.53692308,29.7522034 3.13076923,28.5367797 3.38461538,25.5752542 L3.43538462,25.6094915 C2.91076923,21.8605085 3.77384615,19.669322 3.26615385,15.8005085 C3.33384615,16.2798305 3.36769231,15.5950847 3.41846154,15.629322 C3.35076923,13.8489831 3.31692308,11.9488136 2.94461538,11.9145763 C2.94461538,10.6135593 3.06307692,10.8532203 3.21538462,10.6820339 C3.13076923,10.6820339 3.06307692,10.4081356 3.02923077,9.99728814 C3.01230769,9.84322034 2.99538462,9.6720339 2.97846154,9.50084746 L2.96153846,9.14135593 L3.02923077,9.38101695 L2.96153846,7.99440678 C2.86,7.87457627 2.74153846,7.80610169 2.64,7.75474576 C2.69076923,7.32677966 2.77538462,7.4979661 2.86,7.60067797 C2.89384615,7.6520339 2.92769231,7.70338983 2.94461538,7.68627119 C2.96153846,7.66915254 2.96153846,7.6520339 2.96153846,7.60067797 C2.97846154,7.58355932 2.92769231,7.39525424 2.99538462,7.48084746 L2.74153846,6.81322034 C3.21538462,7.36101695 3.62153846,7.96016949 3.89230769,8.42237288 C4.02769231,8.6620339 4.12923077,8.86745763 4.19692308,9.03864407 C4.26461538,9.15847458 4.21384615,9.14135593 4.34923077,9.34677966 L4.78923077,9.9459322 C7.59846154,13.0957627 10.4923077,16.3654237 12.7938462,19.9261017 C15.0953846,23.4867797 16.7369231,27.3898305 17.16,31.2244068 L17.0246154,31.6010169 C16.7876923,31.789322 17.7692308,33.6381356 17.5323077,33.9805085 L17.7523077,34.870678 C17.7184615,35.1274576 17.7184615,35.6752542 17.6169231,35.2301695 C17.6846154,36.0689831 17.7184615,36.0861017 17.8538462,36.6852542 L17.7184615,37.5925424 C17.7353846,40.9135593 18.04,43.7894915 18.0061538,47.3501695 C17.6676923,51.6298305 18.04,59.6927119 18.26,64.3318644 C18.4969231,67.5844068 18.3276923,71.1279661 18.1753846,74.6715254 C18.0738462,76.4518644 18.1246154,78.2835593 17.7692308,79.6188136 C17.38,80.9883051 16.8384615,81.4676271 15.4676923,81.7415254 C15.3153846,81.7415254 14.8076923,81.8271186 14.8246154,81.8613559 C13.9276923,81.8613559 12.9292308,81.7415254 11.8292308,81.7244068 C10.7630769,81.7244068 9.35846154,81.7928814 8.15692308,82.7686441 C8.15692308,82.7686441 7.58153846,83.1966102 7.07384615,84.1210169 C6.83692308,84.5832203 6.63384615,85.1994915 6.56615385,85.85 C6.49846154,86.5861017 6.54923077,87.0654237 6.53230769,87.6816949 C6.54923077,90.1125424 6.6,93.1083051 6.71846154,95.4022034 C6.97230769,100.007119 7.53076923,101.787458 8.8,90.5233898 L8.86769231,90.6774576 C8.95230769,89.0169492 9.00307692,87.6132203 9.00307692,86.4320339 C9.02,85.5076271 9.29076923,84.8228814 9.83230769,84.309322 C10.0184615,84.3949153 10.4076923,84.2579661 11,84.1552542 C11.5753846,84.0525424 12.3369231,84.0525424 12.7092308,84.1210169 L12.6415385,84.1552542 C13.64,84.0525424 14.7061538,84.2237288 15.9076923,84.1552542 C16.5,84.1210169 17.16,83.9840678 17.7692308,83.7101695 C18.3784615,83.3849153 18.9369231,82.9398305 19.2753846,82.3749153 C19.2415385,82.4776271 19.3092308,82.5974576 18.8692308,83.0425424 C19.6138462,82.340678 20.0707692,81.279322 20.2738462,80.4918644 C20.4938462,79.7044068 20.5615385,79.1394915 20.6969231,79.0881356 C20.8492308,77.1194915 20.7307692,75.1850847 20.7307692,73.2677966 C20.6969231,71.3676271 20.6123077,69.6215254 20.4261538,68.5259322 L20.4938462,68.68 C20.24,67.430339 20.4430769,67.0537288 20.3246154,65.6671186 C20.3584615,65.5986441 20.3753846,65.4959322 20.3753846,65.5130508 C20.1215385,64.160678 20.3076923,61.5415254 20.2061538,60.4459322 L20.3584615,60.3774576 L20.3076923,57.6727119 L20.2738462,58.6827119 C19.8507692,58.340339 20.5276923,56.6284746 20.24,54.6598305 C20.2738462,52.8110169 19.36,50.9279661 19.5461538,49.010678 C19.3430769,48.1033898 19.8676923,49.8152542 19.7153846,48.4457627 C19.9353846,48.3944068 19.8507692,49.0791525 20.02,48.7367797 C19.9184615,47.4015254 20.2230769,46.5455932 20.0707692,44.8850847 L20.24,44.8166102 C19.9184615,42.6767797 20.4430769,40.7423729 20.1046154,39.3044068 C19.8846154,37.0789831 20.5615385,37.7808475 20.0876923,35.4527119 L20.24,34.5111864 C20.1723077,33.5011864 19.8846154,33.8264407 19.8676923,32.6966102 C20.02,32.7479661 19.7661538,31.2586441 20.0030769,31.8920339 C19.8169231,29.29 18.7,26.8077966 17.7015385,23.5552542 C17.1769231,22.9732203 16.5676923,21.3811864 16.1276923,21.0045763 C16.2123077,20.8676271 14.4692308,18.0430508 15.6538462,19.5666102 C15.7553846,19.7035593 15.8907692,19.960339 15.84,19.960339 L16.0938462,20.0801695 C15.4169231,18.2142373 14.1476923,17.1528814 13.0984615,15.5950847 C13.3861538,16.0744068 13.8092308,16.690678 13.4369231,16.3483051 L12.4384615,14.910339 L12.76,15.1157627 C12.2692308,14.3967797 11.7615385,13.6949153 11.2538462,12.9930508 L11.3384615,13.3867797 C10.6107692,12.3425424 10.56,11.7947458 9.44307692,10.870339 C8.91846154,10.4594915 10.0353846,11.9316949 9.13846154,10.9559322 C8.63076923,10.2711864 8.00461538,9.43237288 7.31076923,8.57644068 L6.78615385,7.9259322 L6.16,7.18983051 C5.46615385,6.41949153 4.78923077,5.66627119 4.12923077,4.94728814 C4.34923077,5.46084746 3.65538462,4.72474576 2.97846154,4.07423729 L2.84307692,3.69762712 C1.50615385,2.46508475 1.23538462,2.03711864 0.88,1.50644068 C0.778461538,1.36949153 0.693846154,1.23254237 0.609230769,1.11271186 L0.44,0.890169492 L0.338461538,0.770338983 L0.321538462,0.890169492 C0.287692308,1.23254237 0.287692308,1.88305085 0.338461538,3.03 L0.22,2.41372881 L0.575384615,4.15983051 C0.744615385,6.17983051 0.66,6.4879661 0.592307692,6.98440678 C0.558461538,7.2240678 0.524615385,7.48084746 0.524615385,7.96016949 C0.524615385,8.19983051 0.541538462,8.49084746 0.575384615,8.85033898 C0.609230769,9.15847458 0.643076923,9.75762712 0.693846154,9.9459322 C0.693846154,9.77474576 0.710769231,9.48372881 0.744615385,9.38101695 C0.778461538,9.27830508 0.829230769,9.29542373 0.863076923,9.41525424 C0.947692308,9.75762712 1.03230769,10.0315254 0.998461538,10.6135593 L0.829230769,10.339661 C0.863076923,10.9388136 0.930769231,11.1442373 0.896923077,11.5550847 C0.812307692,11.1955932 0.66,11.3667797 0.693846154,12.2569492 L0.490769231,11.6577966 L0.795384615,13.3354237 C0.626153846,14.6364407 0.846153846,16.7077966 0.626153846,17.2384746 C0.626153846,17.2384746 0.524615385,20.0459322 0.778461538,20.679322 C0.626153846,20.1144068 0.558461538,21.6550847 0.389230769,21.2271186 C0.575384615,21.9461017 0.710769231,24.0859322 0.524615385,24.9589831 L0.507692308,24.8049153 C0.321538462,27.9718644 0.778461538,30.2315254 0.558461538,33.0732203 C0.761538462,32.9362712 0.643076923,34.4427119 0.896923077,34.0661017 C1.15076923,37.0105085 0.406153846,39.4413559 1.18461538,40.5027119 C1.23538462,41.8379661 1.01538462,42.0947458 0.964615385,42.7794915 L0.930769231,42.4542373 C0.998461538,44.970678 1.01538462,45.689661 0.998461538,47.5555932 C1.08307692,48.48 1.43846154,48.6340678 1.35384615,50.2945763 C1.20153846,49.7638983 1.23538462,50.4315254 1.23538462,51.0649153 C1.21846154,50.6711864 1.15076923,50.5513559 1.06615385,51.3559322 C1.11692308,51.4757627 1.13384615,51.6469492 1.16769231,51.8181356 C1.15076923,51.8181356 1.15076923,51.8523729 1.13384615,51.8352542 C1.18461538,52.8794915 1.23538462,52.6911864 1.25230769,52.2118644 C1.26923077,52.2289831 1.30307692,52.1947458 1.33692308,52.040678 C1.15076923,53.1191525 1.35384615,55.0535593 1.11692308,55.1905085 C1.18461538,58.3232203 1.43846154,60.5657627 1.54,63.1677966 C1.42153846,63.4588136 1.30307692,62.859661 1.25230769,62.089322 L1.30307692,63.9381356 C1.11692308,63.9210169 1.20153846,62.8767797 1.15076923,62.3118644 C0.863076923,64.5201695 1.45538462,66.8483051 1.20153846,69.4332203 L1.35384615,69.9638983 L1.33692308,70.1179661 C1.40461538,70.1179661 1.52307692,70.6828814 1.54,71.0766102 C1.38769231,71.4361017 1.16769231,71.0594915 1.18461538,72.3262712 C1.03230769,73.3362712 1.26923077,75.2022034 1.35384615,76.520339 C1.37076923,75.8013559 1.47230769,76.0410169 1.52307692,76.3491525 C1.52307692,76.9825424 1.37076923,77.3591525 1.43846154,77.8555932 L1.21846154,77.9240678 C1.42153846,77.6672881 1.43846154,79.5845763 1.52307692,79.8242373 C1.37076923,80.1837288 1.38769231,78.8313559 1.26923077,78.6772881 C1.30307692,81.2450847 1.28615385,79.9611864 1.30307692,82.5118644 C1.47230769,83.8813559 1.50615385,82.2550847 1.69230769,82.9227119 C1.74307692,84.1210169 1.89538462,85.3022034 1.76,86.6888136 L1.94615385,86.2437288 C2.09846154,88.5033898 2.08153846,89.8728814 1.89538462,91.3964407 C3.48615385,108.275424 4.01076923,94.9571186 4.01076923,94.9571186 C4.34923077,88.2979661 3.77384615,84.8742373 3.60461538,76.9483051 Z" id="Path"></path>
            </g>
            <g id="Group" transform="translate(105.000000, 19.000000)">
                <path d="M4.374,9.03157895 L4.32,9.20263158 C4.356,9.18552632 4.374,9.15131579 4.374,9.03157895 Z" id="Path"></path>
                <path d="M7.002,51.2986842 C7.002,51.3157895 7.02,51.3157895 7.02,51.3328947 C7.002,51.2986842 7.002,51.2986842 7.002,51.2986842 Z" id="Path"></path>
                <polygon id="Path" points="2.394 15.7710526 2.394 15.7710526 2.376 15.7197368"></polygon>
                <path d="M1.512,7.35526316 C1.746,9.56184211 1.422,10.1947368 1.89,12.4697368 C1.998,13.5644737 2.214,14.7105263 2.394,15.7710526 C2.772,16.25 2.556,17.1736842 2.88,17.7381579 L2.736,17.9947368 C2.844,18.2 2.934,18.4223684 2.862,18.6447368 L2.808,18.6447368 C2.97,18.9355263 2.934,19.2947368 3.006,19.4486842 L2.952,19.4486842 L3.006,19.825 L2.934,19.7736842 C3.132,20.3039474 3.186,20.8513158 3.168,21.3473684 L3.366,21.2960526 C3.222,22.3565789 3.69,22.7157895 3.51,23.6736842 L3.456,23.6565789 C4.122,24.8026316 3.24,25.5723684 3.852,26.7697368 C3.78,26.6157895 3.744,26.8381579 3.69,26.8381579 C3.798,27.4026316 3.87,28.0013158 4.284,27.9842105 C4.302,28.3947368 4.176,28.3263158 4.032,28.3947368 C4.212,28.3776316 4.302,28.7368421 4.338,29.0618421 L4.266,28.925 L4.392,29.8486842 L4.716,29.6434211 C4.644,30.1394737 4.302,29.7973684 4.428,30.2592105 L4.716,30.2421053 C4.698,30.9263158 4.302,31.3539474 4.14,32.0210526 C4.176,34.7578947 5.004,37.6828947 4.572,40.2486842 L4.356,40.3684211 C4.05,40.4197368 4.824,41.0697368 4.536,41.1723684 L4.68,41.4631579 C4.626,41.5486842 4.572,41.7197368 4.5,41.5828947 C4.5,41.8565789 4.536,41.8565789 4.644,42.0618421 L4.464,42.3526316 C4.32,43.4302632 4.734,44.3539474 4.644,45.4828947 C4.266,46.8513158 4.608,49.4171053 4.788,50.9052632 C5.238,53.0092105 3.906,55.4039474 4.356,57.5421053 C4.302,57.6105263 4.392,57.7986842 4.428,57.7986842 L4.302,59.7486842 C4.302,59.7486842 4.14,62.1092105 4.338,63.5973684 C4.536,65.0855263 5.112,65.7013158 6.606,62.1434211 L6.678,62.1947368 C6.912,61.1342105 6.984,60.45 6.678,59.6973684 C7.092,59.5947368 6.768,58.8078947 6.912,58.5684211 L6.948,58.5855263 C6.66,57.9184211 7.272,57.2342105 7.02,56.6013158 C7.056,56.6355263 7.164,56.6526316 7.164,56.7894737 C7.128,56.3276316 7.056,55.6947368 7.29,55.6605263 C7.254,54.5486842 7.416,53.0092105 7.056,52.3078947 L7.128,52.3592105 C6.876,51.9486842 7.092,51.8289474 6.966,51.3842105 C7.002,51.3671053 7.02,51.3328947 7.02,51.3328947 C6.768,50.8881579 7.002,50.05 6.894,49.6907895 L7.056,49.6736842 L7.038,48.8013158 L7.002,49.1263158 C6.57,49.0065789 7.29,48.4592105 7.002,47.8263158 C7.056,47.2276316 6.084,46.6289474 6.3,46.0131579 C6.102,45.7223684 6.642,46.2697368 6.48,45.825 C6.714,45.8078947 6.624,46.0302632 6.804,45.9105263 C6.696,45.4828947 7.038,45.2092105 6.876,44.6789474 L7.056,44.6618421 C6.732,43.9776316 7.272,43.3447368 6.948,42.9 C6.786,42.1815789 7.47,42.4210526 7.11,41.6684211 L7.344,41.3776316 C7.38,41.0526316 7.038,41.1552632 7.164,40.7960526 C7.326,40.8131579 7.272,40.3513158 7.434,40.5565789 C7.65,39.7526316 7.038,38.9315789 7.416,37.8710526 C7.11,37.6486842 7.272,37.1184211 7.038,36.9473684 C7.164,36.9131579 7.02,35.8868421 7.326,36.4684211 C7.344,36.5197368 7.344,36.6052632 7.29,36.6052632 L7.47,36.6736842 C7.794,36.0578947 7.236,35.5789474 7.272,34.9973684 C7.218,35.1684211 7.254,35.4078947 7.128,35.2539474 L7.128,34.7065789 L7.29,34.8092105 L7.344,33.9881579 L7.164,34.1078947 C7.236,33.6973684 7.542,33.5434211 7.272,33.0986842 C7.11,32.8934211 7.038,33.4921053 6.966,33.0644737 C7.074,32.5171053 7.218,31.7131579 7.218,31.0118421 C7.02,31.0802632 7.02,30.9092105 6.966,30.7210526 L7.146,30.6868421 C6.858,29.9684211 7.524,30.3960526 7.29,29.6776316 L7.416,29.7289474 L7.038,29.5578947 C6.642,28.925 7.38,29.1815789 6.858,28.4802632 C6.912,28.7710526 6.48,28.6342105 6.534,28.275 L6.714,28.3605263 C6.66,28.1723684 6.588,28.1039474 6.606,27.9671053 C6.714,28.0697368 6.858,28.0184211 6.804,27.7276316 L7.038,27.8986842 L6.678,27.3684211 C6.84,26.9407895 6.552,26.2907895 6.786,26.1026316 C6.786,26.1026316 6.84,25.1960526 6.552,25.0078947 C6.732,25.1789474 6.75,24.6828947 6.966,24.8026316 C6.768,24.5802632 6.552,23.9131579 6.732,23.6223684 L6.768,23.6736842 C6.876,22.6302632 6.336,21.9460526 6.498,21.0223684 C6.3,21.0736842 6.372,20.5947368 6.102,20.7315789 C5.76,19.8078947 6.462,18.9526316 5.616,18.6960526 C5.526,18.2684211 5.76,18.1657895 5.778,17.9434211 L5.832,18.0460526 C5.688,17.2421053 5.652,17.0197368 5.598,16.4210526 C5.49,16.1302632 5.112,16.1302632 5.13,15.5828947 C5.31,15.7368421 5.256,15.5315789 5.22,15.3263158 C5.256,15.4460526 5.328,15.4802632 5.382,15.2065789 C5.328,15.1723684 5.292,15.1210526 5.256,15.0697368 C5.274,15.0697368 5.274,15.0526316 5.292,15.0526316 C5.202,14.7276316 5.166,14.7960526 5.148,14.95 C5.13,14.95 5.094,14.9671053 5.058,15.0184211 C5.202,14.6592105 4.932,14.0605263 5.184,13.9921053 C5.004,13 4.662,12.3157895 4.428,11.4947368 C4.554,11.3921053 4.698,11.5631579 4.77,11.8026316 L4.644,11.2210526 C4.842,11.2039474 4.806,11.5460526 4.86,11.7171053 C5.076,10.9815789 4.356,10.2973684 4.518,9.44210526 L4.338,9.28815789 L4.356,9.23684211 C4.284,9.25394737 4.14,9.08289474 4.104,8.96315789 C4.248,8.82631579 4.482,8.92894737 4.428,8.51842105 C4.554,8.17631579 4.212,7.61184211 4.068,7.20131579 C4.068,7.44078947 3.978,7.37236842 3.906,7.28684211 C3.87,7.08157895 4.014,6.94473684 3.924,6.79078947 L4.14,6.73947368 C3.942,6.84210526 3.834,6.24342105 3.726,6.175 C3.87,6.03815789 3.924,6.46578947 4.05,6.5 C3.906,5.67894737 3.978,6.08947368 3.834,5.28552632 C3.6,4.875 3.636,5.38815789 3.402,5.21710526 C3.294,4.84078947 3.078,4.48157895 3.15,4.01973684 L2.97,4.19078947 C2.7,3.48947368 2.646,3.06184211 2.772,2.54868421 C0.252,-2.54868421 0.378,1.76184211 0.378,1.76184211 C0.234,3.88289474 0.99,4.875 1.512,7.35526316 Z" id="Path"></path>
            </g>
            <g id="Group" transform="translate(136.000000, 20.000000)">
                <path d="M3.324375,99.6403571 L3.459375,98.8913095 C3.425625,98.9083333 3.375,99.0955952 3.324375,99.6403571 Z" id="Path"></path>
                <path d="M11.998125,85.7319048 L11.998125,85.9021429 C12.015,85.7829762 12.015,85.7319048 11.998125,85.7319048 Z" id="Path"></path>
                <path d="M8.37,70.4104762 C8.37,70.4275 8.37,70.4445238 8.37,70.4445238 C8.37,70.512619 8.37,70.5807143 8.37,70.6488095 L8.37,70.4104762 Z" id="Path"></path>
                <path d="M4.995,109.054524 C5.923125,98.9253571 6.51375,96.252619 7.2225,85.7319048 C7.66125,80.7269048 8.015625,75.3644048 8.37,70.4615476 C8.26875,68.1122619 8.893125,64.0265476 8.87625,61.2516667 L9.129375,60.1961905 C9.129375,59.2428571 9.163125,58.1192857 9.331875,57.1829762 L9.365625,57.2510714 C9.365625,55.8210714 9.568125,54.2378571 9.568125,53.5228571 L9.61875,53.5909524 L9.736875,51.8715476 L9.7875,52.1779762 C9.855,49.6925 10.0575,47.1559524 10.310625,44.9088095 L10.108125,45.0790476 C10.715625,40.2953571 10.4625,38.5078571 11.07,34.2008333 L11.120625,34.2689286 C11.10375,32.89 11.154375,31.6642857 11.255625,30.5066667 C11.34,29.3320238 11.424375,28.2254762 11.50875,27.1019048 C11.660625,24.9058333 11.761875,22.6927381 11.626875,19.8838095 C11.660625,20.5817857 11.745,19.5944048 11.77875,19.6454762 C11.795625,17.0578571 11.98125,14.3170238 11.61,14.2489286 C11.77875,12.3763095 11.863125,12.7338095 12.031875,12.5125 C11.863125,12.5125 11.964375,10.8782143 12.18375,9.44821429 L12.15,10.1121429 C12.335625,8.7502381 12.571875,7.37130952 12.943125,6.09452381 L12.42,6.77547619 C12.7575,5.73702381 12.8925,5.65190476 13.010625,5.5497619 C13.145625,5.48166667 13.179375,5.34547619 13.550625,4.4602381 L13.2975,4.37511905 C13.921875,3.06428571 14.833125,2.38333333 15.541875,2.60464286 C16.284375,2.74083333 17.0775,3.43880952 17.98875,4.40916667 C19.018125,5.3625 19.929375,6.6052381 20.82375,7.83095238 L22.123125,9.75464286 C22.359375,10.095119 22.393125,10.3164286 22.561875,10.5888095 C22.696875,10.8611905 22.764375,11.2357143 22.8825,11.5591667 C23.5575,14.385119 23.608125,17.6536905 23.540625,20.7690476 C23.473125,23.9184524 23.236875,27.0678571 22.899375,30.1321429 C22.494375,33.2475 22.359375,36.2947619 22.03875,39.1888095 L21.8025,39.6995238 C21.49875,39.9038095 22.055625,42.9510714 21.76875,43.3766667 L21.83625,44.7385714 C21.76875,45.1130952 21.6675,45.9302381 21.63375,45.2492857 C21.56625,46.5090476 21.616875,46.5430952 21.6675,47.4453571 L21.43125,48.7902381 C21.09375,53.7441667 21.2625,57.9320238 20.89125,63.1413095 C20.4525,66.222619 20.62125,70.870119 18.613125,74.3429762 C18.106875,75.1941667 17.465625,75.9432143 16.723125,76.5730952 C15.96375,77.2029762 15.035625,77.7647619 14.1075,78.3946429 C13.19625,79.0245238 12.234375,79.7565476 11.525625,80.7269048 C10.816875,81.6972619 10.445625,82.7527381 10.26,83.6720238 C10.006875,84.9828571 9.973125,86.242619 9.88875,87.4683333 C9.7875,88.6940476 9.68625,89.9538095 9.601875,91.2135714 C9.34875,93.7160714 9.07875,96.3036905 8.825625,98.8913095 C8.26875,104.049524 7.711875,109.241786 7.610625,114.144643 C7.543125,114.451071 7.576875,115.285238 7.610625,115.285238 L6.901875,124.205714 C6.901875,124.205714 6.71625,126.9125 6.463125,130.453452 C6.361875,132.223929 6.226875,134.19869 6.10875,136.156429 C6.04125,138.063095 5.686875,139.714405 4.75875,140.565595 C3.81375,141.450833 2.53125,141.689167 1.839375,141.638095 C1.1475,141.587024 0.725625,141.382738 0.860625,141.689167 C0.928125,141.808333 1.130625,142.06369 1.603125,142.285 C2.075625,142.50631 2.851875,142.676548 3.864375,142.472262 C4.843125,142.302024 6.21,141.655119 7.02,140.157024 C7.880625,138.692976 8.083125,136.752262 8.386875,134.760476 L8.4375,134.981786 C8.960625,130.112976 9.21375,127.04869 9.14625,123.643929 C9.568125,123.133214 9.48375,119.643333 9.68625,118.502738 L9.703125,118.621905 C9.61875,115.625714 10.411875,112.510357 10.36125,109.61631 C10.378125,109.735476 10.479375,109.803571 10.445625,110.4675 C10.546875,108.373571 10.681875,105.513571 10.918125,105.360357 C11.221875,100.355357 11.84625,93.392619 11.728125,90.175119 L11.77875,90.3964286 C11.6775,88.5578571 11.91375,88.0130952 11.9475,86.0042857 C11.98125,85.9021429 12.015,85.7659524 12.031875,85.7829762 C12.015,84.8296429 12.200625,83.4677381 12.825,82.4633333 C13.415625,81.4589286 14.47875,80.7779762 15.08625,80.3013095 L15.255,80.3694048 C16.30125,79.6544048 17.499375,79.0075 18.59625,78.020119 C18.19125,78.377619 17.7525,78.6840476 17.31375,78.9734524 C17.415,78.65 18.106875,78.2754762 19.00125,77.5434524 C19.87875,76.8114286 20.8575,75.6197619 21.36375,74.1386905 C22.595625,71.414881 21.9375,68.4357143 22.30875,65.694881 C22.190625,64.35 22.545,66.8865476 22.528125,64.8947619 C22.7475,64.8436905 22.6125,65.8310714 22.815,65.337381 C22.831875,63.3796429 23.22,62.1369048 23.203125,59.7195238 L23.371875,59.6344048 C23.236875,56.4679762 23.878125,53.6930952 23.675625,51.5821429 C23.675625,48.3305952 24.249375,49.420119 24.080625,46.032381 L24.3675,44.7385714 C24.46875,43.2915476 24.13125,43.700119 24.33375,42.099881 C24.46875,42.2020238 24.553125,40.0910714 24.6375,41.027381 C24.856875,39.2228571 24.890625,37.3842857 24.958125,35.4095238 C25.00875,34.4391667 25.025625,33.332619 25.126875,32.3792857 C25.261875,31.3238095 25.41375,30.1832143 25.633125,28.9915476 C25.464375,27.9190476 25.835625,25.5186905 25.68375,24.7185714 C25.835625,24.5994048 25.9875,19.8497619 26.105625,22.5905952 C26.105625,22.8289286 26.08875,23.2375 26.038125,23.2034524 L26.19,23.5439286 C26.6625,20.7860714 26.274375,18.504881 26.206875,15.73 C26.206875,16.5641667 26.206875,17.6536905 26.08875,16.9216667 C26.08875,16.0704762 26.038125,15.2022619 25.9875,14.3340476 C26.055,14.5042857 26.105625,14.6915476 26.173125,14.8617857 C26.105625,13.5679762 26.004375,12.2571429 25.700625,10.8782143 C25.700625,11.0825 25.68375,11.2867857 25.666875,11.4740476 C25.38,9.55035714 24.991875,8.30761905 23.65875,6.84357143 C23.0175,6.12857143 24.451875,8.44380952 23.304375,6.84357143 C22.64625,5.78809524 21.76875,4.4602381 20.655,3.14940476 C20.08125,2.5025 19.44,1.83857143 18.680625,1.2597619 C18.2925,0.970357143 17.82,0.715 17.364375,0.459642857 C16.8075,0.289404762 16.318125,0.034047619 15.643125,0.0680952381 C15.879375,0.170238095 15.643125,0.204285714 15.22125,0.238333333 C15.001875,0.238333333 14.731875,0.3575 14.445,0.442619048 C14.14125,0.527738095 13.8375,0.663928571 13.60125,0.868214286 L13.381875,0.817142857 C12.403125,1.6002381 12.15,2.16202381 11.91375,2.46845238 C11.6775,2.79190476 11.5425,2.92809524 11.424375,3.06428571 C11.205,3.33666667 10.850625,3.62607143 10.395,5.37952381 L10.36125,5.03904762 L10.445625,6.04345238 C10.22625,7.60964286 10.074375,7.98416667 9.9225,8.42678571 C9.770625,8.86940476 9.61875,9.36309524 9.61875,11.0654762 C9.770625,9.73761905 10.0575,10.4866667 9.804375,12.1039286 L9.68625,11.6783333 C9.61875,12.5805952 9.669375,12.8870238 9.568125,13.4828571 C9.534375,12.9380952 9.34875,13.1764286 9.28125,14.5042857 L9.14625,13.6020238 L9.264375,16.1215476 C8.960625,18.0452381 9.095625,21.0754762 8.8425,21.8585714 C8.8425,21.8585714 8.64,25.9613095 8.87625,26.897619 C8.74125,26.0804762 8.623125,28.3105952 8.454375,27.6636905 C8.521875,28.2084524 8.5725,29.1788095 8.521875,30.2342857 C8.47125,31.3067857 8.37,32.3963095 8.218125,33.0091667 L8.218125,32.7708333 C7.644375,37.3842857 7.83,40.7039286 7.25625,44.8236905 C7.45875,44.6534524 7.18875,46.8325 7.475625,46.3047619 C7.374375,50.6117857 6.328125,54.0846429 6.969375,55.7019048 C6.85125,57.6596429 6.598125,58.000119 6.48,59.0045238 L6.48,58.5278571 C6.24375,62.1879762 6.159375,63.2604762 5.923125,65.9672619 C5.889375,67.3291667 6.226875,67.5675 5.94,70.0019048 C5.855625,69.2017857 5.805,70.2061905 5.7375,71.1084524 C5.754375,70.5296429 5.720625,70.342381 5.535,71.5340476 C5.56875,71.7042857 5.56875,71.9596429 5.56875,72.215 C5.551875,72.2320238 5.551875,72.2660714 5.535,72.2490476 C5.4675,73.7641667 5.518125,73.5088095 5.6025,72.8108333 C5.619375,72.844881 5.653125,72.7938095 5.70375,72.5725 C5.383125,74.1386905 5.349375,76.9646429 5.09625,77.134881 C4.775625,81.6972619 4.75875,84.9828571 4.539375,88.7961905 C4.370625,89.2047619 4.336875,88.3195238 4.3875,87.2129762 L4.21875,89.9197619 C4.033125,89.8857143 4.235625,88.3705952 4.269375,87.5364286 C3.7125,90.719881 4.01625,94.1757143 3.4425,97.9209524 L3.526875,98.7210714 L3.493125,98.942381 C3.5775,98.942381 3.61125,99.7935714 3.5775,100.355357 C3.375,100.866071 3.223125,100.287262 3.07125,102.159881 C2.80125,103.623929 2.80125,106.347738 2.73375,108.288452 C2.851875,107.25 2.9025,107.590476 2.919375,108.050119 C2.851875,108.986429 2.649375,109.497143 2.649375,110.229167 L2.43,110.297262 C2.66625,109.939762 2.446875,112.74869 2.4975,113.10619 C2.295,113.616905 2.480625,111.642143 2.379375,111.40381 C2.0925,115.149048 2.244375,113.276429 1.9575,117.004643 C1.9575,119.013452 2.19375,116.664167 2.295,117.634524 C2.19375,119.405 2.19375,121.124405 1.906875,123.133214 L2.143125,122.503333 C2.025,125.822976 1.839375,127.797738 1.468125,130.010833 C0.97875,154.763452 3.13875,135.373333 3.13875,135.373333 C4.336875,125.652738 4.201875,120.596667 4.995,109.054524 Z" id="Path"></path>
            </g>
        </g>
    </g>
</svg>