<?xml version="1.0" encoding="UTF-8"?>
<svg width="200px" height="136px" viewBox="0 0 200 136" version="1.1" xmlns="http://www.w3.org/2000/svg" xmlns:xlink="http://www.w3.org/1999/xlink">
    <!-- Generator: Sketch 52.6 (67491) - http://www.bohemiancoding.com/sketch -->
    <title>9</title>
    <desc>Created with Sketch.</desc>
    <g id="Page-1" stroke="none" stroke-width="1" fill="none" fill-rule="evenodd" opacity="0.0979352679">
        <g id="9" fill="#606060">
            <g id="Group" transform="translate(86.872881, 0.000000)">
                <path d="M44.8161864,88.5990244 L45.395339,89.3121951 C45.4123729,89.2790244 45.2761017,89.08 44.8161864,88.5990244 Z" id="Path"></path>
                <path d="M28.2592373,3.06829268 C28.1911017,3.08487805 28.1229661,3.10146341 28.0548305,3.13463415 C28.1911017,3.08487805 28.2422034,3.06829268 28.2592373,3.06829268 Z" id="Path"></path>
                <path d="M69.8049153,114.256585 C69.7878814,114.24 69.7708475,114.24 69.7538136,114.24 C69.6686441,114.206829 69.6005085,114.173659 69.515339,114.140488 L69.8049153,114.256585 Z" id="Path"></path>
                <path d="M35.2772034,82.2965854 C43.7771186,91.12 45.7189831,93.6907317 54.7810169,102.663415 C59.0905932,106.992195 64.2007627,111.354146 69.7538136,114.223415 C71.1335593,114.787317 72.9732203,115.666341 74.9832203,116.346341 C76.9932203,117.042927 79.1394915,117.557073 80.9110169,117.706341 L82.2566949,118.038049 C83.5342373,118.054634 84.8799153,118.07122 86.1744915,118.087805 L86.1063559,118.137561 C87.9460169,117.955122 90.0241525,117.673171 90.8928814,117.341463 L90.8247458,117.407805 C91.5572034,117.241951 92.2726271,116.993171 92.9880508,116.74439 L92.6473729,116.926829 C95.6964407,115.799024 98.5070339,113.99122 100.687373,112.117073 L100.380763,112.133659 C102.765508,110.193171 103.974915,108.484878 105.082119,106.859512 C106.172288,105.200976 107.092119,103.559024 108.301525,101.154146 L108.318559,101.237073 C109.425763,98.0029268 110.175254,95.4819512 110.822542,92.8946341 C111.469831,90.3073171 111.929746,87.6370732 111.980847,84.2370732 C111.963814,85.0829268 112.117119,83.8887805 112.151186,83.955122 C112.355593,80.8204878 112.474831,77.52 112.083051,77.4536585 C112.202288,75.1980488 112.287458,75.6292683 112.457797,75.3307317 C112.287458,75.3307317 112.304492,73.3736585 112.355593,71.5990244 L112.389661,72.4117073 C112.440763,70.72 112.457797,69.0282927 112.440763,67.3365854 L112.117119,68.3317073 C112.219322,65.644878 112.525932,67.6517073 112.423729,65.0643902 L112.151186,65.097561 C112.117119,61.3658537 112.355593,59.1434146 111.997881,55.4780488 C111.691271,53.5873171 111.299492,51.6965854 110.686271,49.8390244 C110.379661,48.9102439 110.107119,47.964878 109.749407,47.0526829 L108.608136,44.3326829 C106.938814,40.7668293 104.809576,37.4 102.407797,34.315122 C100.023051,31.2136585 97.2805932,28.4439024 94.5040678,25.8731707 C91.7275424,23.302439 88.8317797,20.9804878 85.9700847,18.8409756 L85.5783051,18.3268293 C85.5442373,17.8956098 82.0522881,16.4692683 81.745678,15.9717073 C81.2687288,15.7063415 80.7577119,15.457561 80.2637288,15.2087805 C79.8889831,14.9268293 79.0883898,14.3629268 79.8208475,14.7443902 C78.5092373,13.9482927 78.4581356,13.9482927 77.4531356,13.4839024 L76.1074576,12.5219512 C70.8610169,9.45365854 66.0915254,7.46341463 60.1637288,5.02536585 C56.6547458,3.4497561 51.3231356,1.64195122 45.6678814,0.746341463 C40.029661,-0.215609756 34.1359322,-0.0829268293 29.9455932,0.68 C24.0859322,1.77463415 17.8685593,3.81463415 12.4858475,7.51317073 C9.79449153,9.35414634 7.35864407,11.5931707 5.43381356,14.1970732 C3.49194915,16.7843902 2.11220339,19.7365854 1.44788136,22.7219512 C1.26050847,23.0868293 1.15830508,24.115122 1.19237288,24.115122 C0.374745763,27.7307317 0.340677966,31.4956098 0.919830508,35.1112195 C0.919830508,35.1112195 1.36271186,38.444878 2.94686441,42.5082927 C4.44584746,46.604878 7.22237288,51.2487805 9.76042373,54.4663415 C12.2984746,57.7004878 14.4277119,59.6078049 14.1892373,58.8946341 C14.1040678,58.5131707 13.405678,57.5180488 12.1451695,55.5278049 C10.884661,53.5541463 8.99389831,50.5853659 7.0690678,46.1736585 L7.23940678,46.3726829 C5.9959322,43.8019512 5.19533898,41.6292683 4.56508475,39.6390244 C4.24144068,38.6439024 3.95186441,37.6985366 3.71338983,36.7697561 C3.42381356,35.8409756 3.25347458,34.9121951 3.015,33.9502439 C3.13423729,33.6185366 3.06610169,32.4741463 2.94686441,31.2468293 C2.91279661,30.0195122 2.84466102,28.6760976 2.9979661,28.0458537 L3.015,28.1785366 C2.96389831,24.7121951 4.51398305,21.3453659 5.85966102,18.3931707 C5.82559322,18.5258537 5.89372881,18.6253659 5.53601695,19.2887805 C6.47288136,17.0829268 8.49991525,14.462439 8.80652542,14.4790244 C10.5950847,12.2565854 13.235339,9.95121951 15.9777966,8.24292683 C18.7032203,6.50146341 21.4627119,5.32390244 23.2001695,4.52780488 L22.9787288,4.6604878 C24.954661,3.73170732 25.6189831,3.74829268 27.9526271,3.10146341 C28.0888983,3.10146341 28.2592373,3.08487805 28.2422034,3.10146341 C29.3664407,2.73658537 31.0868644,2.45463415 32.7561864,2.32195122 C34.4255085,2.15609756 36.0607627,2.18926829 37.014661,2.15609756 L37.1338983,2.30536585 C38.7180508,2.32195122 40.2851695,2.40487805 41.869322,2.57073171 C41.2901695,2.47121951 40.6939831,2.43804878 40.1148305,2.38829268 C40.7791525,2.00682927 43.6749153,2.93560976 47.0816949,3.3502439 C50.2159322,4.0302439 53.7078814,4.09658537 56.8421186,5.40682927 C58.4262712,5.75512195 55.3942373,5.22439024 57.7278814,5.88780488 C57.7278814,6.10341463 56.620678,5.63902439 57.1487288,6.00390244 C59.3972034,6.71707317 60.6917797,7.54634146 63.4172034,8.59121951 L63.4512712,8.7902439 C67.0454237,10.0507317 69.8219492,12.0243902 72.189661,12.9697561 C75.6986441,14.6946341 74.2507627,14.6282927 77.9300847,16.3863415 L79.1565254,17.3980488 C80.6214407,18.3268293 80.3488983,17.8292683 81.9160169,18.9570732 C81.745678,19.0068293 83.8749153,20.3834146 82.8699153,19.8692683 C86.2937288,22.4897561 90.2455932,24.7453659 94.0782203,28.9082927 C95.1513559,29.5717073 97.0250847,31.7112195 97.7575424,32.275122 C97.7405085,32.3746341 98.7455085,33.4029268 99.324661,34.2156098 C99.9208475,35.0117073 100.261525,35.4926829 99.1713559,34.3317073 C98.9839831,34.1326829 98.6944068,33.7512195 98.7455085,33.7512195 L98.3707627,33.5687805 C100.142288,36.2058537 102.135254,37.9804878 103.668305,40.7336585 C103.242458,39.9043902 102.595169,38.8595122 103.106186,39.5063415 L104.588136,42.0273171 L104.145254,41.5795122 C104.843644,42.84 105.439831,44.1502439 106.036017,45.4604878 C106.018983,45.244878 105.984915,45.0458537 105.950847,44.8468293 C106.359661,45.8253659 106.495932,46.5385366 106.751441,47.235122 C106.870678,47.5834146 106.989915,47.9482927 107.160254,48.3463415 C107.296525,48.7609756 107.466864,49.2087805 107.705339,49.7560976 C108.165254,50.7512195 107.330593,47.782439 108.046017,49.8887805 C108.880678,52.5921951 109.493898,56.7882927 109.698305,60.4039024 C109.868644,60.0556098 109.93678,61.017561 110.038983,62.0292683 L109.868644,62.1619512 C110.24339,66.0097561 109.579068,63.5882927 109.800508,67.4195122 L109.681271,67.0878049 L110.021949,68.0995122 C110.294492,71.5990244 109.647203,69.9570732 109.953814,73.8712195 C109.987881,72.3287805 110.362627,73.1580488 110.209322,75.0487805 L110.073051,74.5678049 C110.056017,75.6126829 110.107119,75.977561 110.038983,76.6741463 C109.987881,76.0439024 109.817542,76.3258537 109.766441,77.884878 L109.613136,76.84 L109.766441,79.7756098 C109.476864,82.0146341 109.391695,85.5639024 109.051017,86.4429268 C109.051017,86.4429268 108.880678,87.6204878 108.710339,88.9473171 C108.522966,90.257561 108.284492,91.7004878 108.301525,92.2643902 C108.352627,91.302439 107.739407,93.84 107.722373,93.0770732 C107.671271,94.3043902 106.785508,97.8370732 106.036017,99.0809756 L106.121186,98.8156098 C105.082119,101.237073 104.060085,103.260488 102.884746,105.101463 C101.709407,106.942439 100.363729,108.634146 98.5070339,110.093659 C98.830678,110.126829 96.8036441,111.602927 97.4338983,111.403902 C95.5431356,113.012683 93.3968644,113.875122 91.6423729,114.389268 C89.8708475,114.903415 88.44,115.13561 87.5883051,115.6 C85.3057627,115.84878 84.8799153,115.566829 83.7045763,115.483902 C83.8919492,115.483902 84.0622881,115.483902 84.249661,115.467317 C82.1204237,115.417561 80.740678,115.16878 79.5312712,114.936585 C78.3048305,114.687805 77.2316949,114.389268 75.715678,113.858537 C74.2166949,113.34439 73.7908475,113.659512 71.2357627,112.282927 C72.1215254,112.598049 71.0654237,112.083902 70.1285593,111.553171 C70.7417797,111.868293 70.9461864,111.934634 69.7708475,111.155122 C69.5834746,111.08878 69.2938983,110.972683 69.0383898,110.823415 C69.0383898,110.806829 68.9872881,110.773659 69.0213559,110.773659 C67.4712712,109.861463 67.7097458,110.060488 68.4081356,110.524878 C68.3570339,110.524878 68.4081356,110.574634 68.5955085,110.757073 C67.0794915,109.645854 64.2859322,107.788293 64.2688983,107.44 C59.9763559,104.106341 57.0635593,101.452683 53.7760169,98.2682927 C53.5034746,97.8204878 54.3381356,98.5004878 55.3090678,99.4126829 L52.9924576,97.1239024 C53.1457627,97.0243902 54.3722034,98.3843902 55.104661,99.0643902 C52.6177119,96.1121951 49.3131356,93.5580488 46.3322034,90.124878 L45.565678,89.5443902 L45.395339,89.3287805 C45.3442373,89.395122 44.560678,88.7317073 44.0666949,88.2673171 C43.7260169,87.7034146 44.3562712,88.0517073 42.7891525,86.4595122 C41.6649153,85.0829268 39.2120339,82.8936585 37.5086441,81.284878 C38.360339,82.1970732 38.019661,81.964878 37.5938136,81.6165854 C36.8102542,80.8204878 36.4695763,80.24 35.8052542,79.6760976 L35.8904237,79.4604878 C36.0607627,79.9082927 33.6760169,77.5034146 33.335339,77.2712195 C33.0116949,76.7073171 34.6469492,78.4321951 34.9365254,78.5482927 C31.7682203,75.3307317 33.3523729,76.9395122 30.1840678,73.7385366 C28.3784746,72.1297561 30.3373729,74.1863415 29.4005085,73.4897561 C27.8844915,71.9970732 26.3344068,70.6204878 24.7161864,68.7795122 L25.125,69.4595122 C22.2292373,66.7063415 20.5769492,64.9814634 18.8394915,62.924878 C-3.0490678,42.7073171 12.9287288,59.8731707 12.9287288,59.8731707 C20.8324576,68.497561 25.4486441,72.444878 35.2772034,82.2965854 Z" id="Path"></path>
            </g>
            <g id="Group" transform="translate(5.110169, 53.073171)">
                <path d="M70.8610169,20.9804878 L70.3840678,21.262439 C70.4011017,21.2956098 70.5373729,21.2292683 70.8610169,20.9804878 Z" id="Path"></path>
                <path d="M36.8783898,66.0595122 L36.9635593,65.9765854 C36.9124576,66.0263415 36.8783898,66.0429268 36.8783898,66.0595122 Z" id="Path"></path>
                <path d="M52.6347458,32.275122 C52.6517797,32.275122 52.6517797,32.2585366 52.6517797,32.2585366 L52.7539831,32.1590244 L52.6347458,32.275122 Z" id="Path"></path>
                <path d="M74.4551695,14.9931707 C68.7147458,19.5043902 66.9602542,20.4331707 61.1687288,25.2926829 C58.3411017,27.5317073 55.3942373,30.0029268 52.6688136,32.2585366 C52.1237288,32.8721951 51.1698305,33.6682927 50.3181356,34.315122 C49.8922881,34.6302439 49.5005085,34.862439 49.1768644,34.9785366 C48.8532203,35.1112195 48.580678,35.1443902 48.2740678,35.1609756 C48.1207627,35.0946341 47.9844915,34.995122 47.8311864,34.8956098 C47.3712712,34.8458537 46.7239831,34.5307317 46.2129661,34.1160976 L46.2811017,34.0995122 C45.4123729,33.684878 44.3392373,32.9053659 43.7089831,32.7560976 L43.7771186,32.7395122 C43.3172034,32.5736585 42.874322,32.3414634 42.380339,32.2585366 L42.6528814,32.2585366 C40.540678,31.7278049 38.3262712,31.9102439 36.5547458,32.3746341 L36.7591525,32.5239024 C34.8683898,32.955122 33.7441525,33.635122 32.7050847,34.2487805 C31.7171186,34.9121951 30.8483898,35.5092683 29.4005085,36.4712195 L29.4005085,36.404878 C26.5558475,39.3736585 24.4947458,40.5346341 21.9566949,43.702439 C22.2633051,43.3043902 21.7352542,43.7853659 21.7182203,43.7190244 C20.440678,45.0790244 19.0609322,46.5219512 19.3164407,46.8039024 C18.3625424,47.7658537 18.4477119,47.5004878 18.2092373,47.5336585 C18.3455085,47.6497561 17.5619492,48.5287805 16.8124576,49.2917073 L17.1020339,48.8936585 L15.0068644,51.0829268 L15.6541525,50.8839024 C14.4447458,51.9619512 15.0920339,50.9170732 14.0529661,52.0614634 L14.2573729,52.2273171 C12.6561864,53.7697561 11.4467797,54.4331707 9.77745763,55.8263415 C6.67728814,58.9609756 3.0320339,62.2780488 1.05610169,66.822439 C0.10220339,69.0614634 -0.255508475,71.7814634 0.681355932,74.1531707 C1.55008475,76.5414634 3.50898305,78.2995122 5.45084746,79.4439024 L5.70635593,79.8087805 C5.74042373,80.1902439 8.17627119,80.4390244 8.38067797,80.7707317 L9.40271186,80.9697561 C9.65822034,81.102439 10.220339,81.3180488 9.72635593,81.235122 C10.6291525,81.5170732 10.6632203,81.4673171 11.3445763,81.5502439 L12.2814407,81.9482927 C13.9848305,82.3795122 15.909661,82.8439024 18.0388983,82.2302439 C19.0779661,81.8985366 19.929661,81.3346341 20.6621186,80.8039024 C21.3945763,80.2565854 22.0759322,79.7258537 22.8424576,79.195122 C26.6921186,76.8234146 33.3012712,71.5326829 37.0998305,68.497561 C39.7230508,66.2917073 42.8232203,64.235122 45.9233898,62.1619512 C47.4734746,61.1170732 49.0405932,60.0887805 50.5395763,59.0107317 C52.0215254,57.9326829 53.5205085,56.8878049 54.8491525,55.577561 C55.0705932,55.4614634 55.4623729,54.9473171 55.4283051,54.9307317 C57.0805932,53.4214634 58.6136441,51.1990244 58.7328814,48.6614634 C58.7328814,48.6614634 58.7328814,48.5121951 58.7499153,48.2634146 C58.7839831,47.9980488 58.7328814,47.6331707 58.6817797,47.1687805 C58.5795763,46.24 58.2218644,44.9795122 57.4894068,43.7687805 C56.0585593,41.297561 53.435339,39.1580488 51.3231356,37.8643902 C49.1938983,36.5707317 47.575678,35.9736585 47.7800847,36.4380488 C47.8652542,36.6868293 48.4273729,37.2009756 49.4834746,38.1297561 C50.5225424,39.075122 52.1748305,40.435122 53.8611864,42.657561 L53.7078814,42.5912195 C55.8200847,45.1287805 56.3651695,46.92 56.4673729,48.96 C56.2118644,49.0926829 56.1607627,49.6897561 55.9222881,50.2868293 C55.7178814,50.9004878 55.3601695,51.5307317 55.104661,51.7960976 L55.1216949,51.7297561 C54.2359322,53.4712195 52.089661,54.4 50.6247458,55.8097561 C50.6758475,55.7434146 50.6417797,55.6273171 51.0165254,55.3453659 C49.8411864,56.2741463 48.2229661,57.5678049 48.0015254,57.4517073 C45.1398305,59.6243902 41.034661,62.5268293 39.3994068,64.1687805 L39.4845763,64.0195122 C38.5817797,64.9814634 38.1388983,65.0478049 37.0316949,66.0263415 C36.9465254,66.0429268 36.8613559,66.0926829 36.8613559,66.0760976 C35.8563559,67.1209756 33.5227119,68.5804878 32.6539831,69.3434146 L32.500678,69.2770732 L30.2351695,70.9853659 L31.1038983,70.3717073 C31.0527966,70.9190244 29.2131356,71.4497561 27.7141525,72.8760976 C26.13,73.9873171 25.0738983,75.8780488 23.3364407,76.9063415 C22.6891525,77.6195122 23.8304237,76.16 22.7572881,77.1219512 C22.5869492,76.9726829 23.2172034,76.6243902 22.8083898,76.7073171 C21.7352542,77.6195122 20.8154237,77.9180488 19.5208475,79.0292683 L19.3675424,78.9297561 C18.5839831,79.6926829 17.7322881,80.0741463 16.9487288,80.1239024 C16.1481356,80.1902439 15.3816102,80.057561 14.6491525,80.0741463 C12.400678,79.7756098 13.2523729,79.3112195 10.8676271,79.0458537 L10.05,78.5814634 C9.13016949,78.2331707 9.26644068,78.6312195 8.29550847,78.1336585 C8.39771186,78.0341463 7.08610169,77.4868293 7.71635593,77.6195122 C6.67728814,77.022439 5.62118644,76.4917073 4.68432203,75.7121951 C3.76449153,74.9492683 2.9809322,73.8546341 2.86169492,72.4614634 C2.38474576,71.9307317 2.58915254,70.4878049 2.48694915,69.9902439 C2.53805085,69.9570732 2.69135593,69.2273171 2.89576271,68.7297561 C3.10016949,68.2321951 3.25347458,67.9502439 3.08313559,68.7960976 C3.06610169,68.9453659 2.9979661,69.177561 2.94686441,69.1443902 L3.0490678,69.3765854 C3.78152542,67.9170732 4.0370339,66.4409756 5.12720339,64.9814634 C4.75245763,65.3795122 4.41177966,65.9931707 4.56508475,65.5287805 C4.87169492,65.0643902 5.21237288,64.6165854 5.57008475,64.1687805 L5.46788136,64.5336585 C5.9959322,63.8868293 6.55805085,63.24 7.15423729,62.6263415 L6.81355932,62.7756098 C7.71635593,61.88 8.24440678,61.7639024 9.0790678,60.5697561 C9.45381356,60.0058537 8.04,61.2829268 8.97686441,60.2712195 C10.2884746,59.1102439 12.2644068,57.3687805 13.8655932,55.8263415 C13.5760169,55.8429268 14.0018644,55.4282927 14.410678,54.9473171 L14.5810169,55.0136585 C16.08,53.1726829 15.4667797,54.6487805 16.9827966,52.857561 L16.914661,53.0897561 L17.1020339,52.4097561 C18.3455085,50.684878 18.1581356,51.8292683 19.4867797,49.8556098 C18.8565254,50.5356098 18.9076271,49.9219512 19.7763559,49.142439 L19.6911864,49.457561 C20.1170339,48.9765854 20.2192373,48.7941463 20.5428814,48.5121951 C20.3384746,48.8439024 20.5769492,48.8107317 21.2072034,48.1307317 L20.9176271,48.7112195 L21.939661,47.2517073 C23.0298305,46.4058537 24.3925424,44.7307317 24.954661,44.4819512 C24.954661,44.4819512 27.1009322,42.475122 27.3905085,41.8282927 C27.1009322,42.342439 28.2592373,41.2643902 28.0718644,41.7121951 C28.4466102,41.0653659 29.9455932,39.4731707 30.7461864,39.0917073 L30.6269492,39.2078049 C33.165,37.3668293 34.8683898,35.7414634 37.4916102,35.1941463 C37.3212712,35.0282927 38.7010169,34.8292683 38.3092373,34.6634146 C39.6549153,34.2985366 40.8983898,34.5473171 41.8011864,34.9121951 C42.7039831,35.2936585 43.3683051,35.6585366 44.049661,35.6585366 C45.2590678,36.3717073 45.395339,36.72 46.1277966,37.1180488 L45.7700847,36.9853659 C47.1157627,37.6819512 48.410339,37.8478049 49.415339,37.6156098 C50.4373729,37.3834146 51.2038983,36.9356098 52.0555932,36.3219512 C52.8391525,35.6253659 52.6858475,35.2770732 54.1166949,34.2321951 C53.7589831,34.6965854 54.3040678,34.2321951 54.8150847,33.817561 C54.5084746,34.0995122 54.440339,34.2156098 55.1727966,33.7512195 C55.2409322,33.635122 55.3601695,33.502439 55.4964407,33.3697561 C55.5134746,33.3697561 55.5475424,33.3531707 55.5305085,33.3863415 C56.3481356,32.6565854 56.1777966,32.7560976 55.7689831,33.0546341 C55.7689831,33.0214634 55.7178814,33.0214634 55.5816102,33.1043902 C56.5866102,32.5404878 58.0344915,31.1141463 58.3070339,31.2136585 C60.8280508,29.1073171 62.4973729,27.4487805 64.5584746,25.657561 C64.8821186,25.5580488 64.4562712,26.0390244 63.8600847,26.5863415 L65.3420339,25.342439 C65.4442373,25.4917073 64.5414407,26.1219512 64.0985593,26.52 C66.0915254,25.2926829 67.6245763,23.3190244 69.9071186,21.8263415 L70.2477966,21.3619512 L70.3840678,21.2790244 C70.3329661,21.2292683 70.7417797,20.764878 71.0313559,20.4995122 C71.4231356,20.3834146 71.2357627,20.7980488 72.2748305,19.9521951 C73.194661,19.404878 74.5744068,18.0117073 75.5964407,17.0663415 C75.0002542,17.5141463 75.1365254,17.2985366 75.3409322,17.0497561 C75.8519492,16.6185366 76.2607627,16.502439 76.6184746,16.1209756 L76.8058475,16.2370732 C76.4651695,16.2536585 78.0322881,14.9765854 78.1685593,14.7609756 C78.560339,14.644878 77.4531356,15.5239024 77.385,15.7063415 C79.4631356,13.9980488 78.4240678,14.8604878 80.5022034,13.1521951 C81.5242373,12.1239024 80.1615254,13.1687805 80.5873729,12.5882927 C81.5412712,11.7590244 82.41,10.88 83.6364407,10.0673171 L83.1594915,10.2165854 C84.9139831,8.60780488 86.0382203,7.74536585 87.4179661,6.88292683 C89.0021186,5.35707317 90.3307627,4.1795122 90.9439831,3.03512195 C91.6083051,1.90731707 91.5061017,1.04487805 91.2676271,0.68 C91.0461864,0.331707317 90.7566102,0.0497560976 90.6714407,0.0663414634 C90.5522034,0.0663414634 90.5351695,0.265365854 90.5692373,0.580487805 C90.5351695,0.945365854 90.4329661,1.34341463 89.9219492,1.95707317 C89.4620339,2.52097561 88.8488136,3.01853659 88.8488136,3.01853659 C88.2866949,3.46634146 87.5883051,3.94731707 86.9750847,4.42829268 C86.3448305,4.90926829 85.765678,5.37365854 85.2035593,5.80487805 C84.079322,6.71707317 83.0402542,7.59609756 81.9671186,8.50829268 C79.8378814,10.3326829 77.6405085,12.3395122 74.4551695,14.9931707 Z" id="Path"></path>
            </g>
            <g id="Group" transform="translate(0.000000, 44.780488)">
                <path d="M72.9221186,21.4780488 L72.4622034,21.76 C72.4962712,21.7765854 72.6155085,21.7102439 72.9221186,21.4780488 Z" id="Path"></path>
                <path d="M28.9576271,70.3053659 L29.0427966,70.2058537 C28.974661,70.2721951 28.974661,70.3053659 28.9576271,70.3053659 Z" id="Path"></path>
                <path d="M55.0194915,32.8390244 C55.0365254,32.8390244 55.0365254,32.822439 55.0365254,32.822439 L55.1387288,32.7229268 L55.0194915,32.8390244 Z" id="Path"></path>
                <path d="M76.3970339,15.4741463 C70.7588136,20.0019512 69.0383898,20.9473171 63.3661017,25.8234146 C60.5895763,28.0790244 57.7108475,30.5668293 55.0365254,32.822439 C54.4914407,33.4526829 53.605678,34.182439 52.6858475,34.9453659 C52.2259322,35.3268293 51.7660169,35.7082927 51.3231356,36.0731707 C51.2209322,36.1726829 51.1868644,36.2390244 51.084661,36.404878 C51.0335593,36.3717073 51.0165254,36.3385366 50.9994915,36.2556098 C50.9654237,36.2721951 50.9313559,36.2390244 50.8972881,36.2058537 C50.8802542,36.1892683 50.8632203,36.1560976 50.8461864,36.1229268 C50.8121186,36.0731707 50.8802542,36.1229268 50.7269492,35.9073171 L50.7950847,35.9239024 C50.0455932,35.0614634 49.0065254,34.1326829 48.4955085,33.8507317 L48.5636441,33.8507317 C48.1718644,33.5687805 47.7460169,33.3531707 47.3372034,33.1209756 L47.575678,33.1873171 C45.7189831,32.2917073 43.6919492,31.8604878 41.9204237,31.6614634 L42.0566949,31.8604878 C40.1659322,31.6282927 38.8372881,31.8604878 37.6278814,32.1756098 C36.4014407,32.4907317 35.2772034,32.955122 33.7611864,33.6185366 L33.7782203,33.5521951 C32.0577966,34.7795122 30.7291525,35.6917073 29.4345763,36.6868293 C28.14,37.6819512 26.9305932,38.7765854 25.7382203,40.4517073 C26.0277966,40.0370732 25.5167797,40.5512195 25.4997458,40.484878 C24.290339,41.9112195 23.0298305,43.4370732 23.3023729,43.6858537 C22.4166102,44.697561 22.4847458,44.4321951 22.2633051,44.4653659 C22.3995763,44.564878 21.6841525,45.4936585 21.0027966,46.2731707 L21.275339,45.875122 L19.3164407,48.097561 L19.9466949,47.8653659 C18.8054237,48.9765854 19.3845763,47.915122 18.4136441,49.0760976 L18.6180508,49.2419512 C17.085,50.817561 15.8926271,51.4809756 14.2744068,52.8741463 C11.1401695,55.9921951 7.93779661,59.2263415 4.61618644,62.3443902 C2.9809322,63.92 1.17533898,65.8439024 0.630254237,68.3482927 C0.0511016949,70.8360976 0.749491525,73.257561 1.65228814,75.2478049 L1.65228814,75.6790244 C1.46491525,75.9941463 3.27050847,77.5365854 3.25347458,77.9180488 L3.95186441,78.6478049 C4.07110169,78.8965854 4.39474576,79.3941463 4.0370339,79.0458537 C4.58211864,79.7756098 4.65025424,79.7590244 5.12720339,80.2068293 L5.60415254,81.0692683 C6.71135593,82.462439 8.0229661,83.8390244 9.91372881,84.6517073 C11.8215254,85.4478049 14.0870339,85.3317073 16.0459322,84.5521951 C18.5499153,83.8058537 21.2072034,81.4507317 23.4045763,79.1287805 C25.6700847,76.8068293 27.9355932,74.4185366 29.5708475,72.6604878 C34.0848305,67.6185366 40.5236441,62.924878 45.1227966,57.7336585 C45.3101695,57.6009756 45.6678814,57.1365854 45.6338136,57.12 C47.1327966,55.6439024 48.7169492,54.2009756 50.1477966,52.5258537 C50.1477966,52.5258537 50.4714407,52.1443902 50.9824576,51.4809756 C51.4934746,50.817561 52.1577966,49.8390244 52.7539831,48.6117073 C53.3331356,47.4009756 53.8100847,45.8419512 53.8441525,44.3160976 C53.8952542,42.7902439 53.5886441,41.2478049 52.9754237,40.0536585 C52.3792373,38.8429268 51.5275424,37.9804878 50.8802542,37.5990244 C50.2159322,37.2009756 49.8752542,37.1512195 49.9604237,37.4 C50.0115254,37.6653659 50.6247458,38.1960976 51.1868644,39.4234146 C51.7489831,40.617561 52.2429661,42.6409756 51.5105085,45.1785366 L51.4764407,45.0292683 C51.1698305,46.5219512 50.5225424,47.6331707 49.9604237,48.6614634 C49.3472034,49.6731707 48.7510169,50.5521951 48.1037288,51.5307317 C47.5927119,51.5639024 46.1788983,53.5209756 45.4975424,54.0019512 L45.5316102,53.9190244 C44.2370339,55.6107317 42.2440678,56.804878 40.9835593,58.4136585 C41.0176271,58.3307317 40.9665254,58.2312195 41.3072034,57.8995122 C40.2851695,58.977561 38.8883898,60.4536585 38.6499153,60.3707317 C36.1629661,62.8917073 32.5517797,66.2917073 31.1890678,68.1326829 L31.2572034,67.9834146 C30.5077119,69.0614634 30.0818644,69.177561 29.145,70.2887805 C29.0598305,70.3219512 28.9916949,70.3882927 28.9916949,70.3717073 C28.1570339,71.5326829 26.0788983,73.2741463 25.3294068,74.1531707 L25.1761017,74.1034146 L23.2001695,76.0936585 L23.9666949,75.3804878 C24.0007627,75.9278049 22.2633051,76.6907317 21.0027966,78.2995122 C19.6400847,79.56 18.8224576,81.5502439 16.9998305,82.4292683 C16.3014407,83.0595122 17.5449153,81.7658537 16.420678,82.5785366 C16.2844068,82.4292683 16.8976271,82.1473171 16.5058475,82.1804878 C15.3986441,82.8936585 14.5128814,82.96 13.065,83.1921951 L12.9968644,83.0263415 C12.06,83.1921951 11.1572034,82.8936585 10.4758475,82.4292683 C9.77745763,81.9814634 9.24940678,81.417561 8.65322034,81.0195122 C7.0690678,79.5102439 8.04,79.6097561 6.30254237,78.017561 L5.94483051,77.1717073 C5.39974576,76.3590244 5.29754237,76.7570732 4.76949153,75.8117073 C4.92279661,75.795122 4.15627119,74.617561 4.59915254,75.0653659 C4.08813559,73.9873171 3.50898305,72.9756098 3.15127119,71.8312195 C2.81059322,70.7034146 2.72542373,69.3765854 3.40677966,68.1990244 C3.32161017,67.5356098 4.29254237,66.3746341 4.47991525,65.8770732 C4.56508475,65.8604878 6.74542373,63.5882927 5.63822034,65.0478049 C5.55305085,65.1639024 5.34864407,65.3629268 5.33161017,65.3131707 L5.31457627,65.5785366 C6.74542373,64.5336585 7.68228814,63.1404878 9.11313559,61.8634146 C8.65322034,62.2117073 8.10813559,62.742439 8.39771186,62.3112195 L9.72635593,61.1170732 L9.55601695,61.4653659 L11.5489831,59.6907317 L11.1572034,59.8234146 C12.1622034,58.9941463 12.7072881,58.8780488 13.5760169,57.6673171 C13.9507627,57.1034146 12.5369492,58.3639024 13.4738136,57.3687805 C14.8024576,56.2243902 16.7783898,54.4995122 18.3455085,52.9239024 C18.0559322,52.9404878 18.4817797,52.5258537 18.8735593,52.044878 L19.0438983,52.1112195 C20.4917797,50.2370732 19.9126271,51.7297561 21.3605085,49.8887805 L21.3094068,50.1209756 L21.4627119,49.4409756 C22.6210169,47.6663415 22.5017797,48.8273171 23.7111864,46.7873171 C23.115,47.5004878 23.1490678,46.8868293 23.949661,46.0741463 L23.8815254,46.3892683 C24.2733051,45.8917073 24.3584746,45.6926829 24.6650847,45.3941463 C24.4777119,45.7258537 24.7161864,45.6926829 25.295339,44.9795122 L25.0398305,45.5765854 L25.959661,44.0673171 C26.964661,43.155122 28.2081356,41.4634146 28.7532203,41.2312195 C28.7532203,41.2312195 29.2642373,40.7336585 29.809322,40.1863415 C30.3544068,39.6390244 30.9676271,39.0419512 31.1209322,38.7434146 C30.7972881,39.2243902 32.0066949,38.2790244 31.7852542,38.6936585 C32.1940678,38.08 33.8122881,36.7365854 34.6299153,36.5043902 L34.510678,36.6039024 C35.8733898,35.9239024 37.014661,35.36 38.1388983,35.0117073 C39.2801695,34.6634146 40.5066102,34.497561 41.8182203,34.7131707 C41.7160169,34.497561 43.0957627,34.7629268 42.7891525,34.497561 C44.2029661,34.5970732 45.3783051,35.1609756 46.2129661,35.7082927 C47.0816949,36.2390244 47.575678,36.7531707 48.2059322,36.8360976 C48.6317797,37.3170732 48.7850847,37.5160976 49.0235593,38.1629268 C49.2279661,38.7268293 49.415339,39.2243902 49.6027119,39.7053659 L49.3472034,39.2409756 C49.6367797,39.8878049 49.8922881,40.4682927 49.9944915,40.7004878 C52.0215254,39.0419512 52.8391525,38.3619512 54.5255085,36.9853659 C55.2238983,36.3219512 55.104661,35.9404878 56.5014407,34.9121951 C56.1607627,35.3765854 56.6888136,34.9121951 57.1827966,34.497561 C56.8761864,34.7795122 56.8080508,34.8956098 57.5234746,34.4312195 C57.5916102,34.315122 57.7108475,34.182439 57.8300847,34.0497561 C57.8471186,34.0497561 57.8811864,34.0331707 57.8641525,34.0663415 C58.6647458,33.3365854 58.4944068,33.4195122 58.0855932,33.7346341 C58.0855932,33.7014634 58.0344915,33.7014634 57.8982203,33.7843902 C58.8861864,33.2039024 60.3,31.777561 60.5725424,31.8770732 C63.0424576,29.7707317 64.6777119,28.0956098 66.7047458,26.3043902 C67.0283898,26.204878 66.6025424,26.6858537 66.0233898,27.2331707 L67.4712712,25.9726829 C67.5734746,26.1219512 66.6877119,26.7521951 66.2618644,27.1502439 C68.2207627,25.9229268 69.7027119,23.9326829 71.9511864,22.4234146 L72.2918644,21.9590244 L72.4281356,21.8760976 C72.3770339,21.8263415 72.7688136,21.3619512 73.0583898,21.0965854 C73.4501695,20.9804878 73.2798305,21.3785366 74.2848305,20.5326829 C75.1876271,19.9853659 76.5333051,18.5756098 77.5383051,17.6468293 C76.9421186,18.0946341 77.0783898,17.8790244 77.2827966,17.6302439 C77.7938136,17.1990244 78.1855932,17.0829268 78.5433051,16.7014634 L78.730678,16.817561 C78.39,16.8341463 79.9230508,15.5570732 80.059322,15.324878 C80.4511017,15.2087805 79.3609322,16.0878049 79.3098305,16.2702439 C81.3538983,14.5619512 80.3318644,15.4078049 82.3759322,13.7160976 C83.3638983,12.6878049 82.0522881,13.7326829 82.4440678,13.1521951 C83.3809322,12.3229268 84.2326271,11.4273171 85.425,10.6146341 L84.9480508,10.7639024 C86.6684746,9.15512195 87.775678,8.27609756 89.1213559,7.41365854 C90.6544068,5.87121951 91.9830508,4.7102439 92.5792373,3.56585366 C93.2094915,2.43804878 93.0561864,1.57560976 92.7495763,1.3102439 C92.4940678,1.06146341 92.1363559,0.829268293 92.0511864,0.87902439 C91.9319492,0.895609756 91.9660169,1.09463415 92.0682203,1.4097561 C92.0682203,1.57560976 92.0341525,1.65853659 91.9660169,1.80780488 C91.8978814,1.95707317 91.7445763,2.23902439 91.5401695,2.50439024 C91.0972881,3.06829268 90.5181356,3.53268293 90.5181356,3.53268293 C89.8538136,4.04682927 89.2405932,4.51121951 88.6444068,4.94243902 C88.0311864,5.42341463 87.4520339,5.88780488 86.9069492,6.33560976 C85.7997458,7.24780488 84.7777119,8.12682927 83.7386441,9.05560976 C81.6775424,10.7970732 79.5142373,12.8039024 76.3970339,15.4741463 Z" id="Path"></path>
            </g>
            <g id="Group" transform="translate(91.983051, 14.926829)">
                <path d="M14.0188983,13.915122 L14.1722034,14.2136585 C14.2062712,14.1804878 14.1722034,14.097561 14.0188983,13.915122 Z" id="Path"></path>
                <path d="M68.8850847,75.4965854 C68.9021186,75.5131707 68.9191525,75.5297561 68.9532203,75.5463415 C68.9021186,75.5131707 68.8850847,75.4965854 68.8850847,75.4965854 Z" id="Path"></path>
                <path d="M20.3214407,25.1434146 C20.2873729,25.1102439 20.270339,25.0936585 20.2362712,25.0770732 L20.3214407,25.1434146 Z" id="Path"></path>
                <path d="M9.55601695,12.4887805 C12.3495763,15.8390244 12.8265254,16.9502439 15.909661,20.2507317 C17.3064407,21.8926829 18.8905932,23.5678049 20.3214407,25.1268293 C21.2072034,25.6907317 22.1440678,27.2 23.115,27.9463415 L23.3023729,28.3941463 C23.6260169,28.6429268 24.0007627,28.9746341 24.2051695,29.3395122 L24.1540678,29.3560976 C24.6480508,29.737561 25.0568644,30.3014634 25.295339,30.4839024 L25.2442373,30.5004878 L25.7552542,31.0478049 L25.6189831,30.9980488 C26.4195763,31.7112195 27.1520339,32.5239024 27.7482203,33.2868293 L27.8504237,33.1043902 C29.0427966,34.7960976 29.8604237,35.0946341 30.8994915,36.6536585 L30.8483898,36.6702439 C32.8072881,38.0965854 33.0457627,39.6887805 35.0387288,41.1814634 C34.7832203,40.9990244 35.0557627,41.3473171 34.9876271,41.3473171 C35.7711864,42.1434146 36.5888136,43.022439 36.8954237,42.7902439 C37.4405085,43.4039024 37.2361017,43.3707317 37.2020339,43.5365854 C37.3212712,43.4204878 37.849322,43.9014634 38.2751695,44.382439 L38.0366949,44.2 L39.2972034,45.5268293 L39.2972034,45.062439 C39.8763559,45.8419512 39.1609322,45.4936585 39.8422881,46.1404878 L40.029661,45.9580488 C40.8813559,46.9863415 41.1027966,47.8321951 41.8011864,48.9268293 C45.2931356,53.0068293 49.6708475,56.8878049 52.6517797,60.9014634 L52.6517797,61.2 C52.4984746,61.4653659 53.8952542,61.9463415 53.8271186,62.2614634 L54.3211017,62.6097561 C54.3892373,62.7590244 54.5766102,63.057561 54.3381356,62.8917073 C54.6958475,63.3063415 54.7299153,63.2731707 55.0535593,63.5053659 L55.3090678,64.0526829 C56.620678,65.7278049 58.1026271,66.8390244 59.5505085,68.5473171 C61.0665254,70.7863415 64.7117797,74.302439 66.8239831,76.3258537 C69.9071186,79.0790244 72.2407627,83.3414634 75.4431356,86.1112195 C75.5112712,86.2439024 75.8178814,86.4429268 75.8349153,86.4097561 L78.39,89.262439 C78.39,89.262439 90.8928814,103.028293 83.1254237,91.0536585 L83.244661,91.0868293 C81.9330508,89.444878 81.064322,88.4497561 79.8549153,87.5873171 C79.9911864,87.1560976 78.7136441,86.2936585 78.4922034,85.8458537 L78.5433051,85.862439 C77.4531356,85.1160976 76.9591525,83.7560976 75.9200847,83.0263415 C75.9711864,83.0429268 76.0733898,82.9931707 76.2777966,83.1921951 C75.6305085,82.5619512 74.7447458,81.6995122 74.8639831,81.5170732 C73.365,79.9746341 71.4401695,77.6858537 70.2307627,76.9063415 L70.35,76.9395122 C69.6345763,76.524878 69.6345763,76.2097561 68.9532203,75.6458537 C68.9361864,75.5960976 68.9191525,75.5297561 68.9361864,75.5297561 C68.1866949,75.0487805 67.2327966,73.7053659 66.6877119,73.257561 L66.7728814,73.124878 L65.5975424,71.8809756 L66.0063559,72.3785366 C65.5464407,72.4780488 65.3420339,71.2507317 64.3029661,70.5209756 C63.5705085,69.6253659 62.0885593,69.3434146 61.4242373,68.315122 C60.8961864,68.0165854 62.0033898,68.4809756 61.3220339,67.9502439 C61.4583051,67.7843902 61.6967797,68.1658537 61.6797458,67.8839024 C61.0324576,67.32 60.9302542,66.7229268 60.1126271,66.0429268 L60.2148305,65.9102439 C59.0735593,65.1141463 58.6817797,63.8702439 57.8471186,63.3892683 C56.8080508,62.4439024 57.6086441,62.377561 56.3822034,61.515122 L56.1777966,60.9512195 C55.7860169,60.4702439 55.6667797,60.8019512 55.2920339,60.2214634 C55.4283051,60.155122 54.7980508,59.5082927 55.1727966,59.7073171 C54.3040678,58.3970732 52.8221186,57.5678049 51.7319492,55.7931707 C51.2209322,55.6439024 50.6588136,54.764878 50.2840678,54.6487805 C50.3351695,54.5326829 48.9213559,53.0897561 49.8922881,53.7863415 C49.9774576,53.8526829 50.0966949,53.9853659 50.0455932,54.0019512 L50.2670339,54.0019512 C49.7219492,52.9239024 48.7169492,52.5258537 47.9844915,51.6302439 C48.1718644,51.9287805 48.4784746,52.2439024 48.1888983,52.0946341 L47.4905085,51.2819512 L47.7460169,51.364878 L46.7410169,50.1209756 L46.7580508,50.4029268 C46.2981356,49.7560976 46.3492373,49.3746341 45.565678,48.8604878 C45.1909322,48.644878 45.889322,49.5570732 45.2931356,48.9765854 C44.6799153,48.1141463 43.7771186,46.8370732 42.9254237,45.8087805 C42.8572881,46.0243902 42.6188136,45.7590244 42.3462712,45.5102439 L42.4484746,45.377561 C41.3242373,44.4653659 42.380339,44.7473171 41.3072034,43.8185366 L41.4775424,43.835122 L40.9665254,43.7853659 C39.859322,43.0556098 40.7791525,43.0556098 39.4845763,42.2926829 C39.8763559,42.6907317 39.3823729,42.7239024 38.9735593,42.16 L39.2120339,42.1931707 C38.9394915,41.9278049 38.8032203,41.8780488 38.6499153,41.662439 C38.8713559,41.7785366 38.9054237,41.5960976 38.5136441,41.1980488 L38.9224576,41.3473171 L37.9855932,40.7502439 C37.5767797,40.0204878 36.5547458,39.2078049 36.5036441,38.8097561 C36.5036441,38.8097561 35.4305085,37.4331707 34.9705932,37.2839024 C35.3283051,37.4497561 34.7321186,36.6868293 35.0557627,36.7697561 C34.6128814,36.537561 33.6249153,35.6253659 33.4034746,35.1112195 L33.4886441,35.177561 C32.3133051,33.5687805 31.0357627,32.8058537 30.0307627,31.3131707 C29.9285593,31.4956098 29.4005085,30.7326829 29.3494068,31.0643902 C27.9355932,29.8370732 27.5097458,28.2117073 26.4877119,28.2117073 C25.9085593,27.6146341 25.9766949,27.3492683 25.7041525,27.0009756 L25.8744915,27.1170732 C24.784322,25.9726829 24.4777119,25.6409756 23.7282203,24.7453659 C23.285339,24.3473171 22.944661,24.5131707 22.3314407,23.6673171 C22.6721186,23.8331707 22.3655085,23.5180488 22.11,23.2360976 C22.2973729,23.4019512 22.3825424,23.435122 22.11,22.9873171 C22.0248305,22.9541463 21.939661,22.8878049 21.8544915,22.8380488 C21.8544915,22.8214634 21.8544915,22.804878 21.8715254,22.804878 C21.3945763,22.3404878 21.445678,22.4565854 21.6330508,22.7053659 C21.5989831,22.7053659 21.5989831,22.7385366 21.6330508,22.8380488 C21.3264407,22.2078049 20.3725424,21.4282927 20.5088136,21.2126829 C19.1801695,19.7697561 18.0559322,18.8741463 16.8976271,17.7131707 C16.8805932,17.497561 17.2042373,17.7131707 17.5619492,18.044878 L16.7613559,17.1990244 C16.914661,17.0829268 17.2723729,17.6302439 17.5449153,17.8790244 C16.8635593,16.6517073 15.4497458,15.9219512 14.5980508,14.5287805 L14.2744068,14.3629268 L14.2233051,14.28 C14.1722034,14.3297561 13.8485593,14.1307317 13.6782203,13.964878 C13.6441525,13.6995122 13.9677966,13.7492683 13.4397458,13.1521951 C13.1331356,12.5717073 12.1962712,11.8419512 11.5830508,11.2780488 C11.8555932,11.6263415 11.7022881,11.5765854 11.5319492,11.4770732 C11.2594068,11.1785366 11.2423729,10.8965854 10.9868644,10.7141463 L11.1231356,10.5482927 C11.0720339,10.7970732 10.2714407,9.90146341 10.1011017,9.83512195 C10.0670339,9.5697561 10.6121186,10.2165854 10.7654237,10.2165854 C9.69228814,9.02243902 10.2373729,9.6195122 9.16423729,8.42536585 C8.48288136,7.87804878 9.11313559,8.67414634 8.70432203,8.47512195 C8.17627119,7.92780488 7.58008475,7.46341463 7.10313559,6.73365854 L7.13720339,7.06536585 C6.09813559,6.08682927 5.55305085,5.42341463 5.07610169,4.57756098 C-3.0490678,-2.45463415 1.9929661,4.22926829 1.9929661,4.22926829 C4.34364407,7.56292683 6.18330508,8.82341463 9.55601695,12.4887805 Z" id="Path"></path>
            </g>
            <g id="Group" transform="translate(151.601695, 51.414634)">
                <path d="M12.4688136,27.4321951 L12.6050847,27.697561 C12.6221186,27.6643902 12.6050847,27.5814634 12.4688136,27.4321951 Z" id="Path"></path>
                <path d="M21.4797458,3.31707317 C21.4627119,3.31707317 21.445678,3.33365854 21.4116102,3.33365854 C21.4627119,3.33365854 21.4797458,3.31707317 21.4797458,3.31707317 Z" id="Path"></path>
                <path d="M18.8394915,36.902439 C18.8054237,36.8858537 18.7883898,36.8692683 18.754322,36.8692683 L18.8394915,36.902439 Z" id="Path"></path>
                <path d="M8.29550847,26.3541463 C10.7483898,29.3726829 11.2083051,30.3843902 14.2573729,33.1043902 C15.6541525,34.4643902 17.3064407,35.7414634 18.8224576,36.8858537 C19.7252542,37.2009756 20.7983898,38.4117073 21.8374576,38.8263415 L22.0759322,39.1912195 C22.4336441,39.3404878 22.8083898,39.5560976 23.0638983,39.8214634 L23.0127966,39.8546341 C23.5408475,40.0536585 24.0177966,40.4517073 24.290339,40.5512195 L24.2392373,40.5843902 L24.8183898,40.9326829 L24.6821186,40.9326829 C25.5678814,41.3473171 26.4195763,41.8282927 27.135,42.342439 L27.1690678,42.1434146 C28.3273729,42.9063415 29.3494068,43.4204878 30.15,43.8185366 C30.3544068,43.884878 30.5928814,44.1170732 30.7461864,44.0507317 C30.8483898,43.8019512 30.9335593,43.5697561 31.0357627,43.3209756 C31.2401695,42.8234146 31.4616102,42.3258537 31.7852542,41.7121951 L31.8022881,41.7785366 C31.9215254,41.3141463 32.0237288,40.9492683 32.1088983,40.6341463 C32.16,40.4019512 32.2451695,40.1863415 32.3133051,39.9873171 C32.4666102,39.5892683 32.6539831,39.2078049 32.8413559,38.8429268 C33.2161017,38.0965854 33.5908475,37.3502439 33.7100847,36.2721951 C33.6760169,36.537561 33.8463559,36.1892683 33.8804237,36.2390244 C34.1529661,35.2936585 34.4595763,34.2985366 34.0848305,34.1658537 C34.3062712,33.4858537 34.3914407,33.6517073 34.5617797,33.6019512 C34.3914407,33.5521951 34.5277119,32.9385366 34.6810169,32.4078049 L34.6639831,32.6731707 L35.0898305,31.1307317 L34.6980508,31.3463415 C35.0387288,30.5668293 35.1409322,31.2468293 35.2942373,30.4507317 L35.0387288,30.3843902 C35.4305085,29.2897561 36.009661,28.7258537 36.5036441,27.6809756 C37.8833898,23.2195122 38.5136441,17.7960976 37.1338983,13.1521951 L37.2361017,12.8868293 C37.4916102,12.6712195 36.2992373,11.8419512 36.4525424,11.5931707 L36.0607627,11.1785366 C36.0266949,11.0292683 35.9074576,10.7141463 36.1118644,10.9131707 C35.8563559,10.4653659 35.8052542,10.4819512 35.5327119,10.2331707 L35.3794068,9.68585366 C34.3062712,7.97756098 32.8754237,6.99902439 31.3934746,5.60585366 C30.5928814,4.6604878 29.1620339,3.51609756 27.4416102,2.68682927 C25.7382203,1.84097561 23.779322,1.39317073 22.3484746,1.36 C20.3555085,1.34341463 18.2433051,1.42634146 16.1481356,1.9404878 C14.07,2.43804878 12.06,3.3502439 10.6121186,4.7102439 C10.4928814,4.76 10.2714407,5.02536585 10.3055085,5.04195122 C9.35161017,5.75512195 8.46584746,6.51804878 7.61415254,7.33073171 C7.61415254,7.33073171 6.84762712,8.0604878 5.94483051,9.10536585 C5.0420339,10.1502439 4.0370339,11.4770732 3.35567797,12.555122 C2.0270339,14.7443902 1.85669492,15.7560976 6.66025424,11.7258537 L6.66025424,11.8253659 C7.95483051,10.5482927 8.72135593,9.75219512 9.38567797,8.67414634 C9.79449153,8.80682927 10.4758475,7.71219512 10.884661,7.5297561 L10.8676271,7.5795122 C11.5149153,6.65073171 12.7583898,6.41853659 13.4738136,5.67219512 C13.4567797,5.72195122 13.4908475,5.82146341 13.3034746,5.95414634 C13.899661,5.52292683 14.7683898,4.97560976 14.9216949,5.15804878 C16.4717797,4.27902439 18.8394915,3.79804878 19.929661,3.4 L19.8615254,3.46634146 C20.4747458,3.18439024 20.6791525,3.36682927 21.3945763,3.26731707 C21.4286441,3.3004878 21.4797458,3.31707317 21.4797458,3.33365854 C22.1951695,3.11804878 23.4897458,3.54926829 24.0518644,3.64878049 L24.0348305,3.79804878 C24.4777119,3.93073171 24.9205932,4.08 25.3464407,4.24585366 C25.1931356,4.16292683 25.0398305,4.08 24.8694915,4.01365854 C25.2101695,3.69853659 25.7382203,4.62731707 26.7432203,4.90926829 C27.5267797,5.42341463 28.9065254,5.29073171 29.6049153,6.10341463 C30.1159322,6.26926829 29.0598305,6.0702439 29.7241525,6.41853659 C29.6049153,6.60097561 29.3664407,6.30243902 29.4005085,6.55121951 C30.0137288,6.93268293 30.15,7.46341463 30.8994915,7.97756098 L30.814322,8.12682927 C31.8704237,8.70731707 32.1429661,9.80195122 32.8413559,10.2 C33.6589831,11.0458537 32.9265254,11.0790244 33.8463559,11.8917073 L33.8804237,12.3892683 C34.0848305,12.8370732 34.3062712,12.5717073 34.4595763,13.102439 C34.3233051,13.1356098 34.6299153,13.7658537 34.3914407,13.5336585 C34.6639831,14.6780488 35.5327119,15.7726829 35.2601695,17.4478049 C35.5667797,17.7795122 35.4134746,18.6087805 35.6008475,18.8907317 C35.4986441,18.9239024 35.4645763,20.5658537 35.2772034,19.6204878 C35.2601695,19.537561 35.2772034,19.404878 35.3283051,19.404878 L35.175,19.2887805 C34.8002542,20.1843902 35.1920339,21.0136585 34.9705932,21.9590244 C35.0727966,21.6936585 35.1238983,21.3121951 35.1920339,21.577561 L35.004661,22.4565854 L34.9024576,22.2409756 L34.5447458,23.5346341 L34.7491525,23.3853659 C34.510678,24.0156098 34.17,24.164878 34.2381356,24.9443902 C34.2892373,25.3092683 34.6128814,24.3804878 34.4936441,25.0770732 C34.1529661,25.9063415 33.6249153,27.1834146 33.2501695,28.2614634 C33.4716102,28.2117073 33.3694068,28.5102439 33.3183051,28.8253659 L33.1479661,28.8087805 C33.0287288,30.0360976 32.6710169,29.1404878 32.500678,30.3512195 L32.4155085,30.2185366 L32.6539831,30.6165854 C32.6539831,31.7609756 32.1429661,31.0809756 32.2111017,32.3746341 C32.330339,31.9102439 32.6369492,32.275122 32.3814407,32.8058537 L32.2792373,32.6068293 C32.2111017,32.9219512 32.2451695,33.0546341 32.1429661,33.2536585 C32.1259322,33.0380488 31.9555932,33.0878049 31.819322,33.5521951 L31.7341525,33.1873171 L31.7341525,34.1326829 C31.3423729,34.7463415 31.1890678,35.857561 30.8654237,36.0565854 C30.8654237,36.0565854 30.2522034,37.4331707 30.3544068,37.8478049 C30.320339,37.5160976 29.9626271,38.2790244 29.8774576,37.9804878 C29.8944915,38.1960976 29.8263559,38.577561 29.7241525,38.9590244 C29.6730508,39.1414634 29.6049153,39.3404878 29.5367797,39.5063415 C29.5027119,39.5892683 29.4516102,39.6721951 29.4175424,39.7219512 C29.4005085,39.7385366 29.3834746,39.7385366 29.3494068,39.7385366 L29.3323729,39.7219512 C29.2642373,39.755122 29.2472034,39.7882927 29.2301695,39.8380488 C29.2131356,39.8712195 29.2642373,40.0370732 29.1620339,39.9873171 C29.0087288,39.9707317 28.8383898,39.937561 28.6169492,39.6887805 C28.5828814,39.8878049 27.9355932,39.3736585 27.969661,39.6887805 C26.4536441,39.075122 25.7722881,37.7317073 24.8524576,38.0468293 C24.2051695,37.6819512 24.2392373,37.4165854 23.949661,37.1678049 L24.12,37.2341463 C22.9787288,36.4878049 22.6210169,36.2887805 21.8374576,35.6585366 C21.3945763,35.4097561 21.105,35.6419512 20.4236441,35.0282927 C20.7472881,35.0946341 20.4236441,34.8956098 20.1681356,34.68 C20.3555085,34.7960976 20.440678,34.7960976 20.1511017,34.4478049 C20.0829661,34.4478049 19.9807627,34.3980488 19.8955932,34.364878 C19.8955932,34.3482927 19.8955932,34.3317073 19.9126271,34.3317073 C19.435678,34.0165854 19.4867797,34.0995122 19.6741525,34.2819512 C19.6571186,34.2985366 19.6571186,34.3317073 19.6911864,34.4146341 C19.3505085,33.9004878 18.4136441,33.3863415 18.5158475,33.1541463 C17.1872034,32.0760976 16.1140678,31.4458537 15.0238983,30.5336585 C14.9898305,30.3346341 15.3134746,30.4839024 15.6541525,30.7326829 L14.8876271,30.0692683 C15.0238983,29.9531707 15.3816102,30.4009756 15.6371186,30.5834146 C14.9727966,29.5717073 13.6611864,29.057561 12.894661,27.8634146 L12.5880508,27.7473171 L12.5539831,27.6643902 C12.5028814,27.7141463 12.2133051,27.5482927 12.0429661,27.4156098 C12.0259322,27.1668293 12.3325424,27.1834146 11.8555932,26.6858537 C11.6000847,26.1882927 10.7824576,25.5580488 10.2544068,25.0604878 C10.4928814,25.3756098 10.3395763,25.3258537 10.1862712,25.2429268 C9.94779661,24.977561 9.94779661,24.7287805 9.72635593,24.5629268 L9.87966102,24.4136585 C9.81152542,24.6458537 9.14720339,23.8331707 8.99389831,23.7834146 C8.99389831,23.5346341 9.43677966,24.115122 9.59008475,24.115122 C8.72135593,23.0370732 9.13016949,23.5843902 8.27847458,22.4897561 C7.71635593,21.9921951 8.19330508,22.7219512 7.83559322,22.5395122 C7.40974576,22.0419512 6.89872881,21.6107317 6.57508475,20.9141463 L6.55805085,21.2126829 C5.74042373,20.2673171 5.31457627,19.6536585 5.0420339,18.857561 C1.94186441,15.3580488 1.31161017,15.0760976 1.31161017,15.8390244 C1.36271186,16.5853659 2.18033898,18.2770732 2.18033898,18.2770732 C3.83262712,21.6936585 5.39974576,23.0204878 8.29550847,26.3541463 Z" id="Path"></path>
            </g>
            <g id="Group" transform="translate(103.906780, 8.292683)">
                <path d="M3.52601695,6.48487805 L3.47491525,6.55121951 C3.50898305,6.53463415 3.52601695,6.50146341 3.52601695,6.48487805 Z" id="Path"></path>
                <path d="M4.44584746,3.99707317 C4.44584746,3.99707317 4.42881356,3.99707317 4.42881356,3.99707317 C4.42881356,3.99707317 4.44584746,3.99707317 4.44584746,3.99707317 Z" id="Path"></path>
                <polygon id="Path" points="2.57211864 9.63609756 2.57211864 9.63609756 2.53805085 9.63609756"></polygon>
                <path d="M0.987966102,6.68390244 C1.15830508,7.54634146 0.970932203,7.94439024 1.60118644,8.65756098 C1.83966102,9.05560976 2.21440678,9.37073171 2.55508475,9.63609756 C2.89576271,9.5697561 2.9809322,10.0341463 3.33864407,9.98439024 L3.32161017,10.1668293 C3.44084746,10.1502439 3.54305085,10.1668293 3.56008475,10.2829268 L3.52601695,10.3160976 C3.69635593,10.2829268 3.78152542,10.4156098 3.91779661,10.4321951 L3.88372881,10.4653659 L4.08813559,10.564878 L4.02,10.5980488 C4.36067797,10.6478049 4.63322034,10.7307317 4.87169492,10.88 L4.88872881,10.6809756 C5.38271186,11.1287805 5.58711864,10.697561 6.0640678,11.0956098 L6.0640678,11.1453659 C6.31957627,10.9131707 6.54101695,11.0292683 6.81355932,11.1453659 C7.0690678,11.2614634 7.40974576,11.377561 7.58008475,11.1453659 C7.54601695,11.195122 7.66525424,11.244878 7.69932203,11.2946341 C7.86966102,11.3443902 7.83559322,11.062439 7.86966102,10.9297561 C7.86966102,10.7639024 7.83559322,10.6146341 7.69932203,10.4321951 C7.78449153,10.2663415 7.85262712,10.3990244 7.95483051,10.515122 C7.83559322,10.3658537 7.85262712,10.1668293 7.90372881,10.0341463 L7.92076271,10.1502439 C7.97186441,10.017561 8.0059322,9.86829268 8.0229661,9.71902439 L7.75042373,9.5697561 C7.88669492,9.43707317 8.0740678,9.78536585 8.0740678,9.53658537 L7.85262712,9.37073171 C7.95483051,9.13853659 8.39771186,9.22146341 8.65322034,8.95609756 C8.72135593,8.60780488 8.75542373,8.24292683 8.75542373,7.87804878 C8.75542373,7.69560976 8.68728814,7.51317073 8.67025424,7.34731707 C8.63618644,7.21463415 8.60211864,7.08195122 8.56805085,6.96585366 C8.38067797,6.46829268 8.22737288,6.00390244 8.27847458,5.4897561 L8.44881356,5.3902439 C8.72135593,5.27414634 7.95483051,5.29073171 8.19330508,5.17463415 L8.0229661,5.12487805 C8.0570339,5.07512195 8.0740678,4.99219512 8.15923729,5.02536585 C8.12516949,4.92585366 8.0740678,4.94243902 7.97186441,4.92585366 L8.09110169,4.74341463 C8.04,4.31219512 7.54601695,4.19609756 7.37567797,3.81463415 C7.39271186,3.18439024 6.43881356,2.65365854 5.91076271,2.47121951 C5.46788136,2.40487805 5.28050847,2.02341463 4.97389831,1.67512195 C4.70135593,1.29365854 4.30957627,0.995121951 3.83262712,1.06146341 C3.81559322,1.01170732 3.73042373,1.07804878 3.71338983,1.11121951 L2.96389831,0.895609756 C2.96389831,0.895609756 1.9929661,0.713170732 1.44788136,1.06146341 C1.17533898,1.21073171 1.0220339,1.44292683 1.12423729,1.75804878 C1.20940678,2.07317073 1.56711864,2.47121951 1.9929661,3.05170732 L1.9759322,3.11804878 C2.23144068,3.3004878 2.35067797,3.31707317 2.58915254,3.05170732 C2.53805085,3.43317073 2.79355932,3.13463415 2.82762712,3.28390244 L2.81059322,3.31707317 C3.06610169,3.06829268 3.0320339,3.63219512 3.27050847,3.4497561 C3.25347458,3.48292683 3.20237288,3.56585366 3.16830508,3.56585366 C3.28754237,3.56585366 3.45788136,3.53268293 3.37271186,3.74829268 C3.62822034,3.81463415 3.88372881,4.06341463 4.24144068,3.89756098 L4.19033898,3.94731707 C4.41177966,3.81463415 4.30957627,3.99707317 4.47991525,3.96390244 C4.46288136,3.99707317 4.46288136,4.01365854 4.46288136,4.01365854 C4.71838983,3.89756098 4.73542373,4.19609756 4.87169492,4.19609756 L4.76949153,4.31219512 L4.95686441,4.44487805 L4.92279661,4.36195122 C5.24644068,4.11317073 4.87169492,4.64390244 5.16127119,4.59414634 C5.21237288,4.74341463 6.0470339,4.31219512 5.9959322,4.57756098 C6.20033898,4.52780488 5.68932203,4.7102439 5.89372881,4.7102439 C5.72338983,4.84292683 5.74042373,4.74341463 5.62118644,4.8595122 C5.77449153,4.89268293 5.53601695,5.14146341 5.74042373,5.17463415 L5.60415254,5.27414634 C5.96186441,5.27414634 5.60415254,5.65560976 5.91076271,5.63902439 C6.11516949,5.75512195 5.51898305,5.97073171 5.89372881,5.98731707 L5.72338983,6.13658537 C5.72338983,6.2195122 6.0129661,6.0702439 5.94483051,6.20292683 C5.80855932,6.25268293 5.87669492,6.35219512 5.72338983,6.35219512 C5.55305085,6.60097561 6.18330508,6.61756098 5.84262712,6.94926829 C6.13220339,6.93268293 5.9959322,7.09853659 6.20033898,7.09853659 C6.08110169,7.13170732 6.23440678,7.34731707 5.94483051,7.24780488 C5.92779661,7.24780488 5.92779661,7.21463415 5.96186441,7.21463415 L5.79152542,7.23121951 C5.51898305,7.39707317 5.97889831,7.4302439 5.94483051,7.5795122 C5.9959322,7.54634146 5.97889831,7.48 6.09813559,7.51317073 C6.09813559,7.56292683 6.08110169,7.5795122 6.08110169,7.59609756 L5.94483051,7.59609756 C5.92779661,7.61268293 5.89372881,7.64585366 5.87669492,7.64585366 L6.0470339,7.64585366 C5.96186441,7.67902439 5.65525424,7.61268293 5.91076271,7.69560976 C6.0470339,7.74536585 6.14923729,7.71219512 6.20033898,7.76195122 C6.08110169,7.79512195 5.89372881,7.77853659 5.84262712,7.77853659 C6.03,7.87804878 6.0129661,7.89463415 6.0470339,7.92780488 L5.89372881,7.82829268 C6.09813559,8.02731707 5.53601695,7.5795122 5.70635593,7.74536585 L5.60415254,7.64585366 L5.92779661,7.92780488 C6.21737288,8.2595122 5.62118644,7.62926829 5.9959322,8.09365854 C5.97889831,8.04390244 6.31957627,8.44195122 6.23440678,8.40878049 L6.09813559,8.24292683 C6.11516949,8.29268293 6.16627119,8.37560976 6.13220339,8.35902439 C6.0640678,8.2595122 5.94483051,8.1102439 5.96186441,8.16 L5.80855932,7.92780488 C5.89372881,8.04390244 5.96186441,8.16 6.03,8.29268293 C5.89372881,8.14341463 5.97889831,8.39219512 5.82559322,8.1102439 C5.82559322,8.1102439 5.72338983,7.97756098 5.80855932,8.27609756 C5.75745763,8.09365854 5.68932203,8.01073171 5.63822034,7.79512195 C5.70635593,8.01073171 5.68932203,8.16 5.63822034,7.94439024 L5.63822034,7.92780488 C5.60415254,7.71219512 5.55305085,8.19317073 5.51898305,7.91121951 C5.48491525,8.1102439 5.46788136,7.99414634 5.41677966,8.24292683 C5.33161017,8.34243902 5.31457627,8.19317073 5.33161017,8.12682927 C5.34864407,8.0604878 5.33161017,8.0604878 5.07610169,8.34243902 C4.95686441,8.32585366 5.07610169,8.12682927 5.0590678,8.0604878 L5.11016949,8.04390244 C4.92279661,7.97756098 4.85466102,7.96097561 4.76949153,7.84487805 C4.66728814,7.84487805 4.41177966,8.09365854 4.36067797,7.94439024 C4.49694915,7.87804878 4.42881356,7.86146341 4.39474576,7.82829268 C4.42881356,7.82829268 4.47991525,7.81170732 4.49694915,7.69560976 C4.46288136,7.71219512 4.42881356,7.72878049 4.39474576,7.72878049 L4.41177966,7.69560976 C4.32661017,7.66243902 4.29254237,7.71219512 4.30957627,7.74536585 C4.29254237,7.76195122 4.27550847,7.77853659 4.25847458,7.81170732 C4.34364407,7.62926829 4.08813559,7.62926829 4.25847458,7.46341463 C4.0540678,7.31414634 3.74745763,7.29756098 3.52601695,7.16487805 C3.62822034,7.08195122 3.74745763,7.06536585 3.81559322,7.09853659 C3.76449153,7.06536585 3.73042373,7.03219512 3.69635593,6.99902439 C3.84966102,6.91609756 3.83262712,7.01560976 3.88372881,7.03219512 C4.0540678,6.73365854 3.42381356,6.86634146 3.59415254,6.55121951 L3.44084746,6.56780488 L3.45788136,6.55121951 C3.38974576,6.58439024 3.27050847,6.58439024 3.23644068,6.55121951 C3.37271186,6.46829268 3.57711864,6.41853659 3.52601695,6.31902439 C3.62822034,6.20292683 3.38974576,6.13658537 3.27050847,6.05365854 C3.27050847,6.12 3.16830508,6.12 3.11720339,6.12 C3.10016949,6.0702439 3.23644068,6.00390244 3.16830508,5.98731707 L3.37271186,5.92097561 C3.18533898,5.98731707 3.13423729,5.85463415 3.0490678,5.83804878 C3.20237288,5.77170732 3.20237288,5.88780488 3.32161017,5.87121951 C3.27050847,5.67219512 3.28754237,5.77170732 3.23644068,5.58926829 C3.0490678,5.50634146 3.0320339,5.63902439 2.84466102,5.62243902 C2.77652542,5.52292683 2.64025424,5.44 2.74245763,5.30731707 L2.55508475,5.35707317 C2.38474576,5.15804878 2.40177966,5.02536585 2.60618644,4.89268293 C1.89076271,4.06341463 1.48194915,3.71512195 1.10720339,3.79804878 C0.749491525,3.86439024 0.528050847,4.31219512 0.528050847,4.31219512 C-1.66533454e-16,5.24097561 0.596186441,5.77170732 0.987966102,6.68390244 Z" id="Path"></path>
            </g>
            <g id="Group" transform="translate(114.127119, 4.975610)">
                <path d="M3.13423729,5.30731707 L3.06610169,5.37365854 C3.11720339,5.35707317 3.13423729,5.3404878 3.13423729,5.30731707 Z" id="Path"></path>
                <path d="M5.94483051,3.74829268 C5.94483051,3.74829268 5.92779661,3.74829268 5.92779661,3.74829268 C5.94483051,3.74829268 5.94483051,3.74829268 5.94483051,3.74829268 Z" id="Path"></path>
                <polygon id="Path" points="1.55008475 8.17658537 1.55008475 8.16 1.51601695 8.16"></polygon>
                <path d="M0.613220339,5.20780488 C0.664322034,5.93756098 0.340677966,6.26926829 0.80059322,7.03219512 C0.936864407,7.4302439 1.22644068,7.81170732 1.55008475,8.16 C1.89076271,8.16 1.92483051,8.60780488 2.26550847,8.62439024 L2.21440678,8.80682927 C2.33364407,8.80682927 2.45288136,8.84 2.45288136,8.95609756 L2.41881356,8.98926829 C2.58915254,8.98926829 2.65728814,9.12195122 2.74245763,9.12195122 L2.70838983,9.15512195 L2.84466102,9.23804878 L2.77652542,9.27121951 C3.0320339,9.30439024 3.23644068,9.40390244 3.38974576,9.55317073 L3.47491525,9.37073171 C3.76449153,9.76878049 4.07110169,9.45365854 4.36067797,9.81853659 L4.34364407,9.86829268 C4.93983051,9.50341463 5.14423729,10.3990244 5.75745763,9.88487805 C5.68932203,9.95121951 5.79152542,9.98439024 5.79152542,10.0341463 C6.0640678,9.95121951 6.33661017,9.86829268 6.23440678,9.48682927 C6.40474576,9.45365854 6.40474576,9.5697561 6.47288136,9.70243902 C6.42177966,9.55317073 6.54101695,9.4204878 6.67728814,9.37073171 L6.64322034,9.45365854 C6.76245763,9.38731707 6.88169492,9.32097561 6.98389831,9.23804878 L6.77949153,8.98926829 C6.98389831,8.97268293 7.0009322,9.30439024 7.13720339,9.13853659 L7.0009322,8.92292683 C7.25644068,8.84 7.61415254,9.05560976 7.98889831,8.97268293 C8.49991525,8.57463415 8.70432203,7.94439024 8.80652542,7.41365854 C8.90872881,6.86634146 8.92576271,6.38536585 9.18127119,5.92097561 L9.38567797,5.88780488 C9.67525424,5.87121951 8.95983051,5.62243902 9.21533898,5.57268293 L9.0790678,5.47317073 C9.13016949,5.44 9.18127119,5.37365854 9.24940678,5.42341463 C9.24940678,5.32390244 9.19830508,5.32390244 9.11313559,5.25756098 L9.28347458,5.12487805 C9.36864407,4.67707317 8.92576271,4.39512195 8.84059322,3.9804878 C8.95983051,3.28390244 8.12516949,2.6702439 7.63118644,2.43804878 C6.86466102,2.23902439 6.98389831,0.862439024 6.08110169,0.862439024 C6.08110169,0.812682927 5.97889831,0.862439024 5.96186441,0.87902439 L5.46788136,0.514146341 C5.43381356,0.464390244 3.06610169,-0.96195122 3.69635593,2.10634146 L3.64525424,2.15609756 C3.83262712,2.43804878 3.96889831,2.55414634 4.30957627,2.38829268 C4.12220339,2.72 4.49694915,2.55414634 4.47991525,2.68682927 L4.46288136,2.70341463 C4.78652542,2.55414634 4.61618644,3.10146341 4.90576271,2.98536585 C4.88872881,3.00195122 4.82059322,3.08487805 4.78652542,3.06829268 C4.90576271,3.10146341 5.09313559,3.11804878 4.95686441,3.3004878 C5.21237288,3.41658537 5.41677966,3.73170732 5.79152542,3.59902439 L5.74042373,3.63219512 C5.97889831,3.53268293 5.85966102,3.69853659 6.0129661,3.68195122 C5.9959322,3.69853659 5.9959322,3.71512195 5.97889831,3.73170732 C6.23440678,3.64878049 6.21737288,3.93073171 6.33661017,3.93073171 L6.21737288,4.0302439 L6.37067797,4.16292683 L6.35364407,4.08 C6.71135593,3.86439024 6.23440678,4.34536585 6.54101695,4.32878049 C6.55805085,4.46146341 7.46084746,4.16292683 7.34161017,4.41170732 C7.54601695,4.39512195 7.035,4.47804878 7.20533898,4.52780488 C7.0009322,4.61073171 7.0690678,4.54439024 6.91576271,4.62731707 C7.0520339,4.67707317 6.77949153,4.84292683 6.94983051,4.90926829 L6.79652542,4.95902439 C7.15423729,5.00878049 6.64322034,5.27414634 6.96686441,5.29073171 C7.12016949,5.42341463 6.48991525,5.45658537 6.83059322,5.57268293 L6.60915254,5.63902439 C6.57508475,5.70536585 6.89872881,5.67219512 6.77949153,5.73853659 C6.64322034,5.73853659 6.66025424,5.82146341 6.52398305,5.78829268 C6.30254237,5.90439024 6.83059322,6.12 6.42177966,6.25268293 C6.67728814,6.35219512 6.50694915,6.40195122 6.69432203,6.48487805 C6.57508475,6.45170732 6.60915254,6.66731707 6.38771186,6.48487805 C6.37067797,6.46829268 6.37067797,6.45170732 6.42177966,6.46829268 L6.26847458,6.40195122 C5.94483051,6.38536585 6.37067797,6.60097561 6.28550847,6.68390244 C6.35364407,6.68390244 6.35364407,6.63414634 6.43881356,6.71707317 C6.42177966,6.73365854 6.40474576,6.76682927 6.38771186,6.78341463 L6.26847458,6.7004878 L6.13220339,6.7502439 L6.28550847,6.83317073 C6.18330508,6.8497561 5.92779661,6.68390244 6.09813559,6.86634146 C6.18330508,6.96585366 6.31957627,6.96585366 6.31957627,7.04878049 C6.18330508,7.04878049 5.97889831,6.99902439 5.91076271,6.98243902 C6.03,7.13170732 6.0129661,7.13170732 6.03,7.18146341 L5.92779661,7.04878049 C5.9959322,7.28097561 5.70635593,6.7502439 5.75745763,6.93268293 L5.70635593,6.83317073 L5.85966102,7.14829268 C5.92779661,7.48 5.68932203,6.83317073 5.79152542,7.28097561 C5.80855932,7.24780488 5.92779661,7.61268293 5.85966102,7.56292683 L5.82559322,7.41365854 C5.80855932,7.46341463 5.82559322,7.51317073 5.79152542,7.49658537 C5.79152542,7.41365854 5.74042373,7.26439024 5.70635593,7.29756098 L5.67228814,7.09853659 C5.68932203,7.19804878 5.68932203,7.29756098 5.68932203,7.39707317 C5.62118644,7.23121951 5.55305085,7.46341463 5.51898305,7.23121951 C5.51898305,7.23121951 5.43381356,7.11512195 5.38271186,7.36390244 C5.41677966,7.21463415 5.36567797,7.14829268 5.41677966,6.98243902 C5.38271186,7.14829268 5.24644068,7.28097561 5.26347458,7.08195122 L5.28050847,7.06536585 C5.22940678,6.86634146 4.95686441,7.23121951 4.92279661,6.94926829 C4.83762712,7.11512195 4.82059322,6.98243902 4.70135593,7.21463415 C4.39474576,7.31414634 4.75245763,6.65073171 4.20737288,7.18146341 C4.10516949,7.14829268 4.24144068,6.98243902 4.24144068,6.91609756 L4.29254237,6.8995122 C4.13923729,6.83317073 4.08813559,6.8 4.0370339,6.7004878 C3.95186441,6.7004878 3.64525424,6.91609756 3.64525424,6.76682927 C3.78152542,6.71707317 3.73042373,6.68390244 3.71338983,6.65073171 C3.74745763,6.66731707 3.79855932,6.63414634 3.84966102,6.53463415 C3.81559322,6.55121951 3.78152542,6.55121951 3.74745763,6.56780488 C3.76449153,6.56780488 3.76449153,6.55121951 3.78152542,6.55121951 C3.69635593,6.51804878 3.66228814,6.55121951 3.66228814,6.58439024 C3.64525424,6.60097561 3.62822034,6.61756098 3.59415254,6.63414634 C3.71338983,6.46829268 3.47491525,6.46829268 3.67932203,6.33560976 C3.52601695,6.1697561 3.21940678,6.12 3.0490678,5.95414634 C3.15127119,5.88780488 3.28754237,5.90439024 3.35567797,5.93756098 L3.27050847,5.82146341 C3.44084746,5.77170732 3.38974576,5.87121951 3.44084746,5.88780488 C3.66228814,5.65560976 3.0490678,5.65560976 3.25347458,5.3902439 L3.10016949,5.3902439 L3.11720339,5.37365854 C3.0490678,5.3902439 2.92983051,5.37365854 2.89576271,5.3404878 C3.0490678,5.27414634 3.25347458,5.25756098 3.21940678,5.15804878 C3.35567797,5.05853659 3.10016949,4.95902439 2.9979661,4.8595122 C2.9809322,4.92585366 2.89576271,4.92585366 2.82762712,4.90926829 C2.81059322,4.8595122 2.96389831,4.8097561 2.89576271,4.77658537 L3.10016949,4.74341463 C2.89576271,4.79317073 2.86169492,4.64390244 2.77652542,4.62731707 C2.92983051,4.57756098 2.92983051,4.69365854 3.0490678,4.69365854 C2.9979661,4.47804878 3.0320339,4.59414634 2.9809322,4.37853659 C2.81059322,4.27902439 2.77652542,4.42829268 2.58915254,4.39512195 C2.53805085,4.29560976 2.36771186,4.21268293 2.48694915,4.06341463 L2.29957627,4.11317073 C2.12923729,3.93073171 2.14627119,3.79804878 2.33364407,3.64878049 C0.698389831,2.18926829 0.20440678,3.43317073 0.20440678,3.43317073 C-0.221440678,4.09658537 0.340677966,4.41170732 0.613220339,5.20780488 Z" id="Path"></path>
            </g>
        </g>
    </g>
</svg>